<svg width="102" height="83" viewBox="0 0 102 83" fill="none" xmlns="http://www.w3.org/2000/svg">
<path d="M50.861 82.8133C41.1006 82.8133 31.3394 82.8133 21.5773 82.8133C15.7073 82.8133 11.174 78.1489 11.4356 72.2801C11.5201 70.39 11.9032 68.5105 12.17 66.6309C12.7829 62.3478 13.3852 58.062 14.0377 53.7814C14.5819 50.2183 16.7217 48.0238 20.0846 46.9358C22.1452 46.266 24.2666 45.7366 26.2558 44.8948C32.7809 42.1311 36.3129 37.0749 37.1899 30.089C37.2401 29.6892 37.2877 29.2948 37.3247 28.8924C37.4356 27.7409 37.182 27.8786 38.4712 27.6933C43.4905 26.9759 48.5574 26.8488 53.6164 27.0262C56.9608 27.1426 60.2947 27.5106 63.6338 27.7436C64.2044 27.7859 64.3498 28.048 64.3894 28.5801C64.6773 32.2994 65.5728 35.8281 67.7761 38.9174C70.0823 42.147 73.2736 44.1694 76.9271 45.5063C78.4276 46.0569 79.9915 46.4354 81.5211 46.904C85.0082 47.9629 87.177 50.2368 87.7133 53.9058C88.5798 59.8382 89.4859 65.768 90.2335 71.7162C90.9706 77.6009 86.2841 82.7895 80.3349 82.8106C73.2735 82.8318 66.2095 82.8106 59.1455 82.8106L50.861 82.8133ZM50.8953 70.0644C58.0043 70.0352 63.7025 64.3491 63.6708 57.3154C63.6391 50.2818 57.8986 44.6724 50.8319 44.6856C49.1514 44.6814 47.4866 45.0104 45.9335 45.6536C44.3804 46.2969 42.9696 47.2416 41.7824 48.4335C40.5952 49.6254 39.655 51.0408 39.016 52.5984C38.377 54.1559 38.0518 55.8247 38.0591 57.5087C38.0776 64.447 43.8577 70.0908 50.8953 70.0644Z" fill="#4D7CC1"/>
<path d="M50.8323 0.615723C60.3426 0.658078 69.7155 1.74343 78.8348 4.54152C84.2002 6.18808 89.3383 8.34025 94.0063 11.5116C96.1197 12.9411 98.0482 14.5612 99.5883 16.6128C100.767 18.1746 101.438 19.882 101.372 21.8939C101.298 24.4723 101.321 27.0454 100.722 29.5708C99.6068 34.2722 96.759 36.7765 91.959 36.9247C87.7914 37.0419 83.6473 36.261 79.8069 34.6349C76.3912 33.216 74.682 30.5847 74.542 26.913C74.4891 25.4782 74.4548 24.0408 74.4997 22.606C74.5446 21.1712 73.9238 20.0885 72.7957 19.2679C71.2979 18.1773 69.5676 17.6319 67.8002 17.2084C63.9882 16.2898 60.1022 15.9827 56.2003 15.8477C50.1243 15.6359 44.0483 15.6624 38.0198 16.4592C35.2777 16.8219 32.554 17.309 30.0576 18.577C29.4795 18.8803 28.938 19.2489 28.4435 19.6756C28.0479 20.0113 27.7334 20.4325 27.5234 20.9075C27.3134 21.3824 27.2134 21.8989 27.2309 22.4181C27.2177 24.2526 27.231 26.095 27.0645 27.9216C26.8004 30.8468 25.255 32.9513 22.6555 34.2749C20.373 35.4423 17.9162 36.0194 15.4144 36.4456C13.3354 36.7977 11.251 37.0968 9.12706 36.8824C4.90027 36.4562 2.25852 34.2352 1.12785 30.1082C0.390807 27.408 0.409299 24.6417 0.33533 21.8754C0.282496 19.8106 0.977274 18.0767 2.18455 16.4883C3.62805 14.6639 5.34643 13.0759 7.27784 11.7816C12.4451 8.18407 18.1909 5.86247 24.1982 4.13121C32.9133 1.64813 41.8107 0.660725 50.8323 0.615723Z" fill="#4D7CC1"/>
</svg>
