<svg width="82" height="79" viewBox="0 0 82 79" fill="none" xmlns="http://www.w3.org/2000/svg">
<path d="M58.3146 78.8457C56.8802 78.2655 56.4386 77.2023 56.4616 75.7481C56.5229 71.8761 56.4897 68.0041 56.4616 64.1321C56.4479 63.8945 56.4897 63.6569 56.5836 63.4382C56.6775 63.2195 56.821 63.0257 57.0027 62.8721C59.471 60.6103 60.8315 57.8347 60.8621 54.5352C60.9055 50.9699 60.9667 47.3995 60.8391 43.8393C60.6068 37.3707 57.6 32.3052 52.1249 28.5993C51.6144 28.2543 51.4561 27.9629 51.5684 27.3674C52.8294 20.7633 57.8705 16.145 64.8414 15.2428C64.9358 15.2428 65.0252 15.1917 65.3519 15.0972C62.9959 14.586 61.2679 13.5279 60.0887 11.721C59.5253 10.8805 59.1553 9.92524 59.0052 8.92421C58.8552 7.92317 58.9288 6.90127 59.2208 5.93218C60.1525 2.57134 63.3048 0.398939 66.9446 0.628958C70.7197 0.864088 73.5275 3.4403 73.9767 7.01838C74.3417 9.94218 72.8 13.8755 67.6134 15.1253C68.2566 15.2301 68.7084 15.2991 69.1449 15.3809C75.6614 16.5565 80.5366 21.4585 81.4453 27.7457C81.4802 27.9194 81.528 28.0902 81.5883 28.2568V47.972C81.5296 48.1356 81.458 48.294 81.4146 48.4602C80.8097 50.7757 79.4186 52.4855 77.1469 53.4541C76.5981 53.6893 76.4935 53.9653 76.4935 54.4764C76.5063 61.5789 76.4782 68.684 76.5241 75.7864C76.5241 77.256 76.0596 78.2936 74.6123 78.8534L58.3146 78.8457Z" fill="#F6611A"/>
<path d="M32.9431 78.8452C31.501 78.3519 30.9318 77.368 31.0032 75.901C31.0798 74.3522 31.0033 72.7957 31.039 71.2443C31.0616 70.9038 31.2088 70.5835 31.4525 70.3447C33.8926 68.1237 35.2301 65.407 35.4088 62.1867C35.6385 58.0157 35.2301 53.952 33.1116 50.1925C31.552 47.3962 29.33 45.0265 26.6411 43.2919C26.1995 43.0057 26.0131 42.7654 26.0974 42.2006C27.052 35.7217 32.9559 30.3904 39.743 29.9329C39.863 29.9329 39.9829 29.9125 40.1846 29.892C35.1638 28.379 33.0146 25.5932 33.6145 21.458C34.125 17.8799 37.2671 15.3011 41.1213 15.2935C44.6591 15.2935 47.9186 17.9438 48.4827 21.3021C49.1668 25.3657 46.9895 28.2844 42.1449 29.8613C48.3678 30.6 52.8219 33.6771 55.2085 39.3816C55.8515 40.9694 56.1709 42.67 56.1478 44.3832C56.1478 47.6444 56.1707 50.903 56.1478 54.1616C56.1146 57.3282 54.5448 59.5747 51.5737 60.8833C51.099 61.0928 51.0632 61.3586 51.0632 61.7624C51.0632 66.4727 51.0352 71.183 51.0888 75.8933C51.1067 77.3552 50.591 78.3443 49.1463 78.8375L32.9431 78.8452Z" fill="#F6611A"/>
<path d="M7.41314 78.8458C5.96332 78.2989 5.45283 77.2612 5.50388 75.7789C5.5779 73.5656 5.50391 71.3472 5.5371 69.1339C5.5371 68.6227 5.35841 68.4055 4.88364 68.1857C2.05549 66.8848 0.544383 64.7022 0.444836 61.6761C0.350394 58.944 0.383609 56.2145 1.56286 53.6485C3.89583 48.5753 7.89301 45.5748 13.608 44.7339C13.851 44.7019 14.0897 44.6436 14.3202 44.5602C12.2118 44.1078 10.4915 43.0983 9.28413 41.3654C8.69681 40.5401 8.29773 39.5957 8.11513 38.5989C7.93253 37.6021 7.97083 36.5774 8.22736 35.5971C9.04416 32.1008 12.3114 29.8415 16.1861 30.0996C19.9663 30.3552 22.7511 33.0899 23.0778 36.8775C23.3177 39.5764 21.6611 43.5225 16.6123 44.5653C17.5108 44.7237 18.2612 44.8208 18.9912 44.9895C25.7579 46.5409 30.4213 52.0767 30.6535 58.8699C30.7465 60.2203 30.7029 61.5766 30.5233 62.9182C30.1047 65.3615 28.6294 67.1378 26.2786 68.1729C25.7324 68.4106 25.5613 68.684 25.569 69.2565C25.6047 71.4187 25.5307 73.586 25.6021 75.7482C25.6532 77.2024 25.1912 78.2707 23.7516 78.8483L7.41314 78.8458Z" fill="#F6611A"/>
</svg>
