<svg width="100" height="80" viewBox="0 0 100 80" fill="none" xmlns="http://www.w3.org/2000/svg">
<path d="M15.0695 0.225587H84.6661C86.572 0.224875 88.4594 0.597496 90.2204 1.32216C91.9815 2.04683 93.5817 3.10935 94.9297 4.44902C96.2776 5.78869 97.3469 7.37927 98.0764 9.1299C98.806 10.8805 99.1815 12.7569 99.1815 14.6518V20.2696H0.55957V14.6518C0.55957 10.8258 2.08829 7.15638 4.80944 4.45094C7.53058 1.74549 11.2212 0.225587 15.0695 0.225587Z" fill="#FCD700"/>
<path d="M0.55957 23.9536V63.9874C0.55957 68.1942 2.24043 72.2287 5.23236 75.2034C8.22429 78.1781 12.2822 79.8492 16.5134 79.8492H83.2221C87.4534 79.8492 91.5113 78.1781 94.5032 75.2034C97.4952 72.2287 99.176 68.1942 99.176 63.9874V23.9536H0.55957ZM20.0878 70.1117C18.8797 70.1117 17.7211 69.6345 16.8668 68.7852C16.0126 67.9359 15.5327 66.7839 15.5327 65.5828C15.5341 64.3829 16.0147 63.2326 16.8689 62.3849C17.7231 61.5371 18.8809 61.0613 20.0878 61.0621C20.6856 61.0621 21.2776 61.1791 21.8299 61.4066C22.3822 61.6341 22.8841 61.9674 23.3068 62.3877C23.7295 62.808 24.0649 63.307 24.2936 63.8561C24.5224 64.4053 24.6402 64.9938 24.6402 65.5882C24.6387 66.7879 24.1586 67.9381 23.3051 68.7861C22.4516 69.6342 21.2945 70.1109 20.0878 70.1117ZM20.0878 55.9102C19.4897 55.9106 18.8974 55.7938 18.3448 55.5665C17.7922 55.3392 17.29 55.0058 16.867 54.5855C16.4439 54.1652 16.1084 53.6661 15.8794 53.1168C15.6505 52.5675 15.5327 51.9787 15.5327 51.3841C15.5327 50.1829 16.0126 49.031 16.8668 48.1817C17.7211 47.3324 18.8797 46.8552 20.0878 46.8552C21.2954 46.8559 22.4533 47.3334 23.307 48.1826C24.1607 49.0319 24.6402 50.1834 24.6402 51.3841C24.6409 51.9789 24.5237 52.5681 24.2952 53.1178C24.0668 53.6676 23.7315 54.1672 23.3087 54.588C22.8859 55.0089 22.3838 55.3428 21.8311 55.5706C21.2785 55.7984 20.6861 55.9156 20.0878 55.9156V55.9102ZM34.9002 70.1117C33.6923 70.1109 32.534 69.6336 31.6799 68.7844C30.8259 67.9352 30.3457 66.7837 30.345 65.5828C30.346 64.9878 30.465 64.3989 30.6951 63.8497C30.9252 63.3004 31.2619 62.8017 31.6859 62.3818C32.11 61.962 32.613 61.6294 33.1664 61.4029C33.7198 61.1765 34.3126 61.0606 34.911 61.0621C36.1184 61.0621 37.2763 61.5389 38.1301 62.3877C38.9838 63.2366 39.4635 64.3878 39.4635 65.5882C39.462 66.7879 38.9818 67.9381 38.1283 68.7861C37.2748 69.6342 36.1177 70.1109 34.911 70.1117H34.9002ZM34.9002 55.9102C33.6925 55.9102 32.5343 55.4334 31.6801 54.5847C30.826 53.736 30.3457 52.5847 30.345 51.3841C30.3457 50.1832 30.8259 49.0317 31.6799 48.1825C32.534 47.3333 33.6923 46.8559 34.9002 46.8552C36.1078 46.8559 37.2656 47.3334 38.1193 48.1826C38.973 49.0319 39.4526 50.1834 39.4526 51.3841C39.454 52.5835 38.9765 53.7345 38.125 54.5842C37.2734 55.4339 36.1174 55.9128 34.911 55.9156L34.9002 55.9102ZM34.9002 41.53C33.6923 41.5293 32.534 41.0519 31.6799 40.2028C30.8259 39.3536 30.3457 38.2021 30.345 37.0012C30.3457 35.8005 30.826 34.6493 31.6801 33.8005C32.5343 32.9518 33.6925 32.475 34.9002 32.475C36.1075 32.475 37.2654 32.9519 38.1192 33.8007C38.9729 34.6495 39.4526 35.8008 39.4526 37.0012C39.4526 38.1999 38.9745 39.3498 38.1232 40.1988C37.2719 41.0477 36.1167 41.5264 34.911 41.53H34.9002ZM49.7125 70.1117C48.5049 70.1109 47.3469 69.6335 46.4933 68.7842C45.6396 67.935 45.1601 66.7835 45.1601 65.5828C45.1608 64.988 45.2794 64.3991 45.5092 63.8499C45.739 63.3007 46.0754 62.8019 46.4993 62.382C46.9231 61.9621 47.4259 61.6294 47.9792 61.403C48.5324 61.1765 49.1251 61.0606 49.7234 61.0621C50.931 61.0621 52.0892 61.5388 52.9434 62.3876C53.7976 63.2363 54.2778 64.3876 54.2785 65.5882C54.2764 66.7882 53.7956 67.9383 52.9416 68.7863C52.0877 69.6343 50.9303 70.1109 49.7234 70.1117H49.7125ZM49.7125 55.9102C48.5051 55.9102 47.3472 55.4334 46.4935 54.5845C45.6397 53.7357 45.1601 52.5845 45.1601 51.3841C45.1601 50.1834 45.6396 49.0319 46.4933 48.1826C47.3469 47.3334 48.5049 46.8559 49.7125 46.8552C50.9204 46.8559 52.0785 47.3333 52.9326 48.1825C53.7867 49.0317 54.2669 50.1832 54.2676 51.3841C54.2683 52.5838 53.7903 53.7348 52.9383 54.5844C52.0863 55.434 50.9301 55.9128 49.7234 55.9156L49.7125 55.9102ZM49.7125 41.53C48.5049 41.5293 47.3469 41.0518 46.4933 40.2026C45.6396 39.3533 45.1601 38.2018 45.1601 37.0012C45.1601 35.8008 45.6397 34.6495 46.4935 33.8007C47.3472 32.9519 48.5051 32.475 49.7125 32.475C50.9201 32.475 52.0783 32.9518 52.9325 33.8005C53.7867 34.6493 54.2669 35.8005 54.2676 37.0012C54.2669 38.2002 53.7882 39.3501 52.9365 40.1989C52.0847 41.0478 50.9294 41.5264 49.7234 41.53H49.7125ZM64.5249 70.1117C63.3172 70.1109 62.1593 69.6335 61.3057 68.7842C60.452 67.935 59.9724 66.7835 59.9724 65.5828C59.9731 64.988 60.0918 64.3991 60.3216 63.8499C60.5514 63.3007 60.8878 62.8019 61.3116 62.382C61.7354 61.9621 62.2383 61.6294 62.7915 61.403C63.3448 61.1765 63.9374 61.0606 64.5357 61.0621C65.7433 61.0621 66.9016 61.5388 67.7557 62.3876C68.6099 63.2363 69.0902 64.3876 69.0909 65.5882C69.0887 66.7882 68.6079 67.9383 67.754 68.7863C66.9001 69.6343 65.7426 70.1109 64.5357 70.1117H64.5249ZM64.5249 55.9102C63.3175 55.9102 62.1595 55.4334 61.3058 54.5845C60.452 53.7357 59.9724 52.5845 59.9724 51.3841C59.9724 50.1834 60.452 49.0319 61.3057 48.1826C62.1593 47.3334 63.3172 46.8559 64.5249 46.8552C65.7327 46.8559 66.8909 47.3333 67.745 48.1825C68.5991 49.0317 69.0793 50.1832 69.08 51.3841C69.0807 52.5838 68.6026 53.7348 67.7506 54.5844C66.8986 55.434 65.7424 55.9128 64.5357 55.9156L64.5249 55.9102ZM64.5249 41.53C63.3172 41.5293 62.1593 41.0518 61.3057 40.2026C60.452 39.3533 59.9724 38.2018 59.9724 37.0012C59.9724 35.8008 60.452 34.6495 61.3058 33.8007C62.1595 32.9519 63.3175 32.475 64.5249 32.475C65.7325 32.475 66.8906 32.9518 67.7448 33.8005C68.599 34.6493 69.0793 35.8005 69.08 37.0012C69.0793 38.2002 68.6006 39.3501 67.7489 40.1989C66.8971 41.0478 65.7417 41.5264 64.5357 41.53H64.5249ZM79.5089 55.9102C78.3015 55.9102 77.1435 55.4334 76.2898 54.5845C75.436 53.7357 74.9564 52.5845 74.9564 51.3841C74.9564 50.1834 75.436 49.0319 76.2896 48.1826C77.1433 47.3334 78.3012 46.8559 79.5089 46.8552C80.7167 46.8559 81.8749 47.3333 82.729 48.1825C83.5831 49.0317 84.0633 50.1832 84.064 51.3841C84.0647 52.5838 83.5866 53.7348 82.7346 54.5844C81.8826 55.434 80.7264 55.9128 79.5197 55.9156L79.5089 55.9102ZM79.5089 41.53C78.3012 41.5293 77.1433 41.0518 76.2896 40.2026C75.436 39.3533 74.9564 38.2018 74.9564 37.0012C74.9564 35.8008 75.436 34.6495 76.2898 33.8007C77.1435 32.9519 78.3015 32.475 79.5089 32.475C80.7165 32.475 81.8746 32.9518 82.7288 33.8005C83.583 34.6493 84.0633 35.8005 84.064 37.0012C84.0633 38.2002 83.5846 39.3501 82.7329 40.1989C81.8811 41.0478 80.7257 41.5264 79.5197 41.53H79.5089Z" fill="#FCD700"/>
</svg>
