<svg width="70" height="70" viewBox="0 0 70 70" fill="none" xmlns="http://www.w3.org/2000/svg">
<path d="M35 70C54.33 70 70 54.33 70 35C70 15.67 54.33 0 35 0C15.67 0 0 15.67 0 35C0 54.33 15.67 70 35 70Z" fill="white"/>
<path d="M34.6919 10.792C21.1098 10.792 10.5781 20.745 10.5781 34.1824C10.5781 41.2115 13.4597 47.2882 18.1499 51.484C18.5417 51.8337 18.7828 52.328 18.7949 52.8585L18.9275 57.1508C18.9372 57.4666 19.0243 57.7752 19.1811 58.0495C19.338 58.3238 19.5598 58.5553 19.8271 58.7238C20.0944 58.8923 20.399 58.9925 20.7141 59.0157C21.0292 59.0389 21.3452 58.9843 21.6343 58.8568L26.4209 56.7469C26.8248 56.566 27.283 56.5359 27.711 56.6504C29.9114 57.2532 32.2504 57.5788 34.6919 57.5788C48.274 57.5788 58.8057 47.6258 58.8057 34.1884C58.8057 20.751 48.274 10.792 34.6919 10.792Z" fill="black"/>
<path d="M20.2117 41.0244L27.2951 29.7874C27.5616 29.3643 27.9129 29.0011 28.3268 28.7206C28.7407 28.4402 29.2083 28.2486 29.7 28.1579C30.1917 28.0673 30.6969 28.0796 31.1836 28.194C31.6703 28.3085 32.128 28.5226 32.5278 28.8228L38.1644 33.0488C38.4161 33.2372 38.7222 33.3385 39.0365 33.3374C39.3509 33.3363 39.6563 33.2329 39.9066 33.0428L47.5145 27.2675C48.5273 26.4959 49.8536 27.7136 49.1784 28.7927L42.0889 40.0237C41.8225 40.4468 41.4712 40.81 41.0573 41.0904C40.6433 41.3709 40.1758 41.5625 39.6841 41.6531C39.1923 41.7438 38.6872 41.7315 38.2005 41.617C37.7138 41.5026 37.256 41.2885 36.8563 40.9882L31.2197 36.7623C30.968 36.5739 30.6619 36.4726 30.3475 36.4737C30.0332 36.4748 29.7278 36.5782 29.4774 36.7683L21.8695 42.5436C20.8568 43.3152 19.5305 42.1035 20.2117 41.0244Z" fill="white"/>
</svg>
