<svg width="70" height="70" viewBox="0 0 70 70" fill="none" xmlns="http://www.w3.org/2000/svg">
<path d="M70 35C70 54.3299 54.33 69.9999 35 69.9999C15.67 69.9999 0 54.3299 0 35C0 15.67 15.67 0 35 0C54.33 0 70 15.67 70 35Z" fill="white"/>
<path d="M58.9544 34.3666C58.9544 22.4519 48.2071 12.7334 34.9911 12.7334C21.775 12.7334 11.0442 22.4519 11.0442 34.3666C11.0442 45.0551 19.5696 54.0049 31.0905 55.707C31.864 55.8901 32.9338 56.2744 33.1972 57.0248C33.3622 57.8135 33.3622 58.6337 33.1972 59.4224L32.868 61.6736C32.7692 62.3508 32.3907 64.3091 34.9582 63.1195C37.5257 61.9298 48.7667 54.0599 53.803 47.6175C57.0093 44.1173 58.858 39.3619 58.9544 34.3666Z" fill="black"/>
<path d="M24.1362 40.1066C24.1362 40.8152 24.7177 41.3785 25.4445 41.3785C26.135 41.3785 26.7529 40.8152 26.7529 40.1066V36.1271H32.3677V40.1066C32.3677 40.8152 32.9674 41.3785 33.676 41.3785C34.3847 41.3785 34.9844 40.8152 34.9844 40.1066V29.9308C34.9844 29.2221 34.4029 28.6588 33.676 28.6588C32.9674 28.6588 32.3677 29.2221 32.3677 29.9308V33.8194H26.7529V29.9308C26.7529 29.2221 26.1714 28.6588 25.4445 28.6588C24.7177 28.6588 24.1362 29.2221 24.1362 29.9308V40.1066Z" fill="white"/>
<path d="M37.4629 40.1066C37.4629 40.8152 38.0443 41.3785 38.7712 41.3785C39.4617 41.3785 40.0795 40.8152 40.0795 40.1066V29.9308C40.0795 29.2221 39.498 28.6588 38.7712 28.6588C38.0443 28.6588 37.4629 29.2221 37.4629 29.9308V40.1066Z" fill="white"/>
<path d="M45.6812 39.9249C45.6812 39.1072 45.0452 38.4712 44.2456 38.4712C43.4461 38.4712 42.792 39.1072 42.792 39.9249C42.792 40.7244 43.4461 41.3604 44.2456 41.3604C45.0452 41.3604 45.6812 40.7244 45.6812 39.9249ZM45.8629 30.8938C45.8629 29.4765 45.3541 28.6406 44.2456 28.6406C43.1372 28.6406 42.6102 29.4765 42.6102 30.8938C42.6102 31.5662 42.7556 32.3112 42.8465 32.8018L43.4461 36.327C43.5188 36.7631 43.6823 37.1629 44.2456 37.1629C44.7908 37.1629 44.9725 36.7631 45.0452 36.327L45.6266 32.8018C45.6993 32.3112 45.8629 31.5662 45.8629 30.8938Z" fill="white"/>
</svg>
