<svg width="70" height="70" viewBox="0 0 70 70" fill="none" xmlns="http://www.w3.org/2000/svg">
<path d="M35 70C54.33 70 70 54.33 70 35C70 15.67 54.33 0 35 0C15.67 0 0 15.67 0 35C0 54.33 15.67 70 35 70Z" fill="white"/>
<path d="M59.5924 32.714V36.0737C59.553 36.1758 59.5235 36.2816 59.5044 36.3894C59.3245 39.1984 58.5917 41.9442 57.3479 44.4697C53.115 52.8998 46.2554 57.5525 36.8552 58.3099C32.5203 58.6577 28.3713 57.7363 24.4824 55.7537C24.3313 55.6693 24.1639 55.6182 23.9914 55.6037C23.8189 55.5892 23.6453 55.6117 23.4822 55.6698C20.4635 56.6431 17.4348 57.5924 14.4141 58.5598C13.3879 58.8895 12.3717 59.2493 11.3534 59.593H10.7753C10.3552 59.2952 10.3432 58.9195 10.5012 58.4578C11.7775 54.7345 13.0338 51.0031 14.3181 47.2797C14.4136 47.0421 14.4519 46.7854 14.43 46.5303C14.4081 46.2751 14.3266 46.0287 14.1921 45.8108C11.6994 41.3347 10.7484 36.1642 11.4855 31.0952C12.0452 26.8238 13.7963 22.7958 16.5386 19.4714C21.0997 13.9093 27.013 10.9015 34.1866 10.4598C38.1152 10.1902 42.0461 10.9515 45.5892 12.6682C53.191 16.3636 57.814 22.3733 59.2964 30.7314C59.4244 31.387 59.4984 32.0505 59.5924 32.714ZM17.9949 52.1403C18.239 52.0783 18.405 52.0424 18.5671 51.9904C20.3775 51.4188 22.1919 50.8592 23.9923 50.2596C24.1899 50.1804 24.404 50.1514 24.6156 50.1751C24.8271 50.1988 25.0295 50.2746 25.2046 50.3955C27.5873 51.9005 30.2757 52.8563 33.0744 53.1935C35.8113 53.5482 38.5929 53.2943 41.2202 52.4501C44.4746 51.4352 47.3927 49.5579 49.6642 47.0179C52.4461 43.9897 54.1395 40.1222 54.4773 36.0257C54.876 31.9822 53.8993 27.9225 51.7046 24.5018C48.3719 19.2456 43.5508 16.2757 37.3914 15.5442C33.8404 15.1217 30.2437 15.7616 27.057 17.3829C21.9118 19.9411 18.5331 23.9942 16.9647 29.5303C16.2153 32.2358 16.1016 35.0778 16.6326 37.8344C17.0927 40.4371 18.125 42.9054 19.6553 45.0613C20.0314 45.5929 20.1054 46.0606 19.8554 46.6602C19.5773 47.3357 19.3733 48.0452 19.1392 48.7387C18.7651 49.8459 18.393 50.9571 17.9949 52.1363V52.1403Z" fill="black"/>
<path d="M48.0345 40.4049C48.0525 43.8025 45.3339 45.5513 42.8013 45.8691C41.1329 46.0689 39.5726 45.6092 38.0002 45.1396C32.9451 43.6207 29.2342 40.343 26.2155 36.1459C25.1773 34.701 24.1811 33.238 23.6689 31.5112C23.0877 29.6683 23.2066 27.676 24.003 25.9152C24.6812 24.4002 25.8254 23.5329 27.4658 23.317C27.7979 23.273 28.13 23.2231 28.466 23.1731C29.2662 23.0552 29.9284 23.325 30.2664 24.0585C31.0126 25.7153 31.7108 27.3921 32.4009 29.0749C32.709 29.8244 32.3029 30.45 31.9028 31.0276C31.5607 31.5252 31.1246 31.9589 30.7546 32.4406C30.7094 32.5025 30.6793 32.5742 30.6668 32.6499C30.6543 32.7255 30.6597 32.8031 30.6825 32.8763C32.627 35.6403 34.9715 37.9447 38.1302 39.3117C38.1891 39.3489 38.255 39.3737 38.3239 39.3845C38.3928 39.3953 38.4631 39.3919 38.5306 39.3745C38.5981 39.357 38.6613 39.326 38.7163 39.2832C38.7713 39.2405 38.8169 39.1869 38.8504 39.1258C39.3705 38.4563 39.9166 37.8068 40.4508 37.1472C40.9849 36.4877 41.541 36.2499 42.3492 36.6096C44.0536 37.3711 45.732 38.1905 47.4083 39.0079C47.9685 39.2797 48.0525 39.8353 48.0345 40.4049Z" fill="black"/>
</svg>
