<svg width="70" height="70" viewBox="0 0 70 70" fill="none" xmlns="http://www.w3.org/2000/svg">
<path d="M70 35C70 54.3299 54.33 69.9999 35 69.9999C15.67 69.9999 0 54.3299 0 35C0 15.67 15.67 0 35 0C54.33 0 70 15.67 70 35Z" fill="#FCD700"/>
<path d="M61.006 24.7833L57.7037 21.2745C56.6717 22.1001 55.2269 22.7193 53.5757 22.7193C50.067 22.7193 47.1774 19.8297 47.1774 16.321C47.1774 14.8762 47.7966 13.4314 48.6222 12.193L45.3198 8.89068C44.4942 8.06509 43.2559 8.06509 42.4303 8.89068L36.6512 14.6698C36.8575 14.6698 37.0639 14.8762 37.0639 14.8762L37.6831 15.4954C38.0959 15.9082 38.0959 16.5274 37.6831 16.9402C37.4767 17.1466 37.2703 17.1466 36.8575 17.1466C36.4448 17.1466 36.2384 17.1466 36.032 16.9402L35.6192 16.321C35.4128 16.1146 35.4128 16.1146 35.4128 15.9082L8.99395 42.327C8.16836 43.1526 8.16836 44.391 8.99395 45.2166L12.2963 48.7253C13.3283 47.6933 14.7731 47.2805 16.4242 47.2805C19.933 47.2805 22.8225 50.1701 22.8225 53.6788C22.8225 55.33 22.2034 56.7748 21.3778 57.8068L24.6801 61.1091C25.5057 61.9347 26.7441 61.9347 27.5697 61.1091L53.9885 34.6903C53.9885 34.6903 53.7821 34.6903 53.7821 34.4839L53.1629 33.8647C52.7501 33.4519 52.7501 32.8327 53.1629 32.4199C53.5757 32.0071 54.1949 32.0071 54.6077 32.4199L55.2269 33.0391C55.2269 33.0391 55.2269 33.2455 55.4333 33.2455L61.006 27.6728C61.8316 26.8472 61.8316 25.4024 61.006 24.7833ZM39.1279 18.3849C39.5407 17.9721 40.1599 17.9721 40.5727 18.3849L41.1919 19.0041C41.6047 19.4169 41.6047 20.0361 41.1919 20.4489C40.9855 20.6553 40.7791 20.6553 40.3663 20.6553C39.9535 20.6553 39.7471 20.6553 39.5407 20.4489L39.1279 19.8297C38.7151 19.4169 38.7151 18.7977 39.1279 18.3849ZM42.6367 39.6438C42.6367 39.8502 42.2239 40.0566 42.0175 40.0566L36.4448 41.0886L33.968 46.0421C33.7616 46.2485 33.5552 46.4549 33.3488 46.4549C33.1424 46.4549 32.936 46.4549 32.936 46.2485L32.7296 46.0421L30.2528 41.0886L24.6801 40.263C24.4737 40.263 24.2673 40.0566 24.0609 39.8502C24.0609 39.6438 24.0609 39.231 24.2673 39.0246L28.1889 35.1031L27.1569 29.7368C27.1569 29.5304 27.1569 29.1176 27.3633 28.9112C27.5697 28.7048 27.9825 28.7048 28.1889 28.9112L33.1424 31.388L38.0959 28.9112C38.5087 28.7048 39.3343 29.1176 39.1279 29.7368L38.0959 35.1031L42.0175 39.0246C42.6367 39.0246 42.6367 39.4374 42.6367 39.6438ZM44.7006 23.9577C44.4942 24.1641 44.2878 24.1641 43.875 24.1641C43.4623 24.1641 43.2559 24.1641 43.0495 23.9577L42.4303 23.3385C42.0175 22.9257 42.0175 22.3065 42.4303 21.8937C42.8431 21.4809 43.4623 21.4809 43.875 21.8937L44.7006 22.5129C45.1134 22.9257 45.1134 23.5449 44.7006 23.9577ZM48.2094 27.4664C48.003 27.6728 47.7966 27.6728 47.3838 27.6728C46.971 27.6728 46.7646 27.6728 46.5582 27.4664L45.939 26.8472C45.5262 26.4344 45.5262 25.8152 45.939 25.4024C46.3518 24.9896 46.971 24.9896 47.3838 25.4024L48.003 26.0216C48.6222 26.4344 48.6222 27.0536 48.2094 27.4664ZM51.7181 30.9752C51.5117 31.1816 51.3053 31.1816 50.8926 31.1816C50.4798 31.1816 50.2734 31.1816 50.067 30.9752L49.4478 30.356C49.035 29.9432 49.035 29.324 49.4478 28.9112C49.8606 28.4984 50.4798 28.4984 50.8926 28.9112L51.5117 29.5304C52.1309 29.9432 52.1309 30.5624 51.7181 30.9752Z" fill="black"/>
</svg>
