<svg width="70" height="70" viewBox="0 0 70 70" fill="none" xmlns="http://www.w3.org/2000/svg">
<path d="M70 35C70 54.3299 54.33 69.9999 35 69.9999C15.67 69.9999 0 54.3299 0 35C0 15.67 15.67 0 35 0C54.33 0 70 15.67 70 35Z" fill="white"/>
<path d="M36.5969 59.4398H33.2866C33.1699 59.4032 33.0511 59.3732 32.9309 59.3502C32.101 59.239 31.2711 59.1829 30.4518 59.018C24.5 57.8229 19.6211 54.8282 15.8686 50.0181C13.4033 46.8801 11.7712 43.161 11.1261 39.2114C10.9827 38.3558 10.8807 37.493 10.7598 36.6337V33.2936C10.7963 33.1759 10.826 33.0562 10.8487 32.9351C10.959 32.0986 11.017 31.262 11.1783 30.4351C12.2086 25.1769 14.6166 20.6668 18.5671 17.0686C24.5474 11.6073 31.5912 9.60676 39.5206 11.0169C44.7718 11.9526 49.2511 14.4825 52.8222 18.4799C58.2037 24.5113 60.2252 31.5954 58.7918 39.5699C57.7081 45.6049 54.6421 50.5213 49.851 54.3119C46.7451 56.7825 43.0686 58.4193 39.165 59.0694C38.3137 59.2151 37.4553 59.3203 36.5969 59.4398ZM40.8983 47.7165C42.4669 47.7858 43.5067 47.5516 44.5086 47.064C45.6183 46.525 46.4162 45.618 47.2675 44.7731C47.903 44.1433 47.8995 43.6175 47.2675 42.9722C45.8764 41.5621 44.4829 40.1551 43.087 38.7513C42.4361 38.0964 41.9144 38.1036 41.2611 38.7669C40.4952 39.546 39.7435 40.3407 38.9681 41.1115C38.0588 42.0174 36.968 42.0903 35.9329 41.3505C33.2152 39.4023 30.8183 37.0355 28.8299 34.3369C27.994 33.2028 28.0663 32.1308 29.048 31.133C29.8483 30.3203 30.6605 29.5185 31.456 28.7011C32.005 28.137 32.0133 27.5921 31.4655 27.028C30.023 25.5573 28.5718 24.0954 27.1119 22.6422C26.6021 22.1343 26.0342 22.132 25.5279 22.6303C24.9039 23.2152 24.3102 23.8323 23.7495 24.479C22.4073 26.0983 21.8952 27.996 22.4216 30.0419C22.7507 31.3149 23.2241 32.5456 23.8325 33.7095C26.7645 39.3261 31.0754 43.5494 36.738 46.3314C38.1904 47.0449 39.7115 47.6317 40.9019 47.7165H40.8983Z" fill="black"/>
</svg>
