<svg width="70" height="70" viewBox="0 0 70 70" fill="none" xmlns="http://www.w3.org/2000/svg">
<path d="M70 35C70 54.3299 54.33 69.9999 35 69.9999C15.67 69.9999 0 54.3299 0 35C0 15.67 15.67 0 35 0C54.33 0 70 15.67 70 35Z" fill="white"/>
<path d="M51.0392 33.0976C51.7802 33.0976 52.3768 33.7027 52.3768 34.4373C52.3768 35.1698 51.7802 35.7749 51.0392 35.7749H47.313V38.1635H51.0392C51.7802 38.1635 52.3768 38.7643 52.3768 39.5011C52.3768 40.2314 51.7802 40.8365 51.0392 40.8365H45.9733C45.2408 40.8365 44.6421 40.2314 44.6421 39.5011V29.3714C44.6421 28.6389 45.2408 28.0338 45.9797 28.0338H51.0456C51.7802 28.0338 52.3768 28.6389 52.3768 29.3714C52.3768 30.1124 51.7802 30.709 51.0392 30.709H47.313V33.0976H51.0392ZM42.8543 39.5011C42.8543 40.0743 42.4849 40.5839 41.9371 40.7665C41.8012 40.8111 41.6547 40.8323 41.5146 40.8323C41.0666 40.8323 40.6845 40.6412 40.4318 40.3015L35.2449 33.2589V39.5011C35.2449 40.2314 34.6525 40.8365 33.9051 40.8365C33.1705 40.8365 32.576 40.2314 32.576 39.5011V29.3714C32.576 28.7981 32.9433 28.2886 33.489 28.1081C33.6164 28.0593 33.7778 28.038 33.9009 28.038C34.3149 28.038 34.6971 28.2588 34.9519 28.5773L40.1791 35.6475V29.3714C40.1791 28.6389 40.7779 28.0338 41.5167 28.0338C42.2492 28.0338 42.8543 28.6389 42.8543 29.3714V39.5011ZM30.6652 39.5011C30.6652 40.2314 30.0664 40.8365 29.3254 40.8365C28.5929 40.8365 27.9942 40.2314 27.9942 39.5011V29.3714C27.9942 28.6389 28.5929 28.0338 29.3318 28.0338C30.0664 28.0338 30.6652 28.6389 30.6652 29.3714V39.5011ZM25.4294 40.8365H20.3635C19.631 40.8365 19.0259 40.2314 19.0259 39.5011V29.3714C19.0259 28.6389 19.631 28.0338 20.3635 28.0338C21.1024 28.0338 21.7011 28.6389 21.7011 29.3714V38.1635H25.4294C26.1683 38.1635 26.7649 38.7643 26.7649 39.5011C26.7649 40.2314 26.1662 40.8365 25.4294 40.8365ZM60.8801 34.0551C60.8801 22.6515 49.4468 13.3711 35.402 13.3711C21.3571 13.3711 9.92383 22.6515 9.92383 34.0551C9.92383 44.2697 18.9898 52.8283 31.2299 54.4546C32.0601 54.6287 33.1896 55.0024 33.4763 55.7073C33.731 56.3464 33.644 57.3336 33.5569 58.0003L33.2087 60.166C33.1132 60.805 32.6992 62.6841 35.436 61.5354C38.177 60.391 50.1199 52.8771 55.4703 46.7262C59.1306 42.7156 60.8801 38.6072 60.8801 34.0551Z" fill="black"/>
</svg>
