<svg width="70" height="71" viewBox="0 0 70 71" fill="none" xmlns="http://www.w3.org/2000/svg">
<mask id="path-1-inside-1_702_3092" fill="white">
<path d="M70 35.6716C70 55.0015 54.33 70.6716 35 70.6716C15.67 70.6716 0 55.0015 0 35.6716C0 16.3417 15.67 0.671631 35 0.671631C54.33 0.671631 70 16.3417 70 35.6716Z"/>
</mask>
<path d="M66 35.6716C66 52.7924 52.1208 66.6716 35 66.6716V74.6716C56.5391 74.6716 74 57.2107 74 35.6716H66ZM35 66.6716C17.8792 66.6716 4 52.7924 4 35.6716H-4C-4 57.2107 13.4609 74.6716 35 74.6716V66.6716ZM4 35.6716C4 18.5508 17.8792 4.67163 35 4.67163V-3.32837C13.4609 -3.32837 -4 14.1325 -4 35.6716H4ZM35 4.67163C52.1208 4.67163 66 18.5508 66 35.6716H74C74 14.1325 56.5391 -3.32837 35 -3.32837V4.67163Z" fill="white" mask="url(#path-1-inside-1_702_3092)"/>
<path d="M36.4142 16.3377C35.6332 15.5567 34.3668 15.5567 33.5858 16.3377L20.8579 29.0657C20.0768 29.8467 20.0768 31.113 20.8579 31.8941C21.6389 32.6751 22.9052 32.6751 23.6863 31.8941L35 20.5804L46.3137 31.8941C47.0948 32.6751 48.3611 32.6751 49.1421 31.8941C49.9232 31.113 49.9232 29.8467 49.1421 29.0657L36.4142 16.3377ZM33 55.5318C33 56.6364 33.8954 57.5318 35 57.5318C36.1046 57.5318 37 56.6364 37 55.5318L33 55.5318ZM33 17.752L33 55.5318L37 55.5318L37 17.752L33 17.752Z" fill="white"/>
<path d="M33 55.5318C33 56.6364 33.8954 57.5318 35 57.5318C36.1046 57.5318 37 56.6364 37 55.5318L33 55.5318ZM33 17.752L33 55.5318L37 55.5318L37 17.752L33 17.752Z" fill="white"/>
<path d="M33 55.5318C33 56.6364 33.8954 57.5318 35 57.5318C36.1046 57.5318 37 56.6364 37 55.5318L33 55.5318ZM33 17.752L33 55.5318L37 55.5318L37 17.752L33 17.752Z" fill="white"/>
</svg>
