<svg width="183" height="100" viewBox="0 0 183 100" fill="none" xmlns="http://www.w3.org/2000/svg">
<path fill-rule="evenodd" clip-rule="evenodd" d="M38.2688 91.6548L3.70188 57.0879C-0.203363 53.1827 -0.20336 46.851 3.70188 42.9458L38.2688 8.37891C39.2293 7.18258 40.3182 6.09369 41.5145 5.13313L43.0266 3.62111C45.3025 1.34517 48.4025 0.395628 51.3661 0.772488C52.4369 0.604211 53.5345 0.516846 54.6525 0.516846H161.379C172.977 0.516846 182.379 9.91887 182.379 21.5168V78.5168C182.379 90.1148 172.977 99.5168 161.379 99.5168H54.6525C53.5345 99.5168 52.4369 99.4295 51.3661 99.2612C48.4025 99.6381 45.3025 98.6885 43.0265 96.4126L41.5145 94.9006C40.3182 93.94 39.2293 92.8511 38.2688 91.6548Z" fill="#FCD700"/>
<circle cx="29.6909" cy="51.3523" r="9.42871" fill="#1E1E1E"/>
</svg>
