<svg width="200" height="90" viewBox="0 0 200 90" fill="none" xmlns="http://www.w3.org/2000/svg">
<path d="M153.526 61.1913C154.211 63.1753 154.885 65.1488 155.57 67.1121C159.025 67.9181 162.432 68.7929 165.791 69.7367L180.437 63.5369C186.876 50.4967 193.387 36.6161 199.969 21.8951C194.436 19.9043 188.791 18.0616 183.033 16.367L173.733 23.4864C172.854 20.1041 171.964 16.6598 171.065 13.1535C167.236 12.2373 163.369 11.3865 159.464 10.6012L150.603 20.7482C149.404 16.7114 148.198 12.6024 146.985 8.42096C140.852 7.491 134.638 6.74013 128.342 6.16837L125.593 13.4014C124.622 12.0422 123.549 10.7606 122.383 9.56792C119.502 6.64514 116.105 4.29349 112.367 2.6345C108.464 0.902234 104.247 0.0078125 99.9846 0.0078125C95.7218 0.0078125 91.5054 0.902234 87.6021 2.6345C83.8629 4.29027 80.465 6.6423 77.5857 9.56792C76.4235 10.7607 75.3539 12.0423 74.3866 13.4014L71.6373 6.16837C65.3822 6.74702 59.168 7.49443 52.9946 8.41062C51.775 12.5851 50.5689 16.6908 49.3765 20.7275L40.5151 10.6012C36.6244 11.3865 32.7575 12.2338 28.9145 13.1431C28.015 16.6288 27.1258 20.0731 26.2469 23.4761L16.946 16.367C11.1883 18.0478 5.53966 19.8871 0 21.8848C6.61624 36.6402 13.1337 50.5243 19.5523 63.5369L34.1884 69.7367C37.5953 68.7998 41.0023 67.925 44.4092 67.1121C45.094 65.1488 45.7685 63.1753 46.4533 61.1913L52.8311 65.3245C56.3334 64.6357 59.8528 64.0398 63.3892 63.5369C66.0671 56.0765 68.7415 48.4542 71.4125 40.6701V40.7321L71.76 41.3727L77.7902 51.9847C79.0015 54.0964 80.5845 55.9664 82.4611 57.5025C84.8101 59.3789 87.4671 60.8233 90.3107 61.77C96.5534 63.809 103.273 63.809 109.515 61.77C112.358 60.8214 115.015 59.3771 117.365 57.5025C119.282 55.9356 120.891 54.0183 122.107 51.8503L128.066 41.3624L128.403 40.7321C128.402 40.7046 128.402 40.677 128.403 40.6494C131.075 48.4405 133.746 56.0696 136.417 63.5369C139.953 64.0605 143.472 64.6563 146.975 65.3245L153.526 61.1913ZM104.855 39.0272C101.72 40.1019 98.3213 40.1019 95.186 39.0272C93.7991 38.5693 92.5019 37.8699 91.3532 36.9606C91.8262 36.1526 92.3997 35.4095 93.06 34.7493C93.9624 33.8649 95.0241 33.1634 96.1876 32.6827C98.6433 31.663 101.398 31.663 103.853 32.6827C105.022 33.1595 106.087 33.8613 106.991 34.7493C107.651 35.407 108.222 36.1507 108.688 36.9606C107.539 37.8699 106.242 38.5693 104.855 39.0272Z" fill="black"/>
<path d="M19.7671 63.124C13.3689 50.1458 6.88896 36.341 0.500977 22.0919C5.81577 20.1803 11.2838 18.3927 16.7928 16.7807C19.0618 22.0196 21.3717 27.2687 23.6611 32.3835L24.0598 33.2721L24.3051 32.3318C25.9336 26.201 27.5758 19.9151 29.2315 13.4742C32.8803 12.6062 36.6211 11.7899 40.3415 11.0356C42.6207 16.5741 44.9102 22.0712 47.1588 27.3927L47.537 28.271L47.8027 27.3513C49.6118 21.3066 51.4617 15.0551 53.2913 8.75204C59.1886 7.88407 65.2086 7.15043 71.1877 6.60278C65.7298 23.9208 60.2822 40.5672 54.9674 56.108C50.7871 56.6969 46.5863 57.3582 42.4674 58.0919C40.5799 54.0689 38.6755 49.9771 36.754 45.8163L36.3758 45L36.1101 45.868C34.6383 50.7589 33.1835 55.5465 31.7458 60.2308C27.729 61.1298 23.7225 62.1011 19.7671 63.124Z" fill="white"/>
<path d="M70.7378 6.99567C65.3719 24.045 59.9958 40.4538 54.7525 55.7982C50.7255 56.3562 46.6781 57.0072 42.7124 57.6995C40.8522 53.7729 38.9716 49.7224 37.1012 45.6719L36.3449 44.029L35.8236 45.7649C34.3927 50.5181 32.9414 55.2815 31.5105 59.9314C27.647 60.789 23.7734 61.7293 19.9917 62.7109C13.6855 49.9187 7.30775 36.3206 1.01176 22.2781C6.12214 20.4492 11.3551 18.7442 16.6392 17.1943C18.8776 22.3608 21.1467 27.5272 23.385 32.5181L24.1822 34.2953L24.6729 32.4147C26.2877 26.3286 27.923 20.0152 29.5481 13.7638C33.0436 12.9268 36.6209 12.1415 40.1777 11.4285C42.416 16.8636 44.6749 22.2781 46.8826 27.5169L47.6287 29.2735L48.1806 27.4446C49.9693 21.4515 51.7885 15.2724 53.5976 9.06226C59.2496 8.23562 65.0142 7.53298 70.7378 6.99567ZM71.7599 6.20002C65.5048 6.77867 59.2906 7.52608 53.1172 8.44227C51.2434 14.8694 49.3934 21.1346 47.5673 27.2379C45.2778 21.8372 42.968 16.3022 40.6377 10.6329C36.747 11.4182 32.88 12.2655 29.037 13.1748C27.3608 19.6983 25.7051 26.0496 24.0697 32.2287C21.753 27.0623 19.4193 21.7718 17.0685 16.3573C11.3108 18.0313 5.66221 19.8705 0.122559 21.8751C6.7388 36.6306 13.2562 50.5146 19.6749 63.5272C23.7632 62.4526 27.9059 61.4538 32.1033 60.5307C33.5682 55.7775 35.0435 50.9245 36.5289 45.9716C38.4913 50.2218 40.4366 54.3895 42.3649 58.4744C46.644 57.7167 50.9606 57.0278 55.3147 56.4078C60.6397 40.8258 66.118 24.1277 71.7599 6.1897V6.20002Z" fill="black"/>
<path d="M180.284 63.1239C176.349 62.0906 172.322 61.1297 168.305 60.241C166.861 55.5499 165.406 50.7623 163.941 45.8783L163.675 45.0103L163.297 45.8266C161.376 49.9598 159.474 54.0929 157.573 58.1021C153.485 57.3685 149.254 56.6968 145.084 56.1182C139.769 40.5464 134.311 23.9001 128.863 6.61304C134.832 7.16068 140.852 7.89432 146.75 8.77262C148.579 15.0654 150.419 21.3168 152.228 27.3719L152.504 28.2812L152.872 27.4029C155.141 22.0505 157.441 16.5533 159.699 11.0562C163.43 11.8002 167.161 12.6268 170.82 13.4948C172.475 19.9425 174.114 26.2284 175.736 32.3524L175.981 33.2824L176.38 32.4041C178.659 27.3203 180.969 22.0711 183.258 16.8013C188.757 18.4133 194.235 20.2009 199.54 22.1021C193.162 36.3513 186.682 50.1561 180.284 63.1239Z" fill="white"/>
<path d="M129.344 6.99567C135.068 7.53298 140.832 8.23562 146.484 9.06226C148.293 15.262 150.113 21.4618 151.901 27.4342L152.443 29.2632L153.189 27.5169C155.417 22.2574 157.676 16.8533 159.914 11.4182C163.471 12.1415 167.069 12.9268 170.534 13.7534C172.159 20.0668 173.804 26.3389 175.409 32.4044L175.9 34.285L176.697 32.5181C178.935 27.5169 181.204 22.3711 183.453 17.184C188.727 18.7442 193.97 20.4492 199.07 22.2781C192.784 36.3102 186.407 49.9084 180.1 62.7006C176.308 61.6673 172.435 60.7787 168.571 59.921C167.14 55.2712 165.699 50.5077 164.268 45.7546L163.747 44.0186L162.981 45.6616C161.11 49.7224 159.23 53.7729 157.38 57.6891C153.404 56.9865 149.356 56.3458 145.339 55.7775C140.096 40.4331 134.72 24.0244 129.344 6.98534M128.373 6.1897C134.025 24.1277 139.503 40.8258 144.828 56.4078C149.172 57.0175 153.496 57.6995 157.768 58.4744C159.71 54.3826 161.655 50.215 163.604 45.9716C165.096 50.9245 166.575 55.7775 168.04 60.5307C172.23 61.4538 176.373 62.4526 180.468 63.5272C186.907 50.4871 193.418 36.6065 200 21.8855C194.467 19.8946 188.822 18.0519 183.064 16.3573C180.714 21.7718 178.383 27.0657 176.073 32.2391C174.431 26.0393 172.772 19.688 171.096 13.1851C167.266 12.2689 163.4 11.4182 159.495 10.6329C157.165 16.3091 154.852 21.8476 152.555 27.2483C150.729 21.138 148.883 14.8728 147.016 8.45262C140.883 7.52265 134.669 6.77178 128.373 6.20002V6.1897Z" fill="black"/>
<path d="M100.01 54.9607C96.0051 55.0068 92.0176 54.414 88.1951 53.2041C84.7012 52.1295 81.4117 50.4666 78.465 48.2856C75.6749 46.2316 73.3926 43.5528 71.7968 40.4589C70.201 37.3649 69.335 33.9396 69.2663 30.4509C69.166 26.6818 69.9066 22.9382 71.4331 19.498C72.9816 15.893 75.1788 12.61 77.913 9.81605C80.764 6.91932 84.1267 4.5886 87.8271 2.94464C91.6931 1.22796 95.8696 0.341553 100.092 0.341553C104.315 0.341553 108.491 1.22796 112.357 2.94464C116.052 4.59249 119.411 6.92282 122.261 9.81605C124.999 12.6072 127.196 15.8909 128.741 19.498C130.271 22.9375 131.015 26.681 130.918 30.4509C130.838 33.9441 129.961 37.3713 128.355 40.4651C126.748 43.5588 124.456 46.2354 121.658 48.2856C118.705 50.4568 115.417 52.1188 111.928 53.2041C108.073 54.4245 104.05 55.0174 100.01 54.9607ZM100.01 17.4211C98.2953 17.4376 96.5965 17.7594 94.9919 18.3717C93.4807 18.9749 92.0942 19.858 90.9036 20.9756C89.7741 22.0525 88.8462 23.3267 88.1645 24.7368C87.5208 26.1551 87.1729 27.6922 87.1424 29.2523C87.1718 30.7695 87.5202 32.263 88.1645 33.6335C88.8634 34.9537 89.8032 36.1283 90.9343 37.095C92.1507 38.0953 93.5357 38.8654 95.0226 39.3683C98.2256 40.4567 101.693 40.4567 104.896 39.3683C106.381 38.8615 107.765 38.0918 108.984 37.095C110.113 36.1303 111.053 34.9595 111.754 33.6438C112.396 32.2724 112.744 30.7795 112.776 29.2627C112.748 27.7022 112.4 26.1646 111.754 24.7472C111.075 23.3348 110.151 22.0573 109.025 20.9756C107.832 19.8608 106.446 18.9781 104.937 18.3717C103.364 17.7724 101.701 17.4509 100.021 17.4211H100.01Z" fill="white"/>
<path d="M100.02 0.702649C104.186 0.69774 108.308 1.57047 112.122 3.26522C115.783 4.88873 119.108 7.19537 121.923 10.0643C124.637 12.8171 126.811 16.0635 128.332 19.6326C129.84 23.0269 130.574 26.721 130.478 30.4409C130.402 33.8815 129.54 37.2578 127.958 40.3053C126.377 43.3528 124.119 45.9888 121.361 48.0069C118.439 50.1608 115.182 51.8057 111.723 52.8737C104.086 55.1884 95.9446 55.1884 88.3073 52.8737C84.8479 51.8079 81.59 50.1628 78.6692 48.0069C75.9117 45.9888 73.6537 43.3528 72.0721 40.3053C70.4904 37.2578 69.6279 33.8815 69.5522 30.4409C69.4603 26.7213 70.1937 23.0281 71.6985 19.6326C73.2268 16.0676 75.4002 12.8226 78.107 10.0643C80.9244 7.19764 84.2494 4.89132 87.9088 3.26522C91.7263 1.57052 95.851 0.697816 100.02 0.702649ZM100.02 40.5362C101.731 40.5158 103.43 40.2372 105.059 39.7095C106.584 39.1813 108.006 38.3875 109.26 37.364C110.427 36.36 111.398 35.1438 112.122 33.7784C112.799 32.3619 113.169 30.8152 113.205 29.2423C113.195 27.6332 112.846 26.0448 112.183 24.5821C111.481 23.1351 110.529 21.8265 109.372 20.7176C108.147 19.5644 106.714 18.6595 105.151 18.0517C101.865 16.7558 98.2168 16.7558 94.9304 18.0517C93.3635 18.6616 91.927 19.5702 90.699 20.7279C89.5414 21.84 88.5895 23.1522 87.8883 24.6028C87.2307 26.071 86.8827 27.6616 86.8662 29.2733C86.905 30.8483 87.2816 32.396 87.97 33.8094C88.6895 35.166 89.6572 36.3722 90.8217 37.364C92.0708 38.3952 93.4938 39.1898 95.0224 39.7095C96.6484 40.2371 98.3434 40.5157 100.051 40.5362M100.051 0C95.7859 0.00157097 91.5676 0.898829 87.6635 2.63491C83.9242 4.29067 80.5263 6.6427 77.6471 9.56832C74.8834 12.3924 72.6619 15.7103 71.0955 19.3536C69.5516 22.8439 68.8007 26.6395 68.898 30.4615C68.9726 34.0064 69.8598 37.4854 71.4897 40.6249C73.1195 43.7644 75.4477 46.4788 78.291 48.5545C81.2673 50.7471 84.5879 52.4168 88.1131 53.4937C95.8887 55.8631 104.183 55.8631 111.958 53.4937C115.488 52.4008 118.811 50.7173 121.791 48.5132C124.629 46.4318 126.954 43.7165 128.585 40.5784C130.216 37.4403 131.109 33.9641 131.194 30.4202C131.278 26.6259 130.528 22.86 128.996 19.395C127.43 15.7516 125.208 12.4337 122.445 9.60965C119.563 6.68686 116.166 4.33524 112.428 2.67625C108.528 0.940419 104.313 0.0431402 100.051 0.0413406V0ZM100.051 39.8439C98.4085 39.8241 96.7784 39.5523 95.2165 39.0379C93.7764 38.5493 92.4361 37.8 91.2611 36.8266C90.1648 35.8915 89.2528 34.7557 88.573 33.4788C87.9377 32.16 87.5892 30.7189 87.5509 29.2526C87.574 27.7492 87.8974 26.266 88.5015 24.8921C89.1651 23.5197 90.0649 22.2776 91.1589 21.2239C92.3236 20.1437 93.6747 19.2891 95.145 18.7026C98.298 17.4485 101.804 17.4485 104.957 18.7026C106.432 19.2801 107.784 20.1357 108.943 21.2239C110.037 22.28 110.94 23.5214 111.611 24.8921C112.213 26.2663 112.533 27.7497 112.551 29.2526C112.511 30.7187 112.162 32.1593 111.529 33.4788C110.849 34.7557 109.937 35.8915 108.841 36.8266C107.663 37.7963 106.324 38.5451 104.885 39.0379C103.324 39.5523 101.694 39.8241 100.051 39.8439Z" fill="black"/>
<path d="M83.0026 79.7704C82.8596 75.3789 78.5873 74.6039 74.3252 74.5522C70.5946 74.5522 66.9561 74.6452 63.3891 74.8416C63.154 84.2239 63.1947 84.4925 63.021 89.0804C65.0651 89.194 66.1486 89.0804 70.104 88.946L70.3186 84.6269C75.7561 84.8749 83.1662 84.7922 83.0026 79.7704ZM72.5877 81.31C71.8717 81.3359 71.1547 81.3152 70.4413 81.248C70.4413 80.4834 70.4413 79.5844 70.5844 78.5511C72.0543 78.3221 73.5502 78.3221 75.0202 78.5511C75.4597 78.6751 75.6743 79.0471 75.6743 79.6567C75.6948 80.7727 74.6727 81.31 72.6081 81.31H72.5877Z" fill="white"/>
<path d="M94.7364 76.1023C92.8966 75.6579 88.512 76.1023 86.6314 76.1023C83.422 83.4524 81.4665 87.868 80.7646 89.3491C82.6331 89.5248 84.5112 89.5731 86.3861 89.4938L87.0708 87.7475C90.2903 87.7475 92.0994 87.7475 92.4878 87.8198C92.6585 88.4297 92.8949 89.0188 93.193 89.5764C95.5847 89.6797 94.8079 89.5764 100.348 89.2664L99.581 87.4582C96.3921 80.0115 94.7772 76.2263 94.7364 76.1023ZM88.4506 84.3686C88.8287 83.3973 89.626 81.2687 90.0451 79.9151C90.2495 80.7211 90.689 82.1987 91.3533 84.3686H88.4506Z" fill="white"/>
<path d="M115.822 83.2113C117.58 82.581 119.143 81.4133 119.092 79.2848C119.092 77.3628 117.733 76.1849 115.004 75.7406C110.643 75.3944 106.262 75.3944 101.901 75.7406C101.727 78.9438 101.38 87.0241 101.39 89.1734C103.659 89.0907 104.814 89.0494 107.686 89.0081C107.706 89.0055 107.724 88.9957 107.737 88.9805C107.75 88.9652 107.758 88.9456 107.757 88.9254L107.931 84.3169L110.18 84.1619C110.476 84.9265 112.479 89.1011 112.868 89.8037L120.022 88.8324C119.695 88.4397 116.241 83.6143 115.822 83.2113ZM112.081 81.1447C111.059 81.744 109.199 81.6717 108.095 81.8473L108.248 79.2331C109.802 79.2331 112.51 78.8198 112.571 80.2664C112.569 80.4357 112.522 80.6012 112.436 80.7464C112.35 80.8916 112.227 81.0111 112.081 81.093V81.1447Z" fill="white"/>
<path d="M132.584 75.4304C132.318 75.6784 128.495 80.5969 128.189 80.9896C128.336 79.2706 128.336 77.542 128.189 75.8231C126.86 75.8231 122.782 75.9057 121.525 76.0297C121.443 78.5406 121.014 85.9287 121.146 89.3489C122.509 89.3489 124.761 89.2972 127.902 89.1939C127.902 88.9253 128.035 84.7301 128.045 84.3271C129.609 85.9287 132.563 88.5223 134.393 89.9999C134.924 89.6382 139.748 87.6853 140.453 87.3857L134.444 82.6222C135.353 81.6922 138.174 78.8506 139.176 77.745L132.584 75.4304Z" fill="white"/>
</svg>
