<svg width="35" height="41" viewBox="0 0 35 41" fill="none" xmlns="http://www.w3.org/2000/svg">
<path d="M34.861 20.8099C34.861 25.8907 34.861 30.9716 34.861 36.0525C34.861 37.9121 34.3796 39.5176 32.1201 40.3611C29.8607 41.2045 28.058 40.4424 26.3789 39.1823C23.2551 36.8451 20.2054 34.4876 16.9089 32.2622C15.8857 31.6011 14.6493 31.2019 13.353 31.1139C10.5873 30.9411 7.78461 31.1139 4.99425 31.0428C1.89522 30.9818 0.0555602 29.5591 0.0555602 26.9781C-0.0185201 22.8117 -0.0185201 18.6454 0.0555602 14.4791C0.0555602 11.7761 1.9077 10.0384 5.1302 10.4144C12.3654 11.268 17.8595 9.07304 22.5883 4.85592C23.9977 3.77048 25.4819 2.75262 27.0333 1.80739C27.6946 1.25885 28.5484 0.895092 29.4744 0.767462C30.4004 0.639832 31.3517 0.754768 32.1941 1.09606C33.0491 1.4153 33.764 1.94361 34.2411 2.60909C34.7183 3.27458 34.9348 4.04494 34.861 4.81529V20.8099Z" fill="white"/>
</svg>
