<svg width="271" height="351" viewBox="0 0 271 351" fill="none" xmlns="http://www.w3.org/2000/svg">
<path d="M80.1779 144.303L80.1031 121.16L80.1031 10.2491C79.8141 8.28296 80.318 6.28258 81.504 4.68799C82.6899 3.09339 84.4607 2.03521 86.4268 1.74624C88.393 1.45727 90.3933 1.96119 91.9879 3.14712C93.5825 4.33305 94.6407 6.10386 94.9297 8.06998L99.4321 24.2799C99.7756 25.4188 100.476 26.4171 101.43 27.1278C102.384 27.8384 103.541 28.2237 104.73 28.2269C124.781 22.5709 146.005 22.5709 166.056 28.2269C167.244 28.2254 168.4 27.8405 169.351 27.1293C170.303 26.4182 171 25.4188 171.338 24.2799L175.84 8.06999C176.129 6.10387 177.187 4.33305 178.782 3.14712C180.377 1.9612 182.377 1.45727 184.343 1.74625C186.309 2.03522 188.08 3.0934 189.266 4.688C190.452 6.28259 190.956 8.28297 190.667 10.2491L190.667 121.187L190.667 144.287" fill="#4D7CC1"/>
<path d="M135.377 56.7745L190.656 58.9804C190.656 58.9804 166.568 41.7664 166.088 28.259C146.004 22.6096 124.75 22.6096 104.666 28.259C104.17 41.7664 80.0978 59.0071 80.0978 59.0071L135.377 56.7745Z" stroke="black" stroke-width="2.98" stroke-linecap="round" stroke-linejoin="round"/>
<path d="M80.1779 72.9203L124.962 64.113C128.265 65.5375 131.825 66.2723 135.422 66.2723C139.02 66.2723 142.579 65.5375 145.883 64.113L190.656 72.9203L190.656 59.0337L152.201 51.5296C149.787 47.1767 143.196 44.0522 135.409 44.0522C127.622 44.0522 121.031 47.2034 118.612 51.5296L80.1565 59.0337L80.1779 72.9203Z" fill="#FFE500" stroke="black" stroke-width="2.98" stroke-linecap="round" stroke-linejoin="round"/>
<path d="M80.1779 121.203L80.1031 121.203L80.1031 10.249C79.8141 8.28288 80.318 6.28251 81.504 4.68792C82.6899 3.09332 84.4607 2.03514 86.4268 1.74617C88.393 1.4572 90.3933 1.96111 91.9879 3.14704C93.5825 4.33297 94.6407 6.10379 94.9297 8.06991L99.4321 24.2798C99.7756 25.4187 100.476 26.4171 101.43 27.1277C102.384 27.8383 103.541 28.2237 104.73 28.2268C124.781 22.5708 146.005 22.5708 166.056 28.2268C167.244 28.2253 168.4 27.8404 169.351 27.1292C170.303 26.4181 171 25.4187 171.338 24.2798L175.84 8.06992C176.129 6.10379 177.187 4.33297 178.782 3.14704C180.377 1.96111 182.377 1.4572 184.343 1.74617C186.309 2.03514 188.08 3.09333 189.266 4.68792C190.452 6.28252 190.956 8.28289 190.667 10.249L190.667 121.187" stroke="black" stroke-width="2.98" stroke-linecap="round" stroke-linejoin="round"/>
<path d="M42.2409 140.067C42.8284 132.114 42.1554 124.204 24.9521 116.94C-15.9011 111.957 4.61894 168.257 29.759 148.265L30.2076 148.847C30.7351 149.752 31.4466 150.536 32.2962 151.148C33.1458 151.76 34.1146 152.187 35.1396 152.401C36.1647 152.615 37.2232 152.611 38.2467 152.39C39.2702 152.168 40.2358 151.735 41.0811 151.117C41.9263 150.498 42.6323 149.71 43.1533 148.801C43.6743 147.893 43.9987 146.885 44.1055 145.844C44.2123 144.802 44.0992 143.75 43.7734 142.754C43.4476 141.759 42.9164 140.844 42.2142 140.067L42.2409 140.067Z" fill="white" stroke="black" stroke-width="2.98" stroke-linecap="round" stroke-linejoin="round"/>
<path d="M29.7587 148.324C29.7587 148.324 22.041 136.766 25.1655 134.742C28.29 132.718 32.1889 133.241 34.0796 136.243" stroke="black" stroke-width="2.98" stroke-linecap="round" stroke-linejoin="round"/>
<path d="M80.0659 121.16C57.6337 106.301 41.8511 109.137 24.9522 116.94C42.1556 124.204 42.8285 132.114 42.241 140.067C42.3318 139.965 59.9838 122.885 85.3481 148.025" fill="#4D7CC1"/>
<path d="M80.0659 121.16C57.6337 106.301 41.8511 109.137 24.9522 116.94C42.1556 124.204 42.8285 132.114 42.241 140.067C42.3318 139.965 59.9838 122.885 85.3481 148.025" stroke="black" stroke-width="2.98" stroke-linecap="round" stroke-linejoin="round"/>
<path d="M228.513 140.067C227.942 132.114 228.615 124.204 245.818 116.941C286.655 111.957 266.114 168.257 241.011 148.265L240.557 148.848C240.03 149.752 239.318 150.536 238.469 151.148C237.619 151.76 236.65 152.187 235.625 152.401C234.6 152.615 233.542 152.611 232.518 152.39C231.495 152.169 230.529 151.735 229.684 151.117C228.839 150.499 228.133 149.71 227.612 148.802C227.091 147.893 226.766 146.886 226.659 145.844C226.553 144.802 226.666 143.75 226.992 142.755C227.317 141.759 227.849 140.844 228.551 140.067L228.513 140.067Z" fill="white" stroke="black" stroke-width="2.98" stroke-linecap="round" stroke-linejoin="round"/>
<path d="M241.012 148.324C241.012 148.324 248.713 136.766 245.514 134.742C242.315 132.718 238.507 133.241 236.6 136.243" stroke="black" stroke-width="2.98" stroke-linecap="round" stroke-linejoin="round"/>
<path d="M185.422 148.009C210.802 122.869 228.438 139.95 228.524 140.051C227.958 132.098 228.631 124.188 245.829 116.925C228.844 109.121 213.174 106.344 190.629 121.197" fill="#4D7CC1"/>
<path d="M185.422 148.009C210.802 122.869 228.438 139.95 228.524 140.051C227.958 132.098 228.631 124.188 245.829 116.925C228.844 109.121 213.174 106.344 190.629 121.197" stroke="black" stroke-width="2.98" stroke-linecap="round" stroke-linejoin="round"/>
<path d="M182.693 147.993C185.541 144.978 188.653 142.224 191.992 139.763C176.839 122.773 157.11 112.561 135.377 112.561C113.661 112.561 93.9311 122.778 78.7627 139.768C82.2241 142.284 85.4282 145.135 88.3284 148.282L182.693 147.993Z" fill="#4C70BF"/>
<path d="M135.377 124.899C74.3669 124.899 24.9041 174.362 24.904 235.377C24.904 296.393 74.3669 345.85 135.377 345.85C196.387 345.85 245.845 296.387 245.845 235.377C245.845 174.367 196.382 124.899 135.366 124.899L135.377 124.899Z" fill="#FCD700"/>
<mask id="mask0_702_7041" style="mask-type:luminance" maskUnits="userSpaceOnUse" x="24" y="124" width="222" height="222">
<path d="M135.377 124.899C74.3669 124.899 24.9041 174.362 24.904 235.377C24.904 296.393 74.3669 345.85 135.377 345.85C196.387 345.85 245.845 296.387 245.845 235.377C245.845 174.367 196.382 124.899 135.366 124.899L135.377 124.899Z" fill="white"/>
</mask>
<g mask="url(#mask0_702_7041)">
<path d="M71.9366 218.767C40.687 218.767 15.3542 244.1 15.3542 275.349C15.3542 306.599 40.687 331.932 71.9366 331.932C103.186 331.932 128.519 306.599 128.519 275.349C128.519 244.1 103.186 218.767 71.9366 218.767Z" fill="#F9BD00"/>
<path d="M198.817 218.767C167.568 218.767 142.235 244.1 142.235 275.349C142.235 306.599 167.568 331.932 198.817 331.932C230.067 331.932 255.4 306.599 255.4 275.349C255.4 244.1 230.067 218.767 198.817 218.767Z" fill="#F9BD00"/>
<path d="M135.377 132.029C191.084 132.029 238.816 170.228 248.761 222.767C260.201 162.82 218.777 105.34 156.234 94.3697C149.347 93.1642 142.368 92.5619 135.377 92.5698C71.7286 92.5377 20.1506 141.953 20.1186 202.925C20.1141 209.583 20.7382 216.227 21.9826 222.767C31.9382 170.233 79.6653 132.04 135.377 132.029Z" fill="#F9BD00"/>
</g>
<path d="M135.377 124.899C74.367 124.899 24.904 174.362 24.904 235.377C24.904 296.393 74.3669 345.85 135.377 345.85C196.387 345.85 245.845 296.387 245.845 235.377C245.845 174.367 196.382 124.899 135.366 124.899L135.377 124.899Z" stroke="black" stroke-width="2.98" stroke-linecap="round" stroke-linejoin="round"/>
<path d="M73.9398 227.136C45.1532 227.136 21.8171 250.472 21.8171 279.259C21.8171 308.045 45.1532 331.381 73.9398 331.381C102.726 331.381 126.063 308.045 126.063 279.259C126.063 250.472 102.726 227.136 73.9398 227.136Z" fill="white" stroke="black" stroke-width="2.98" stroke-linecap="round" stroke-linejoin="round"/>
<path d="M47.849 289.818C44.4598 289.818 41.7122 292.565 41.7122 295.954C41.7122 299.344 44.4598 302.091 47.849 302.091C51.2383 302.091 53.9858 299.344 53.9858 295.954C53.9858 292.565 51.2383 289.818 47.849 289.818Z" fill="black"/>
<path d="M196.82 227.136C168.033 227.136 144.697 250.472 144.697 279.259C144.697 308.045 168.033 331.381 196.82 331.381C225.606 331.381 248.942 308.045 248.942 279.259C248.942 250.472 225.606 227.136 196.82 227.136Z" fill="white" stroke="black" stroke-width="2.98" stroke-linecap="round" stroke-linejoin="round"/>
<path d="M222.905 289.818C219.516 289.818 216.768 292.565 216.768 295.955C216.768 299.344 219.516 302.091 222.905 302.091C226.294 302.091 229.042 299.344 229.042 295.955C229.042 292.565 226.294 289.818 222.905 289.818Z" fill="black"/>
<path d="M255.362 334.762C254.652 344.509 240.872 351.885 231.269 347.153M15.3917 334.762C16.0913 344.509 29.8818 351.885 39.4902 347.153" stroke="black" stroke-width="2.98" stroke-linecap="round" stroke-linejoin="round"/>
<path d="M134.843 173.544C122.793 173.544 113.025 184.573 113.025 198.177C113.025 211.781 122.793 222.81 134.843 222.81C146.893 222.81 156.661 211.781 156.661 198.177C156.661 184.573 146.893 173.544 134.843 173.544Z" fill="black"/>
<mask id="mask1_702_7041" style="mask-type:luminance" maskUnits="userSpaceOnUse" x="113" y="173" width="44" height="50">
<path d="M134.849 173.544C122.799 173.544 113.031 184.573 113.031 198.177C113.031 211.781 122.799 222.81 134.849 222.81C146.898 222.81 156.667 211.781 156.667 198.177C156.667 184.573 146.898 173.544 134.849 173.544Z" fill="white"/>
</mask>
<g mask="url(#mask1_702_7041)">
<path d="M134.843 150.397C120.39 150.397 108.672 157.948 108.672 167.263C108.672 176.579 120.39 184.13 134.843 184.13C149.297 184.13 161.014 176.579 161.014 167.263C161.014 157.948 149.297 150.397 134.843 150.397Z" fill="#FF7BAC"/>
</g>
<path d="M134.843 173.544C122.793 173.544 113.025 184.573 113.025 198.177C113.025 211.781 122.793 222.81 134.843 222.81C146.893 222.81 156.661 211.781 156.661 198.177C156.661 184.573 146.893 173.544 134.843 173.544Z" stroke="black" stroke-width="2.98" stroke-linecap="round" stroke-linejoin="round"/>
</svg>
