<svg width="234" height="268" viewBox="0 0 234 268" fill="none" xmlns="http://www.w3.org/2000/svg">
<path d="M156.957 85.9127C156.4 85.2836 155.864 84.7037 155.355 84.098C154.817 83.509 154.427 82.8004 154.217 82.0308C154.164 81.8101 154.059 81.5614 154.366 81.3365C154.448 81.4198 154.548 81.4942 154.633 81.5837L156.422 83.4629C157.149 84.2044 157.983 84.8327 158.896 85.3272C160.489 86.2154 162.158 86.4071 163.886 85.7324C165.639 85.0714 167.223 84.0277 168.522 82.6774C169.634 81.5076 170.446 80.1469 170.537 78.4675C170.571 77.844 170.892 77.474 171.466 77.2318C173.04 76.5981 174.496 75.7026 175.771 74.5833C177.733 72.872 179.229 70.6904 180.118 68.2429C180.586 67.0086 180.729 65.675 180.534 64.3695C180.445 63.6819 180.201 63.0235 179.82 62.4439C179.588 62.0751 179.246 61.7888 178.842 61.626C178.438 61.4632 177.993 61.4321 177.57 61.5373C176.891 61.6925 176.278 62.0593 175.821 62.5848C175.113 63.3395 174.435 64.1204 173.727 64.9087C173.76 65.0808 173.802 65.2512 173.852 65.4191C174.712 67.7833 174.416 70.0449 173.205 72.2029C172.381 73.6949 171.162 74.9316 169.682 75.7776C168.422 76.5337 166.923 76.785 165.486 76.4808C164.945 76.3724 164.425 76.1797 163.944 75.9097C162.948 75.333 162.429 74.4244 162.38 73.2039C160.983 73.1356 159.727 72.7781 159.006 71.5404L156.465 71.5224C156.582 73.3613 156.567 73.5431 155.961 74.8889C155.608 75.6745 155.27 76.4755 154.504 76.9758C154.293 76.8255 154.421 76.6723 154.48 76.5291C154.74 75.9261 155.018 75.3325 155.254 74.7216C155.516 74.0022 155.581 73.2256 155.441 72.4728C155.286 71.5219 154.901 70.7064 154.072 70.1298C152.826 69.2617 151.96 68.0548 151.199 66.7694C150.669 65.8323 150.399 64.7712 150.415 63.6949C150.411 63.6016 150.479 63.5075 150.542 63.3429C150.655 63.4169 150.755 63.5093 150.837 63.6164C151.103 64.177 151.33 64.7571 151.598 65.3177C152.418 67.0082 153.728 68.412 155.359 69.3454C155.9 69.6471 156.476 69.8825 157.074 70.0467C158.506 70.4593 160.636 69.2503 160.314 67.0823C160.248 66.6397 160.129 66.2068 159.958 65.7931C158.351 61.9723 154.871 60.4853 151.43 61.1146C149.252 61.5159 147.59 62.792 146.318 64.5489C146.026 65.0159 145.812 65.5271 145.683 66.0626C145.02 68.2274 145.481 73.1671 146.909 75.5398C147.861 77.1267 149.118 78.3588 150.828 79.1012C151.135 79.2357 151.44 79.3761 151.755 79.5152C151.63 79.8045 151.447 79.7141 151.313 79.6823C149.833 79.4083 148.433 78.9393 147.284 77.9193C147.164 77.7941 147.007 77.7096 146.836 77.6775C146.665 77.6455 146.488 77.6675 146.33 77.7406C145.888 77.9281 145.475 78.1769 145.102 78.4796C144.713 78.8123 144.663 79.3224 144.705 79.8228C144.805 80.7929 145.214 81.7055 145.87 82.4269C146.778 83.5175 147.854 84.4567 149.057 85.2093C150.042 85.8473 151.084 86.3926 152.17 86.8381C152.618 87.0195 153.081 87.159 153.554 87.2549C154.85 87.4981 155.934 87.0589 156.861 86.1671C156.895 86.1247 156.903 86.0437 156.957 85.9127Z" fill="#FCD700"/>
<path d="M160.022 62.5432C160.957 61.5333 161.798 60.4405 162.535 59.2784C163.211 58.2347 163.774 57.1223 164.216 55.9598C165.008 53.7504 165.188 51.5199 164.431 49.2606C164.247 48.6273 163.896 48.0555 163.413 47.6058C162.736 47.0046 162.063 46.9798 161.371 47.565C160.702 48.1668 160.144 48.8813 159.723 49.676C159.167 50.6723 158.741 51.7354 158.456 52.8396C158.289 53.4389 158.135 54.0413 157.942 54.6312C157.417 56.3569 156.475 57.9265 155.198 59.2011C155.115 59.2926 155.038 59.3888 154.966 59.4893C155.054 59.5809 155.156 59.6564 155.27 59.7124C156.917 60.145 158.401 61.0504 159.54 62.317C159.613 62.3904 159.694 62.4554 159.781 62.5104C159.81 62.5336 159.847 62.5217 160.022 62.5432Z" fill="#FCD700"/>
<path d="M160.918 64.1938C161.578 63.8071 162.1 63.3855 162.784 63.3538C162.868 63.35 162.956 63.415 163.133 63.4809C162.552 64.0931 162.016 64.6583 161.452 65.2538C161.545 65.6201 161.64 65.9788 161.725 66.3435C161.943 67.3134 161.933 68.278 161.499 69.182C161.266 69.6028 160.99 69.9979 160.674 70.3607C160.482 70.5756 160.276 70.7779 160.057 70.9664C160.347 71.3669 160.777 71.6434 161.262 71.7408C161.906 71.894 162.58 71.8541 163.2 71.6262C164.192 71.3067 165.083 70.7327 165.783 69.9613C167.199 68.4217 168.066 66.4571 168.249 64.3735C168.371 63.0189 168.022 61.6638 167.26 60.5372C166.934 60.0025 166.46 59.5729 165.897 59.2996C165.618 59.1691 165.321 59.0817 165.016 59.0405C164.81 59.0043 164.599 59.0322 164.41 59.1204C164.222 59.2086 164.064 59.3529 163.961 59.5335C163.647 60.0265 163.298 60.4968 162.918 60.9409C162.176 61.8023 161.401 62.6358 160.58 63.5377L160.918 64.1938Z" fill="#FCD700"/>
<path d="M169.727 64.137C169.253 68.1612 167.42 71.2077 163.631 72.9147C163.755 73.7017 164.099 74.2722 164.841 74.5988C166.2 75.1942 167.566 75.1721 168.836 74.4595C171.114 73.1785 172.467 71.2175 172.769 68.5891C172.898 67.5865 172.717 66.5684 172.251 65.6715C172.027 65.1964 171.668 64.7976 171.22 64.5247C170.771 64.2519 170.252 64.117 169.727 64.137Z" fill="#FCD700"/>
<path d="M143.762 81.499C143.762 81.499 144.057 82.7512 146.592 85.2434C149.127 87.7355 150.402 88.0362 150.402 88.0362L131.549 107.189L124.908 100.651L143.762 81.499Z" fill="#FCD700"/>
<path d="M83.1217 74.5805C83.8299 74.1287 84.5045 73.7185 85.1609 73.2762C85.8401 72.8578 86.4099 72.2838 86.8232 71.6015C86.9348 71.4039 87.1038 71.1936 86.8711 70.8931C86.7695 70.9508 86.6527 70.9947 86.5466 71.0574L84.3095 72.3722C83.4065 72.8851 82.4318 73.2599 81.4178 73.4842C79.6427 73.9003 77.985 73.6256 76.5092 72.5018C75.0053 71.3842 73.7697 69.9452 72.8923 68.2897C72.1449 66.8593 71.7377 65.3277 72.1122 63.688C72.2515 63.0794 72.0441 62.6352 71.5587 62.2444C70.2197 61.2023 69.0666 59.9412 68.1483 58.5144C66.7319 56.3294 65.8937 53.8205 65.712 51.223C65.6017 49.9076 65.8307 48.586 66.3772 47.3845C66.6521 46.748 67.0679 46.1821 67.5932 45.7295C67.9173 45.4386 68.3251 45.2574 68.7583 45.212C69.1915 45.1665 69.6279 45.2591 70.0054 45.4764C70.6159 45.8125 71.1041 46.3336 71.3997 46.9647C71.8724 47.8848 72.3101 48.8223 72.7738 49.7748C72.6946 49.9312 72.6076 50.0834 72.5132 50.2311C71.0365 52.2678 70.6984 54.5233 71.2698 56.9313C71.6521 58.5925 72.4839 60.1166 73.674 61.337C74.6771 62.4103 76.0493 63.064 77.5148 63.1668C78.0645 63.2113 78.6177 63.169 79.1543 63.0417C80.2704 62.7611 81.0191 62.0302 81.4023 60.8703C82.7641 61.1888 84.0704 61.1905 85.1035 60.1988L87.5514 60.8801C86.9332 62.6159 86.8981 62.795 87.1107 64.2555C87.2341 65.1079 87.3387 65.9709 87.9377 66.6626C88.182 66.5762 88.1007 66.3936 88.0829 66.2396C87.9992 65.5885 87.8953 64.9413 87.8358 64.289C87.7818 63.5252 87.9334 62.7609 88.2749 62.0756C88.6849 61.2038 89.2795 60.5256 90.2354 60.1993C91.6716 59.7072 92.8362 58.785 93.9217 57.7585C94.6884 57.0031 95.2405 56.0573 95.5211 55.0181C95.5503 54.9294 95.5106 54.8202 95.4956 54.6447C95.3664 54.6847 95.245 54.7461 95.1362 54.8264C94.727 55.2924 94.3493 55.7877 93.9372 56.253C92.6842 57.6529 91.0378 58.6421 89.2135 59.0912C88.61 59.2323 87.9917 59.3004 87.3719 59.2939C85.8819 59.2969 84.1659 57.5487 85.0715 55.5527C85.2567 55.1453 85.4907 54.762 85.7685 54.4112C88.3645 51.1797 92.1187 50.7067 95.2545 52.2581C97.2381 53.2428 98.485 54.9267 99.2248 56.9656C99.377 57.4949 99.4427 58.0453 99.4192 58.5956C99.4611 60.8592 97.6599 65.4818 95.6341 67.3703C94.2832 68.6344 92.7356 69.4732 90.8874 69.7169C90.5547 69.7616 90.2234 69.8129 89.8821 69.86C89.9228 70.1725 90.1232 70.1358 90.2611 70.1421C91.7598 70.2858 93.2339 70.2196 94.6193 69.555C94.7698 69.4677 94.9437 69.4296 95.1169 69.4458C95.2901 69.462 95.4539 69.5317 95.5856 69.6454C95.9591 69.9473 96.2883 70.3002 96.5636 70.6938C96.8456 71.1204 96.7541 71.6249 96.5755 72.0942C96.2124 72.9994 95.569 73.7646 94.7396 74.2777C93.5665 75.0765 92.2738 75.6836 90.91 76.0763C89.7876 76.4189 88.6358 76.6566 87.4694 76.7864C86.9892 76.8377 86.5053 76.8445 86.0239 76.8065C84.7112 76.684 83.7902 75.9638 83.1438 74.8514C83.1227 74.8012 83.1369 74.7211 83.1217 74.5805Z" fill="#FCD700"/>
<path d="M86.6008 51.2691C85.9799 50.041 85.4718 48.7592 85.0829 47.4392C84.72 46.2498 84.4841 45.0253 84.379 43.7862C84.2255 41.4443 84.6656 39.2502 86.0144 37.2861C86.3653 36.7278 86.8607 36.2748 87.4481 35.975C88.265 35.5833 88.9183 35.7445 89.4228 36.4973C89.9003 37.2598 90.2402 38.1002 90.4271 38.9803C90.6872 40.0908 90.8042 41.2301 90.7753 42.3703C90.7704 42.9922 90.7528 43.6138 90.7768 44.2341C90.8069 46.0376 91.2813 47.8058 92.1579 49.3822C92.2125 49.493 92.2605 49.6069 92.3018 49.7232C92.1926 49.7872 92.073 49.8315 91.9485 49.8542C90.2459 49.8172 88.5698 50.2795 87.1269 51.1842C87.0368 51.2348 86.9411 51.275 86.8418 51.3038C86.8077 51.3182 86.7756 51.2966 86.6008 51.2691Z" fill="#FCD700"/>
<path d="M85.2858 52.6096C84.758 52.0565 84.3717 51.5075 83.7231 51.289C83.6432 51.2622 83.5407 51.3005 83.3527 51.3153C83.7427 52.0635 84.1025 52.7543 84.4807 53.4819C84.2907 53.8085 84.1013 54.1274 83.9191 54.4546C83.4422 55.327 83.1873 56.2574 83.3556 57.2458C83.4635 57.7143 83.6207 58.1702 83.8243 58.6057C83.9503 58.8653 84.093 59.1165 84.2513 59.3578C83.8623 59.6632 83.3725 59.8107 82.8797 59.771C82.219 59.7415 81.5818 59.5177 81.0477 59.1278C80.1819 58.548 79.4835 57.7512 79.0222 56.8169C78.0843 54.9473 77.7911 52.8201 78.188 50.7665C78.4432 49.4306 79.1518 48.2239 80.1942 47.3502C80.6548 46.9258 81.2277 46.6428 81.8447 46.535C82.1488 46.4863 82.4585 46.484 82.7632 46.5282C82.9705 46.5499 83.166 46.6348 83.3233 46.7715C83.4805 46.9083 83.5918 47.0901 83.6421 47.2923C83.8084 47.8527 84.0139 48.4006 84.2572 48.9321C84.7338 49.9643 85.2502 50.979 85.791 52.0717L85.2858 52.6096Z" fill="#FCD700"/>
<path d="M76.83 50.1324C76.1791 54.1318 77.1038 57.565 80.2779 60.2482C79.9423 60.9708 79.454 61.4245 78.6513 61.5346C77.1803 61.7333 75.8735 61.3365 74.8487 60.3022C73.0107 58.4441 72.2488 56.1866 72.6814 53.5765C72.8332 52.5772 73.287 51.6481 73.9818 50.9139C74.3276 50.5186 74.7819 50.2338 75.2883 50.0948C75.7948 49.9559 76.3309 49.9689 76.83 50.1324Z" fill="#FCD700"/>
<path d="M97.0215 73.9653C97.0215 73.9653 96.3935 75.0881 93.271 76.7871C90.1484 78.4862 88.8391 78.4244 88.8391 78.4244L101.699 102.023L109.882 97.5637L97.0215 73.9653Z" fill="#FCD700"/>
<path fill-rule="evenodd" clip-rule="evenodd" d="M115.608 12.2305C124.078 12.2305 130.943 19.0962 130.943 27.5654V209.66C130.943 218.129 124.078 224.995 115.608 224.995C107.139 224.995 100.273 218.129 100.273 209.66V27.5654C100.273 19.0962 107.139 12.2305 115.608 12.2305Z" fill="#FCD700"/>
<path fill-rule="evenodd" clip-rule="evenodd" d="M115.608 267.191C107.139 267.191 100.273 260.326 100.273 251.856L100.273 251.375C100.273 242.906 107.139 236.04 115.608 236.04C124.078 236.04 130.943 242.906 130.943 251.375L130.943 251.856C130.943 260.326 124.078 267.191 115.608 267.191Z" fill="#FCD700"/>
<path fill-rule="evenodd" clip-rule="evenodd" d="M218.76 3.06896C227.147 4.24129 232.997 11.9912 231.824 20.379L206.619 200.721C205.446 209.108 197.696 214.958 189.309 213.785C180.921 212.613 175.072 204.863 176.244 196.475L201.45 16.1336C202.622 7.7459 210.372 1.89664 218.76 3.06896Z" fill="#4D7CC1"/>
<path fill-rule="evenodd" clip-rule="evenodd" d="M17.3116 3.00926C25.7323 2.10396 33.2926 8.19644 34.1979 16.6172L53.6623 197.668C54.5676 206.089 48.4751 213.649 40.0543 214.555C31.6336 215.46 24.0733 209.368 23.168 200.947L3.70363 19.8956C2.79834 11.4748 8.89082 3.91455 17.3116 3.00926Z" fill="#F6611A"/>
<path fill-rule="evenodd" clip-rule="evenodd" d="M45.4597 254.687C37.039 255.592 29.4787 249.5 28.5734 241.079L28.522 240.601C27.6167 232.18 33.7092 224.62 42.1299 223.714C50.5507 222.809 58.1109 228.902 59.0162 237.322L59.0677 237.801C59.973 246.222 53.8805 253.782 45.4597 254.687Z" fill="#F6611A"/>
<path d="M27.4896 24.8713C32.095 23.4592 34.6837 18.5811 33.2716 13.9757C31.8595 9.37029 26.9814 6.78159 22.3759 8.19368C17.7705 9.60576 15.1818 14.4839 16.5939 19.0893C18.006 23.6947 22.8842 26.2834 27.4896 24.8713Z" fill="white"/>
<path d="M33.1722 34.9084C37.7776 33.4964 40.3663 28.6182 38.9542 24.0128C37.5421 19.4074 32.664 16.8187 28.0586 18.2308C23.4532 19.6429 20.8644 24.521 22.2765 29.1264C23.6886 33.7318 28.5668 36.3205 33.1722 34.9084Z" fill="#F6611A"/>
<path d="M14.1741 28.9539C18.7795 27.5418 21.3682 22.6636 19.9561 18.0582C18.544 13.4528 13.6659 10.8641 9.0605 12.2762C4.4551 13.6883 1.8664 18.5664 3.27849 23.1718C4.69057 27.7772 9.56871 30.3659 14.1741 28.9539Z" fill="white"/>
<path d="M15.0931 40.4519C19.6985 39.0398 22.2872 34.1617 20.8751 29.5563C19.463 24.9509 14.5849 22.3622 9.97945 23.7742C5.37404 25.1863 2.78535 30.0645 4.19743 34.6699C5.60952 39.2753 10.4877 41.864 15.0931 40.4519Z" fill="#F6611A"/>
<path d="M22.5245 17.6662C23.8541 17.2585 24.6015 15.8501 24.1938 14.5205C23.7861 13.1909 22.3778 12.4435 21.0481 12.8512C19.7185 13.2589 18.9711 14.6672 19.3788 15.9969C19.7865 17.3265 21.1949 18.0739 22.5245 17.6662Z" fill="#262626"/>
<path d="M13.3516 20.4792C14.6813 20.0715 15.4287 18.6631 15.021 17.3335C14.6133 16.0039 13.2049 15.2565 11.8753 15.6642C10.5457 16.0719 9.79827 17.4802 10.206 18.8099C10.6136 20.1395 12.022 20.8869 13.3516 20.4792Z" fill="#262626"/>
<path d="M30.9024 33.5227L16.1967 38.0317C14.5122 38.5482 13.5058 37.3491 12.9894 35.6646L12.5631 34.2743C12.0466 32.5898 12.2078 31.0327 13.8923 30.5162L28.598 26.0072C30.2825 25.4907 31.2888 26.6898 31.8053 28.3743L32.2316 29.7647C32.7481 31.4491 32.5869 33.0062 30.9024 33.5227Z" fill="#262626"/>
<path fill-rule="evenodd" clip-rule="evenodd" d="M16.1966 38.0319L30.9024 33.5229C30.913 33.5196 30.9236 33.5163 30.9342 33.513C28.9791 32.6278 25.9705 32.563 22.8568 33.5177C19.7431 34.4724 17.2879 36.2125 16.165 38.0414C16.1755 38.0383 16.1861 38.0352 16.1966 38.0319Z" fill="#FF7BAC"/>
<path d="M123.559 124.798C128.422 124.798 132.364 120.856 132.364 115.993C132.364 111.131 128.422 107.188 123.559 107.188C118.696 107.188 114.754 111.131 114.754 115.993C114.754 120.856 118.696 124.798 123.559 124.798Z" fill="white"/>
<path d="M109.499 124.798C114.362 124.798 118.304 120.856 118.304 115.993C118.304 111.131 114.362 107.188 109.499 107.188C104.636 107.188 100.694 111.131 100.694 115.993C100.694 120.856 104.636 124.798 109.499 124.798Z" fill="white"/>
<path d="M128.079 116.34C129.483 116.34 130.621 115.201 130.621 113.797C130.621 112.394 129.483 111.255 128.079 111.255C126.675 111.255 125.537 112.394 125.537 113.797C125.537 115.201 126.675 116.34 128.079 116.34Z" fill="#262626"/>
<path d="M104.979 116.34C106.383 116.34 107.521 115.201 107.521 113.797C107.521 112.394 106.383 111.255 104.979 111.255C103.575 111.255 102.437 112.394 102.437 113.797C102.437 115.201 103.575 116.34 104.979 116.34Z" fill="#262626"/>
<path d="M116.528 140.547C119.902 140.547 122.636 137.228 122.636 133.134C122.636 129.04 119.902 125.721 116.528 125.721C113.155 125.721 110.421 129.04 110.421 133.134C110.421 137.228 113.155 140.547 116.528 140.547Z" fill="#262626"/>
<path fill-rule="evenodd" clip-rule="evenodd" d="M120.869 138.349C119.762 139.706 118.226 140.547 116.528 140.547C114.83 140.547 113.294 139.706 112.187 138.348C113.401 137.728 114.902 137.362 116.527 137.362C118.152 137.362 119.654 137.729 120.869 138.349Z" fill="#FF7BAC"/>
<path fill-rule="evenodd" clip-rule="evenodd" d="M180.326 257.265C172.151 255.052 167.318 246.63 169.531 238.455L169.657 237.991C171.87 229.816 180.291 224.983 188.466 227.196C196.641 229.409 201.474 237.83 199.261 246.005L199.135 246.47C196.922 254.645 188.501 259.478 180.326 257.265Z" fill="#4D7CC1"/>
<path d="M182.484 257.125C184.088 257.327 185.567 256.072 185.788 254.322C186.008 252.571 184.888 250.988 183.284 250.786C181.68 250.583 180.201 251.838 179.98 253.589C179.76 255.339 180.88 256.923 182.484 257.125Z" fill="#262626"/>
<path d="M191.675 248.928C197.23 249.628 202.301 245.694 203.001 240.14C203.702 234.585 199.768 229.514 194.213 228.814C188.659 228.113 183.588 232.047 182.887 237.602C182.186 243.156 186.121 248.227 191.675 248.928Z" fill="white"/>
<path d="M175.616 246.901C181.171 247.602 186.241 243.668 186.942 238.113C187.643 232.559 183.709 227.488 178.154 226.787C172.6 226.086 167.529 230.021 166.828 235.575C166.127 241.13 170.062 246.201 175.616 246.901Z" fill="white"/>
<path d="M190.355 241.494C191.959 241.696 193.423 240.56 193.625 238.956C193.827 237.353 192.691 235.889 191.088 235.687C189.484 235.484 188.02 236.62 187.818 238.224C187.615 239.827 188.751 241.291 190.355 241.494Z" fill="#262626"/>
<path d="M178.741 240.028C180.345 240.231 181.809 239.095 182.011 237.491C182.213 235.887 181.077 234.423 179.474 234.221C177.87 234.019 176.406 235.155 176.204 236.758C176.002 238.362 177.138 239.826 178.741 240.028Z" fill="#262626"/>
</svg>
