<svg width="421" height="465" viewBox="0 0 421 465" fill="none" xmlns="http://www.w3.org/2000/svg" preserveAspectRatio="none">
<path d="M176.679 0.329102C176.783 1.01689 176.887 1.70466 177.034 2.41146C181.633 28.6846 196.392 52.0398 218.065 67.3395C239.738 82.6392 266.55 88.6304 292.603 83.9951C299.256 82.8117 306.074 82.9612 312.67 84.4353C319.265 85.9094 325.508 88.6791 331.042 92.5863C336.576 96.4935 341.293 101.462 344.923 107.207C348.553 112.953 351.026 119.363 352.199 126.072C353.373 132.781 353.225 139.658 351.763 146.309C350.301 152.96 347.555 159.256 343.68 164.837C339.806 170.418 334.879 175.174 329.182 178.835C323.485 182.496 317.128 184.989 310.475 186.173C270.917 193.319 230.144 188.358 193.407 171.929C181.344 166.526 169.828 159.957 159.022 152.313C137.171 136.978 118.552 117.425 104.245 94.7845C89.9379 72.1443 80.2258 46.867 75.6712 20.416C74.4973 13.7543 73.6005 7.05283 72.9814 0.329103L176.679 0.329102Z" fill="#F6611A"/>
<path d="M312.146 102.087C301.814 97.4638 289.721 102.163 285.137 112.583C280.553 123.003 285.213 135.197 295.545 139.82C305.878 144.443 317.97 139.744 322.554 129.324C327.138 118.904 322.478 106.71 312.146 102.087Z" fill="white"/>
<path d="M285.16 99.8729C274.827 95.25 262.735 99.9494 258.151 110.369C253.567 120.789 258.227 132.984 268.559 137.606C278.891 142.229 290.984 137.53 295.568 127.11C300.152 116.69 295.492 104.496 285.16 99.8729Z" fill="#F6611A"/>
<path d="M316.595 134.749C306.263 130.126 294.17 134.825 289.586 145.245C285.002 155.665 289.662 167.859 299.995 172.482C310.327 177.105 322.419 172.406 327.003 161.986C331.587 151.566 326.928 139.371 316.595 134.749Z" fill="white"/>
<path d="M291.205 144.225C280.872 139.602 268.78 144.302 264.196 154.721C259.612 165.141 264.272 177.336 274.604 181.959C284.936 186.582 297.029 181.882 301.613 171.462C306.197 161.043 301.537 148.848 291.205 144.225Z" fill="#F6611A"/>
<path d="M317.793 119.077C314.807 117.741 311.311 119.099 309.986 122.111C308.661 125.123 310.008 128.647 312.995 129.984C315.981 131.32 319.476 129.961 320.801 126.95C322.126 123.938 320.78 120.413 317.793 119.077Z" fill="#262626"/>
<path d="M320.851 141.577C317.865 140.241 314.37 141.599 313.045 144.611C311.72 147.622 313.066 151.147 316.053 152.483C319.039 153.82 322.535 152.461 323.86 149.449C325.185 146.438 323.838 142.913 320.851 141.577Z" fill="#262626"/>
<path d="M261.748 125.084L266.665 161.161C267.238 165.264 270.78 166.258 274.849 165.681L278.235 165.209C282.304 164.631 285.485 162.746 284.948 158.621L280.026 122.555C279.453 118.452 275.916 117.446 271.848 118.023L268.461 118.496C264.369 119.011 261.209 120.906 261.748 125.084Z" fill="#262626"/>
<mask id="mask0_702_7043" style="mask-type:luminance" maskUnits="userSpaceOnUse" x="261" y="117" width="25" height="49">
<path d="M261.748 125.084L266.665 161.161C267.238 165.264 270.78 166.258 274.849 165.681L278.235 165.209C282.304 164.631 285.485 162.746 284.948 158.621L280.026 122.555C279.453 118.452 275.916 117.446 271.848 118.023L268.461 118.496C264.369 119.011 261.209 120.906 261.748 125.084Z" fill="white"/>
</mask>
<g mask="url(#mask0_702_7043)">
<path d="M255.2 122.473C248.746 123.367 244.814 133.652 246.419 145.445C248.025 157.239 254.558 166.075 261.013 165.182C267.468 164.289 271.399 154.004 269.794 142.21C268.189 130.416 261.655 121.58 255.2 122.473Z" fill="#FF7BAC"/>
</g>
<path d="M158.725 138.768C153.711 135.804 148.155 133.845 142.376 133.005C136.597 132.164 130.706 132.458 125.042 133.87C119.377 135.281 114.049 137.783 109.362 141.232C104.675 144.68 100.72 149.009 97.7239 153.969C73.1848 194.708 40.0807 229.752 0.654785 256.728V359C21.5616 348.571 41.5614 336.45 60.4499 322.762C106.351 289.54 145.003 247.495 174.091 199.145C177.094 194.184 179.078 188.685 179.931 182.965C180.784 177.244 180.488 171.413 179.061 165.805C177.634 160.198 175.103 154.923 171.614 150.284C168.124 145.645 163.745 141.732 158.725 138.768Z" fill="#FCD700"/>
<path d="M152.022 190.615C162.057 190.615 170.191 182.567 170.191 172.64C170.191 162.713 162.057 154.665 152.022 154.665C141.987 154.665 133.852 162.713 133.852 172.64C133.852 182.567 141.987 190.615 152.022 190.615Z" fill="white"/>
<path d="M123.913 183.477C133.948 183.477 142.083 175.429 142.083 165.502C142.083 155.575 133.948 147.527 123.913 147.527C113.878 147.527 105.744 155.575 105.744 165.502C105.744 175.429 113.878 183.477 123.913 183.477Z" fill="white"/>
<path d="M162.182 175.792C165.079 175.792 167.428 173.468 167.428 170.602C167.428 167.736 165.079 165.412 162.182 165.412C159.285 165.412 156.936 167.736 156.936 170.602C156.936 173.468 159.285 175.792 162.182 175.792Z" fill="#262626"/>
<path d="M116.014 164.05C118.911 164.05 121.26 161.727 121.26 158.861C121.26 155.995 118.911 153.671 116.014 153.671C113.117 153.671 110.768 155.995 110.768 158.861C110.768 161.727 113.117 164.05 116.014 164.05Z" fill="#262626"/>
<path d="M141.364 206.059C143.466 197.965 139.706 190.015 132.965 188.301C126.224 186.588 119.055 191.76 116.952 199.854C114.85 207.948 118.611 215.898 125.352 217.612C132.093 219.325 139.262 214.153 141.364 206.059Z" fill="#262626"/>
<mask id="mask1_702_7043" style="mask-type:luminance" maskUnits="userSpaceOnUse" x="116" y="187" width="26" height="31">
<path d="M141.364 206.059C143.466 197.965 139.706 190.014 132.965 188.301C126.224 186.588 119.055 191.76 116.952 199.854C114.85 207.948 118.611 215.898 125.352 217.612C132.093 219.325 139.262 214.153 141.364 206.059Z" fill="white"/>
</mask>
<g mask="url(#mask1_702_7043)">
<path d="M139.027 225.076C140.466 219.535 135.079 213.377 126.994 211.322C118.909 209.267 111.188 212.093 109.749 217.634C108.309 223.176 113.697 229.334 121.782 231.389C129.867 233.444 137.587 230.618 139.027 225.076Z" fill="#FF7BAC"/>
</g>
<path d="M59.1034 136.611C60.6309 137.038 62.058 137.466 63.5051 137.834C64.9501 138.255 66.4745 138.337 67.9571 138.072C68.3792 137.983 68.8816 137.953 69.0223 137.257C68.8113 137.178 68.6003 137.078 68.3792 137.009L63.7162 135.517C61.8599 134.894 60.1085 134 58.5205 132.863C57.1453 131.978 55.9966 130.789 55.1648 129.389C54.333 127.99 53.8408 126.419 53.7269 124.8C53.4184 121.317 53.8955 117.809 55.1237 114.53C56.0474 111.656 58.0076 109.217 60.6309 107.68C61.0868 107.444 61.4585 107.076 61.6957 106.624C61.9329 106.172 62.0243 105.66 61.9575 105.155C61.7497 101.986 62.0896 98.8057 62.9624 95.75C64.2584 91.0556 66.7417 86.765 70.178 83.283C71.8896 81.4913 74.039 80.1662 76.4188 79.4355C77.6604 79.0249 78.9808 78.9024 80.2779 79.0776C81.0955 79.1641 81.8641 79.5054 82.4728 80.0522C83.0815 80.599 83.4989 81.323 83.6646 82.1198C83.9614 83.3895 83.8417 84.7197 83.3229 85.9175C82.6195 87.717 81.8557 89.4966 81.0919 91.3259C80.7616 91.4137 80.4259 91.4801 80.087 91.5247C77.8596 91.7261 75.7074 92.4248 73.7926 93.5683C71.8778 94.7118 70.2502 96.2702 69.0324 98.1261C67.1714 100.725 66.0661 103.778 65.8366 106.954C65.5958 109.713 66.4219 112.46 68.148 114.64C68.7771 115.461 69.5334 116.179 70.3891 116.767C71.2415 117.354 72.2375 117.704 73.2732 117.781C74.309 117.858 75.3467 117.659 76.2782 117.205C77.5444 119.491 79.1925 121.32 81.8758 121.529L83.9962 125.784C80.7703 127.087 80.4789 127.256 78.68 129.373C77.4955 130.496 76.6767 131.943 76.3284 133.529C76.7605 133.758 76.9113 133.42 77.1022 133.201C77.9162 132.276 78.7001 131.322 79.5443 130.427C80.5534 129.405 81.8195 128.667 83.2124 128.29C84.0454 127.997 84.9315 127.881 85.8128 127.949C86.6942 128.018 87.5511 128.269 88.3276 128.687C90.8223 129.956 93.565 130.675 96.3673 130.795C98.4107 130.911 100.448 130.482 102.266 129.552C102.427 129.483 102.538 129.294 102.759 129.055C102.542 128.923 102.304 128.829 102.055 128.777C100.88 128.777 99.7138 128.886 98.538 128.876C94.9929 128.873 91.5315 127.809 88.609 125.824C87.6495 125.159 86.7754 124.382 86.0062 123.508C85.4896 122.879 85.1362 122.135 84.9768 121.34C84.8174 120.545 84.8568 119.724 85.0917 118.947C85.3265 118.171 85.7496 117.463 86.3241 116.886C86.8986 116.308 87.6071 115.878 88.3879 115.634C89.1937 115.383 90.0272 115.23 90.8702 115.176C94.226 114.881 97.5781 115.782 100.322 117.716C103.066 119.65 105.021 122.49 105.834 125.725C106.329 127.644 106.437 129.641 106.151 131.601C105.864 133.561 105.19 135.446 104.166 137.148C103.631 138.034 102.952 138.827 102.156 139.494C99.0104 142.367 90.2471 145.608 85.0716 145.131C81.6623 144.912 78.4143 143.616 75.8058 141.433L74.3386 140.21C73.9466 140.657 74.2582 140.886 74.4089 141.105C75.9479 143.425 78.1085 145.277 80.6497 146.453C80.9596 146.559 81.2296 146.755 81.4235 147.016C81.6175 147.277 81.7262 147.591 81.7351 147.915C81.7781 148.814 81.6935 149.714 81.4838 150.589C81.3196 151.023 81.0505 151.41 80.7001 151.716C80.3498 152.023 79.9288 152.24 79.4739 152.349C77.7435 152.964 75.8599 153.016 74.0974 152.498C71.4971 151.858 69.017 150.811 66.7511 149.396C64.8689 148.25 63.0992 146.932 61.465 145.459C60.7929 144.852 60.1774 144.187 59.626 143.471C58.949 142.554 58.5152 141.484 58.3642 140.359C58.2132 139.233 58.3499 138.088 58.7617 137.029C58.8019 136.889 58.9426 136.81 59.1034 136.611Z" fill="#FCD700"/>
<path d="M65.5549 193.26C61.0125 188.617 57.3444 183.606 55.445 177.452C54.4332 174.234 53.9381 170.88 53.9778 167.51C54.0506 162.276 54.9701 157.087 56.7012 152.14C57.3278 150.484 58.0769 148.876 58.9423 147.328C59.2945 147.509 59.6307 147.718 59.9473 147.955C62.1451 149.974 64.5813 151.723 67.2031 153.164C68.0673 153.621 68.9819 153.979 69.8662 154.387L71.1224 155.013C70.8209 155.679 70.5898 156.276 70.2783 156.833C68.5765 160.045 67.6123 163.589 67.4543 167.212C67.2153 172.218 68.7706 177.148 71.846 181.13C72.2178 181.647 72.6098 182.125 72.9816 182.691C72.9816 182.691 72.9816 182.811 72.9816 182.88C72.2982 184.232 67.2232 191.301 65.5549 193.26Z" fill="#FCD700"/>
<path d="M96.3271 112.472C97.2762 110.079 98.4435 107.776 99.8144 105.592C101.034 103.61 102.463 101.76 104.075 100.075C107.023 96.9152 110.986 94.8635 115.291 94.2686C116.521 94.0683 117.784 94.1952 118.949 94.6365C119.296 94.736 119.618 94.905 119.897 95.1332C120.175 95.3613 120.402 95.6436 120.565 95.9626C120.728 96.2815 120.823 96.6302 120.844 96.987C120.865 97.3438 120.812 97.7011 120.687 98.0366C120.216 99.6523 119.461 101.173 118.456 102.53C117.215 104.272 115.756 105.852 114.115 107.233C113.231 107.988 112.336 108.744 111.492 109.549C108.986 111.834 107.091 114.696 105.975 117.881C105.914 118.059 105.804 118.219 105.673 118.497C105.444 118.426 105.23 118.315 105.04 118.169C102.959 115.754 100.21 113.992 97.1311 113.098C96.9429 113.04 96.7637 112.957 96.5985 112.85C96.5985 112.85 96.508 112.751 96.3271 112.472Z" fill="#FCD700"/>
<path d="M92.7894 112.303C92.8999 110.881 93.1914 109.669 92.6788 108.485C92.6185 108.346 92.4376 108.247 92.1763 108.008L90.5483 112.273C89.8448 112.412 89.1514 112.542 88.468 112.701C86.6548 113.042 85.0154 113.99 83.8251 115.385C82.9797 116.556 82.3503 117.865 81.966 119.252C81.0451 119.095 80.2189 118.598 79.6545 117.861C78.8694 116.902 78.384 115.738 78.2576 114.51C77.9887 112.579 78.2347 110.612 78.9712 108.804C80.4368 105.179 83.0679 102.132 86.4581 100.134C88.6694 98.8505 91.2588 98.3557 93.7943 98.7325C94.9695 98.8489 96.0859 99.2976 97.0102 100.025C97.4466 100.373 97.8263 100.785 98.1358 101.248C98.3615 101.567 98.4825 101.947 98.4825 102.336C98.4825 102.726 98.3615 103.106 98.1358 103.425C97.5522 104.354 97.0383 105.325 96.5982 106.328C95.744 108.316 94.9601 110.305 94.0858 112.373L92.7894 112.303Z" fill="#FCD700"/>
<path d="M85.6542 97.4401C79.1923 101.506 75.5141 107.064 75.7252 114.828C75.0813 115.074 74.3821 115.141 73.7025 115.024C73.0228 114.906 72.3881 114.609 71.8661 114.162C70.845 113.346 70.0379 112.298 69.5131 111.107C68.9883 109.916 68.7612 108.618 68.8513 107.322C68.9255 105.021 69.5805 102.775 70.7565 100.789C71.9325 98.8024 73.5922 97.1385 75.5845 95.9488C77.18 94.9178 79.056 94.394 80.961 94.4476C81.9531 94.4391 82.926 94.7179 83.7599 95.2496C84.5938 95.7813 85.2523 96.5427 85.6542 97.4401Z" fill="#FCD700"/>
<path d="M206.139 228.344C205.255 227.042 204.39 225.829 203.596 224.586C202.737 223.36 202.186 221.949 201.989 220.47C201.938 220.053 201.808 219.566 202.441 219.218C202.581 219.387 202.742 219.566 202.873 219.745L205.747 223.672C206.921 225.225 208.324 226.595 209.908 227.738C211.188 228.751 212.688 229.458 214.29 229.803C215.892 230.148 217.553 230.122 219.143 229.726C222.59 228.934 225.816 227.396 228.59 225.223C231.042 223.455 232.761 220.865 233.424 217.935C233.501 217.428 233.736 216.957 234.096 216.588C234.456 216.219 234.924 215.971 235.434 215.877C238.538 215.095 241.487 213.801 244.157 212.05C248.262 209.371 251.616 205.708 253.905 201.402C255.087 199.231 255.688 196.798 255.653 194.333C255.659 193.039 255.367 191.761 254.799 190.595C254.459 189.846 253.885 189.224 253.162 188.822C252.438 188.419 251.603 188.256 250.779 188.358C249.469 188.476 248.231 189.002 247.242 189.859C245.724 191.082 244.227 192.355 242.74 193.637C242.74 193.995 242.74 194.303 242.84 194.632C243.33 196.782 243.322 199.015 242.815 201.162C242.309 203.309 241.317 205.315 239.916 207.029C238 209.585 235.409 211.57 232.429 212.765C229.879 213.855 227.005 213.948 224.389 213.024C223.405 212.686 222.48 212.199 221.646 211.582C220.816 210.962 220.171 210.133 219.776 209.182C219.382 208.23 219.254 207.191 219.404 206.174C216.802 205.707 214.53 204.713 213.505 202.257L208.752 201.591C208.511 205.021 208.43 205.349 206.963 207.695C206.109 209.057 205.275 210.469 203.707 211.195C203.355 210.867 203.627 210.618 203.777 210.36C204.41 209.365 205.084 208.282 205.687 207.208C206.373 205.956 206.713 204.546 206.672 203.122C206.689 202.247 206.519 201.378 206.173 200.572C205.827 199.767 205.311 199.043 204.662 198.449C202.663 196.479 201.117 194.105 200.129 191.49C199.379 189.619 199.14 187.586 199.436 185.594C199.515 185.374 199.627 185.166 199.768 184.978C199.969 185.217 200.19 185.366 200.25 185.555C200.602 186.668 200.883 187.792 201.255 188.895C202.361 192.231 204.463 195.157 207.285 197.286C208.215 197.981 209.228 198.562 210.3 199.016C211.063 199.302 211.885 199.399 212.695 199.3C213.505 199.201 214.278 198.909 214.948 198.447C215.618 197.986 216.164 197.371 216.54 196.654C216.915 195.937 217.109 195.141 217.103 194.333C217.098 193.494 216.987 192.659 216.771 191.848C216.023 188.598 214.12 185.721 211.409 183.742C208.698 181.762 205.359 180.811 201.999 181.061C197.993 181.325 194.254 183.144 191.597 186.121C190.928 186.915 190.395 187.811 190.019 188.776C188.241 192.623 187.849 201.869 189.919 206.671C191.194 209.808 193.447 212.462 196.351 214.247C196.893 214.565 197.436 214.903 197.989 215.241C197.677 215.748 197.356 215.529 197.104 215.45C194.384 214.704 191.927 213.224 190.009 211.175C189.813 210.916 189.541 210.722 189.23 210.621C188.919 210.519 188.584 210.515 188.271 210.608C187.398 210.847 186.562 211.205 185.789 211.672C185.426 211.953 185.139 212.318 184.95 212.733C184.761 213.148 184.676 213.603 184.703 214.058C184.646 215.879 185.181 217.671 186.231 219.168C187.648 221.422 189.423 223.436 191.487 225.133C193.169 226.563 194.983 227.834 196.903 228.931C197.699 229.374 198.533 229.747 199.396 230.044C200.486 230.396 201.648 230.471 202.776 230.263C203.903 230.054 204.959 229.569 205.848 228.851C205.968 228.722 205.998 228.573 206.139 228.344Z" fill="#FCD700"/>
<path d="M149.7 239.907C155.569 242.73 161.529 244.629 168.031 244.5C171.427 244.454 174.794 243.88 178.01 242.8C183.015 241.107 187.714 238.633 191.929 235.473C193.336 234.367 194.659 233.16 195.888 231.864C195.606 231.596 195.303 231.35 194.984 231.128C192.36 229.69 189.92 227.944 187.718 225.928C187.014 225.262 186.391 224.507 185.708 223.811C185.406 223.493 185.085 223.184 184.703 222.817C184.15 223.314 183.698 223.711 183.216 224.169C180.66 226.77 177.554 228.78 174.121 230.054C169.382 231.844 164.155 231.914 159.368 230.253L157.509 229.667C157.458 229.667 157.388 229.667 157.328 229.667C156.313 230.72 151.067 237.7 149.7 239.907Z" fill="#FCD700"/>
<path d="M217.726 185.843C219.73 184.205 221.58 182.392 223.253 180.425C224.795 178.666 226.143 176.75 227.273 174.708C229.394 170.956 230.132 166.592 229.363 162.36C229.183 161.143 228.669 159.998 227.876 159.05C227.674 158.752 227.412 158.499 227.107 158.307C226.802 158.114 226.459 157.987 226.101 157.932C225.744 157.876 225.378 157.895 225.028 157.987C224.678 158.078 224.351 158.24 224.067 158.463C222.664 159.412 221.44 160.596 220.449 161.963C219.159 163.667 218.095 165.528 217.284 167.5C216.821 168.564 216.379 169.648 215.867 170.692C214.447 173.755 212.286 176.425 209.576 178.466C209.397 178.614 209.23 178.773 209.073 178.943C209.254 179.112 209.385 179.341 209.586 179.43C212.561 180.639 215.112 182.686 216.922 185.316C217.04 185.469 217.175 185.609 217.324 185.734C217.324 185.734 217.445 185.763 217.726 185.843Z" fill="#FCD700"/>
<path d="M219.022 189.124C220.359 188.577 221.444 187.921 222.731 188.03C222.892 188.03 223.032 188.189 223.354 188.358L219.736 191.192C219.816 191.888 219.907 192.584 219.977 193.279C220.213 195.088 219.808 196.922 218.832 198.469C218.295 199.197 217.678 199.864 216.992 200.457C216.579 200.817 216.143 201.149 215.686 201.452C216.119 202.252 216.834 202.868 217.696 203.182C218.862 203.627 220.135 203.72 221.354 203.45C223.293 203.112 225.106 202.271 226.61 201.014C229.646 198.517 231.765 195.1 232.64 191.291C233.207 188.811 232.895 186.213 231.755 183.934C231.28 182.864 230.501 181.952 229.514 181.309C229.026 180.992 228.49 180.754 227.926 180.604C227.551 180.486 227.147 180.487 226.772 180.604C226.396 180.721 226.066 180.95 225.826 181.26C225.113 182.095 224.34 182.879 223.515 183.606C221.907 185.018 220.249 186.37 218.49 187.841L219.022 189.124Z" fill="#FCD700"/>
<path d="M235.524 191.192C233.624 198.529 229.424 203.708 221.907 205.925C221.87 206.607 222.022 207.285 222.346 207.888C222.67 208.49 223.154 208.994 223.746 209.345C224.844 210.059 226.1 210.499 227.408 210.627C228.715 210.755 230.034 210.568 231.253 210.081C233.442 209.295 235.398 207.978 236.941 206.252C238.484 204.526 239.565 202.445 240.086 200.199C240.584 198.377 240.503 196.447 239.855 194.671C239.562 193.733 238.993 192.901 238.223 192.282C237.452 191.663 236.513 191.283 235.524 191.192Z" fill="#FCD700"/>
<path d="M506.795 168.375C510.59 196.37 505.026 224.64 490.998 248.637C476.969 272.635 455.292 290.964 429.453 300.677C407.336 308.926 382.706 307.857 360.964 297.707C339.223 287.557 322.144 269.153 313.475 246.532C311.266 240.748 307.966 235.438 303.764 230.905C299.561 226.371 294.539 222.703 288.982 220.109C283.426 217.516 277.445 216.048 271.381 215.789C265.316 215.531 259.288 216.487 253.639 218.602C242.23 222.875 233.06 231.613 228.147 242.894C225.715 248.479 224.4 254.521 224.279 260.674C224.158 266.827 225.232 272.97 227.441 278.754C263.955 374.375 369.65 423.73 463.028 388.764C471.251 385.686 479.271 382.099 487.044 378.023C523.058 359.078 552.767 329.963 572.674 294.102L506.795 168.375Z" fill="#4D7CC1"/>
<path d="M291.788 286.862C294.243 284.944 294.515 281.149 292.396 278.386C290.278 275.622 286.57 274.936 284.116 276.853C281.662 278.771 281.389 282.566 283.508 285.329C285.627 288.093 289.334 288.779 291.788 286.862Z" fill="#262626"/>
<path d="M290.117 264.715C299.656 259.706 303.219 247.703 298.075 237.905C292.93 228.107 281.027 224.224 271.487 229.233C261.948 234.241 258.385 246.245 263.529 256.043C268.674 265.841 280.577 269.723 290.117 264.715Z" fill="white"/>
<path d="M265.549 283.904C275.089 278.895 278.652 266.892 273.507 257.094C268.363 247.295 256.459 243.413 246.92 248.422C237.38 253.43 233.817 265.434 238.962 275.232C244.106 285.03 256.01 288.912 265.549 283.904Z" fill="white"/>
<path d="M281.427 251.219C284.182 249.772 285.211 246.305 283.725 243.475C282.239 240.645 278.801 239.524 276.046 240.971C273.29 242.417 272.261 245.884 273.747 248.714C275.233 251.544 278.671 252.666 281.427 251.219Z" fill="#262626"/>
<path d="M261.656 273.025C264.411 271.579 265.44 268.112 263.955 265.282C262.469 262.452 259.03 261.33 256.275 262.777C253.52 264.224 252.491 267.69 253.977 270.521C255.462 273.351 258.901 274.472 261.656 273.025Z" fill="#262626"/>
</svg>
