<svg width="326" height="247" viewBox="0 0 326 247" fill="none" xmlns="http://www.w3.org/2000/svg">
<path fill-rule="evenodd" clip-rule="evenodd" d="M209.502 56.7524C199.201 73.3616 192.344 97.2372 192.344 124.4C192.344 151.563 199.201 175.438 209.502 192.047C219.913 208.833 232.479 216.41 244.031 216.41C255.583 216.41 268.149 208.833 278.56 192.047C288.862 175.438 295.719 151.563 295.719 124.4C295.719 98.1882 291.088 82.5504 287.438 70.2225C286.477 66.9776 285.584 63.9621 284.861 61.0434C282.837 52.8695 287.639 44.5557 295.587 42.4741C303.536 40.3925 311.62 45.3312 313.644 53.5052C314.116 55.4115 314.8 57.6935 315.604 60.3767C319.266 72.5913 325.421 93.1222 325.421 124.4C325.421 156.488 317.383 186.254 303.602 208.473C289.931 230.516 269.228 246.955 244.031 246.955C218.835 246.955 198.132 230.516 184.461 208.473C170.68 186.254 162.642 156.488 162.642 124.4C162.642 92.3119 170.68 62.5461 184.461 40.3265C198.132 18.2841 218.835 1.84448 244.031 1.84448C259.339 1.84448 273.197 8.01432 284.662 17.8199C290.968 23.2132 291.829 32.8426 286.585 39.3279C281.34 45.8132 271.977 46.6985 265.671 41.3052C258.556 35.2207 251.221 32.3897 244.031 32.3897C232.479 32.3897 219.913 39.9662 209.502 56.7524Z" fill="#4D7CC1"/>
<path d="M300.942 72.9319C302.428 72.4513 303.208 70.7463 302.683 69.1237C302.159 67.5011 300.528 66.5752 299.042 67.0558C297.556 67.5364 296.776 69.2414 297.3 70.864C297.825 72.4867 299.455 73.4125 300.942 72.9319Z" fill="#262626"/>
<path d="M305.625 61.9878C310.773 60.3233 313.598 54.8001 311.933 49.6516C310.268 44.503 304.745 41.6787 299.597 43.3432C294.448 45.0078 291.624 50.5309 293.288 55.6795C294.953 60.828 300.476 63.6524 305.625 61.9878Z" fill="white"/>
<path d="M290.738 66.8006C295.887 65.136 298.711 59.6129 297.047 54.4643C295.382 49.3157 289.859 46.4914 284.71 48.156C279.562 49.8205 276.738 55.3437 278.402 60.4922C280.067 65.6408 285.59 68.4651 290.738 66.8006Z" fill="white"/>
<path d="M301.534 60.2797C303.02 59.7991 303.836 58.2045 303.355 56.7181C302.875 55.2317 301.28 54.4162 299.794 54.8968C298.307 55.3774 297.492 56.972 297.972 58.4584C298.453 59.9449 300.047 60.7603 301.534 60.2797Z" fill="#262626"/>
<path d="M293.054 63.0212C294.54 62.5406 295.356 60.946 294.875 59.4596C294.395 57.9731 292.8 57.1577 291.314 57.6383C289.827 58.1188 289.012 59.7134 289.492 61.1999C289.973 62.6863 291.567 63.5017 293.054 63.0212Z" fill="#262626"/>
<path fill-rule="evenodd" clip-rule="evenodd" d="M99.4996 9.2707C111.75 -6.69202 137.269 1.97129 137.269 22.0934V137.707H168.565C176.617 137.707 183.145 144.235 183.145 152.288C183.145 160.34 176.617 166.868 168.565 166.868H137.269V231.662C137.269 239.715 130.741 246.243 122.688 246.243C114.635 246.243 108.107 239.715 108.107 231.662V166.868H21.261C3.79789 166.868 -6.07886 146.838 4.55321 132.985L99.4996 9.2707ZM108.107 137.707V45.9531L37.689 137.707H108.107Z" fill="#F6611A"/>
<path d="M156.532 151.716C156.532 148.836 159.365 146.502 162.86 146.502C166.356 146.502 169.189 148.836 169.189 151.716C169.189 154.595 166.356 156.929 162.86 156.929C159.365 156.929 156.532 154.595 156.532 151.716Z" fill="#262626"/>
<path d="M169.976 145.714C169.976 141.563 173.341 138.198 177.492 138.198C181.644 138.198 185.009 141.563 185.009 145.714C185.009 149.865 181.644 153.231 177.492 153.231C173.341 153.231 169.976 149.866 169.976 145.714Z" fill="white"/>
<path d="M169.976 157.717C169.976 153.565 173.341 150.2 177.492 150.2C181.644 150.2 185.009 153.565 185.009 157.717C185.009 161.868 181.644 165.233 177.492 165.233C173.341 165.233 169.976 161.868 169.976 157.717Z" fill="white"/>
<path d="M177.197 141.855C177.197 140.656 178.169 139.685 179.367 139.685C180.566 139.685 181.538 140.656 181.538 141.855C181.538 143.053 180.566 144.025 179.367 144.025C178.169 144.025 177.197 143.053 177.197 141.855Z" fill="#262626"/>
<path d="M177.197 161.576C177.197 160.377 178.169 159.406 179.367 159.406C180.566 159.406 181.538 160.377 181.538 161.576C181.538 162.774 180.566 163.746 179.367 163.746C178.169 163.746 177.197 162.774 177.197 161.576Z" fill="#262626"/>
<path fill-rule="evenodd" clip-rule="evenodd" d="M158.409 148.01C157.25 148.955 156.532 150.266 156.532 151.715C156.532 153.165 157.25 154.476 158.409 155.421C158.938 154.384 159.251 153.103 159.251 151.716C159.251 150.328 158.938 149.047 158.409 148.01Z" fill="#FF7BAC"/>
</svg>
