<svg width="182" height="100" viewBox="0 0 182 100" fill="none" xmlns="http://www.w3.org/2000/svg">
<path fill-rule="evenodd" clip-rule="evenodd" d="M35.2431 88.6297L3.70139 57.088C-0.203851 53.1827 -0.203848 46.8511 3.70139 42.9458L35.243 11.4042C37.1845 7.87732 40.1101 4.9684 43.6498 3.04738C45.6867 1.32567 48.2494 0.547946 50.7614 0.71418C51.7064 0.584076 52.6715 0.516846 53.6522 0.516846H160.379C171.977 0.516846 181.379 9.91887 181.379 21.5168V78.5168C181.379 90.1148 171.977 99.5168 160.379 99.5168H53.6522C52.6716 99.5168 51.7067 99.4496 50.7619 99.3196C48.2496 99.4859 45.6866 98.7081 43.6495 96.9862C40.11 95.0652 37.1846 92.1564 35.2431 88.6297Z" fill="#FCD700"/>
</svg>
