<svg width="41" height="42" viewBox="0 0 41 42" fill="none" xmlns="http://www.w3.org/2000/svg">
<path d="M40 20.77C40 31.8157 31.0457 40.77 20 40.77C8.95431 40.77 0 31.8157 0 20.77C0 9.72433 8.95431 0.77002 20 0.77002C31.0457 0.77002 40 9.72433 40 20.77Z" fill="white"/>
<path d="M29.1654 19.6829C29.5888 19.6829 29.9298 20.0287 29.9298 20.4485C29.9298 20.867 29.5888 21.2128 29.1654 21.2128H27.0362V22.5777H29.1654C29.5888 22.5777 29.9298 22.9211 29.9298 23.3421C29.9298 23.7594 29.5888 24.1052 29.1654 24.1052H26.2706C25.852 24.1052 25.5099 23.7594 25.5099 23.3421V17.5537C25.5099 17.1351 25.852 16.7893 26.2743 16.7893H29.1691C29.5888 16.7893 29.9298 17.1351 29.9298 17.5537C29.9298 17.9771 29.5888 18.318 29.1654 18.318H27.0362V19.6829H29.1654ZM24.4884 23.3421C24.4884 23.6696 24.2772 23.9608 23.9642 24.0652C23.8866 24.0906 23.8029 24.1028 23.7228 24.1028C23.4668 24.1028 23.2484 23.9936 23.104 23.7995L20.1401 19.7751V23.3421C20.1401 23.7594 19.8016 24.1052 19.3745 24.1052C18.9547 24.1052 18.615 23.7594 18.615 23.3421V17.5537C18.615 17.2261 18.8249 16.9349 19.1367 16.8318C19.2095 16.8039 19.3017 16.7918 19.3721 16.7918C19.6087 16.7918 19.8271 16.9179 19.9727 17.0999L22.9597 21.14V17.5537C22.9597 17.1351 23.3018 16.7893 23.724 16.7893C24.1426 16.7893 24.4884 17.1351 24.4884 17.5537V23.3421ZM17.5231 23.3421C17.5231 23.7594 17.181 24.1052 16.7575 24.1052C16.339 24.1052 15.9968 23.7594 15.9968 23.3421V17.5537C15.9968 17.1351 16.339 16.7893 16.7612 16.7893C17.181 16.7893 17.5231 17.1351 17.5231 17.5537V23.3421ZM14.5312 24.1052H11.6364C11.2179 24.1052 10.8721 23.7594 10.8721 23.3421V17.5537C10.8721 17.1351 11.2179 16.7893 11.6364 16.7893C12.0586 16.7893 12.4008 17.1351 12.4008 17.5537V22.5777H14.5312C14.9534 22.5777 15.2944 22.9211 15.2944 23.3421C15.2944 23.7594 14.9522 24.1052 14.5312 24.1052ZM34.7888 20.2301C34.7888 13.7137 28.2555 8.41064 20.2299 8.41064C12.2042 8.41064 5.6709 13.7137 5.6709 20.2301C5.6709 26.067 10.8515 30.9576 17.8458 31.887C18.3202 31.9865 18.9657 32.2 19.1294 32.6028C19.275 32.968 19.2253 33.5321 19.1755 33.9131L18.9766 35.1506C18.922 35.5158 18.6854 36.5895 20.2493 35.9331C21.8156 35.2792 28.6401 30.9855 31.6975 27.4707C33.7891 25.1789 34.7888 22.8313 34.7888 20.2301Z" fill="black"/>
</svg>
