<svg width="41" height="40" viewBox="0 0 41 40" fill="none" xmlns="http://www.w3.org/2000/svg">
<circle cx="20.46" cy="20" r="20" fill="white"/>
<path d="M33.1226 13.6298C32.818 12.489 31.9249 11.5959 30.7841 11.2914C28.7244 10.739 20.4598 10.739 20.4598 10.739C20.4598 10.739 12.1951 10.739 10.1303 11.2914C8.98944 11.5959 8.10155 12.489 7.79182 13.6298C7.24463 15.6947 7.24463 19.9999 7.24463 19.9999C7.24463 19.9999 7.24463 24.3052 7.79698 26.37C8.10155 27.5109 8.99976 28.4039 10.1354 28.7085C12.1951 29.2609 20.4598 29.2609 20.4598 29.2609C20.4598 29.2609 28.7244 29.2609 30.7893 28.7085C31.9301 28.4039 32.8232 27.5057 33.1277 26.37C33.6749 24.3052 33.6749 19.9999 33.6749 19.9999C33.6749 19.9999 33.6749 15.6947 33.1226 13.6298ZM17.8322 23.9542V16.0457L24.6773 19.969L17.8322 23.9542Z" fill="black"/>
</svg>
