<svg width="40" height="40" viewBox="0 0 40 40" fill="none" xmlns="http://www.w3.org/2000/svg">
<circle cx="20" cy="20" r="20" fill="white"/>
<path d="M19.9998 10.2749C23.1674 10.2749 23.5431 10.2867 24.7947 10.3441C28.0097 10.4904 29.5114 12.0159 29.6577 15.2072C29.7151 16.4578 29.7259 16.8335 29.7259 20.001C29.7259 23.1696 29.7141 23.5443 29.6577 24.7949C29.5104 27.9832 28.0127 29.5117 24.7947 29.658C23.5431 29.7153 23.1693 29.7272 19.9998 29.7272C16.8322 29.7272 16.4565 29.7153 15.2059 29.658C11.983 29.5107 10.4892 27.9783 10.3429 24.7939C10.2855 23.5433 10.2737 23.1686 10.2737 20C10.2737 16.8325 10.2865 16.4578 10.3429 15.2062C10.4902 12.0159 11.9879 10.4894 15.2059 10.3431C16.4575 10.2867 16.8322 10.2749 19.9998 10.2749ZM19.9998 8.13647C16.7779 8.13647 16.3745 8.15032 15.109 8.20766C10.8006 8.40538 8.40613 10.7959 8.2084 15.1083C8.15007 16.3747 8.13623 16.7781 8.13623 20C8.13623 23.222 8.15007 23.6263 8.20741 24.8918C8.40514 29.2002 10.7956 31.5947 15.1081 31.7924C16.3745 31.8498 16.7779 31.8636 19.9998 31.8636C23.2217 31.8636 23.6261 31.8498 24.8915 31.7924C29.196 31.5947 31.5964 29.2042 31.7912 24.8918C31.8495 23.6263 31.8634 23.222 31.8634 20C31.8634 16.7781 31.8495 16.3747 31.7922 15.1093C31.5984 10.8048 29.2049 8.40637 24.8925 8.20864C23.6261 8.15032 23.2217 8.13647 19.9998 8.13647ZM19.9998 13.9081C16.6355 13.9081 13.9079 16.6357 13.9079 20C13.9079 23.3644 16.6355 26.093 19.9998 26.093C23.3641 26.093 26.0917 23.3653 26.0917 20C26.0917 16.6357 23.3641 13.9081 19.9998 13.9081ZM19.9998 23.9546C17.8159 23.9546 16.0453 22.1849 16.0453 20C16.0453 17.8162 17.8159 16.0455 19.9998 16.0455C22.1837 16.0455 23.9543 17.8162 23.9543 20C23.9543 22.1849 22.1837 23.9546 19.9998 23.9546ZM26.333 12.2442C25.546 12.2442 24.9084 12.8819 24.9084 13.6679C24.9084 14.4538 25.546 15.0915 26.333 15.0915C27.1189 15.0915 27.7556 14.4538 27.7556 13.6679C27.7556 12.8819 27.1189 12.2442 26.333 12.2442Z" fill="black"/>
</svg>
