<svg width="40" height="40" viewBox="0 0 40 40" fill="none" xmlns="http://www.w3.org/2000/svg">
<circle cx="20" cy="20" r="20" fill="white"/>
<path d="M30.4489 13.5566C29.2383 13.2976 28.142 12.6587 27.3199 11.7331C26.4978 10.8074 25.9929 9.64333 25.8787 8.41058V7.87598H21.7025V24.4499C21.6999 25.1836 21.4675 25.8981 21.0379 26.493C20.6083 27.0878 20.0031 27.5331 19.3074 27.7662C18.6117 27.9994 17.8604 28.0087 17.1591 27.7929C16.4578 27.577 15.8418 27.1469 15.3976 26.5628C14.9465 25.9691 14.6962 25.247 14.6832 24.5014C14.6701 23.7558 14.8948 23.0255 15.3248 22.4162C15.7548 21.807 16.3677 21.3505 17.0746 21.1131C17.7814 20.8756 18.5456 20.8695 19.2562 21.0956V16.8527C17.6716 16.6336 16.0582 16.9154 14.6416 17.6584C13.225 18.4015 12.0761 19.5688 11.3555 20.997C10.635 22.4252 10.3789 24.0429 10.6231 25.6238C10.8673 27.2048 11.5995 28.6698 12.7173 29.8141C13.7833 30.9048 15.1501 31.6532 16.6434 31.9636C18.1366 32.274 19.6884 32.1324 21.1008 31.5569C22.5132 30.9814 23.722 29.998 24.5731 28.7324C25.4241 27.4668 25.8786 25.9762 25.8787 24.4511V15.9823C27.5665 17.1889 29.5901 17.8359 31.6648 17.8322V13.6827C31.2562 13.6832 30.8487 13.6409 30.4489 13.5566Z" fill="black"/>
</svg>
