<svg width="90" height="81" viewBox="0 0 90 81" fill="none" xmlns="http://www.w3.org/2000/svg">
<path d="M3.84766 0.765625C2.1908 0.765625 0.847656 2.10877 0.847656 3.76562C0.847656 5.42248 2.1908 6.76562 3.84766 6.76562V0.765625ZM65.4094 79.2606C66.581 80.4322 68.4805 80.4322 69.6521 79.2606L88.744 60.1687C89.9155 58.9972 89.9155 57.0977 88.744 55.9261C87.5724 54.7545 85.6729 54.7545 84.5013 55.9261L67.5308 72.8967L50.5602 55.9261C49.3886 54.7545 47.4891 54.7545 46.3176 55.9261C45.146 57.0977 45.146 58.9972 46.3176 60.1687L65.4094 79.2606ZM3.84766 6.76562H55.5308V0.765625H3.84766V6.76562ZM64.5308 15.7656V77.1393H70.5308V15.7656H64.5308ZM55.5308 6.76562C60.5013 6.76562 64.5308 10.7951 64.5308 15.7656H70.5308C70.5308 7.48135 63.815 0.765625 55.5308 0.765625V6.76562Z" fill="black"/>
</svg>
