<svg width="55" height="55" viewBox="0 0 55 55" fill="none" xmlns="http://www.w3.org/2000/svg">
<path d="M53.5624 17.1355L50.26 13.6268C49.2281 14.4524 47.7833 15.0716 46.1321 15.0716C42.6234 15.0716 39.7338 12.182 39.7338 8.67327C39.7338 7.22849 40.353 5.78371 41.1786 4.54532L37.8762 1.24297C37.0506 0.417382 35.8123 0.417382 34.9867 1.24297L29.2075 7.02209C29.4139 7.02209 29.6203 7.22849 29.6203 7.22849L30.2395 7.84768C30.6523 8.26047 30.6523 8.87966 30.2395 9.29246C30.0331 9.49885 29.8267 9.49885 29.4139 9.49885C29.0012 9.49885 28.7948 9.49885 28.5884 9.29246L28.1756 8.67327C27.9692 8.46687 27.9692 8.46687 27.9692 8.26047L1.55034 34.6793C0.724755 35.5049 0.724755 36.7433 1.55034 37.5689L4.8527 41.0776C5.88468 40.0456 7.32946 39.6328 8.98064 39.6328C12.4894 39.6328 15.3789 42.5224 15.3789 46.0311C15.3789 47.6823 14.7598 49.1271 13.9342 50.1591L17.2365 53.4614C18.0621 54.287 19.3005 54.287 20.1261 53.4614L46.5449 27.0426C46.5449 27.0426 46.3385 27.0426 46.3385 26.8362L45.7193 26.217C45.3065 25.8042 45.3065 25.185 45.7193 24.7722C46.1321 24.3594 46.7513 24.3594 47.1641 24.7722L47.7833 25.3914C47.7833 25.3914 47.7833 25.5978 47.9897 25.5978L53.5624 20.0251C54.388 19.1995 54.388 17.7547 53.5624 17.1355ZM31.6843 10.7372C32.0971 10.3244 32.7163 10.3244 33.1291 10.7372L33.7483 11.3564C34.1611 11.7692 34.1611 12.3884 33.7483 12.8012C33.5419 13.0076 33.3355 13.0076 32.9227 13.0076C32.5099 13.0076 32.3035 13.0076 32.0971 12.8012L31.6843 12.182C31.2715 11.7692 31.2715 11.15 31.6843 10.7372ZM35.1931 31.9961C35.1931 32.2025 34.7803 32.4089 34.5739 32.4089L29.0012 33.4409L26.5244 38.3944C26.318 38.6008 26.1116 38.8072 25.9052 38.8072C25.6988 38.8072 25.4924 38.8072 25.4924 38.6008L25.286 38.3944L22.8092 33.4409L17.2365 32.6153C17.0301 32.6153 16.8237 32.4089 16.6173 32.2025C16.6173 31.9961 16.6173 31.5833 16.8237 31.3769L20.7453 27.4554L19.7133 22.0891C19.7133 21.8827 19.7133 21.4699 19.9197 21.2635C20.1261 21.0571 20.5389 21.0571 20.7453 21.2635L25.6988 23.7403L30.6523 21.2635C31.0651 21.0571 31.8907 21.4699 31.6843 22.0891L30.6523 27.4554L34.5739 31.3769C35.1931 31.3769 35.1931 31.7897 35.1931 31.9961ZM37.257 16.31C37.0506 16.5164 36.8442 16.5164 36.4314 16.5164C36.0187 16.5164 35.8123 16.5164 35.6059 16.31L34.9867 15.6908C34.5739 15.278 34.5739 14.6588 34.9867 14.246C35.3995 13.8332 36.0187 13.8332 36.4314 14.246L37.257 14.8652C37.6698 15.278 37.6698 15.8972 37.257 16.31ZM40.7658 19.8187C40.5594 20.0251 40.353 20.0251 39.9402 20.0251C39.5274 20.0251 39.321 20.0251 39.1146 19.8187L38.4954 19.1995C38.0826 18.7867 38.0826 18.1675 38.4954 17.7547C38.9082 17.3419 39.5274 17.3419 39.9402 17.7547L40.5594 18.3739C41.1786 18.7867 41.1786 19.4059 40.7658 19.8187ZM44.2745 23.3275C44.0681 23.5339 43.8617 23.5339 43.4489 23.5339C43.0362 23.5339 42.8298 23.5339 42.6234 23.3275L42.0042 22.7083C41.5914 22.2955 41.5914 21.6763 42.0042 21.2635C42.417 20.8507 43.0362 20.8507 43.4489 21.2635L44.0681 21.8827C44.6873 22.2955 44.6873 22.9147 44.2745 23.3275Z" fill="black"/>
</svg>
