<svg width="803" height="488" viewBox="0 0 803 488" fill="none" xmlns="http://www.w3.org/2000/svg">
<path d="M284.912 364.021L4.40332 253.27L279.466 139.796L282.051 148.363C302.365 216.433 303.922 288.726 286.558 357.609L284.912 364.021Z" fill="#4D7CC1" stroke="black" stroke-width="3" stroke-miterlimit="10"/>
<path d="M55.9482 273.626L284.913 364.021L286.524 357.609C303.888 288.726 302.331 216.433 282.017 148.363L279.432 139.796L55.0605 232.362C56.0802 246.092 56.3765 259.866 55.9482 273.626Z" fill="#F6611A" stroke="black" stroke-width="3" stroke-miterlimit="10"/>
<path d="M102.339 291.939L284.912 364.021L286.524 357.609C303.888 288.726 302.331 216.433 282.017 148.363L279.431 139.796L100.624 213.566C103.797 239.569 104.371 265.823 102.339 291.939Z" fill="#4D7CC1" stroke="black" stroke-width="3" stroke-miterlimit="10"/>
<path d="M147.903 309.934L284.93 364.021L286.541 357.609C303.905 288.726 302.348 216.433 282.034 148.363L279.449 139.796L145.343 195.124C151.794 233.064 152.656 271.744 147.903 309.934Z" fill="#F6611A" stroke="black" stroke-width="3" stroke-miterlimit="10"/>
<path d="M192.682 327.609L284.895 364.021L286.507 357.609C303.871 288.726 302.314 216.433 282 148.363L279.414 139.796L189.183 177.018C200.012 226.524 201.2 277.653 192.682 327.609Z" fill="#4D7CC1" stroke="black" stroke-width="3" stroke-miterlimit="10"/>
<path d="M566.292 162.686L604.548 162.557L787.88 162.557C790.928 162.275 793.972 163.131 796.427 164.959C798.882 166.787 800.574 169.458 801.178 172.459C801.501 174.055 801.506 175.7 801.193 177.298C800.88 178.897 800.255 180.417 799.354 181.774C798.452 183.131 797.293 184.296 795.94 185.205C794.588 186.113 793.07 186.745 791.474 187.066L764.663 194.512C762.779 195.077 761.127 196.234 759.952 197.811C758.777 199.388 758.141 201.302 758.139 203.268C767.49 236.41 767.49 271.492 758.139 304.634C758.143 306.597 758.78 308.507 759.955 310.08C761.13 311.652 762.781 312.804 764.663 313.364L791.456 320.81C794.459 321.414 797.131 323.107 798.959 325.564C800.788 328.021 801.642 331.067 801.359 334.116C801.053 337.391 799.46 340.41 796.929 342.511C794.399 344.611 791.138 345.622 787.863 345.32L604.479 345.32L566.301 345.32" fill="#4D7CC1"/>
<path d="M710.972 253.925L707.327 345.277C707.327 345.277 735.766 305.462 758.104 304.669C767.438 271.481 767.438 236.362 758.104 203.174C735.784 202.355 707.258 162.539 707.258 162.539L710.972 253.925Z" stroke="black" stroke-width="2.98" stroke-linecap="round" stroke-linejoin="round"/>
<path d="M684.282 162.686L698.838 236.706C696.484 242.167 695.27 248.051 695.27 253.998C695.27 259.945 696.484 265.83 698.838 271.291L684.282 345.294L707.249 345.294L719.659 281.762C726.847 277.763 732.061 266.878 732.061 254.003C732.061 241.128 726.847 230.234 719.659 226.244L707.249 162.686L684.282 162.686Z" fill="#FFE500" stroke="black" stroke-width="2.98" stroke-linecap="round" stroke-linejoin="round"/>
<path d="M604.47 162.686L604.521 162.557L787.853 162.557C790.901 162.275 793.945 163.131 796.4 164.959C798.855 166.787 800.547 169.459 801.151 172.459C801.474 174.055 801.479 175.7 801.166 177.298C800.853 178.897 800.228 180.418 799.327 181.774C798.426 183.131 797.266 184.297 795.914 185.205C794.562 186.113 793.044 186.745 791.447 187.066L764.662 194.513C762.778 195.077 761.126 196.234 759.951 197.811C758.776 199.388 758.141 201.302 758.138 203.269C767.489 236.41 767.489 271.493 758.138 304.634C758.142 306.598 758.779 308.507 759.954 310.08C761.129 311.653 762.78 312.804 764.662 313.364L791.456 320.81C794.458 321.414 797.13 323.108 798.959 325.564C800.787 328.021 801.641 331.067 801.358 334.117C801.052 337.391 799.459 340.41 796.928 342.511C794.398 344.611 791.137 345.622 787.862 345.32L604.478 345.32" stroke="black" stroke-width="2.98" stroke-linecap="round" stroke-linejoin="round"/>
<path d="M629.195 102.024C641.14 107.599 653.756 111.193 675.077 88.881C706.749 28.6753 607.719 27.3393 623.86 77.9187L622.688 78.2721C621.074 78.4906 619.519 79.0249 618.112 79.8443C616.705 80.6637 615.472 81.7522 614.486 83.0478C613.499 84.3435 612.777 85.8206 612.361 87.3952C611.945 88.9698 611.844 90.6109 612.062 92.2247C612.281 93.8394 612.815 95.3954 613.635 96.8035C614.455 98.2115 615.544 99.444 616.841 100.431C618.137 101.418 619.616 102.139 621.191 102.555C622.767 102.97 624.409 103.071 626.023 102.851C627.12 102.706 628.192 102.416 629.212 101.989L629.195 102.024Z" fill="white" stroke="black" stroke-width="2.98" stroke-linecap="round" stroke-linejoin="round"/>
<path d="M623.766 77.8842C623.766 77.8842 646.173 72.7134 647.449 78.746C648.724 84.7787 645.647 90.4838 639.899 91.6731" stroke="black" stroke-width="2.98" stroke-linecap="round" stroke-linejoin="round"/>
<path d="M636.254 171.563C672.389 145.588 677.25 119.57 675.113 88.8809C653.792 111.193 641.175 107.599 629.23 102.023C629.334 102.222 645.372 139.521 591.638 163.962" fill="#4D7CC1"/>
<path d="M636.254 171.563C672.389 145.588 677.25 119.57 675.113 88.8809C653.792 111.193 641.175 107.599 629.23 102.023C629.334 102.222 645.372 139.521 591.638 163.962" stroke="black" stroke-width="2.98" stroke-linecap="round" stroke-linejoin="round"/>
<path d="M626.851 409.231C639.295 404.879 652.205 402.535 671.234 426.838C696.846 489.827 598.161 481.45 619.18 432.698L618.052 432.233C616.466 431.857 614.971 431.172 613.65 430.218C612.329 429.264 611.21 428.059 610.355 426.672C609.5 425.285 608.927 423.743 608.669 422.135C608.41 420.526 608.471 418.883 608.847 417.297C609.223 415.712 609.908 414.216 610.862 412.896C611.816 411.575 613.021 410.456 614.408 409.601C615.795 408.746 617.337 408.173 618.945 407.914C620.554 407.656 622.198 407.716 623.783 408.093C624.859 408.35 625.897 408.75 626.868 409.282L626.851 409.231Z" fill="white" stroke="black" stroke-width="2.98" stroke-linecap="round" stroke-linejoin="round"/>
<path d="M619.095 432.75C619.095 432.75 640.855 440.032 642.708 434.051C644.561 428.07 642.07 422.227 636.46 420.478" stroke="black" stroke-width="2.98" stroke-linecap="round" stroke-linejoin="round"/>
<path d="M595.55 343.924C646.638 373.535 627.015 409.059 626.886 409.248C639.33 404.939 652.24 402.552 671.269 426.855C676.37 396.373 674.018 370.174 640.588 340.632" fill="#4D7CC1"/>
<path d="M595.55 343.924C646.638 373.535 627.015 409.059 626.886 409.248C639.33 404.939 652.24 402.552 671.269 426.855C676.37 396.373 674.018 370.174 640.588 340.632" stroke="black" stroke-width="2.98" stroke-linecap="round" stroke-linejoin="round"/>
<path d="M560.191 332.134C565.178 336.835 569.729 341.978 573.79 347.5C601.876 322.465 618.759 289.854 618.759 253.96C618.759 218.074 601.876 185.463 573.798 160.419C569.636 166.136 564.922 171.43 559.725 176.225L560.191 332.134Z" fill="#4C70BF"/>
<path d="M616.087 256.02C616.087 155.188 534.336 73.4116 433.479 73.4116C332.622 73.4116 250.871 155.171 250.871 256.02C250.871 356.868 332.631 438.628 433.479 438.628C534.328 438.628 616.087 356.877 616.087 256.02Z" fill="#FCD700"/>
<mask id="mask0_264_4226" style="mask-type:luminance" maskUnits="userSpaceOnUse" x="250" y="73" width="367" height="366">
<path d="M616.087 256.02C616.087 155.188 534.336 73.4116 433.479 73.4116C332.622 73.4116 250.871 155.171 250.871 256.02C250.871 356.868 332.631 438.628 433.479 438.628C534.328 438.628 616.087 356.877 616.087 256.02Z" fill="white"/>
</mask>
<g mask="url(#mask0_264_4226)">
<path d="M291.919 131.851C296.095 107.401 309.812 85.6122 330.054 71.2766C350.295 56.9409 375.402 51.2333 399.851 55.4089C450.767 64.1045 454.671 107.246 445.975 158.162C437.28 209.077 419.259 248.479 368.413 239.783C356.302 237.722 344.716 233.294 334.317 226.753C323.918 220.213 314.909 211.687 307.805 201.664C300.702 191.641 295.643 180.317 292.917 168.338C290.191 156.359 289.852 143.961 291.919 131.851Z" fill="#F9BD00"/>
<path d="M291.919 380.094C296.095 404.543 309.812 426.333 330.054 440.668C350.295 455.004 375.402 460.712 399.851 456.536C450.767 447.84 454.671 404.698 445.975 353.783C437.28 302.867 419.259 263.466 368.413 272.161C356.302 274.223 344.716 278.651 334.317 285.191C323.918 291.732 314.909 300.257 307.805 310.28C300.702 320.303 295.643 331.628 292.917 343.607C290.191 355.585 289.852 367.984 291.919 380.094Z" fill="#F9BD00"/>
<path d="M596.61 256.02C596.61 348.104 533.457 426.994 446.656 443.437C545.764 462.345 640.761 393.874 658.884 290.5C660.876 279.118 661.874 267.584 661.866 256.028C661.918 150.888 580.245 65.5694 479.448 65.5091C468.459 65.5058 457.495 66.5357 446.699 68.5856C533.535 85.0461 596.654 163.944 596.654 256.028L596.61 256.02Z" fill="#F9BD00"/>
</g>
<path d="M616.087 256.02C616.087 155.188 534.336 73.4116 433.479 73.4116C332.622 73.4116 250.871 155.171 250.871 256.02C250.871 356.868 332.631 438.628 433.479 438.628C534.328 438.628 616.087 356.877 616.087 256.02Z" stroke="black" stroke-width="2.98" stroke-linecap="round" stroke-linejoin="round"/>
<path d="M291.169 135.47C294.994 112.945 307.606 92.86 326.235 79.631C344.863 66.402 367.982 61.1114 390.51 64.9226C437.426 72.8771 438.676 112.21 430.721 159.127C422.767 206.043 408.625 242.765 361.717 234.819C339.189 230.995 319.103 218.381 305.874 199.751C292.645 181.12 287.355 157.999 291.169 135.47Z" fill="white" stroke="black" stroke-width="2.98" stroke-linecap="round" stroke-linejoin="round"/>
<path d="M399.368 201.976C399.368 196.374 394.827 191.832 389.225 191.832C383.623 191.832 379.082 196.374 379.082 201.976C379.082 207.578 383.623 212.119 389.225 212.119C394.827 212.119 399.368 207.578 399.368 201.976Z" fill="black"/>
<path d="M291.169 376.569C294.994 399.094 307.606 419.179 326.235 432.408C344.863 445.637 367.982 450.927 390.51 447.116C437.426 439.162 438.676 399.829 430.721 352.913C422.767 305.996 408.625 269.274 361.717 277.229C339.191 281.053 319.106 293.666 305.877 312.294C292.648 330.922 287.358 354.041 291.169 376.569Z" fill="white" stroke="black" stroke-width="2.98" stroke-linecap="round" stroke-linejoin="round"/>
<path d="M399.368 310.063C399.368 304.461 394.827 299.92 389.225 299.92C383.623 299.92 379.082 304.461 379.082 310.063C379.082 315.665 383.623 320.207 389.225 320.207C394.827 320.207 399.368 315.665 399.368 310.063Z" fill="black"/>
<path d="M277.838 47.385C257.749 55.305 245.891 73.7042 242.245 91.6556" stroke="black" stroke-width="2.98" stroke-linecap="round" stroke-linejoin="round"/>
<path d="M242.245 420.383C245.891 438.343 257.758 456.734 277.838 464.654" stroke="black" stroke-width="2.98" stroke-linecap="round" stroke-linejoin="round"/>
<path d="M510.024 366.098C465.788 366.098 483.119 300.48 483.119 257.89L483.119 254.149C483.119 211.559 465.788 145.941 510.024 145.941C554.27 145.941 590.465 196.176 590.465 238.766L590.465 273.238C590.465 315.898 554.27 366.098 510.024 366.098Z" fill="black"/>
<mask id="mask1_264_4226" style="mask-type:luminance" maskUnits="userSpaceOnUse" x="479" y="145" width="112" height="222">
<path d="M510.024 366.098C465.788 366.098 483.119 300.48 483.119 257.89L483.119 254.149C483.119 211.559 465.788 145.941 510.024 145.941C554.27 145.941 590.465 196.176 590.465 238.766L590.465 273.238C590.465 315.898 554.27 366.098 510.024 366.098Z" fill="white"/>
</mask>
<g mask="url(#mask1_264_4226)">
<path d="M661.728 255.882C661.728 204.578 637.015 162.988 606.53 162.988C576.044 162.988 551.331 204.578 551.331 255.882C551.331 307.186 576.044 348.776 606.53 348.776C637.015 348.776 661.728 307.186 661.728 255.882Z" fill="#FF7BAC"/>
</g>
<path d="M510.024 366.098C465.788 366.098 483.119 300.48 483.119 257.89L483.119 254.149C483.119 211.559 465.788 145.941 510.024 145.941C554.27 145.941 590.465 196.176 590.465 238.766L590.465 273.238C590.465 315.898 554.27 366.098 510.024 366.098Z" stroke="black" stroke-width="2.98" stroke-linecap="round" stroke-linejoin="round"/>
<path d="M240.753 346.586L284.912 364.021L286.524 357.609C303.888 288.726 302.33 216.433 282.016 148.363L279.431 139.796L236.237 157.618C253.034 219.311 254.584 284.162 240.753 346.586Z" fill="#F6611A" stroke="black" stroke-width="3" stroke-miterlimit="10"/>
<path d="M552.159 464.178L552.161 464.186C552.799 466.945 555.553 468.665 558.312 468.027L648.759 447.112C651.519 446.474 653.238 443.72 652.6 440.961L652.598 440.953C651.96 438.193 649.206 436.474 646.447 437.112L556 458.026C553.241 458.664 551.521 461.418 552.159 464.178Z" fill="#F6611A" stroke="black" stroke-width="3" stroke-miterlimit="10"/>
<path d="M525.279 468.437L532.596 462.448C532.855 462.232 533.06 461.958 533.192 461.648C533.324 461.338 533.379 461 533.354 460.664L532.57 451.244C532.538 450.857 532.615 450.469 532.792 450.124C532.968 449.778 533.238 449.489 533.57 449.289C533.903 449.088 534.284 448.984 534.672 448.989C535.06 448.993 535.44 449.106 535.767 449.314L543.722 454.425C544.005 454.608 544.329 454.719 544.665 454.749C545.002 454.779 545.34 454.727 545.652 454.597L554.373 450.943C554.732 450.791 555.125 450.742 555.509 450.803C555.894 450.864 556.253 451.032 556.547 451.287C556.841 451.542 557.057 451.874 557.171 452.246C557.285 452.618 557.292 453.014 557.192 453.39L554.796 462.534C554.711 462.861 554.706 463.203 554.783 463.532C554.86 463.86 555.015 464.166 555.235 464.421L561.406 471.583C561.661 471.878 561.829 472.239 561.889 472.624C561.95 473.01 561.901 473.404 561.748 473.763C561.596 474.122 561.345 474.432 561.026 474.656C560.706 474.879 560.33 475.009 559.941 475.03L550.461 475.573C550.124 475.594 549.797 475.696 549.508 475.87C549.218 476.044 548.975 476.285 548.798 476.573L543.894 484.656C543.691 484.988 543.401 485.257 543.054 485.432C542.707 485.607 542.318 485.682 541.931 485.648C541.544 485.614 541.174 485.472 540.863 485.239C540.552 485.006 540.312 484.691 540.171 484.329L536.724 475.522C536.601 475.207 536.404 474.927 536.149 474.706C535.893 474.485 535.588 474.33 535.259 474.254L526.055 472.083C525.678 471.988 525.337 471.789 525.067 471.51C524.798 471.23 524.613 470.881 524.532 470.501C524.452 470.122 524.479 469.727 524.611 469.363C524.743 468.998 524.974 468.677 525.279 468.437Z" fill="#FCD700" stroke="black" stroke-width="3" stroke-miterlimit="10"/>
<path d="M560.39 25.6545L560.386 25.662C559.112 28.1915 560.131 31.2746 562.66 32.5479L645.581 74.2888C648.11 75.5621 651.193 74.5436 652.466 72.014L652.47 72.0065C653.744 69.477 652.725 66.394 650.196 65.1206L567.275 23.3798C564.746 22.1064 561.663 23.1249 560.39 25.6545Z" fill="#F6611A" stroke="black" stroke-width="3" stroke-miterlimit="10"/>
<path d="M536.663 11.6806L546.143 11.758C546.479 11.765 546.811 11.6902 547.111 11.54C547.412 11.3899 547.671 11.1689 547.866 10.8962L553.287 3.13992C553.511 2.82114 553.819 2.57151 554.177 2.41867C554.534 2.26582 554.928 2.21599 555.313 2.27517C555.697 2.33435 556.058 2.49984 556.353 2.7532C556.649 3.00657 556.867 3.3377 556.984 3.70885L559.837 12.7233C559.94 13.0446 560.119 13.3362 560.359 13.5733C560.6 13.8104 560.893 13.9859 561.216 14.085L570.256 16.843C570.628 16.957 570.96 17.1725 571.215 17.4653C571.471 17.7581 571.64 18.1162 571.702 18.4997C571.765 18.8832 571.719 19.2769 571.57 19.6358C571.421 19.9948 571.175 20.3048 570.859 20.5313L563.163 26.0295C562.891 26.2258 562.671 26.4851 562.521 26.7853C562.371 27.0855 562.295 27.4176 562.302 27.7531L562.465 37.233C562.473 37.6218 562.372 38.0049 562.173 38.3393C561.975 38.6736 561.687 38.9461 561.342 39.1254C560.997 39.3046 560.608 39.3836 560.221 39.3538C559.833 39.3241 559.461 39.1865 559.148 38.9566L551.546 33.3376C551.274 33.1371 550.956 33.0057 550.622 32.9547C550.287 32.9037 549.945 32.9346 549.625 33.0447L540.688 36.1212C540.32 36.2468 539.925 36.2674 539.547 36.1806C539.168 36.0937 538.822 35.9029 538.546 35.6297C538.27 35.3566 538.076 35.0116 537.985 34.6341C537.895 34.2566 537.911 33.8615 538.033 33.4929L541.024 24.5302C541.131 24.2086 541.158 23.8658 541.104 23.5312C541.05 23.1966 540.916 22.88 540.714 22.6084L535.026 15.0676C534.78 14.7602 534.627 14.3896 534.583 13.9988C534.539 13.6079 534.606 13.2125 534.778 12.8584C534.949 12.5043 535.217 12.2058 535.55 11.9974C535.884 11.789 536.27 11.6791 536.663 11.6806Z" fill="#FCD700" stroke="black" stroke-width="3" stroke-miterlimit="10"/>
</svg>
