<svg width="88" height="88" viewBox="0 0 88 88" fill="none" xmlns="http://www.w3.org/2000/svg">
<path d="M57.3981 1.31385C60.2673 -0.842121 64.3714 1.16321 64.4337 4.75162L64.8316 27.6571C64.856 29.062 65.5506 30.3705 66.7005 31.178L85.4484 44.3436C88.3855 46.4062 87.7465 50.929 84.353 52.0972L62.6916 59.5538C61.363 60.0111 60.3331 61.0761 59.9205 62.4192L53.1927 84.318C52.1387 87.7487 47.6398 88.5386 45.4801 85.6721L31.6947 67.3751C30.8492 66.2529 29.5181 65.6025 28.1132 65.6251L5.20727 65.9937C1.61879 66.0514 -0.522718 62.0168 1.53606 59.0771L14.6776 40.3123C15.4836 39.1613 15.6909 37.6945 15.2352 36.3653L7.80638 14.6943C6.64256 11.2993 9.81795 8.01587 13.25 9.06546L35.1574 15.7652C36.501 16.1761 37.9602 15.9199 39.0835 15.0758L57.3981 1.31385Z" fill="#FEDA38"/>
</svg>
