<svg width="300" height="250" viewBox="0 0 300 250" fill="none" xmlns="http://www.w3.org/2000/svg">
<path d="M300 73.564C290.347 100.114 272.279 122.557 248.702 137.283C225.126 152.008 197.412 158.16 170.02 154.748C146.604 151.769 125.293 139.374 110.762 120.28C96.2312 101.186 89.6656 76.9528 92.5056 52.8941C93.2385 46.7467 92.7856 40.5113 91.1724 34.5438C89.5592 28.5763 86.8173 22.9935 83.1035 18.1144C79.3897 13.2352 74.7766 9.15511 69.5276 6.10708C64.2786 3.05905 58.4965 1.10276 52.5114 0.349914C40.4239 -1.17054 28.2435 2.30318 18.6496 10.0069C13.8992 13.8214 9.92668 18.5595 6.9591 23.9508C3.99151 29.3421 2.08686 35.281 1.35388 41.4284C-10.7681 143.064 59.8685 235.896 158.798 248.346C167.509 249.444 176.277 249.996 185.054 250C225.747 249.969 265.585 238.001 299.882 215.506L300 73.564Z" fill="#4D7CC1"/>
<path d="M54.5565 78.52C57.6209 77.9633 59.6261 74.7299 59.0352 71.298C58.4442 67.8662 55.4809 65.5354 52.4164 66.0921C49.3519 66.6488 47.3467 69.8821 47.9377 73.314C48.5287 76.7459 51.492 79.0767 54.5565 78.52Z" fill="#262626"/>
<path d="M63.3726 58.1344C74.147 58.1344 82.8814 49.1632 82.8814 38.0967C82.8814 27.0303 74.147 18.0591 63.3726 18.0591C52.5982 18.0591 43.8638 27.0303 43.8638 38.0967C43.8638 49.1632 52.5982 58.1344 63.3726 58.1344Z" fill="white"/>
<path d="M32.7007 63.7033C43.4752 63.7033 52.2096 54.7321 52.2096 43.6656C52.2096 32.5991 43.4752 23.6279 32.7007 23.6279C21.9263 23.6279 13.1919 32.5991 13.1919 43.6656C13.1919 54.7321 21.9263 63.7033 32.7007 63.7033Z" fill="white"/>
<path d="M61.9517 42.1457C65.0638 42.1457 67.5866 39.5545 67.5866 36.3581C67.5866 33.1617 65.0638 30.5706 61.9517 30.5706C58.8397 30.5706 56.3169 33.1617 56.3169 36.3581C56.3169 39.5545 58.8397 42.1457 61.9517 42.1457Z" fill="#262626"/>
<path d="M34.3106 52.2619C37.4226 52.2619 39.9454 49.6707 39.9454 46.4743C39.9454 43.278 37.4226 40.6868 34.3106 40.6868C31.1986 40.6868 28.6758 43.278 28.6758 46.4743C28.6758 49.6707 31.1986 52.2619 34.3106 52.2619Z" fill="#262626"/>
</svg>
