<svg width="132" height="251" viewBox="0 0 132 251" fill="none" xmlns="http://www.w3.org/2000/svg">
<path d="M300 74.3003C290.347 100.851 272.279 123.294 248.702 138.019C225.126 152.745 197.412 158.896 170.02 155.485C146.604 152.506 125.293 140.11 110.762 121.016C96.2312 101.923 89.6656 77.6891 92.5056 53.6304C93.2385 47.4831 92.7856 41.2476 91.1724 35.2801C89.5592 29.3126 86.8173 23.7299 83.1035 18.8507C79.3897 13.9715 74.7766 9.89144 69.5276 6.84341C64.2786 3.79537 58.4965 1.83909 52.5114 1.08624C40.4239 -0.434208 28.2435 3.03951 18.6496 10.7432C13.8992 14.5577 9.92668 19.2958 6.9591 24.6871C3.99151 30.0784 2.08686 36.0173 1.35388 42.1647C-10.7681 143.8 59.8685 236.632 158.798 249.083C167.509 250.18 176.277 250.732 185.054 250.736C225.747 250.705 265.585 238.738 299.882 216.242L300 74.3003Z" fill="#4D7CC1"/>
<path d="M54.5565 79.2563C57.6209 78.6996 59.6261 75.4663 59.0352 72.0344C58.4442 68.6025 55.4809 66.2717 52.4164 66.8284C49.3519 67.3851 47.3467 70.6185 47.9377 74.0504C48.5287 77.4822 51.492 79.813 54.5565 79.2563Z" fill="#262626"/>
<path d="M63.3726 58.8707C74.147 58.8707 82.8814 49.8996 82.8814 38.8331C82.8814 27.7666 74.147 18.7954 63.3726 18.7954C52.5982 18.7954 43.8638 27.7666 43.8638 38.8331C43.8638 49.8996 52.5982 58.8707 63.3726 58.8707Z" fill="white"/>
<path d="M32.7007 64.4396C43.4752 64.4396 52.2096 55.4684 52.2096 44.4019C52.2096 33.3354 43.4752 24.3643 32.7007 24.3643C21.9263 24.3643 13.1919 33.3354 13.1919 44.4019C13.1919 55.4684 21.9263 64.4396 32.7007 64.4396Z" fill="white"/>
<path d="M61.9517 42.8823C65.0638 42.8823 67.5866 40.2911 67.5866 37.0947C67.5866 33.8983 65.0638 31.3071 61.9517 31.3071C58.8397 31.3071 56.3169 33.8983 56.3169 37.0947C56.3169 40.2911 58.8397 42.8823 61.9517 42.8823Z" fill="#262626"/>
<path d="M34.3106 52.9985C37.4226 52.9985 39.9454 50.4073 39.9454 47.2109C39.9454 44.0145 37.4226 41.4233 34.3106 41.4233C31.1986 41.4233 28.6758 44.0145 28.6758 47.2109C28.6758 50.4073 31.1986 52.9985 34.3106 52.9985Z" fill="#262626"/>
</svg>
