<svg width="1790" height="181" viewBox="0 0 1790 181" fill="none" xmlns="http://www.w3.org/2000/svg">
<mask id="mask0_702_7028" style="mask-type:alpha" maskUnits="userSpaceOnUse" x="0" y="0" width="1790" height="181">
<rect y="0.125" width="1790" height="180" fill="#D9D9D9"/>
</mask>
<g mask="url(#mask0_702_7028)">
<rect width="1637.46" height="180" transform="matrix(-1 8.74418e-08 8.74037e-08 1 1790.39 0.125)" fill="#4D7CC1"/>
<path d="M-3.95206e-06 90C-5.00022e-06 66.1305 10.364 43.2387 28.812 26.3604C47.26 9.48211 72.2809 -3.14508e-06 98.3704 -4.28028e-06L166 -7.22297e-06L166 180L98.3704 180C72.2809 180 47.26 170.518 28.812 153.64C10.364 136.761 -2.90391e-06 113.869 -3.95206e-06 90Z" fill="#4D7CC1"/>
<path d="M107.183 90.1252C107.183 86.7685 104.2 84.0474 100.52 84.0474C96.8394 84.0474 93.856 86.7685 93.856 90.1252C93.856 93.4819 96.8394 96.203 100.52 96.203C104.2 96.203 107.183 93.4819 107.183 90.1252Z" fill="#262626"/>
<path d="M87.8194 59.899C87.8194 38.9904 70.7956 22.0406 49.7957 22.0406C28.7958 22.0406 11.772 38.9904 11.772 59.899C11.772 80.8077 28.7958 97.7574 49.7957 97.7574C70.7956 97.7574 87.8194 80.8076 87.8194 59.899Z" fill="white"/>
<path d="M87.8194 120.351C87.8194 99.4427 70.7956 82.4929 49.7957 82.4929C28.7958 82.4929 11.772 99.4427 11.772 120.351C11.772 141.26 28.7958 158.21 49.7957 158.21C70.7956 158.21 87.8194 141.26 87.8194 120.351Z" fill="white"/>
<path d="M63.2506 72.9077C63.2506 66.8712 58.3357 61.9776 52.2728 61.9776C46.2099 61.9776 41.2949 66.8712 41.2949 72.9078C41.2949 78.9443 46.2099 83.8379 52.2728 83.8379C58.3357 83.8379 63.2506 78.9443 63.2506 72.9077Z" fill="#262626"/>
<path d="M63.2506 107.342C63.2506 101.306 58.3357 96.4122 52.2728 96.4122C46.2099 96.4122 41.2949 101.306 41.2949 107.342C41.2949 113.379 46.2099 118.272 52.2728 118.272C58.3357 118.272 63.2506 113.379 63.2506 107.342Z" fill="#262626"/>
</g>
</svg>
