<svg width="446" height="199" viewBox="0 0 446 199" fill="none" xmlns="http://www.w3.org/2000/svg">
<g clip-path="url(#clip0_264_4443)">
<path d="M341.902 135.284C343.414 139.654 344.924 144.001 346.432 148.325C354.11 150.111 361.727 152.041 369.283 154.115L401.822 140.45C416.132 111.732 430.608 81.1611 445.252 48.7365C432.964 44.3486 420.413 40.291 407.598 36.5639L386.932 52.2532C384.968 44.7937 382.991 37.2348 380.999 29.5764C372.481 27.5636 363.882 25.6936 355.203 23.9665L335.511 46.3066C332.847 37.4032 330.173 28.3468 327.489 19.1373C313.777 17.0964 299.966 15.4496 286.053 14.197L279.941 30.0279C277.793 27.039 275.413 24.2241 272.824 21.6093C266.42 15.1595 258.866 9.96781 250.554 6.30262C241.879 2.48684 232.507 0.516602 223.033 0.516602C213.558 0.516602 204.186 2.48684 195.511 6.30262C187.199 9.96553 179.646 15.1575 173.244 21.6093C170.653 24.2241 168.271 27.039 166.12 30.0279L160.008 14.1932C146.096 15.4688 132.278 17.1117 118.554 19.1219C115.857 28.3212 113.183 37.3675 110.531 46.2606L90.8279 23.9512C82.1692 25.6757 73.5704 27.5457 65.0314 29.5611C63.0425 37.2144 61.0637 44.7708 59.0951 52.2302L38.4366 36.5409C25.6268 40.2502 13.0692 44.3078 0.763672 48.7135C15.4478 81.2019 29.9307 111.777 44.2124 140.439L76.7512 154.104C84.3021 152.027 91.9179 150.097 99.5986 148.314C101.109 143.99 102.619 139.643 104.129 135.273L118.317 144.376C126.097 142.917 133.92 141.607 141.787 140.446C147.726 124.017 153.664 107.231 159.603 90.0874C159.603 90.1295 159.645 90.1716 159.668 90.2175C159.913 90.6882 160.172 91.1589 160.432 91.6219L173.825 114.995C176.513 119.648 180.033 123.767 184.208 127.145C189.487 131.457 195.458 134.381 201.65 136.551C208.507 138.95 215.876 139.914 223.004 139.914C230.132 139.914 237.501 138.95 244.361 136.551C250.542 134.381 256.513 131.461 261.8 127.145C266.059 123.701 269.633 119.484 272.335 114.716L285.576 91.6143C285.839 91.1512 286.095 90.6882 286.34 90.2175C286.37 90.1525 286.401 90.0912 286.435 90.0262C292.379 107.195 298.319 124.002 304.255 140.446C312.119 141.602 319.942 142.912 327.722 144.376L341.902 135.284ZM233.746 86.5018C226.778 88.855 219.233 88.855 212.266 86.5018C209.178 85.4654 206.296 83.8943 203.751 81.8601C204.788 80.0729 206.06 78.4332 207.533 76.9849C209.443 75.1749 212.082 73.3496 214.489 72.4695C219.951 70.2398 226.068 70.2398 231.53 72.4695C233.937 73.3496 236.584 75.1711 238.49 76.9849C239.961 78.4336 241.232 80.0717 242.272 81.8563C239.719 83.8861 236.834 85.4578 233.746 86.5018Z" fill="black"/>
<path d="M44.606 139.555C30.3956 110.977 15.9904 80.5703 1.7876 49.1687C13.5876 44.9594 25.7619 41.0294 37.9898 37.4744C43.0666 49.0692 48.2045 60.6296 53.2698 71.8455L54.1522 73.801L54.7061 71.7269C58.3084 58.2226 61.9909 44.2515 65.6428 30.2C73.787 28.2866 82.0917 26.4766 90.3506 24.8235C95.4006 36.9923 100.5 49.1037 105.516 60.84L106.341 62.7725L106.948 60.7597C110.967 47.4391 115.066 33.6669 119.13 19.8144C132.248 17.9011 145.626 16.2939 158.912 15.0693C146.806 53.1791 134.682 89.8615 122.859 124.129C113.584 125.423 104.244 126.888 95.0836 128.495C90.8816 119.652 86.5955 110.564 82.3706 101.472L81.5264 99.6577L80.9457 101.571C77.7102 112.224 74.4517 122.866 71.2353 133.21C62.3003 135.165 53.35 137.289 44.606 139.555Z" fill="white"/>
<path d="M157.831 15.9384C145.897 53.4856 133.941 89.6323 122.305 123.422C113.358 124.673 104.351 126.1 95.5381 127.631C91.4049 118.948 87.2143 110.028 83.0773 101.135L81.3926 97.5114L80.2466 101.338C77.0569 111.831 73.8367 122.323 70.6661 132.544C62.0787 134.435 53.4761 136.49 45.0491 138.667C31.045 110.484 16.8575 80.5401 2.861 49.6169C14.1988 45.595 25.8689 41.8258 37.5963 38.4047C42.5852 49.8005 47.6353 61.1542 52.6051 72.1712L54.3661 76.0744L55.4739 71.934C59.0456 58.5406 62.6861 44.7379 66.296 30.8471C74.085 29.0179 82.0191 27.2921 89.9151 25.704C94.8811 37.6853 99.912 49.6054 104.844 61.1504L106.494 65.0153L107.709 60.9897C111.685 47.8145 115.731 34.2031 119.757 20.5113C132.332 18.6745 145.133 17.14 157.865 15.9461M160.02 14.2087C146.107 15.4843 132.289 17.1272 118.565 19.1375C114.389 33.291 110.271 47.0938 106.211 60.5458C101.118 48.6372 95.9851 36.4417 90.8128 23.9591C82.1541 25.6836 73.5553 27.5536 65.0163 29.569C61.2854 43.9189 57.6004 57.9092 53.9612 71.5398C48.8195 60.1287 43.6395 48.4663 38.4214 36.5526C25.6117 40.2619 13.054 44.3195 0.748535 48.7252C15.4326 81.2136 29.9155 111.789 44.1973 140.45C53.2965 138.085 62.5065 135.884 71.8274 133.846C75.0744 123.386 78.3558 112.697 81.6715 101.778C86.0238 111.138 90.3531 120.322 94.6595 129.33C104.179 127.654 113.772 126.146 123.439 124.807C135.281 90.4818 147.467 53.7037 160.005 14.1973L160.02 14.2087Z" fill="black"/>
<path d="M401.417 139.555C392.658 137.289 383.708 135.15 374.788 133.195C371.583 122.863 368.317 112.213 365.082 101.556L364.501 99.6426L363.657 101.456C359.428 110.556 355.15 119.645 350.94 128.48C341.772 126.869 332.455 125.419 323.168 124.114C311.368 89.8463 299.24 53.1678 287.115 15.0542C300.397 16.2787 313.767 17.8783 326.878 19.8146C330.942 33.6671 335.037 47.4393 339.056 60.7599L339.663 62.7727L340.488 60.8402C345.508 49.1077 350.615 36.9963 355.669 24.8237C363.936 26.4768 372.24 28.2677 380.377 30.2001C384.029 44.2516 387.707 58.2228 391.313 71.7271L391.864 73.7973L392.746 71.8457C397.804 60.6451 402.945 49.0847 408.026 37.4746C420.25 41.0411 432.424 44.9711 444.213 49.1689C430.044 80.5781 415.647 110.977 401.417 139.555Z" fill="white"/>
<path d="M288.196 15.9381C300.921 17.132 313.718 18.6703 326.282 20.5301C330.3 34.2219 334.349 47.8333 338.322 61.0085L339.537 65.0342L341.191 61.1692C346.134 49.6165 351.157 37.6965 356.135 25.7267C364.035 27.3109 371.969 29.0367 379.754 30.8659C383.368 44.772 387.012 58.5901 390.572 71.9489L391.68 76.0894L393.441 72.1862C398.407 61.1807 403.461 49.827 408.457 38.4235C420.185 41.8675 431.851 45.6253 443.177 49.6395C429.212 80.5551 415.028 110.483 401.008 138.674C392.582 136.501 383.971 134.465 375.388 132.552C372.225 122.346 369.004 111.853 365.811 101.342L364.665 97.5149L362.98 101.139C358.839 110.055 354.649 118.96 350.516 127.635C341.691 126.104 332.699 124.673 323.753 123.425C312.117 89.6205 300.164 53.4738 288.227 15.9419M286.068 14.2046C298.629 53.6996 310.803 90.4776 322.63 124.814C332.307 126.146 341.9 127.654 351.41 129.337C355.708 120.327 360.038 111.143 364.398 101.785C367.708 112.702 370.99 123.391 374.242 133.853C383.555 135.894 392.765 138.095 401.872 140.458C416.182 111.74 430.658 81.1686 445.301 48.7441C433.014 44.3561 420.462 40.2986 407.648 36.5714C402.43 48.4953 397.247 60.1539 392.1 71.5471C388.458 57.9166 384.775 43.9276 381.049 29.5801C372.53 27.5673 363.931 25.6973 355.252 23.9702C350.073 36.4503 344.933 48.6458 339.835 60.557C335.778 47.1024 331.674 33.2996 327.523 19.1486C313.812 17.1078 300 15.461 286.087 14.2084L286.068 14.2046Z" fill="black"/>
<path d="M223 121.565C213.42 121.565 204.584 120.268 196.734 117.704C188.101 114.888 181.022 111.337 175.094 106.856C168.703 102.023 163.599 96.1411 160.337 89.8731C156.769 83.0233 154.87 75.7144 154.53 67.5827C154.206 59.8376 155.875 51.4916 159.355 43.448C162.79 35.5078 167.676 28.2802 173.76 22.1373C180.093 15.7556 187.568 10.6241 195.794 7.01049C204.372 3.23762 213.639 1.28955 223.008 1.28955C232.377 1.28955 241.643 3.23762 250.222 7.01049C258.446 10.6274 265.92 15.7584 272.255 22.1373C278.336 28.283 283.219 35.5099 286.657 43.448C290.137 51.5031 291.81 59.8491 291.489 67.5827C291.145 75.7527 289.239 83.0425 285.664 89.8731C282.378 96.1641 277.26 102.038 270.907 106.856C264.974 111.333 257.896 114.892 249.27 117.704C241.413 120.268 232.573 121.565 223 121.565ZM223 38.8789C219.413 38.8789 215.971 39.5295 211.842 40.9874C208.931 42.0168 205.436 44.2056 202.72 46.7045C200.217 49.0855 198.159 51.895 196.642 55.0007C195.234 58.13 194.487 61.5175 194.45 64.95C194.535 68.2985 195.333 71.5902 196.791 74.6047C198.353 77.512 200.449 80.0981 202.968 82.2274C205.665 84.4354 209.137 86.3563 212.037 87.2441C219.151 89.637 226.85 89.637 233.964 87.2441C237.258 86.128 240.326 84.4317 243.025 82.235C245.539 80.1075 247.632 77.5256 249.194 74.6238C250.657 71.6108 251.46 68.3187 251.547 64.9691C251.523 61.5379 250.785 58.1494 249.381 55.0198C247.867 51.9073 245.807 49.0922 243.3 46.7083C240.584 44.2018 237.088 42.013 234.166 40.9683C230.044 39.5295 226.602 38.8789 223 38.8789Z" fill="white"/>
<path d="M223 2.05508C232.263 2.04786 241.426 3.97406 249.905 7.71089C258.041 11.284 265.436 16.3555 271.705 22.6617C277.719 28.7381 282.549 35.8848 285.946 43.7351C289.384 51.6869 291.035 59.9142 290.718 67.5369C290.378 75.5921 288.502 82.7747 284.988 89.502C281.756 95.6935 276.729 101.479 270.449 106.228C264.589 110.656 257.583 114.169 249.057 116.962C241.283 119.499 232.524 120.789 223.023 120.789C213.523 120.789 204.764 119.503 196.994 116.962C188.445 114.172 181.439 110.66 175.579 106.228C169.276 101.464 164.249 95.6821 161.036 89.5058C157.522 82.7556 155.65 75.5691 155.306 67.5369C154.985 59.9066 156.632 51.6754 160.07 43.7389C163.466 35.8876 168.295 28.7406 174.311 22.6655C180.574 16.3499 187.969 11.2715 196.107 7.69559C204.584 3.96654 213.742 2.04563 223 2.05508ZM223 89.7967C226.802 89.7586 230.577 89.1405 234.193 87.9637C237.58 86.8192 240.735 85.0775 243.51 82.8206C246.093 80.6349 248.241 77.9814 249.844 74.9989V74.9683V74.9415C251.349 71.8359 252.173 68.4435 252.262 64.9922V64.9386C252.231 61.4163 251.471 57.9387 250.031 54.7253V54.6985V54.6755C248.476 51.4921 246.366 48.6126 243.8 46.1727C240.981 43.5744 237.471 41.3779 234.411 40.2949C230.209 38.8102 226.675 38.1443 222.997 38.1443C219.318 38.1443 215.8 38.8102 211.586 40.2949C208.53 41.374 205.027 43.5706 202.2 46.1727C199.635 48.6126 197.525 51.4921 195.97 54.6755V54.6985V54.7215C194.526 57.9384 193.76 61.4193 193.72 64.9463V65.0037C193.808 68.4545 194.631 71.8467 196.134 74.953V74.9836V75.0142C197.74 77.9941 199.891 80.6448 202.475 82.8283C205.241 85.086 208.809 87.0606 211.796 87.9752C215.417 89.1477 219.195 89.7619 223 89.7967ZM223 0.524414C213.532 0.53031 204.167 2.50031 195.496 6.31033C187.184 9.97324 179.631 15.1652 173.229 21.617C167.084 27.8318 162.146 35.1374 158.668 43.1611C155.375 50.7685 153.427 59.2331 153.778 67.6517C154.114 75.6877 155.967 83.1421 159.672 90.2635C163.16 96.9716 168.565 102.891 174.647 107.483C181.313 112.527 188.781 115.933 196.509 118.451C205.039 121.237 214.176 122.35 223.012 122.35C231.847 122.35 240.966 121.237 249.519 118.451C257.228 115.933 264.7 112.531 271.377 107.483C277.462 102.891 282.837 96.9563 286.351 90.2635C290.064 83.1765 291.925 75.7222 292.261 67.6517C292.612 59.2331 290.656 50.78 287.367 43.1611C283.889 35.1383 278.952 27.8329 272.809 21.617C266.404 15.1672 258.851 9.97552 250.539 6.31033C241.868 2.49978 232.503 0.529757 223.035 0.524414H223ZM223 88.266C219.351 88.2277 215.729 87.6328 212.258 86.5019C209.26 85.5835 205.906 83.6357 203.472 81.6344C201.036 79.5728 199.006 77.0715 197.49 74.2604C196.078 71.357 195.305 68.183 195.225 64.9539C195.266 61.6371 195.986 58.364 197.341 55.3376C198.818 52.319 200.819 49.5876 203.251 47.2709C205.669 45.0476 209.038 42.7976 212.113 41.7108C215.803 40.4059 219.253 39.6444 223.016 39.6444C226.778 39.6444 230.232 40.4097 233.922 41.7108C236.978 42.7976 240.366 45.04 242.788 47.2709C245.218 49.5887 247.219 52.3198 248.698 55.3376C250.047 58.3612 250.761 61.6306 250.795 64.9425C250.715 68.1722 249.943 71.3472 248.533 74.2527C247.017 77.0651 244.99 79.5686 242.555 81.6344C239.939 83.7683 236.964 85.4167 233.769 86.5019C230.29 87.636 226.659 88.2309 223 88.266Z" fill="black"/>
<path d="M185.213 176.207C184.895 166.529 175.407 164.815 165.929 164.727C157.65 164.727 149.551 164.943 141.634 165.377C141.111 186.041 141.183 186.638 140.816 196.756C145.232 196.993 147.761 196.725 156.54 196.45L157.021 186.933C169.073 187.453 185.564 187.269 185.213 176.207ZM162.079 179.597C159.132 179.597 157.537 179.554 157.292 179.467C157.292 177.783 157.399 175.809 157.613 173.532C161.02 173.237 164.649 172.916 167.469 173.62C168.452 173.895 168.942 174.706 168.939 176.053C168.939 178.416 166.652 179.597 162.079 179.597Z" fill="white"/>
<path d="M211.269 168.121C207.182 167.156 197.418 168.121 193.246 168.144C186.116 184.315 181.771 194.039 180.212 197.314C188.685 197.62 188.956 197.953 192.696 197.62L194.224 193.794C201.38 193.794 205.393 193.849 206.261 193.958C206.641 195.297 207.167 196.589 207.831 197.812C213.152 198.053 211.422 197.789 223.673 197.138L221.961 193.143C214.917 176.734 211.353 168.394 211.269 168.121ZM197.28 186.297C198.121 184.166 199.908 179.509 200.825 176.486C201.284 178.254 202.254 181.524 203.736 186.297H197.28Z" fill="white"/>
<path d="M258.121 183.791C262.037 182.406 265.525 179.83 265.38 175.139C265.38 170.899 262.366 168.296 256.338 167.329C250.546 166.479 233.337 166.694 227.214 167.348C226.832 174.416 226.068 192.221 226.068 196.989C231.114 196.813 233.708 196.725 240.08 196.607C240.175 196.607 240.225 196.534 240.225 196.423L240.63 186.286L245.619 185.938C246.287 187.622 250.741 196.817 251.585 198.363L267.492 196.22C266.736 195.313 259.054 184.686 258.121 183.791ZM249.809 179.13C247.517 180.439 243.411 180.297 240.951 180.661L241.298 174.921C244.736 174.89 250.768 174.002 250.909 177.163C250.928 177.561 250.835 177.957 250.64 178.304C250.446 178.652 250.158 178.938 249.809 179.13Z" fill="white"/>
<path d="M295.393 166.655C294.805 167.202 286.401 177.925 285.618 178.901C285.732 175.946 286.263 170.52 285.717 167.497C282.768 167.455 273.688 167.669 270.892 167.945C270.72 173.478 269.772 189.757 270.059 197.284C273.005 197.284 278.008 197.174 285.068 196.955C285.007 196.362 285.37 187.116 285.392 186.24C288.869 189.784 295.435 195.478 299.526 198.746C300.699 197.934 311.422 193.645 312.988 192.975L299.618 182.486C301.639 180.435 307.923 174.19 310.15 171.772L295.393 166.655Z" fill="white"/>
</g>
<defs>
<clipPath id="clip0_264_4443">
<rect width="444.503" height="198.202" fill="white" transform="translate(0.748535 0.524414)"/>
</clipPath>
</defs>
</svg>
