<svg width="284" height="370" viewBox="0 0 284 370" fill="none" xmlns="http://www.w3.org/2000/svg">
<path d="M198.769 221.101L198.847 244.943V359.232C198.998 361.188 198.402 363.128 197.177 364.661C195.953 366.194 194.192 367.205 192.251 367.489C190.31 367.774 188.333 367.311 186.721 366.193C185.108 365.076 183.979 363.388 183.564 361.471L178.925 344.767C178.573 343.593 177.852 342.564 176.869 341.832C175.886 341.1 174.693 340.704 173.467 340.703C152.808 346.531 130.939 346.531 110.279 340.703C109.055 340.705 107.865 341.102 106.884 341.834C105.903 342.566 105.184 343.595 104.833 344.767L100.194 361.471C99.7699 363.38 98.6394 365.057 97.0294 366.166C95.4194 367.276 93.4492 367.735 91.5148 367.451C89.5803 367.168 87.8247 366.162 86.6008 364.638C85.3769 363.113 84.7753 361.182 84.9168 359.232V244.915V221.139" fill="#4D7CC1"/>
<path d="M141.89 311.311L84.9395 309.038C84.9395 309.038 109.766 326.776 110.258 340.693C130.945 346.51 152.836 346.51 173.523 340.693C174.037 326.776 198.858 309.005 198.858 309.005L141.89 311.311Z" stroke="black" stroke-width="2.98" stroke-linecap="round" stroke-linejoin="round"/>
<path d="M198.769 294.65L152.622 303.724C149.217 302.254 145.548 301.496 141.84 301.496C138.131 301.496 134.462 302.254 131.058 303.724L84.9219 294.65V308.971L124.528 316.712C127.021 321.196 133.811 324.453 141.834 324.453C149.857 324.453 156.652 321.207 159.141 316.712L198.763 308.971L198.769 294.65Z" fill="#FFE500" stroke="black" stroke-width="2.98" stroke-linecap="round" stroke-linejoin="round"/>
<path d="M198.769 244.898L198.847 244.926V359.215C198.998 361.171 198.402 363.112 197.177 364.645C195.953 366.178 194.192 367.188 192.251 367.473C190.31 367.757 188.333 367.294 186.721 366.177C185.108 365.06 183.979 363.372 183.564 361.454L178.925 344.751C178.573 343.577 177.852 342.547 176.869 341.815C175.886 341.083 174.693 340.687 173.467 340.687C152.808 346.514 130.939 346.514 110.279 340.687C109.055 340.689 107.865 341.085 106.884 341.817C105.903 342.549 105.184 343.578 104.833 344.751L100.194 361.454C99.7699 363.363 98.6394 365.041 97.0294 366.15C95.4194 367.259 93.4492 367.718 91.5148 367.435C89.5803 367.151 87.8247 366.146 86.6008 364.621C85.3769 363.097 84.7753 361.165 84.9168 359.215V244.915" stroke="black" stroke-width="2.98" stroke-linecap="round" stroke-linejoin="round"/>
<path d="M199.19 245.286C223.812 258.058 238.636 243.898 255.102 234.056C236.684 228.493 235.13 220.459 234.859 212.249C234.782 212.365 219.577 241.327 190.847 218.331" fill="#4D7CC1"/>
<path d="M199.19 245.286C223.812 258.058 238.636 243.898 255.102 234.056C236.684 228.493 235.13 220.459 234.859 212.249C234.782 212.365 219.577 241.327 190.847 218.331" stroke="black" stroke-width="2.98" stroke-linecap="round" stroke-linejoin="round"/>
<path d="M231.962 214.941C233.278 223.053 235.832 230.821 254.814 233.995C305.312 222.268 274.614 168.568 242.522 203.745L241.931 203.264C239.078 200.084 238.801 194.572 231.47 197.734C225.94 198.84 227.571 210.418 230.424 213.592C230.884 214.108 231.413 214.558 231.995 214.93L231.962 214.941Z" fill="white" stroke="black" stroke-width="2.98" stroke-linecap="round" stroke-linejoin="round"/>
<path d="M84.7347 245.286C60.1131 258.058 45.2893 243.898 28.8232 234.056C47.2411 228.493 48.7947 220.459 49.0657 212.249C49.1431 212.365 64.3485 241.327 93.0783 218.331" fill="#4D7CC1"/>
<path d="M84.7347 245.286C60.1131 258.058 45.2893 243.898 28.8232 234.056C47.2411 228.493 48.7947 220.459 49.0657 212.249C49.1431 212.365 64.3485 241.327 93.0783 218.331" stroke="black" stroke-width="2.98" stroke-linecap="round" stroke-linejoin="round"/>
<path d="M51.9623 214.941C50.6464 223.053 48.092 230.821 29.1101 233.995C-21.3883 222.268 9.30998 168.568 41.4016 203.745L41.9933 203.264C44.8463 200.084 45.1228 194.572 52.4545 197.734C57.9837 198.84 56.3526 210.418 53.4995 213.592C53.0396 214.108 52.5113 214.558 51.9293 214.93L51.9623 214.941Z" fill="white" stroke="black" stroke-width="2.98" stroke-linecap="round" stroke-linejoin="round"/>
<path d="M94.9696 219.227C91.8953 222.351 87.7816 224.136 83.5518 226.735C99.1663 244.241 119.492 254.763 141.868 254.763C164.245 254.763 184.571 244.257 200.185 226.73C196.392 224.407 191.831 222.395 188.878 219.238L94.9696 219.227Z" fill="#4C70BF"/>
<path d="M141.891 230.081C204.758 230.081 255.727 179.118 255.727 116.245C255.727 53.372 204.758 2.40918 141.891 2.40918C79.0238 2.40918 28.0498 53.3776 28.0498 116.245C28.0498 179.112 79.0183 230.081 141.891 230.081Z" fill="#FCD700"/>
<mask id="mask0_264_4301" style="mask-type:luminance" maskUnits="userSpaceOnUse" x="28" y="2" width="228" height="229">
<path d="M141.891 230.081C204.758 230.081 255.727 179.118 255.727 116.245C255.727 53.372 204.758 2.40918 141.891 2.40918C79.0238 2.40918 28.0498 53.3776 28.0498 116.245C28.0498 179.112 79.0183 230.081 141.891 230.081Z" fill="white"/>
</mask>
<g mask="url(#mask0_264_4301)">
<path d="M219.295 35.6729C226.843 36.9602 234.064 39.7218 240.545 43.8C247.027 47.8781 252.641 53.1931 257.068 59.4412C261.495 65.6893 264.648 72.7482 266.346 80.2149C268.045 87.6816 268.256 95.4098 266.968 102.958C261.544 134.696 234.649 137.129 202.912 131.71C171.174 126.291 146.602 115.073 152.043 83.3349C154.644 68.0981 163.19 54.5181 175.801 45.5804C188.412 36.6427 204.057 33.0791 219.295 35.6729Z" fill="#F9BD00"/>
<path d="M64.5428 35.673C49.301 38.2766 35.7177 46.8281 26.7805 59.4463C17.8433 72.0645 14.2843 87.716 16.8865 102.958C22.3106 134.696 49.2048 137.129 80.9426 131.71C112.68 126.291 137.252 115.073 131.811 83.3349C129.21 68.0948 120.662 54.5119 108.047 45.5738C95.4321 36.6357 79.7834 33.0743 64.5428 35.673Z" fill="#F9BD00"/>
<path d="M141.891 210.269C84.4866 210.269 35.3041 170.907 25.0584 116.77C13.2701 178.537 55.9557 237.772 120.399 249.073C127.495 250.318 134.687 250.938 141.891 250.926C207.445 250.964 260.62 200.057 260.659 137.217C260.66 130.353 260.016 123.503 258.735 116.759C248.472 170.896 199.29 210.247 141.891 210.258V210.269Z" fill="#F9BD00"/>
</g>
<path d="M141.891 230.081C204.758 230.081 255.727 179.118 255.727 116.245C255.727 53.372 204.758 2.40918 141.891 2.40918C79.0238 2.40918 28.0498 53.3776 28.0498 116.245C28.0498 179.112 79.0183 230.081 141.891 230.081Z" stroke="black" stroke-width="2.98" stroke-linecap="round" stroke-linejoin="round"/>
<path d="M217.038 37.1216C231.082 39.5023 243.605 47.364 251.853 58.9775C260.101 70.5909 263.397 85.0049 261.018 99.0489C256.042 128.293 231.536 129.073 202.292 124.118C173.048 119.164 150.151 110.345 155.106 81.1011C156.284 74.1464 158.82 67.492 162.57 61.5177C166.321 55.5435 171.211 50.3665 176.962 46.2825C182.713 42.1985 189.213 39.2875 196.089 37.7156C202.965 36.1438 210.084 35.9419 217.038 37.1216Z" fill="white" stroke="black" stroke-width="2.98" stroke-linecap="round" stroke-linejoin="round"/>
<path d="M187.224 98.0146C201.561 98.0146 213.184 86.3921 213.184 72.0549C213.184 57.7178 201.561 46.0952 187.224 46.0952C172.887 46.0952 161.265 57.7178 161.265 72.0549C161.265 86.3921 172.887 98.0146 187.224 98.0146Z" fill="black"/>
<path d="M204.471 62.0349C206.084 57.9245 203.166 52.9337 197.953 50.8874C192.739 48.8412 187.205 50.5145 185.592 54.6249C183.979 58.7353 186.897 63.7262 192.11 65.7724C197.324 67.8186 202.858 66.1453 204.471 62.0349Z" fill="white"/>
<path d="M209.544 76.9448C211.786 74.1674 211.611 70.3063 209.152 68.3207C206.693 66.3351 202.881 66.977 200.639 69.7543C198.396 72.5317 198.572 76.3928 201.031 78.3784C203.49 80.364 207.301 79.7222 209.544 76.9448Z" fill="white"/>
<path d="M177.748 91.5491C178.874 90.438 177.754 87.4775 175.246 84.9366C172.739 82.3957 169.793 81.2366 168.668 82.3476C167.542 83.4587 168.662 86.4192 171.169 88.9601C173.676 91.501 176.622 92.6601 177.748 91.5491Z" fill="white"/>
<path d="M66.7363 37.1216C59.7823 38.2997 53.1285 40.8361 47.1549 44.586C41.1814 48.3359 36.0051 53.2258 31.9216 58.9765C27.8381 64.7271 24.9275 71.2259 23.3559 78.1016C21.7843 84.9773 21.5827 92.0953 22.7623 99.0489C27.7387 128.293 52.2386 129.073 81.4827 124.118C110.727 119.164 133.623 110.345 128.669 81.1011C127.491 74.1464 124.954 67.492 121.204 61.5177C117.454 55.5435 112.564 50.3665 106.813 46.2825C101.061 42.1985 94.562 39.2875 87.6857 37.7156C80.8093 36.1438 73.6907 35.9419 66.7363 37.1216Z" fill="white" stroke="black" stroke-width="2.98" stroke-linecap="round" stroke-linejoin="round"/>
<path d="M97.0095 98.0146C111.347 98.0146 122.969 86.3921 122.969 72.0549C122.969 57.7178 111.347 46.0952 97.0095 46.0952C82.6723 46.0952 71.0498 57.7178 71.0498 72.0549C71.0498 86.3921 82.6723 98.0146 97.0095 98.0146Z" fill="black"/>
<path d="M92.1579 65.7015C97.3712 63.6552 100.289 58.6644 98.6762 54.554C97.0628 50.4436 91.5289 48.7702 86.3155 50.8165C81.1022 52.8627 78.1838 57.8536 79.7972 61.964C81.4105 66.0744 86.9446 67.7477 92.1579 65.7015Z" fill="white"/>
<path d="M83.231 78.2248C85.69 76.2392 85.8654 72.378 83.6228 69.6007C81.3801 66.8233 77.5686 66.1814 75.1096 68.167C72.6506 70.1526 72.4753 74.0137 74.7179 76.7911C76.9606 79.5685 80.772 80.2104 83.231 78.2248Z" fill="white"/>
<path d="M113.068 89.0337C115.575 86.4928 116.695 83.5322 115.569 82.4211C114.443 81.3101 111.498 82.4692 108.99 85.0102C106.483 87.5511 105.363 90.5116 106.489 91.6226C107.615 92.7337 110.56 91.5746 113.068 89.0337Z" fill="white"/>
<path d="M271.943 38.3988C267.005 25.8806 255.537 18.4935 244.341 16.21" stroke="black" stroke-width="2.98" stroke-linecap="round" stroke-linejoin="round"/>
<path d="M39.428 16.21C28.2313 18.488 16.7582 25.8806 11.8262 38.3988" stroke="black" stroke-width="2.98" stroke-linecap="round" stroke-linejoin="round"/>
<path d="M84.7852 148.751C84.7852 130.919 118.823 137.908 140.918 137.908H142.859C164.976 137.908 198.991 130.919 198.991 148.751C198.991 166.577 172.932 181.163 150.837 181.163H132.939C110.844 181.174 84.7852 166.588 84.7852 148.751Z" fill="black"/>
<mask id="mask1_264_4301" style="mask-type:luminance" maskUnits="userSpaceOnUse" x="84" y="136" width="115" height="46">
<path d="M84.7852 148.751C84.7852 130.919 118.823 137.908 140.918 137.908H142.859C164.976 137.908 198.991 130.919 198.991 148.751C198.991 166.577 172.932 181.163 150.837 181.163H132.939C110.844 181.174 84.7852 166.588 84.7852 148.751Z" fill="white"/>
</mask>
<g mask="url(#mask1_264_4301)">
<path d="M141.963 209.893C168.576 209.893 190.15 199.934 190.15 187.649C190.15 175.364 168.576 165.405 141.963 165.405C115.35 165.405 93.7754 175.364 93.7754 187.649C93.7754 199.934 115.35 209.893 141.963 209.893Z" fill="#FF7BAC"/>
</g>
<path d="M84.7852 148.751C84.7852 130.919 118.823 137.908 140.918 137.908H142.859C164.976 137.908 198.991 130.919 198.991 148.751C198.991 166.577 172.932 181.163 150.837 181.163H132.939C110.844 181.174 84.7852 166.588 84.7852 148.751Z" stroke="black" stroke-width="2.98" stroke-linecap="round" stroke-linejoin="round"/>
</svg>
