<svg width="290" height="405" viewBox="0 0 290 405" fill="none" xmlns="http://www.w3.org/2000/svg">
<path d="M184.956 269.259L185.016 289.323V385.481C185.185 387.146 184.7 388.812 183.662 390.131C182.624 391.45 181.113 392.322 179.443 392.564C177.774 392.806 176.075 392.401 174.7 391.432C173.324 390.463 172.378 389.005 172.059 387.361L168.126 373.359C167.822 372.372 167.209 371.507 166.374 370.892C165.539 370.276 164.528 369.942 163.488 369.938C145.965 374.849 127.414 374.849 109.891 369.938C108.853 369.94 107.844 370.274 107.012 370.89C106.18 371.506 105.571 372.372 105.274 373.359L101.341 387.361C101 388.986 100.047 390.421 98.676 391.372C97.305 392.323 95.6194 392.719 93.9639 392.479C92.3085 392.239 90.8081 391.381 89.7689 390.08C88.7297 388.779 88.2299 387.134 88.3725 385.481V289.303V269.299" fill="#4D7CC1"/>
<path d="M136.714 345.113L88.4023 343.203C88.4023 343.203 109.458 358.126 109.871 369.838C127.42 374.729 145.988 374.729 163.537 369.838C163.971 358.126 185.026 343.173 185.026 343.173L136.714 345.113Z" stroke="black" stroke-width="1.39" stroke-linecap="round" stroke-linejoin="round"/>
<path d="M184.956 331.111L145.81 338.752C142.922 337.515 139.81 336.876 136.664 336.876C133.518 336.876 130.406 337.515 127.518 338.752L88.3926 331.111V343.113L121.982 349.614C124.099 353.395 129.858 356.125 136.664 356.125C143.471 356.125 149.228 353.395 151.346 349.614L184.956 343.113V331.111Z" fill="#FFE500" stroke="black" stroke-width="1.39" stroke-linecap="round" stroke-linejoin="round"/>
<path d="M184.966 289.283H185.027V385.441C185.196 387.106 184.71 388.772 183.672 390.091C182.634 391.41 181.124 392.282 179.454 392.524C177.785 392.766 176.085 392.361 174.71 391.392C173.334 390.423 172.388 388.965 172.069 387.321L168.136 373.319C167.833 372.332 167.218 371.468 166.384 370.852C165.549 370.237 164.537 369.902 163.497 369.898C145.975 374.809 127.424 374.809 109.902 369.898C108.864 369.9 107.854 370.234 107.022 370.85C106.19 371.466 105.581 372.332 105.284 373.319L101.351 387.321C101.01 388.946 100.057 390.38 98.6858 391.332C97.3147 392.283 95.6292 392.679 93.9737 392.439C92.3183 392.199 90.8178 391.341 89.7787 390.04C88.7395 388.739 88.2407 387.094 88.3833 385.441V289.303" stroke="black" stroke-width="1.39" stroke-linecap="round" stroke-linejoin="round"/>
<path d="M185.319 289.613C206.213 300.355 218.777 288.442 232.713 280.161C217.093 275.48 215.772 268.729 215.571 261.817C215.5 261.917 202.603 286.282 178.26 266.938" fill="#4D7CC1"/>
<path d="M185.319 289.613C206.213 300.355 218.777 288.442 232.713 280.161C217.093 275.48 215.772 268.729 215.571 261.817C215.5 261.917 202.603 286.282 178.26 266.938" stroke="black" stroke-width="1.39" stroke-linecap="round" stroke-linejoin="round"/>
<path d="M213.12 264.098C214.229 270.929 216.408 277.46 232.502 280.101C275.338 270.239 249.301 225.09 222.074 254.646L221.581 254.246C219.161 251.576 218.918 246.935 212.696 249.595C207.997 250.515 209.399 260.267 211.819 262.938C212.217 263.388 212.679 263.779 213.191 264.098H213.12Z" fill="white" stroke="black" stroke-width="1.39" stroke-linecap="round" stroke-linejoin="round"/>
<path d="M88.2311 289.613C67.3474 300.355 54.7728 288.442 40.8369 280.161C56.4568 275.48 57.7778 268.729 57.9795 261.817C58.04 261.917 70.9373 286.282 95.2898 266.938" fill="#4D7CC1"/>
<path d="M88.2311 289.613C67.3474 300.355 54.7728 288.442 40.8369 280.161C56.4568 275.48 57.7778 268.729 57.9795 261.817C58.04 261.917 70.9373 286.282 95.2898 266.938" stroke="black" stroke-width="1.39" stroke-linecap="round" stroke-linejoin="round"/>
<path d="M60.4294 264.098C59.3202 270.929 57.1423 277.46 41.0485 280.101C-1.78782 270.239 24.2587 225.09 51.4751 254.646L51.9792 254.246C54.3994 251.576 54.6311 246.935 60.8529 249.595C65.5519 250.515 64.1603 260.267 61.7401 262.938C61.3495 263.369 60.9024 263.746 60.4097 264.058L60.4294 264.098Z" fill="white" stroke="black" stroke-width="1.39" stroke-linecap="round" stroke-linejoin="round"/>
<path d="M96.914 267.689C94.3023 270.309 90.8631 271.82 87.2329 274C100.473 288.733 117.716 297.584 136.644 297.584C155.622 297.584 172.866 288.733 186.116 274C182.899 272.05 179.057 270.349 176.516 267.699L96.914 267.689Z" fill="#4C70BF"/>
<path d="M136.715 276.82C155.815 276.82 174.486 271.202 190.366 260.676C206.247 250.15 218.624 235.189 225.932 217.686C233.239 200.182 235.149 180.922 231.42 162.342C227.69 143.762 218.49 126.696 204.981 113.303C191.472 99.9094 174.263 90.7905 155.529 87.0994C136.794 83.4083 117.377 85.3108 99.7334 92.5661C82.0895 99.8215 67.0109 112.104 56.4052 127.86C45.7996 143.616 40.1439 162.137 40.1519 181.082C40.1519 206.484 50.3249 230.846 68.434 248.808C86.5431 266.77 111.105 276.86 136.715 276.86V276.82Z" fill="#FCD700"/>
<mask id="mask0_264_3967" style="mask-type:luminance" maskUnits="userSpaceOnUse" x="40" y="85" width="194" height="192">
<path d="M136.714 276.82C155.814 276.82 174.485 271.202 190.366 260.676C206.246 250.15 218.624 235.189 225.931 217.686C233.238 200.182 235.148 180.922 231.419 162.342C227.69 143.762 218.489 126.696 204.98 113.303C191.472 99.9094 174.262 90.7905 155.528 87.0994C136.794 83.4083 117.377 85.3108 99.7329 92.5661C82.089 99.8215 67.0104 112.104 56.4047 127.86C45.7991 143.616 40.1434 162.137 40.1514 181.082C40.1514 206.484 50.3244 230.846 68.4335 248.808C86.5426 266.77 111.104 276.86 136.714 276.86V276.82Z" fill="white"/>
</mask>
<g mask="url(#mask0_264_3967)">
<path d="M202.37 113.249C208.775 114.328 214.903 116.649 220.402 120.079C225.902 123.509 230.665 127.981 234.42 133.239C238.175 138.498 240.847 144.439 242.284 150.722C243.722 157.006 243.897 163.509 242.797 169.86C238.199 196.565 215.39 198.606 188.466 194.045C161.542 189.484 140.698 180.042 145.296 153.347C146.384 146.994 148.723 140.917 152.181 135.462C155.64 130.008 160.149 125.283 165.45 121.558C170.751 117.834 176.741 115.183 183.076 113.757C189.411 112.332 195.968 112.159 202.37 113.249Z" fill="#F9BD00"/>
<path d="M71.108 113.249C64.7033 114.328 58.5765 116.649 53.0771 120.079C47.5778 123.509 42.8141 127.981 39.0592 133.239C35.3043 138.498 32.6314 144.439 31.1939 150.722C29.7565 157.006 29.5826 163.509 30.6819 169.86C35.2801 196.565 58.0897 198.606 85.0137 194.045C111.938 189.484 132.782 180.042 128.183 153.347C127.096 146.994 124.755 140.917 121.297 135.462C117.839 130.008 113.331 125.283 108.029 121.558C102.728 117.834 96.7385 115.183 90.4032 113.757C84.0679 112.332 77.5106 112.159 71.108 113.249Z" fill="#F9BD00"/>
<path d="M136.715 260.147C88.0199 260.147 46.3026 227.031 37.6103 181.482C27.6071 233.492 63.8286 283.291 118.483 292.793C124.503 293.842 130.603 294.365 136.715 294.354C192.327 294.354 237.433 251.555 237.463 198.685C237.464 192.913 236.917 187.153 235.829 181.482C227.127 227.031 185.41 260.137 136.715 260.147Z" fill="#F9BD00"/>
</g>
<path d="M136.715 276.82C155.815 276.82 174.486 271.202 190.366 260.676C206.247 250.15 218.624 235.189 225.932 217.686C233.239 200.182 235.149 180.922 231.42 162.342C227.69 143.762 218.49 126.696 204.981 113.303C191.472 99.9094 174.263 90.7905 155.529 87.0994C136.794 83.4083 117.377 85.3108 99.7334 92.5661C82.0895 99.8215 67.0109 112.104 56.4052 127.86C45.7996 143.616 40.1439 162.137 40.1519 181.082C40.1519 206.484 50.3249 230.846 68.434 248.808C86.5431 266.77 111.105 276.86 136.715 276.86V276.82Z" stroke="black" stroke-width="1.39" stroke-linecap="round" stroke-linejoin="round"/>
<path d="M200.455 114.47C206.354 115.459 211.998 117.592 217.066 120.747C222.135 123.901 226.527 128.015 229.991 132.853C233.456 137.691 235.926 143.159 237.26 148.944C238.594 154.729 238.765 160.718 237.765 166.569C233.56 191.184 212.757 191.834 187.95 187.664C163.144 183.493 143.723 176.081 147.928 151.467C148.927 145.616 151.078 140.018 154.259 134.992C157.439 129.967 161.587 125.612 166.465 122.176C171.343 118.74 176.855 116.292 182.687 114.969C188.519 113.647 194.556 113.477 200.455 114.47Z" fill="white" stroke="black" stroke-width="1.39" stroke-linecap="round" stroke-linejoin="round"/>
<path d="M175.175 163.137C187.338 163.137 197.198 153.357 197.198 141.293C197.198 129.229 187.338 119.449 175.175 119.449C163.011 119.449 153.151 129.229 153.151 141.293C153.151 153.357 163.011 163.137 175.175 163.137Z" fill="black"/>
<path d="M190.05 132.983C191.417 129.527 188.941 125.331 184.519 123.609C180.097 121.888 175.404 123.293 174.036 126.749C172.669 130.204 175.145 134.4 179.567 136.122C183.989 137.844 188.683 136.438 190.05 132.983Z" fill="white"/>
<path d="M194.492 145.79C196.395 143.452 196.249 140.203 194.165 138.534C192.081 136.864 188.848 137.407 186.944 139.745C185.041 142.083 185.188 145.331 187.272 147C189.356 148.669 192.589 148.127 194.492 145.79Z" fill="white"/>
<path d="M166.979 157.504C167.934 156.569 166.984 154.077 164.856 151.938C162.728 149.799 160.228 148.823 159.273 149.758C158.318 150.694 159.268 153.186 161.396 155.324C163.524 157.463 166.024 158.439 166.979 157.504Z" fill="white"/>
<path d="M72.965 114.47C67.0657 115.459 61.4203 117.592 56.3523 120.747C51.2842 123.901 46.8922 128.015 43.4274 132.853C39.9626 137.691 37.4927 143.159 36.1589 148.944C34.8251 154.729 34.6543 160.719 35.6547 166.57C39.8597 191.184 60.6621 191.834 85.4685 187.664C110.275 183.493 129.707 176.081 125.461 151.467C123.441 139.658 116.777 129.129 106.933 122.192C97.0896 115.254 84.8721 112.477 72.965 114.47Z" fill="white" stroke="black" stroke-width="1.39" stroke-linecap="round" stroke-linejoin="round"/>
<path d="M98.6477 163.137C110.811 163.137 120.671 153.357 120.671 141.293C120.671 129.229 110.811 119.449 98.6477 119.449C86.4846 119.449 76.6245 129.229 76.6245 141.293C76.6245 153.357 86.4846 163.137 98.6477 163.137Z" fill="black"/>
<path d="M94.4593 135.677C98.8814 133.955 101.358 129.758 99.9906 126.303C98.6232 122.847 93.9297 121.442 89.5076 123.164C85.0855 124.885 82.6089 129.082 83.9763 132.537C85.3437 135.993 90.0372 137.398 94.4593 135.677Z" fill="white"/>
<path d="M86.6549 146.033C88.739 144.364 88.8853 141.115 86.982 138.777C85.0786 136.44 81.8465 135.897 79.7624 137.566C77.6782 139.236 77.5312 142.484 79.4345 144.822C81.3378 147.16 84.5707 147.702 86.6549 146.033Z" fill="white"/>
<path d="M112.439 155.769C114.567 153.63 115.518 151.138 114.563 150.203C113.608 149.268 111.108 150.244 108.98 152.383C106.852 154.522 105.901 157.014 106.857 157.949C107.812 158.884 110.311 157.908 112.439 155.769Z" fill="white"/>
<path d="M88.2715 208.397C88.2715 193.395 117.151 199.276 135.887 199.276H137.561C156.307 199.276 185.177 193.395 185.177 208.397C185.177 223.4 163.073 235.673 144.337 235.673H129.152C110.335 235.673 88.2715 223.4 88.2715 208.397Z" fill="black"/>
<mask id="mask1_264_3967" style="mask-type:luminance" maskUnits="userSpaceOnUse" x="88" y="198" width="98" height="38">
<path d="M88.2715 208.397C88.2715 193.395 117.151 199.276 135.887 199.276H137.561C156.307 199.276 185.177 193.395 185.177 208.397C185.177 223.4 163.073 235.673 144.337 235.673H129.152C110.335 235.673 88.2715 223.4 88.2715 208.397Z" fill="white"/>
</mask>
<g mask="url(#mask1_264_3967)">
<path d="M136.775 259.837C159.347 259.837 177.645 251.459 177.645 241.124C177.645 230.789 159.347 222.41 136.775 222.41C114.203 222.41 95.9048 230.789 95.9048 241.124C95.9048 251.459 114.203 259.837 136.775 259.837Z" fill="#FF7BAC"/>
</g>
<path d="M88.2715 208.397C88.2715 193.395 117.151 199.276 135.887 199.276H137.561C156.307 199.276 185.177 193.395 185.177 208.397C185.177 223.4 163.073 235.673 144.337 235.673H129.152C110.335 235.673 88.2715 223.4 88.2715 208.397Z" stroke="black" stroke-width="1.39" stroke-linecap="round" stroke-linejoin="round"/>
<path d="M36.0616 110.363C33.8355 114.213 31.3927 116.865 28.7338 118.321L23.2431 115.235C24.7461 114.454 26.1192 113.451 27.3154 112.26C28.7126 110.949 29.9064 109.441 30.858 107.785C32.2878 105.292 32.4044 103.701 31.2079 103.012C30.885 102.853 30.5205 102.797 30.1639 102.852C29.8074 102.907 29.4759 103.07 29.2167 103.318C28.8369 103.582 28.4874 103.886 28.1746 104.225L26.8464 105.609L26.0725 106.41C25.7408 106.743 25.5118 106.962 25.3661 107.082C23.8084 108.826 21.8723 110.2 19.7028 111.103C18.8277 111.35 17.9094 111.407 17.0102 111.271C16.1111 111.134 15.2528 110.808 14.4939 110.313C13.505 109.797 12.6684 109.038 12.0642 108.109C11.46 107.179 11.109 106.111 11.0454 105.008C10.9399 102.173 11.7188 99.374 13.2772 96.9894C14.7976 94.0801 17.1209 91.6547 19.9774 89.9941L25.2525 92.961C22.4255 94.505 20.0721 96.7745 18.4418 99.5294C17.105 101.846 17.0216 103.342 18.1978 103.995C18.4249 104.123 18.6863 104.181 18.9474 104.161C19.1703 104.147 19.3879 104.092 19.5897 103.997L20.3479 103.588C20.5026 103.456 20.7784 103.186 21.1784 102.8C21.5784 102.414 21.8446 102.156 21.992 102.047L23.8012 100.015C25.2783 98.249 27.1909 96.8885 29.3546 96.0651C30.3598 95.8058 31.4104 95.7661 32.4321 95.949C33.4537 96.132 34.4223 96.533 35.2703 97.1242C36.1184 97.7153 36.8252 98.4824 37.3418 99.3717C37.8584 100.261 38.172 101.251 38.261 102.273C38.3862 105.128 37.6181 107.952 36.0616 110.363Z" fill="white"/>
<path d="M51.7353 89.1159C49.4252 91.8007 46.1607 93.508 42.616 93.8851C40.8111 94.0684 38.9883 93.8646 37.2713 93.2879C35.5543 92.7112 33.984 91.775 32.6677 90.5434C31.2778 89.4255 30.155 88.0177 29.3805 86.4207C28.606 84.8237 28.1984 83.0769 28.187 81.3053C28.1579 77.7536 29.4941 74.3214 31.9255 71.7017C33.6107 69.7525 35.7376 68.2236 38.1331 67.2396L42.6773 71.2066C40.6246 72.0589 38.7862 73.3469 37.2931 74.9792C35.8872 76.456 35.0882 78.3969 35.0527 80.4226C35.0351 81.3666 35.2338 82.302 35.6335 83.159C36.0331 84.0161 36.6239 84.7726 37.3613 85.3722C38.0695 86.0218 38.916 86.5067 39.8385 86.7918C40.761 87.077 41.7362 87.1551 42.6937 87.0205C44.7084 86.7428 46.5478 85.7345 47.8529 84.1918C49.4752 82.4572 50.5922 80.3214 51.0849 78.0113L55.6291 81.9784C54.9429 84.6361 53.6055 87.0873 51.7353 89.1159Z" fill="white"/>
<path d="M65.6401 75.6215L60.0127 79.9402L44.542 60.2782L50.1694 55.9594L52.7791 59.2606C52.5841 57.6217 52.8184 55.9603 53.4603 54.4357C54.1259 52.7252 55.2534 51.2265 56.7188 50.1024C56.9237 49.9302 57.1462 49.7798 57.383 49.6538L61.6634 55.0904C60.9826 55.399 60.3401 55.7847 59.7494 56.24C58.4807 57.2036 57.5163 58.505 56.9704 59.9908C56.4316 61.3102 56.3102 62.7595 56.6225 64.1473L65.6401 75.6215Z" fill="white"/>
<path d="M68.563 57.5044C67.7645 55.9589 67.3045 54.2642 67.2129 52.5307C67.1213 50.7971 67.3994 49.0635 68.0307 47.4426C69.4495 44.0528 72.0837 41.2968 75.4278 39.7021C78.7719 38.1074 82.5917 37.7856 86.1575 38.7983C87.8197 39.3619 89.3522 40.2455 90.6656 41.3982C91.9791 42.5509 93.0471 43.9497 93.8094 45.5137C94.5717 47.0777 95.0128 48.7758 95.1063 50.51C95.1998 52.2441 94.9443 53.9798 94.3546 55.6167C92.9222 58.9959 90.2873 61.7413 86.9474 63.334C83.6075 64.9267 79.7936 65.2565 76.2278 64.2609C74.5434 63.725 72.9918 62.8472 71.6718 61.6836C70.3517 60.5201 69.293 59.0966 68.563 57.5044ZM74.8861 54.4859C75.2674 55.3245 75.8157 56.0789 76.4971 56.7048C77.1785 57.3307 77.9798 57.8154 78.8542 58.1302C80.6267 58.7072 82.5569 58.5817 84.2392 57.7797C85.9214 56.9777 87.2241 55.5621 87.8715 53.8314C88.1637 52.9566 88.2782 52.0335 88.208 51.1154C88.1379 50.1972 87.8841 49.3022 87.4624 48.4815C87.0875 47.6463 86.5445 46.8957 85.8653 46.276C85.186 45.6563 84.3849 45.1805 83.5123 44.8777C81.7398 44.3035 79.8105 44.4304 78.129 45.2321C76.4475 46.0337 75.1447 47.4475 74.495 49.1765C74.1906 50.0397 74.0681 50.9552 74.1352 51.8664C74.2022 52.7777 74.457 53.6656 74.8844 54.4753L74.8861 54.4859Z" fill="white"/>
<path d="M109.702 55.216C107.987 55.7691 106.121 55.6362 104.505 54.8461C103.054 54.0733 102.025 52.5426 101.419 50.2542L93.99 22.5029L100.876 20.697L107.834 46.6913C108.261 48.3 109.211 48.9117 110.685 48.5262C111.305 48.3881 111.872 48.0793 112.322 47.6358L113.82 53.2296C112.621 54.1964 111.211 54.8763 109.702 55.216Z" fill="white"/>
<path d="M124.324 52.621C122.554 52.9558 120.723 52.5923 119.223 51.6084C117.879 50.6567 117.063 49.0068 116.751 46.6623L112.949 18.2017L120.017 17.2771L123.576 43.9023C123.834 45.5515 124.649 46.2813 126.11 46.0892C126.745 46.0293 127.349 45.7937 127.855 45.4094L128.621 51.1483C127.324 51.9628 125.853 52.467 124.324 52.621Z" fill="white"/>
<path d="M147.683 43.7893L149.077 32.5868L144.161 31.9897L144.891 26.1398L149.807 26.737L150.662 19.9368L157.735 20.7977L156.889 27.5857L164.006 28.4507L163.276 34.3005L156.149 33.4372L154.931 43.2484C154.707 44.1891 154.862 45.1784 155.363 46.0076C155.682 46.3534 156.069 46.6317 156.501 46.8258C156.932 47.0199 157.399 47.1258 157.874 47.1371C159.147 47.2781 160.436 47.1243 161.64 46.6878L160.924 52.4922C158.971 53.245 156.848 53.4555 154.783 53.1009C149.345 52.436 146.978 49.3322 147.683 43.7893Z" fill="white"/>
<path d="M167.293 41.3473C167.837 39.6963 168.726 38.1762 169.903 36.8856C171.08 35.5951 172.518 34.5627 174.123 33.8557C177.552 32.4494 181.382 32.3392 184.885 33.5459C188.387 34.7525 191.315 37.1916 193.11 40.3975C193.883 41.9573 194.336 43.6536 194.439 45.3881C194.543 47.1226 194.296 48.8607 193.714 50.5013C193.133 52.1418 192.227 53.6521 191.05 54.9447C189.873 56.2373 188.447 57.2863 186.857 58.0307C183.425 59.4059 179.605 59.5002 176.111 58.2964C172.617 57.0925 169.687 54.6727 167.87 51.4889C167.064 49.9322 166.597 48.2261 166.497 46.4797C166.398 44.7333 166.669 42.9852 167.293 41.3473ZM173.93 43.6286C173.593 44.4929 173.437 45.4149 173.468 46.3399C173.5 47.265 173.719 48.1741 174.114 49.0131C174.955 50.6598 176.41 51.9193 178.173 52.5265C179.936 53.1337 181.87 53.0412 183.567 52.2686C184.398 51.8504 185.137 51.2745 185.742 50.574C186.347 49.8734 186.806 49.062 187.094 48.1862C187.427 47.332 187.58 46.42 187.544 45.5058C187.508 44.5916 187.285 43.6945 186.886 42.8693C186.487 42.044 185.922 41.308 185.225 40.7062C184.528 40.1043 183.714 39.6493 182.833 39.3689C181.967 39.0473 181.043 38.9035 180.118 38.9465C179.193 38.9895 178.286 39.2183 177.453 39.619C176.62 40.0196 175.879 40.5836 175.274 41.2766C174.668 41.9697 174.212 42.7772 173.933 43.6497L173.93 43.6286Z" fill="white"/>
<path d="M221.647 60.7675L209.965 75.9229L204.299 71.6521L215.985 56.5177L212.418 53.8186L216.068 49.1219L219.636 51.8209L221.086 49.9524C221.701 48.9996 222.521 48.1922 223.488 47.5877C224.454 46.9832 225.544 46.5965 226.678 46.4551C227.813 46.3137 228.964 46.4212 230.051 46.7698C231.138 47.1183 232.133 47.6995 232.966 48.4718C234.741 49.7576 236.256 51.3605 237.432 53.1979L233.932 57.7309C233.165 56.4679 232.17 55.355 230.996 54.4475C229.156 53.0525 227.52 53.2499 226.176 55.0264L225.307 56.1343L231.522 60.8296L227.87 65.5158L221.647 60.7675Z" fill="white"/>
<path d="M236.62 89.3075L248.797 78.9259L253.455 84.2503L234.374 100.533L229.716 95.2083L232.019 93.252C230.431 93.2256 228.87 92.8604 227.439 92.1816C226.009 91.5028 224.744 90.5264 223.732 89.3192C222.854 88.4217 222.19 87.3421 221.787 86.1589C221.384 84.9757 221.253 83.7185 221.402 82.4783C221.908 79.7855 223.41 77.3741 225.617 75.7138L237.34 65.7266L241.988 71.0527L231.346 80.1049C230.758 80.5287 230.261 81.0641 229.885 81.6796C229.508 82.2951 229.26 82.9785 229.154 83.6896C229.12 84.3181 229.214 84.9466 229.431 85.5382C229.648 86.1297 229.983 86.6721 230.416 87.133C231.172 87.9668 232.139 88.5876 233.218 88.9322C234.307 89.3145 235.472 89.4429 236.62 89.3075Z" fill="white"/>
<path d="M254.617 103.818L240.215 110.904L237.038 104.605L259.632 93.4767L262.809 99.7759L260.102 101.112C261.637 101.525 263.062 102.26 264.281 103.269C265.501 104.277 266.484 105.535 267.164 106.955C267.79 108.04 268.163 109.249 268.257 110.494C268.351 111.74 268.164 112.991 267.709 114.157C266.55 116.622 264.516 118.583 261.994 119.669L248.143 126.486L244.966 120.187L257.504 114.015C258.184 113.748 258.803 113.348 259.323 112.838C259.842 112.328 260.252 111.72 260.527 111.05C260.715 110.449 260.78 109.816 260.718 109.19C260.656 108.564 260.467 107.956 260.165 107.403C259.64 106.409 258.855 105.572 257.89 104.982C256.912 104.336 255.788 103.936 254.617 103.818Z" fill="white"/>
<path d="M271.023 160.944L278.687 152.902L279.341 159.817L269.109 170.3L257.043 161.903L256.391 154.989L265.444 161.51L263.464 140.639L269.06 140.115L271.023 160.944Z" fill="white"/>
</svg>
