<svg width="552" height="571" viewBox="0 0 552 571" fill="none" xmlns="http://www.w3.org/2000/svg">
<path d="M242.154 207.922L262.106 183.378L358.104 66.0596C359.596 63.9477 361.831 62.4777 364.361 61.9442C366.891 61.4107 369.53 61.853 371.747 63.1825C373.965 64.5121 375.599 66.6306 376.321 69.1137C377.042 71.5967 376.799 74.2608 375.64 76.5722L366.371 97.6089C365.748 99.1082 365.623 100.768 366.014 102.343C366.405 103.919 367.292 105.327 368.544 106.361C394.65 117.724 417.099 136.094 433.405 159.433C434.664 160.459 436.22 161.052 437.843 161.124C439.466 161.196 441.069 160.743 442.414 159.832L461.267 146.637C463.306 145.07 465.859 144.325 468.421 144.552C470.983 144.778 473.367 145.958 475.1 147.859C476.833 149.759 477.789 152.242 477.778 154.814C477.767 157.386 476.791 159.86 475.042 161.746L379.017 279.098L359.028 303.527" fill="#4D7CC1"/>
<path d="M376.318 163.132L432.863 213.293C432.863 213.293 422.28 174.238 433.461 159.535C417.111 136.187 394.639 117.799 368.516 106.394C356.301 120.25 315.902 117.645 315.902 117.645L376.318 163.132Z" stroke="black" stroke-width="2.98" stroke-linecap="round" stroke-linejoin="round"/>
<path d="M303.934 132.42L358.931 161.861C361.193 166.226 364.323 170.084 368.128 173.198C371.934 176.312 376.335 178.616 381.062 179.97L420.794 228.042L432.822 213.343L398.664 172.136C399.874 165.444 395.651 156.424 387.392 149.667C379.134 142.909 369.439 140.577 363.136 143.066L315.967 117.725L303.934 132.42Z" fill="#FFE500" stroke="black" stroke-width="2.98" stroke-linecap="round" stroke-linejoin="round"/>
<path d="M262.148 183.487L262.098 183.389L358.104 66.0595C359.596 63.9476 361.831 62.4776 364.361 61.944C366.892 61.4105 369.53 61.8528 371.748 63.1824C373.966 64.5119 375.599 66.6304 376.321 69.1135C377.043 71.5965 376.8 74.2607 375.64 76.572L366.371 97.6088C365.748 99.108 365.623 100.768 366.014 102.343C366.406 103.919 367.293 105.327 368.545 106.361C394.65 117.724 417.1 136.093 433.405 159.433C434.664 160.459 436.221 161.052 437.844 161.124C439.466 161.195 441.069 160.742 442.414 159.832L461.267 146.637C463.306 145.069 465.86 144.325 468.422 144.551C470.984 144.778 473.367 145.958 475.1 147.859C476.833 149.759 477.789 152.241 477.778 154.813C477.768 157.385 476.791 159.859 475.043 161.746L379.018 279.098" stroke="black" stroke-width="2.98" stroke-linecap="round" stroke-linejoin="round"/>
<path d="M437.049 273.205C439.586 283.794 443.771 293.819 469.184 296.12C524.455 285.615 474.302 220.856 449.896 257.345L449.063 256.766C448.006 255.758 446.747 254.988 445.368 254.506C443.99 254.025 442.525 253.843 441.07 253.974C439.616 254.104 438.206 254.544 436.936 255.263C435.665 255.983 434.563 256.965 433.703 258.145C432.843 259.325 432.245 260.675 431.948 262.105C431.652 263.534 431.665 265.011 431.985 266.435C432.306 267.86 432.927 269.199 433.807 270.364C434.687 271.529 435.806 272.493 437.089 273.19L437.049 273.205Z" fill="white" stroke="black" stroke-width="2.98" stroke-linecap="round" stroke-linejoin="round"/>
<path d="M360.446 296.705C402.215 322.621 418.596 321.836 469.201 296.134C443.789 293.833 439.615 283.817 437.066 273.218C436.991 273.39 421.121 302.973 377.648 280.806" fill="#4D7CC1"/>
<path d="M364.372 299.917C396.171 321.783 422.824 325.295 469.213 296.143C443.8 293.842 439.626 283.827 437.078 273.228C437.003 273.4 421.133 302.982 377.66 280.815" stroke="black" stroke-width="2.98" stroke-linecap="round" stroke-linejoin="round"/>
<path d="M256.364 125.357C245.482 124.966 234.827 122.848 227.541 98.3934C226.898 42.1366 300.303 78.4804 269.367 109.625L270.099 110.327C271.296 111.163 272.301 112.246 273.046 113.501C273.791 114.757 274.259 116.158 274.419 117.609C274.578 119.06 274.426 120.529 273.973 121.917C273.519 123.305 272.774 124.58 271.788 125.656C270.801 126.733 269.597 127.586 268.254 128.16C266.911 128.733 265.461 129.013 264.001 128.981C262.542 128.948 261.106 128.605 259.79 127.973C258.473 127.34 257.308 126.434 256.37 125.315L256.364 125.357Z" fill="white" stroke="black" stroke-width="2.98" stroke-linecap="round" stroke-linejoin="round"/>
<path d="M248.512 205.114C214.842 169.301 212.369 153.088 227.547 98.3974C234.832 122.852 245.476 124.961 256.369 125.361C256.216 125.469 230.359 146.88 260.693 185.105" fill="#4D7CC1"/>
<path d="M244.587 201.902C216.86 175.06 208.142 149.63 227.535 98.3886C234.821 122.843 245.464 124.952 256.358 125.352C256.204 125.46 230.348 146.871 260.681 185.097" stroke="black" stroke-width="2.98" stroke-linecap="round" stroke-linejoin="round"/>
<path d="M347.434 300.583C353.056 299.859 358.733 299.643 364.394 299.935C363.074 268.852 351.039 240.96 328.081 222.174C305.117 203.384 275.411 197.112 244.709 201.993C246.19 207.65 247.109 213.439 247.453 219.277L347.434 300.583Z" fill="#4C70BF"/>
<path d="M342.341 204.68C277.799 151.868 182.67 161.376 129.858 225.918C77.0467 290.46 86.5551 385.589 151.097 438.4C215.638 491.212 310.767 481.704 363.579 417.162C416.391 352.621 406.882 257.491 342.341 204.68Z" fill="#FCD700"/>
<mask id="mask0_264_4568" style="mask-type:luminance" maskUnits="userSpaceOnUse" x="95" y="170" width="303" height="303">
<path d="M342.341 204.68C277.8 151.868 182.671 161.376 129.859 225.918C77.0472 290.46 86.5556 385.589 151.097 438.4C215.639 491.212 310.768 481.704 363.58 417.162C416.391 352.621 406.883 257.491 342.341 204.68Z" fill="white"/>
</mask>
<g mask="url(#mask0_264_4568)">
<path d="M185.934 258.901C152.88 231.854 104.158 236.724 77.1108 269.778C50.0637 302.832 54.9335 351.554 87.988 378.602C121.042 405.649 169.764 400.779 196.812 367.724C223.859 334.67 218.989 285.948 185.934 258.901Z" fill="#F9BD00"/>
<path d="M320.139 368.715C287.085 341.668 238.363 346.538 211.316 379.592C184.269 412.647 189.139 461.369 222.193 488.416C255.248 515.463 303.969 510.593 331.017 477.539C358.064 444.484 353.194 395.762 320.139 368.715Z" fill="#F9BD00"/>
<path d="M335.364 213.207C394.287 261.42 411.706 343.139 376.755 407.312C440.739 353.817 446.675 257.154 390.033 191.436C383.794 184.201 376.933 177.525 369.531 171.486C302.264 116.38 204.905 123.97 152.098 188.45C146.33 195.486 141.242 203.053 136.901 211.049C192.903 164.101 276.444 165.013 335.381 213.22L335.364 213.207Z" fill="#F9BD00"/>
</g>
<path d="M342.341 204.68C277.799 151.868 182.67 161.376 129.858 225.918C77.0467 290.46 86.5551 385.589 151.097 438.4C215.638 491.212 310.767 481.704 363.579 417.162C416.391 352.621 406.882 257.491 342.341 204.68Z" stroke="black" stroke-width="2.98" stroke-linecap="round" stroke-linejoin="round"/>
<path d="M180.8 269.487C150.351 244.572 105.471 249.058 80.5567 279.506C55.6422 309.954 60.1282 354.835 90.5763 379.749C121.024 404.664 165.905 400.178 190.819 369.73C215.734 339.281 211.248 294.401 180.8 269.487Z" fill="white" stroke="black" stroke-width="2.98" stroke-linecap="round" stroke-linejoin="round"/>
<path d="M126.328 361.837C122.743 358.904 117.458 359.432 114.524 363.017C111.591 366.602 112.119 371.887 115.704 374.821C119.289 377.754 124.574 377.226 127.508 373.641C130.441 370.055 129.913 364.771 126.328 361.837Z" fill="black"/>
<path d="M310.778 375.842C280.329 350.928 235.449 355.414 210.535 385.862C185.62 416.31 190.106 461.19 220.554 486.105C251.002 511.019 295.883 506.533 320.797 476.085C345.712 445.637 341.226 400.757 310.778 375.842Z" fill="white" stroke="black" stroke-width="2.98" stroke-linecap="round" stroke-linejoin="round"/>
<path d="M244.625 456.041C241.04 453.107 235.755 453.635 232.821 457.221C229.888 460.806 230.416 466.09 234.001 469.024C237.586 471.958 242.871 471.43 245.805 467.844C248.738 464.259 248.21 458.975 244.625 456.041Z" fill="black"/>
<path d="M268.012 554.456C258.831 564.147 237.867 560.025 231.802 546.708M14.1906 346.764C6.49099 357.668 14.6976 377.415 28.952 380.724" stroke="black" stroke-width="2.98" stroke-linecap="round" stroke-linejoin="round"/>
<path d="M308.223 218.275L306.004 220.987C300.084 228.223 301.15 238.887 308.385 244.808L309.727 245.906C316.962 251.826 327.627 250.76 333.547 243.525L335.766 240.813C341.686 233.578 340.621 222.913 333.385 216.993L332.043 215.895C324.808 209.974 314.143 211.04 308.223 218.275Z" fill="black"/>
<mask id="mask1_264_4568" style="mask-type:luminance" maskUnits="userSpaceOnUse" x="302" y="212" width="38" height="38">
<path d="M308.224 218.276L306.005 220.988C300.085 228.223 301.151 238.888 308.386 244.808L309.728 245.906C316.963 251.827 327.628 250.761 333.548 243.525L335.767 240.813C341.687 233.578 340.621 222.913 333.386 216.993L332.044 215.895C324.809 209.975 314.144 211.041 308.224 218.276Z" fill="white"/>
</mask>
<g mask="url(#mask1_264_4568)">
<path d="M370.766 169.93C362.422 163.102 345.219 170.325 332.343 186.061C319.466 201.798 315.791 220.09 324.135 226.918C332.479 233.745 349.682 226.523 362.558 210.786C375.435 195.049 379.11 176.757 370.766 169.93Z" fill="#FF7BAC"/>
</g>
<path d="M308.223 218.275L306.004 220.987C300.084 228.223 301.15 238.887 308.385 244.808L309.727 245.906C316.962 251.826 327.627 250.76 333.547 243.525L335.766 240.813C341.686 233.578 340.621 222.913 333.385 216.993L332.043 215.895C324.808 209.974 314.143 211.04 308.223 218.275Z" stroke="black" stroke-width="2.98" stroke-linecap="round" stroke-linejoin="round"/>
</svg>
