<svg width="545" height="574" viewBox="0 0 545 574" fill="none" xmlns="http://www.w3.org/2000/svg">
<path d="M353.519 276.69L370.108 302.957L449.168 429.05C450.708 431.103 451.406 433.665 451.121 436.215C450.836 438.764 449.588 441.109 447.633 442.77C445.678 444.432 443.162 445.284 440.6 445.153C438.038 445.023 435.622 443.92 433.845 442.068L417.176 426.852C415.976 425.799 414.468 425.161 412.876 425.033C411.284 424.905 409.693 425.294 408.34 426.142C389.576 446.86 365.45 461.987 338.627 469.852C337.276 470.699 336.236 471.96 335.661 473.447C335.085 474.934 335.007 476.568 335.436 478.103L341.871 499.736C342.763 502.141 342.704 504.797 341.705 507.16C340.706 509.523 338.843 511.416 336.496 512.453C334.149 513.489 331.495 513.59 329.076 512.736C326.657 511.882 324.654 510.137 323.478 507.857L244.418 381.764L227.954 355.504" fill="#4D7CC1"/>
<path d="M353.155 415.539L288.749 452.425C288.749 452.425 328.409 454.846 338.578 469.84C365.416 461.944 389.56 446.806 408.358 426.088C399.292 410.377 414.382 373.611 414.382 373.611L353.155 415.539Z" stroke="black" stroke-width="2.98" stroke-linecap="round" stroke-linejoin="round"/>
<path d="M404.398 357.837L359.768 399.77C354.996 400.503 350.424 402.204 346.333 404.768C342.243 407.333 338.72 410.708 335.982 414.684L278.812 436.578L288.718 452.377L337.76 433.515C343.609 436.737 353.347 435.62 362.198 430.071C371.049 424.521 376.296 416.243 375.943 409.574L414.303 373.635L404.398 357.837Z" fill="#FFE500" stroke="black" stroke-width="2.98" stroke-linecap="round" stroke-linejoin="round"/>
<path d="M369.984 302.949L370.089 302.926L449.149 429.019C450.689 431.071 451.387 433.634 451.102 436.184C450.817 438.733 449.569 441.078 447.614 442.739C445.659 444.4 443.143 445.253 440.581 445.122C438.019 444.992 435.603 443.888 433.827 442.037L417.157 426.821C415.957 425.768 414.449 425.129 412.857 425.001C411.265 424.874 409.674 425.263 408.321 426.111C389.558 446.829 365.431 461.956 338.609 469.821C337.258 470.668 336.217 471.929 335.642 473.416C335.066 474.903 334.988 476.537 335.417 478.072L341.852 499.705C342.744 502.11 342.685 504.766 341.686 507.129C340.688 509.492 338.824 511.385 336.477 512.421C334.13 513.458 331.476 513.559 329.057 512.705C326.638 511.851 324.636 510.106 323.459 507.826L244.399 381.733" stroke="black" stroke-width="2.98" stroke-linecap="round" stroke-linejoin="round"/>
<path d="M200.247 417.098C208.972 423.302 216.563 430.744 209.364 454.76C179.565 501.252 138.925 431.892 181.1 423.023L180.883 422.051C179.965 419.589 180.046 416.866 181.107 414.462C182.169 412.059 184.128 410.166 186.567 409.187C189.005 408.208 191.729 408.22 194.158 409.222C196.587 410.223 198.529 412.134 199.569 414.547C199.903 415.382 200.125 416.258 200.229 417.152L200.247 417.098Z" fill="white" stroke="black" stroke-width="2.98" stroke-linecap="round" stroke-linejoin="round"/>
<path d="M181.034 422.945C181.034 422.945 186.384 440.807 191.15 439.311C195.917 437.814 198.71 433.334 197.221 428.81" stroke="black" stroke-width="2.98" stroke-linecap="round" stroke-linejoin="round"/>
<path d="M252.153 394.182C248.31 430.104 231.898 443.967 209.375 454.763C216.579 430.77 208.976 423.309 200.258 417.101C200.446 417.102 233.2 413.458 228.904 365.738" fill="#4D7CC1"/>
<path d="M252.153 394.182C248.31 430.104 231.898 443.967 209.375 454.763C216.579 430.77 208.976 423.309 200.258 417.101C200.446 417.102 233.2 413.458 228.904 365.738" stroke="black" stroke-width="2.98" stroke-linecap="round" stroke-linejoin="round"/>
<path d="M421.156 278.59C422.939 289.146 426.332 299.221 451.085 303.203C505.915 296.633 461.186 229.837 434.83 263.936L434.056 263.313C432.258 261.337 429.749 260.157 427.081 260.03C424.413 259.904 421.804 260.843 419.828 262.641C417.852 264.438 416.671 266.947 416.545 269.615C416.419 272.283 417.358 274.892 419.155 276.868C419.761 277.533 420.453 278.115 421.212 278.598L421.156 278.59Z" fill="white" stroke="black" stroke-width="2.98" stroke-linecap="round" stroke-linejoin="round"/>
<path d="M434.789 263.843C434.789 263.843 448.536 276.439 445.119 280.074C441.702 283.709 436.446 284.275 433.017 280.968" stroke="black" stroke-width="2.98" stroke-linecap="round" stroke-linejoin="round"/>
<path d="M377.916 315.328C411.925 327.517 431.554 318.783 451.083 303.213C426.347 299.245 422.943 289.151 421.154 278.599C421.073 278.769 403.53 306.661 362.441 282.01" fill="#4D7CC1"/>
<path d="M377.916 315.328C411.925 327.517 431.554 318.783 451.083 303.213C426.347 299.245 422.943 289.151 421.154 278.599C421.073 278.769 403.53 306.661 362.441 282.01" stroke="black" stroke-width="2.98" stroke-linecap="round" stroke-linejoin="round"/>
<path d="M234.358 345.563C233.268 351.021 231.69 356.371 229.645 361.547C258.978 370.06 288.69 367.615 313.376 352.137C338.062 336.659 353.216 310.956 358.321 280.868C352.593 280.475 346.917 279.518 341.377 278.01L234.358 345.563Z" fill="#4C70BF"/>
<path d="M325.48 371.4C394.844 327.909 415.817 236.426 372.326 167.063C328.835 97.6989 237.357 76.7318 167.993 120.223C98.6293 163.713 77.6438 255.204 121.123 324.549C164.602 393.894 256.122 414.887 325.48 371.4Z" fill="#FCD700"/>
<mask id="mask0_264_4601" style="mask-type:luminance" maskUnits="userSpaceOnUse" x="98" y="97" width="297" height="298">
<path d="M325.48 371.4C394.844 327.909 415.817 236.426 372.326 167.063C328.835 97.6989 237.357 76.7318 167.993 120.223C98.6293 163.713 77.6438 255.204 121.123 324.549C164.602 393.894 256.122 414.887 325.48 371.4Z" fill="white"/>
</mask>
<g mask="url(#mask0_264_4601)">
<path d="M330.694 219.464C366.217 197.191 376.959 150.339 354.686 114.816C332.413 79.2927 285.561 68.5513 250.038 90.824C214.515 113.097 203.773 159.949 226.046 195.472C248.319 230.995 295.171 241.737 330.694 219.464Z" fill="#F9BD00"/>
<path d="M186.459 309.899C221.981 287.627 232.723 240.774 210.45 205.251C188.177 169.728 141.325 158.987 105.802 181.26C70.279 203.532 59.5375 250.385 81.8103 285.908C104.083 321.431 150.936 332.172 186.459 309.899Z" fill="#F9BD00"/>
<path d="M311.781 349.538C248.453 389.244 166.941 379.808 118.208 327.204C147.928 403.505 235.996 439.324 314.906 407.21C323.596 403.672 331.96 399.384 339.905 394.393C412.248 349.085 435.702 256.132 392.275 186.789C387.535 179.217 382.09 172.109 376.014 165.56C402.137 232.383 375.102 309.819 311.781 349.538Z" fill="#F9BD00"/>
</g>
<path d="M325.48 371.4C394.844 327.909 415.817 236.426 372.326 167.063C328.835 97.6989 237.357 76.7318 167.993 120.223C98.6293 163.713 77.6438 255.204 121.123 324.549C164.602 393.894 256.122 414.887 325.48 371.4Z" stroke="black" stroke-width="2.98" stroke-linecap="round" stroke-linejoin="round"/>
<path d="M346.318 115.759C328.015 75.8137 284.712 56.4746 249.599 72.5638C214.485 88.6531 200.858 134.078 219.161 174.023C237.464 213.969 280.767 233.308 315.88 217.218C350.994 201.129 364.621 155.704 346.318 115.759Z" fill="white" stroke="black" stroke-width="2.98" stroke-linecap="round" stroke-linejoin="round"/>
<path d="M190.886 295.595C220.665 270.998 222.121 223.595 194.138 189.719C166.155 155.842 119.33 148.321 89.5518 172.919C59.7732 197.516 58.3172 244.919 86.2999 278.795C114.282 312.672 161.107 320.193 190.886 295.595Z" fill="white" stroke="black" stroke-width="2.98" stroke-linecap="round" stroke-linejoin="round"/>
<path d="M235.905 139.885C239.758 137.468 240.924 132.385 238.507 128.531C236.091 124.677 231.008 123.512 227.154 125.929C223.3 128.345 222.135 133.428 224.551 137.282C226.968 141.136 232.051 142.301 235.905 139.885Z" fill="black"/>
<path d="M125.852 197.85C129.706 195.434 130.871 190.351 128.455 186.497C126.038 182.643 120.955 181.478 117.102 183.894C113.248 186.311 112.082 191.394 114.499 195.248C116.915 199.101 121.998 200.267 125.852 197.85Z" fill="black"/>
<path d="M308.523 34.9598C289.96 21.5792 261.109 24.1999 247.49 38.4782" stroke="black" stroke-width="2.98" stroke-linecap="round" stroke-linejoin="round"/>
<path d="M59.7876 156.167C41.0023 162.206 26.0754 187.034 30.0333 209.572" stroke="black" stroke-width="2.98" stroke-linecap="round" stroke-linejoin="round"/>
<path d="M339.115 393.132C327.269 400.51 312.986 402.9 299.384 399.78C285.782 396.661 273.967 388.286 266.52 376.484L242.94 338.876C227.551 314.331 241.671 292.243 266.211 276.857C290.75 261.471 316.783 258.382 332.173 282.928L355.753 320.536C363.132 332.38 365.524 346.663 362.407 360.265C359.289 373.868 350.916 385.684 339.115 393.132Z" fill="black"/>
<mask id="mask1_264_4601" style="mask-type:luminance" maskUnits="userSpaceOnUse" x="236" y="264" width="128" height="138">
<path d="M339.115 393.132C327.269 400.51 312.986 402.9 299.384 399.78C285.782 396.661 273.967 388.286 266.52 376.484L242.94 338.876C227.551 314.331 241.671 292.243 266.211 276.857C290.75 261.471 316.783 258.382 332.173 282.928L355.753 320.536C363.132 332.38 365.524 346.663 362.407 360.265C359.289 373.868 350.916 385.684 339.115 393.132Z" fill="white"/>
</mask>
<g mask="url(#mask1_264_4601)">
<path d="M361.93 429.522C391.49 410.988 406.856 382.253 396.252 365.34C385.648 348.427 353.088 349.741 323.529 368.275C293.969 386.808 278.603 415.544 289.207 432.457C299.812 449.37 332.371 448.056 361.93 429.522Z" fill="#FF7BAC"/>
</g>
<path d="M339.115 393.132C327.269 400.51 312.986 402.9 299.384 399.78C285.782 396.661 273.967 388.286 266.52 376.484L242.94 338.876C227.551 314.331 241.671 292.243 266.211 276.857C290.75 261.471 316.783 258.382 332.173 282.928L355.753 320.536C363.132 332.38 365.524 346.663 362.407 360.265C359.289 373.868 350.916 385.684 339.115 393.132Z" stroke="black" stroke-width="2.98" stroke-linecap="round" stroke-linejoin="round"/>
</svg>
