<svg width="552" height="361" viewBox="0 0 552 361" fill="none" xmlns="http://www.w3.org/2000/svg">
<path d="M242.154 -2.07786L262.106 -26.6211L358.104 -143.94C359.596 -146.052 361.831 -147.522 364.361 -148.055C366.891 -148.589 369.53 -148.147 371.747 -146.817C373.965 -145.487 375.599 -143.369 376.321 -140.886C377.042 -138.403 376.799 -135.739 375.64 -133.427L366.371 -112.391C365.748 -110.891 365.623 -109.232 366.014 -107.656C366.405 -106.08 367.292 -104.672 368.544 -103.639C394.65 -92.2753 417.099 -73.9059 433.405 -50.566C434.664 -49.5402 436.22 -48.9475 437.843 -48.8758C439.466 -48.804 441.069 -49.257 442.414 -50.1676L461.267 -63.3624C463.306 -64.9299 465.859 -65.6742 468.421 -65.448C470.983 -65.2217 473.367 -64.0413 475.1 -62.1407C476.833 -60.2401 477.789 -57.758 477.778 -55.186C477.767 -52.614 476.791 -50.1399 475.042 -48.2538L379.017 69.0986L359.028 93.5275" fill="#4D7CC1"/>
<path d="M376.318 -46.8679L432.863 3.29311C432.863 3.29311 422.28 -35.7618 433.461 -50.4641C417.111 -73.8124 394.639 -92.2001 368.516 -103.605C356.301 -89.7493 315.902 -92.3549 315.902 -92.3549L376.318 -46.8679Z" stroke="black" stroke-width="2.98" stroke-linecap="round" stroke-linejoin="round"/>
<path d="M303.934 -77.5791L358.931 -48.1387C361.193 -43.773 364.323 -39.9151 368.128 -36.8013C371.934 -33.6875 376.335 -31.3833 381.062 -30.03L420.794 18.043L432.822 3.34318L398.664 -37.863C399.874 -44.5556 395.651 -53.5751 387.392 -60.3327C379.134 -67.0903 369.439 -69.4225 363.136 -66.934L315.967 -92.2743L303.934 -77.5791Z" fill="#FFE500" stroke="black" stroke-width="2.98" stroke-linecap="round" stroke-linejoin="round"/>
<path d="M262.148 -26.5124L262.098 -26.61L358.104 -143.94C359.596 -146.052 361.831 -147.522 364.361 -148.055C366.892 -148.589 369.53 -148.147 371.748 -146.817C373.966 -145.488 375.599 -143.369 376.321 -140.886C377.043 -138.403 376.8 -135.739 375.64 -133.428L366.371 -112.391C365.748 -110.892 365.623 -109.232 366.014 -107.656C366.406 -106.081 367.293 -104.672 368.545 -103.639C394.65 -92.2755 417.1 -73.906 433.405 -50.5662C434.664 -49.5404 436.221 -48.9477 437.844 -48.8759C439.466 -48.8042 441.069 -49.2572 442.414 -50.1678L461.267 -63.3626C463.306 -64.9301 465.86 -65.6744 468.422 -65.4481C470.984 -65.2219 473.367 -64.0415 475.1 -62.1409C476.833 -60.2403 477.789 -57.7581 477.778 -55.1862C477.768 -52.6142 476.791 -50.14 475.043 -48.2539L379.018 69.0985" stroke="black" stroke-width="2.98" stroke-linecap="round" stroke-linejoin="round"/>
<path d="M437.049 63.2051C439.586 73.7947 443.771 83.8191 469.184 86.1205C524.455 75.6159 474.302 10.8565 449.896 47.3453L449.063 46.7662C448.006 45.7585 446.747 44.9881 445.368 44.5066C443.99 44.025 442.525 43.8435 441.07 43.974C439.616 44.1046 438.206 44.5444 436.936 45.2638C435.665 45.9832 434.563 46.9656 433.703 48.1455C432.843 49.3253 432.245 50.6753 431.948 52.105C431.652 53.5347 431.665 55.0112 431.985 56.4357C432.306 57.8601 432.927 59.1997 433.807 60.3647C434.687 61.5297 435.806 62.4932 437.089 63.1909L437.049 63.2051Z" fill="white" stroke="black" stroke-width="2.98" stroke-linecap="round" stroke-linejoin="round"/>
<path d="M360.446 86.7058C402.215 112.622 418.596 111.837 469.201 86.1344C443.789 83.833 439.615 73.8177 437.066 63.219C436.991 63.3908 421.121 92.9732 377.648 70.806" fill="#4D7CC1"/>
<path d="M364.372 89.9177C396.171 111.783 422.824 115.296 469.213 86.1437C443.8 83.8423 439.626 73.827 437.078 63.2282C437.003 63.4 421.133 92.9825 377.66 70.8153" stroke="black" stroke-width="2.98" stroke-linecap="round" stroke-linejoin="round"/>
<path d="M347.434 90.5837C353.056 89.86 358.733 89.6432 364.394 89.9358C363.074 58.8525 351.039 30.9605 328.081 12.1746C305.117 -6.61582 275.411 -12.8879 244.709 -8.00686C246.19 -2.34975 247.109 3.43974 247.453 9.27743L347.434 90.5837Z" fill="#4C70BF"/>
<path d="M342.341 -5.3198C277.799 -58.1316 182.67 -48.6231 129.858 15.9185C77.0467 80.46 86.5551 175.589 151.097 228.401C215.638 281.213 310.767 271.704 363.579 207.163C416.391 142.621 406.882 47.492 342.341 -5.3198Z" fill="#FCD700"/>
<mask id="mask0_264_4568" style="mask-type:luminance" maskUnits="userSpaceOnUse" x="95" y="-40" width="303" height="303">
<path d="M342.341 -5.3198C277.8 -58.1316 182.671 -48.6231 129.859 15.9185C77.0472 80.46 86.5556 175.589 151.097 228.401C215.639 281.213 310.768 271.704 363.58 207.163C416.391 142.621 406.883 47.492 342.341 -5.3198Z" fill="white"/>
</mask>
<g mask="url(#mask0_264_4568)">
<path d="M185.934 48.9013C152.88 21.8541 104.158 26.7241 77.1108 59.7785C50.0637 92.833 54.9335 141.555 87.988 168.602C121.042 195.649 169.764 190.779 196.812 157.725C223.859 124.67 218.989 75.9484 185.934 48.9013Z" fill="#F9BD00"/>
<path d="M320.139 158.716C287.085 131.669 238.363 136.538 211.316 169.593C184.269 202.647 189.139 251.369 222.193 278.416C255.248 305.464 303.969 300.594 331.017 267.539C358.064 234.485 353.194 185.763 320.139 158.716Z" fill="#F9BD00"/>
<path d="M335.364 3.20703C394.287 51.4207 411.706 133.139 376.755 197.313C440.739 143.817 446.675 47.1547 390.033 -18.5632C383.794 -25.7985 376.933 -32.474 369.531 -38.5135C302.264 -93.62 204.905 -86.0296 152.098 -21.55C146.33 -14.5133 141.242 -6.9463 136.901 1.04961C192.903 -45.898 276.444 -44.9863 335.381 3.22077L335.364 3.20703Z" fill="#F9BD00"/>
</g>
<path d="M342.341 -5.31979C277.799 -58.1315 182.67 -48.6231 129.858 15.9185C77.0467 80.46 86.5551 175.589 151.097 228.401C215.638 281.213 310.767 271.704 363.579 207.163C416.391 142.621 406.882 47.492 342.341 -5.31979Z" stroke="black" stroke-width="2.98" stroke-linecap="round" stroke-linejoin="round"/>
<path d="M180.8 59.4872C150.351 34.5727 105.471 39.0586 80.5567 69.5068C55.6422 99.9549 60.1282 144.835 90.5763 169.75C121.024 194.664 165.905 190.178 190.819 159.73C215.734 129.282 211.248 84.4017 180.8 59.4872Z" fill="white" stroke="black" stroke-width="2.98" stroke-linecap="round" stroke-linejoin="round"/>
<path d="M126.328 151.838C122.743 148.904 117.458 149.432 114.524 153.017C111.591 156.603 112.119 161.887 115.704 164.821C119.289 167.755 124.574 167.226 127.508 163.641C130.441 160.056 129.913 154.771 126.328 151.838Z" fill="black"/>
<path d="M310.778 165.843C280.329 140.928 235.449 145.414 210.535 175.862C185.62 206.31 190.106 251.191 220.554 276.105C251.002 301.02 295.883 296.534 320.797 266.086C345.712 235.637 341.226 190.757 310.778 165.843Z" fill="white" stroke="black" stroke-width="2.98" stroke-linecap="round" stroke-linejoin="round"/>
<path d="M244.625 246.041C241.04 243.108 235.755 243.636 232.821 247.221C229.888 250.806 230.416 256.091 234.001 259.025C237.586 261.958 242.871 261.43 245.805 257.845C248.738 254.26 248.21 248.975 244.625 246.041Z" fill="black"/>
<path d="M268.012 344.456C258.831 354.148 237.867 350.026 231.802 336.708M14.1906 136.764C6.49099 147.668 14.6976 167.415 28.952 170.724" stroke="black" stroke-width="2.98" stroke-linecap="round" stroke-linejoin="round"/>
<path d="M308.223 8.27594L306.004 10.9878C300.084 18.2231 301.15 28.8878 308.385 34.8081L309.727 35.9062C316.962 41.8265 327.627 40.7606 333.547 33.5253L335.766 30.8135C341.686 23.5782 340.621 12.9134 333.385 6.99305L332.043 5.89499C324.808 -0.0253595 314.143 1.04065 308.223 8.27594Z" fill="black"/>
<mask id="mask1_264_4568" style="mask-type:luminance" maskUnits="userSpaceOnUse" x="302" y="2" width="38" height="38">
<path d="M308.224 8.27643L306.005 10.9882C300.085 18.2235 301.151 28.8883 308.386 34.8086L309.728 35.9067C316.963 41.827 327.628 40.7611 333.548 33.5258L335.767 30.814C341.687 23.5787 340.621 12.9139 333.386 6.99354L332.044 5.89548C324.809 -0.0248712 314.144 1.04114 308.224 8.27643Z" fill="white"/>
</mask>
<g mask="url(#mask1_264_4568)">
<path d="M370.766 -40.0696C362.422 -46.897 345.219 -39.6747 332.343 -23.938C319.466 -8.20133 315.791 10.0905 324.135 16.918C332.479 23.7455 349.682 16.5232 362.558 0.786487C375.435 -14.9502 379.11 -33.2421 370.766 -40.0696Z" fill="#FF7BAC"/>
</g>
<path d="M308.223 8.27594L306.004 10.9878C300.084 18.2231 301.15 28.8878 308.385 34.8081L309.727 35.9062C316.962 41.8265 327.627 40.7606 333.547 33.5253L335.766 30.8135C341.686 23.5782 340.621 12.9134 333.385 6.99305L332.043 5.89499C324.808 -0.0253595 314.143 1.04065 308.223 8.27594Z" stroke="black" stroke-width="2.98" stroke-linecap="round" stroke-linejoin="round"/>
</svg>
