<svg width="556" height="596" viewBox="0 0 556 596" fill="none" xmlns="http://www.w3.org/2000/svg">
<path d="M190.303 294.354L174.639 267.425L99.9718 138.097C98.5222 135.983 97.9295 133.397 98.3135 130.863C98.6974 128.328 100.029 126.034 102.04 124.444C104.051 122.854 106.59 122.087 109.145 122.298C111.7 122.508 114.079 123.681 115.803 125.579L131.965 141.45C133.13 142.549 134.619 143.242 136.209 143.428C137.8 143.615 139.408 143.283 140.796 142.483C160.366 122.391 185.113 108.104 212.298 101.201C213.681 100.399 214.77 99.1725 215.402 97.7033C216.034 96.2341 216.175 94.6003 215.806 93.0443L210.142 71.1118C209.375 68.6749 209.559 66.0381 210.656 63.731C211.753 61.4239 213.682 59.6174 216.057 58.6744C218.431 57.7314 221.074 57.7219 223.455 58.6476C225.836 59.5733 227.779 61.3657 228.893 63.6648L303.578 193.024L319.111 219.928" fill="#4D7CC1"/>
<path d="M195.731 155.114L261.66 120.479C261.66 120.479 221.979 116.626 212.33 101.199C185.12 108.133 160.349 122.434 140.74 142.532C149.25 158.616 132.774 194.941 132.774 194.941L195.731 155.114Z" stroke="black" stroke-width="2.98" stroke-linecap="round" stroke-linejoin="round"/>
<path d="M142.252 211.126L188.543 170.71C193.356 170.149 198.003 168.609 202.199 166.187C206.395 163.764 210.052 160.509 212.944 156.622L271.079 136.748L261.723 120.542L211.848 137.658C206.097 134.213 196.286 134.964 187.207 140.205C178.128 145.447 172.559 153.559 172.681 160.272L132.902 194.917L142.252 211.126Z" fill="#FFE500" stroke="black" stroke-width="2.98" stroke-linecap="round" stroke-linejoin="round"/>
<path d="M174.755 267.424L174.65 267.443L99.9823 138.116C98.5328 136.001 97.9401 133.416 98.3241 130.881C98.708 128.347 100.04 126.052 102.051 124.462C104.061 122.872 106.601 122.105 109.156 122.316C111.71 122.526 114.09 123.699 115.813 125.597L131.975 141.468C133.141 142.567 134.629 143.261 136.22 143.447C137.81 143.633 139.419 143.301 140.806 142.501C160.377 122.41 185.123 108.122 212.308 101.22C213.692 100.417 214.78 99.1908 215.412 97.7216C216.044 96.2524 216.186 94.6186 215.816 93.0626L210.153 71.13C209.386 68.6932 209.569 66.0564 210.666 63.7493C211.763 61.4422 213.693 59.6357 216.067 58.6927C218.442 57.7497 221.085 57.7402 223.466 58.6659C225.847 59.5916 227.79 61.384 228.903 63.6831L303.578 193.023" stroke="black" stroke-width="2.98" stroke-linecap="round" stroke-linejoin="round"/>
<path d="M174.027 267.261C137.821 268.894 130.298 294.602 118.095 316.497C142.57 310.758 149.577 318.834 155.248 327.949C155.26 327.767 153.545 285.06 201.079 292.312" fill="#4D7CC1"/>
<path d="M174.027 267.261C137.821 268.894 130.298 294.602 118.095 316.497C142.57 310.758 149.577 318.834 155.248 327.949C155.26 327.767 153.545 285.06 201.079 292.312" stroke="black" stroke-width="2.98" stroke-linecap="round" stroke-linejoin="round"/>
<path d="M156.768 323.009C149.979 314.69 142.013 307.568 118.46 316.378C68.979 362.64 138.8 403.35 152.132 342.578L153.116 342.736C158.422 344.47 162.336 350.527 168.566 342.158C174.101 337.295 164.691 325.259 159.389 323.531C158.531 323.248 157.639 323.084 156.737 323.043L156.768 323.009Z" fill="white" stroke="black" stroke-width="2.98" stroke-linecap="round" stroke-linejoin="round"/>
<path d="M303.543 192.486C323.06 161.947 349.085 168.286 374.148 168.665C356.941 186.992 360.431 197.098 365.489 206.567C365.326 206.486 329.198 183.647 311.711 228.439" fill="#4D7CC1"/>
<path d="M303.543 192.486C323.06 161.947 349.085 168.286 374.148 168.665C356.941 186.992 360.431 197.098 365.489 206.567C365.326 206.486 329.198 183.647 311.711 228.439" stroke="black" stroke-width="2.98" stroke-linecap="round" stroke-linejoin="round"/>
<path d="M360.451 205.412C356.641 195.374 354.456 184.914 373.862 168.921C438.667 149.2 439.013 230.022 379.717 211.182L379.361 212.113C378.21 217.575 381.499 223.994 371.136 225.205C364.157 227.566 358.438 213.398 359.593 207.943C359.777 207.059 360.08 206.204 360.496 205.403L360.451 205.412Z" fill="white" stroke="black" stroke-width="2.98" stroke-linecap="round" stroke-linejoin="round"/>
<path d="M308.986 228.66C310.424 223.117 313.912 218.408 317.001 212.704C287.895 203.096 258.021 204.469 232.699 219.088C207.378 233.707 191.242 258.874 185.024 288.909C190.833 289.059 197.31 288.356 202.714 290L308.986 228.66Z" fill="#4C70BF"/>
<path d="M248.799 247.033C177.66 288.105 153.28 379.073 194.356 450.218C235.432 521.364 326.402 545.734 397.542 504.662C468.681 463.589 493.064 372.612 451.992 301.472C410.919 230.333 319.945 205.957 248.799 247.033Z" fill="#FCD700"/>
<mask id="mask0_264_4493" style="mask-type:luminance" maskUnits="userSpaceOnUse" x="174" y="227" width="298" height="298">
<path d="M248.8 247.032C177.661 288.105 153.281 379.072 194.357 450.218C235.433 521.364 326.403 545.734 397.543 504.661C468.682 463.589 493.065 372.612 451.993 301.472C410.92 230.332 319.946 205.956 248.8 247.032Z" fill="white"/>
</mask>
<g mask="url(#mask0_264_4493)">
<path d="M288.222 517.59C278.839 521.065 268.864 522.658 258.866 522.277C248.868 521.897 239.042 519.55 229.951 515.372C220.859 511.194 212.68 505.266 205.879 497.927C199.079 490.587 193.791 481.98 190.317 472.597C175.72 433.139 204.564 412.816 244.018 398.213C283.472 383.609 318.607 380.251 333.185 419.72C340.196 438.661 339.398 459.611 330.966 477.964C322.535 496.317 307.16 510.57 288.222 517.59Z" fill="#F9BD00"/>
<path d="M463.337 416.487C478.883 403.583 488.667 385.032 490.537 364.915C492.406 344.798 486.208 324.761 473.306 309.214C446.433 276.844 414.41 291.661 382.036 318.528C349.663 345.394 329.187 374.143 356.078 406.502C368.979 422.048 387.526 431.834 407.64 433.706C427.754 435.579 447.789 429.385 463.337 416.487Z" fill="#F9BD00"/>
<path d="M261.744 269.45C326.701 231.947 408.072 244.357 455.034 298.923C428.02 221.327 341.019 182.186 260.712 211.499C251.869 214.727 243.326 218.724 235.182 223.444C160.976 266.228 134.064 358.574 175.074 429.708C179.557 437.477 184.761 444.807 190.617 451.601C166.861 383.636 196.806 306.975 261.751 269.463L261.744 269.45Z" fill="#F9BD00"/>
</g>
<path d="M248.799 247.033C177.66 288.105 153.28 379.073 194.356 450.218C235.432 521.364 326.402 545.734 397.542 504.662C468.681 463.589 493.064 372.612 451.992 301.472C410.919 230.333 319.945 205.957 248.799 247.033Z" stroke="black" stroke-width="2.98" stroke-linecap="round" stroke-linejoin="round"/>
<path d="M289.828 514.477C272.381 520.958 253.074 520.244 236.154 512.49C219.233 504.737 206.086 490.58 199.603 473.134C186.129 436.791 213.349 419.898 249.678 406.399C286.007 392.899 317.678 387.92 331.178 424.249C334.388 432.888 335.865 442.075 335.525 451.286C335.184 460.496 333.033 469.549 329.193 477.928C325.353 486.307 319.9 493.847 313.146 500.118C306.392 506.389 298.468 511.268 289.828 514.477Z" fill="white" stroke="black" stroke-width="2.98" stroke-linecap="round" stroke-linejoin="round"/>
<path d="M283.782 426.094C267.558 435.46 261.999 456.206 271.366 472.429C280.733 488.653 301.478 494.212 317.702 484.845C333.925 475.478 339.484 454.733 330.117 438.509C320.75 422.285 300.005 416.727 283.782 426.094Z" fill="black"/>
<path d="M287.773 478.075C288.633 483.78 295.196 487.521 302.432 486.43C309.668 485.34 314.837 479.831 313.978 474.126C313.118 468.42 306.555 464.679 299.319 465.77C292.083 466.86 286.914 472.369 287.773 478.075Z" fill="white"/>
<path d="M272.29 464.518C271.567 469.126 274.288 473.381 278.368 474.021C282.448 474.662 286.341 471.445 287.064 466.837C287.788 462.229 285.067 457.975 280.987 457.334C276.907 456.694 273.013 459.91 272.29 464.518Z" fill="white"/>
<path d="M298.729 427.218C298.181 429.211 301.383 431.829 305.88 433.066C310.377 434.303 314.468 433.691 315.016 431.698C315.564 429.705 312.362 427.086 307.865 425.849C303.368 424.612 299.277 425.225 298.729 427.218Z" fill="white"/>
<path d="M459.906 416.282C467.006 410.406 472.878 403.189 477.188 395.043C481.497 386.897 484.16 377.982 485.024 368.807C485.887 359.631 484.935 350.376 482.222 341.569C479.508 332.762 475.086 324.575 469.208 317.477C444.471 287.636 416.238 302.76 386.383 327.472C356.527 352.184 336.38 377.122 361.091 406.978C366.968 414.078 374.186 419.951 382.333 424.261C390.479 428.572 399.395 431.235 408.571 432.099C417.748 432.963 427.004 432.011 435.812 429.297C444.62 426.583 452.807 422.161 459.906 416.282Z" fill="white" stroke="black" stroke-width="2.98" stroke-linecap="round" stroke-linejoin="round"/>
<path d="M385.868 367.154C369.644 376.521 364.085 397.266 373.452 413.49C382.819 429.713 403.564 435.272 419.788 425.905C436.011 416.539 441.57 395.793 432.203 379.57C422.836 363.346 402.091 357.787 385.868 367.154Z" fill="black"/>
<path d="M412.469 400.55C407.906 406.271 407.864 413.825 412.375 417.423C416.886 421.02 424.242 419.298 428.804 413.576C433.367 407.855 433.409 400.301 428.898 396.703C424.387 393.106 417.031 394.828 412.469 400.55Z" fill="white"/>
<path d="M414.387 380.547C412.902 384.4 415.226 388.884 419.578 390.562C423.931 392.239 428.663 390.475 430.148 386.622C431.634 382.769 429.31 378.285 424.957 376.607C420.605 374.93 415.873 376.693 414.387 380.547Z" fill="white"/>
<path d="M373.564 387.808C372.386 392.322 373.053 396.404 375.053 396.925C377.053 397.447 379.629 394.211 380.806 389.698C381.984 385.184 381.317 381.102 379.317 380.581C377.317 380.059 374.741 383.295 373.564 387.808Z" fill="white"/>
<path d="M226.864 548.902C240.629 559.842 258.432 560.709 272.594 555.978" stroke="black" stroke-width="2.98" stroke-linecap="round" stroke-linejoin="round"/>
<path d="M504.47 422.105C515.652 412.212 523.805 396.351 521.207 378.963" stroke="black" stroke-width="2.98" stroke-linecap="round" stroke-linejoin="round"/>
<path d="M366.555 301.755C378.204 321.933 335.122 336.262 310.119 350.697L307.923 351.965C282.896 366.415 248.971 396.546 237.321 376.368C225.674 356.196 245.633 322.666 270.635 308.231L290.889 296.538C315.883 282.09 354.901 281.571 366.555 301.755Z" fill="black"/>
<mask id="mask1_264_4493" style="mask-type:luminance" maskUnits="userSpaceOnUse" x="233" y="286" width="136" height="98">
<path d="M366.555 301.755C378.204 321.933 335.122 336.262 310.119 350.697L307.923 351.965C282.896 366.415 248.971 396.546 237.321 376.368C225.674 356.196 245.633 322.666 270.635 308.231L290.889 296.538C315.883 282.09 354.901 281.571 366.555 301.755Z" fill="white"/>
</mask>
<g mask="url(#mask1_264_4493)">
<path d="M261.907 269.923C231.792 287.31 213.886 312.674 221.912 326.576C229.938 340.477 260.857 337.652 290.972 320.265C321.087 302.878 338.994 277.514 330.967 263.612C322.941 249.711 292.022 252.536 261.907 269.923Z" fill="#FF7BAC"/>
</g>
<path d="M366.555 301.755C378.204 321.933 335.122 336.262 310.119 350.697L307.923 351.965C282.896 366.415 248.971 396.546 237.321 376.368C225.674 356.196 245.633 322.666 270.635 308.231L290.889 296.538C315.883 282.09 354.901 281.571 366.555 301.755Z" stroke="black" stroke-width="2.98" stroke-linecap="round" stroke-linejoin="round"/>
</svg>
