<svg width="545" height="394" viewBox="0 0 545 394" fill="none" xmlns="http://www.w3.org/2000/svg">
<path d="M353.519 276.691L370.108 302.958L449.168 429.051C450.708 431.103 451.406 433.666 451.121 436.216C450.836 438.765 449.588 441.11 447.633 442.771C445.678 444.432 443.162 445.285 440.6 445.154C438.038 445.024 435.622 443.92 433.845 442.069L417.176 426.853C415.976 425.8 414.468 425.162 412.876 425.034C411.284 424.906 409.693 425.295 408.34 426.143C389.576 446.861 365.45 461.988 338.627 469.853C337.276 470.7 336.236 471.961 335.661 473.448C335.085 474.935 335.007 476.569 335.436 478.104L341.871 499.737C342.763 502.142 342.704 504.798 341.705 507.161C340.706 509.524 338.843 511.417 336.496 512.454C334.149 513.49 331.495 513.591 329.076 512.737C326.657 511.883 324.654 510.138 323.478 507.858L244.418 381.765L227.954 355.505" fill="#4D7CC1"/>
<path d="M353.155 415.54L288.749 452.426C288.749 452.426 328.409 454.847 338.578 469.841C365.416 461.945 389.56 446.807 408.358 426.089C399.292 410.378 414.382 373.612 414.382 373.612L353.155 415.54Z" stroke="black" stroke-width="2.98" stroke-linecap="round" stroke-linejoin="round"/>
<path d="M404.398 357.838L359.768 399.771C354.996 400.504 350.424 402.205 346.333 404.769C342.243 407.334 338.72 410.709 335.982 414.685L278.812 436.579L288.718 452.378L337.76 433.516C343.609 436.738 353.347 435.621 362.198 430.072C371.049 424.522 376.296 416.244 375.943 409.575L414.303 373.636L404.398 357.838Z" fill="#FFE500" stroke="black" stroke-width="2.98" stroke-linecap="round" stroke-linejoin="round"/>
<path d="M369.984 302.95L370.089 302.927L449.149 429.02C450.689 431.072 451.387 433.635 451.102 436.185C450.817 438.734 449.569 441.079 447.614 442.74C445.659 444.401 443.143 445.254 440.581 445.123C438.019 444.993 435.603 443.889 433.827 442.038L417.157 426.822C415.957 425.769 414.449 425.13 412.857 425.002C411.265 424.874 409.674 425.264 408.321 426.112C389.558 446.83 365.431 461.957 338.609 469.822C337.258 470.669 336.217 471.93 335.642 473.417C335.066 474.904 334.988 476.537 335.417 478.073L341.852 499.706C342.744 502.111 342.685 504.767 341.686 507.13C340.688 509.493 338.824 511.386 336.477 512.422C334.13 513.459 331.476 513.56 329.057 512.706C326.638 511.852 324.636 510.107 323.459 507.827L244.399 381.734" stroke="black" stroke-width="2.98" stroke-linecap="round" stroke-linejoin="round"/>
<path d="M252.153 394.183C248.31 430.105 231.898 443.968 209.375 454.764C216.579 430.771 208.976 423.31 200.258 417.102C200.446 417.103 233.2 413.459 228.904 365.739" fill="#4D7CC1"/>
<path d="M252.153 394.183C248.31 430.105 231.898 443.968 209.375 454.764C216.579 430.771 208.976 423.31 200.258 417.102C200.446 417.103 233.2 413.459 228.904 365.739" stroke="black" stroke-width="2.98" stroke-linecap="round" stroke-linejoin="round"/>
<path d="M421.156 278.591C422.939 289.147 426.332 299.222 451.085 303.204C505.915 296.634 461.186 229.838 434.83 263.937L434.056 263.314C432.258 261.338 429.749 260.158 427.081 260.031C424.413 259.905 421.804 260.844 419.828 262.642C417.852 264.439 416.671 266.948 416.545 269.616C416.419 272.284 417.358 274.893 419.155 276.869C419.761 277.534 420.453 278.116 421.212 278.599L421.156 278.591Z" fill="white" stroke="black" stroke-width="2.98" stroke-linecap="round" stroke-linejoin="round"/>
<path d="M434.789 263.844C434.789 263.844 448.536 276.44 445.119 280.075C441.702 283.71 436.446 284.276 433.017 280.969" stroke="black" stroke-width="2.98" stroke-linecap="round" stroke-linejoin="round"/>
<path d="M377.916 315.329C411.925 327.518 431.554 318.784 451.083 303.214C426.347 299.246 422.943 289.152 421.154 278.6C421.073 278.77 403.53 306.662 362.441 282.011" fill="#4D7CC1"/>
<path d="M377.916 315.329C411.925 327.518 431.554 318.784 451.083 303.214C426.347 299.246 422.943 289.152 421.154 278.6C421.073 278.77 403.53 306.662 362.441 282.011" stroke="black" stroke-width="2.98" stroke-linecap="round" stroke-linejoin="round"/>
<path d="M234.358 345.564C233.268 351.022 231.69 356.372 229.645 361.548C258.978 370.061 288.69 367.616 313.376 352.138C338.062 336.66 353.216 310.957 358.321 280.869C352.593 280.476 346.917 279.519 341.377 278.011L234.358 345.564Z" fill="#4C70BF"/>
<path d="M325.48 371.401C394.844 327.91 415.817 236.427 372.326 167.064C328.835 97.6999 237.357 76.7328 167.993 120.224C98.6293 163.714 77.6438 255.204 121.123 324.55C164.602 393.895 256.122 414.887 325.48 371.401Z" fill="#FCD700"/>
<mask id="mask0_264_4601" style="mask-type:luminance" maskUnits="userSpaceOnUse" x="98" y="97" width="297" height="298">
<path d="M325.48 371.401C394.844 327.91 415.817 236.427 372.326 167.064C328.835 97.6999 237.357 76.7328 167.993 120.224C98.6293 163.714 77.6438 255.204 121.123 324.55C164.602 393.895 256.122 414.887 325.48 371.401Z" fill="white"/>
</mask>
<g mask="url(#mask0_264_4601)">
<path d="M330.694 219.465C366.217 197.192 376.959 150.34 354.686 114.817C332.413 79.2937 285.561 68.5523 250.038 90.825C214.515 113.098 203.773 159.95 226.046 195.473C248.319 230.996 295.171 241.738 330.694 219.465Z" fill="#F9BD00"/>
<path d="M186.459 309.9C221.981 287.628 232.723 240.775 210.45 205.252C188.177 169.729 141.325 158.988 105.802 181.261C70.279 203.533 59.5375 250.386 81.8103 285.909C104.083 321.432 150.936 332.173 186.459 309.9Z" fill="#F9BD00"/>
<path d="M311.781 349.539C248.453 389.245 166.941 379.809 118.208 327.205C147.928 403.506 235.996 439.325 314.906 407.211C323.596 403.673 331.96 399.385 339.905 394.394C412.248 349.086 435.702 256.133 392.275 186.789C387.535 179.218 382.09 172.11 376.014 165.561C402.137 232.384 375.102 309.82 311.781 349.539Z" fill="#F9BD00"/>
</g>
<path d="M325.48 371.401C394.844 327.91 415.817 236.427 372.326 167.064C328.835 97.6999 237.357 76.7328 167.993 120.224C98.6293 163.714 77.6438 255.204 121.123 324.55C164.602 393.895 256.122 414.887 325.48 371.401Z" stroke="black" stroke-width="2.98" stroke-linecap="round" stroke-linejoin="round"/>
<path d="M346.318 115.76C328.015 75.8147 284.712 56.4756 249.599 72.5648C214.485 88.654 200.858 134.079 219.161 174.024C237.464 213.97 280.767 233.309 315.88 217.219C350.994 201.13 364.621 155.705 346.318 115.76Z" fill="white" stroke="black" stroke-width="2.98" stroke-linecap="round" stroke-linejoin="round"/>
<path d="M190.886 295.596C220.665 270.999 222.121 223.596 194.138 189.72C166.155 155.843 119.33 148.322 89.5518 172.92C59.7732 197.517 58.3172 244.92 86.2999 278.796C114.282 312.673 161.107 320.194 190.886 295.596Z" fill="white" stroke="black" stroke-width="2.98" stroke-linecap="round" stroke-linejoin="round"/>
<path d="M235.905 139.885C239.758 137.469 240.924 132.386 238.507 128.532C236.091 124.678 231.008 123.513 227.154 125.93C223.3 128.346 222.135 133.429 224.551 137.283C226.968 141.137 232.051 142.302 235.905 139.885Z" fill="black"/>
<path d="M125.852 197.851C129.706 195.435 130.871 190.352 128.455 186.498C126.038 182.644 120.955 181.479 117.102 183.895C113.248 186.312 112.082 191.395 114.499 195.248C116.915 199.102 121.998 200.268 125.852 197.851Z" fill="black"/>
<path d="M308.523 34.9608C289.96 21.5802 261.109 24.2008 247.49 38.4791" stroke="black" stroke-width="2.98" stroke-linecap="round" stroke-linejoin="round"/>
<path d="M59.7876 156.168C41.0023 162.207 26.0754 187.035 30.0333 209.573" stroke="black" stroke-width="2.98" stroke-linecap="round" stroke-linejoin="round"/>
<path d="M339.115 393.133C327.269 400.511 312.986 402.901 299.384 399.781C285.782 396.662 273.967 388.287 266.52 376.485L242.94 338.877C227.551 314.332 241.671 292.244 266.211 276.858C290.75 261.472 316.783 258.383 332.173 282.929L355.753 320.537C363.132 332.381 365.524 346.664 362.407 360.266C359.289 373.869 350.916 385.685 339.115 393.133Z" fill="black"/>
<mask id="mask1_264_4601" style="mask-type:luminance" maskUnits="userSpaceOnUse" x="236" y="264" width="128" height="138">
<path d="M339.115 393.133C327.269 400.511 312.986 402.901 299.384 399.781C285.782 396.662 273.967 388.287 266.52 376.485L242.94 338.877C227.551 314.332 241.671 292.244 266.211 276.858C290.75 261.472 316.783 258.383 332.173 282.929L355.753 320.537C363.132 332.381 365.524 346.664 362.407 360.266C359.289 373.869 350.916 385.685 339.115 393.133Z" fill="white"/>
</mask>
<g mask="url(#mask1_264_4601)">
<path d="M361.93 429.523C391.49 410.989 406.856 382.254 396.252 365.341C385.648 348.428 353.088 349.742 323.529 368.276C293.969 386.809 278.603 415.545 289.207 432.458C299.812 449.37 332.371 448.057 361.93 429.523Z" fill="#FF7BAC"/>
</g>
<path d="M339.115 393.133C327.269 400.511 312.986 402.901 299.384 399.781C285.782 396.662 273.967 388.287 266.52 376.485L242.94 338.877C227.551 314.332 241.671 292.244 266.211 276.858C290.75 261.472 316.783 258.383 332.173 282.929L355.753 320.537C363.132 332.381 365.524 346.664 362.407 360.266C359.289 373.869 350.916 385.685 339.115 393.133Z" stroke="black" stroke-width="2.98" stroke-linecap="round" stroke-linejoin="round"/>
</svg>
