<svg width="556" height="366" viewBox="0 0 556 366" fill="none" xmlns="http://www.w3.org/2000/svg">
<path d="M190.303 64.3542L174.639 37.4256L99.9718 -91.9021C98.5222 -94.0163 97.9295 -96.6021 98.3135 -99.1367C98.6974 -101.671 100.029 -103.965 102.04 -105.555C104.051 -107.145 106.59 -107.913 109.145 -107.702C111.7 -107.491 114.079 -106.319 115.803 -104.421L131.965 -88.5497C133.13 -87.451 134.619 -86.7572 136.209 -86.5711C137.8 -86.3849 139.408 -86.7164 140.796 -87.5164C160.366 -107.608 185.113 -121.895 212.298 -128.798C213.681 -129.6 214.77 -130.827 215.402 -132.296C216.034 -133.765 216.175 -135.399 215.806 -136.955L210.142 -158.888C209.375 -161.325 209.559 -163.961 210.656 -166.269C211.753 -168.576 213.682 -170.382 216.057 -171.325C218.431 -172.268 221.074 -172.278 223.455 -171.352C225.836 -170.426 227.779 -168.634 228.893 -166.335L303.578 -36.9757L319.111 -10.0715" fill="#4D7CC1"/>
<path d="M174.755 37.4246L174.65 37.4439L99.9823 -91.8838C98.5328 -93.998 97.9401 -96.5838 98.3241 -99.1184C98.708 -101.653 100.04 -103.947 102.051 -105.537C104.061 -107.127 106.601 -107.894 109.156 -107.684C111.71 -107.473 114.09 -106.3 115.813 -104.402L131.975 -88.5314C133.141 -87.4327 134.629 -86.7389 136.22 -86.5528C137.81 -86.3667 139.419 -86.6981 140.806 -87.4981C160.377 -107.59 185.123 -121.877 212.308 -128.78C213.692 -129.582 214.78 -130.809 215.412 -132.278C216.044 -133.747 216.186 -135.381 215.816 -136.937L210.153 -158.869C209.386 -161.306 209.569 -163.943 210.666 -166.25C211.763 -168.557 213.693 -170.364 216.067 -171.307C218.442 -172.25 221.085 -172.259 223.466 -171.334C225.847 -170.408 227.79 -168.616 228.903 -166.316L303.578 -36.9762" stroke="black" stroke-width="2.98" stroke-linecap="round" stroke-linejoin="round"/>
<path d="M174.027 37.2615C137.821 38.8942 130.298 64.6026 118.095 86.4972C142.57 80.7588 149.577 88.8348 155.248 97.9491C155.26 97.7672 153.545 55.0602 201.079 62.3124" fill="#4D7CC1"/>
<path d="M174.027 37.2615C137.821 38.8942 130.298 64.6026 118.095 86.4972C142.57 80.7588 149.577 88.8348 155.248 97.9491C155.26 97.7672 153.545 55.0602 201.079 62.3124" stroke="black" stroke-width="2.98" stroke-linecap="round" stroke-linejoin="round"/>
<path d="M156.768 93.0093C149.979 84.6904 142.013 77.5685 118.46 86.3784C68.979 132.641 138.8 173.351 152.132 112.579L153.116 112.737C158.422 114.47 162.336 120.528 168.566 112.159C174.101 107.295 164.691 95.2592 159.389 93.5317C158.531 93.2488 157.639 93.0845 156.737 93.0435L156.768 93.0093Z" fill="white" stroke="black" stroke-width="2.98" stroke-linecap="round" stroke-linejoin="round"/>
<path d="M303.543 -37.5139C323.06 -68.0529 349.085 -61.7139 374.148 -61.3345C356.941 -43.0074 360.431 -32.9013 365.489 -23.4329C365.326 -23.5138 329.198 -46.3528 311.711 -1.56101" fill="#4D7CC1"/>
<path d="M303.543 -37.5139C323.06 -68.0529 349.085 -61.7139 374.148 -61.3345C356.941 -43.0074 360.431 -32.9013 365.489 -23.4329C365.326 -23.5138 329.198 -46.3528 311.711 -1.56101" stroke="black" stroke-width="2.98" stroke-linecap="round" stroke-linejoin="round"/>
<path d="M360.451 -24.5875C356.641 -34.6259 354.456 -45.0855 373.862 -61.0782C438.667 -80.7992 439.013 0.0224708 379.717 -18.8171L379.361 -17.8862C378.21 -12.4246 381.499 -6.00596 371.136 -4.79485C364.157 -2.43385 358.438 -16.6012 359.593 -22.0566C359.777 -22.9405 360.08 -23.7951 360.496 -24.5966L360.451 -24.5875Z" fill="white" stroke="black" stroke-width="2.98" stroke-linecap="round" stroke-linejoin="round"/>
<path d="M308.986 -1.33935C310.424 -6.8829 313.912 -11.5914 317.001 -17.2955C287.895 -26.9032 258.021 -25.5308 232.699 -10.9116C207.378 3.70756 191.242 28.8744 185.024 58.9097C190.833 59.0595 197.31 58.3568 202.714 60.0004L308.986 -1.33935Z" fill="#4C70BF"/>
<path d="M248.799 17.0332C177.66 58.1056 153.28 149.073 194.356 220.219C235.432 291.365 326.402 315.735 397.542 274.662C468.681 233.59 493.064 142.613 451.992 71.473C410.919 0.333375 319.945 -24.0429 248.799 17.0332Z" fill="#FCD700"/>
<mask id="mask0_264_4493" style="mask-type:luminance" maskUnits="userSpaceOnUse" x="174" y="-3" width="298" height="298">
<path d="M248.8 17.0327C177.661 58.1052 153.281 149.073 194.357 220.218C235.433 291.364 326.403 315.734 397.543 274.662C468.682 233.589 493.065 142.612 451.993 71.4725C410.92 0.332887 319.946 -24.0434 248.8 17.0327Z" fill="white"/>
</mask>
<g mask="url(#mask0_264_4493)">
<path d="M288.222 287.591C278.839 291.065 268.864 292.658 258.866 292.278C248.868 291.897 239.042 289.551 229.951 285.373C220.859 281.195 212.68 275.267 205.879 267.927C199.079 260.588 193.791 251.981 190.317 242.598C175.72 203.14 204.564 182.816 244.018 168.213C283.472 153.61 318.607 150.252 333.185 189.72C340.196 208.661 339.398 229.611 330.966 247.964C322.535 266.317 307.16 280.57 288.222 287.591Z" fill="#F9BD00"/>
<path d="M463.337 186.488C478.883 173.584 488.667 155.033 490.537 134.916C492.406 114.798 486.208 94.7619 473.306 79.2143C446.433 46.8441 414.41 61.6616 382.036 88.5282C349.663 115.395 329.187 144.143 356.078 176.502C368.979 192.049 387.526 201.834 407.64 203.707C427.754 205.579 447.789 199.386 463.337 186.488Z" fill="#F9BD00"/>
<path d="M261.744 39.4506C326.701 1.9471 408.072 14.3572 455.034 68.9237C428.02 -8.67238 341.019 -47.8139 260.712 -18.5008C251.869 -15.2729 243.326 -11.2758 235.182 -6.55551C160.976 36.2288 134.064 128.575 175.074 199.709C179.557 207.478 184.761 214.808 190.617 221.602C166.861 153.637 196.806 76.9755 261.751 39.4631L261.744 39.4506Z" fill="#F9BD00"/>
</g>
<path d="M248.799 17.0332C177.66 58.1057 153.28 149.073 194.356 220.219C235.432 291.365 326.402 315.735 397.542 274.662C468.681 233.59 493.064 142.613 451.992 71.473C410.919 0.333375 319.945 -24.0429 248.799 17.0332Z" stroke="black" stroke-width="2.98" stroke-linecap="round" stroke-linejoin="round"/>
<path d="M289.828 284.478C272.381 290.959 253.074 290.244 236.154 282.491C219.233 274.738 206.086 260.581 199.603 243.134C186.129 206.791 213.349 189.899 249.678 176.399C286.007 162.899 317.678 157.92 331.178 194.249C334.388 202.889 335.865 212.076 335.525 221.286C335.184 230.497 333.033 239.55 329.193 247.928C325.353 256.307 319.9 263.848 313.146 270.119C306.392 276.39 298.468 281.269 289.828 284.478Z" fill="white" stroke="black" stroke-width="2.98" stroke-linecap="round" stroke-linejoin="round"/>
<path d="M283.782 196.094C267.558 205.461 261.999 226.206 271.366 242.43C280.733 258.653 301.478 264.212 317.702 254.845C333.925 245.478 339.484 224.733 330.117 208.51C320.75 192.286 300.005 186.727 283.782 196.094Z" fill="black"/>
<path d="M287.773 248.075C288.633 253.78 295.196 257.521 302.432 256.431C309.668 255.34 314.837 249.831 313.978 244.126C313.118 238.421 306.555 234.68 299.319 235.77C292.083 236.861 286.914 242.37 287.773 248.075Z" fill="white"/>
<path d="M272.29 234.519C271.567 239.127 274.288 243.381 278.368 244.022C282.448 244.662 286.341 241.446 287.064 236.838C287.788 232.23 285.067 227.975 280.987 227.335C276.907 226.694 273.013 229.911 272.29 234.519Z" fill="white"/>
<path d="M298.729 197.218C298.181 199.211 301.383 201.829 305.88 203.067C310.377 204.304 314.468 203.691 315.016 201.698C315.564 199.705 312.362 197.087 307.865 195.85C303.368 194.613 299.277 195.225 298.729 197.218Z" fill="white"/>
<path d="M459.906 186.283C467.006 180.407 472.878 173.189 477.188 165.043C481.497 156.897 484.16 147.982 485.024 138.807C485.887 129.632 484.935 120.376 482.222 111.569C479.508 102.762 475.086 94.5758 469.208 87.4779C444.471 57.6369 416.238 72.761 386.383 97.4728C356.527 122.185 336.38 147.123 361.091 176.978C366.968 184.078 374.186 189.951 382.333 194.262C390.479 198.572 399.395 201.235 408.571 202.099C417.748 202.963 427.004 202.011 435.812 199.297C444.62 196.584 452.807 192.161 459.906 186.283Z" fill="white" stroke="black" stroke-width="2.98" stroke-linecap="round" stroke-linejoin="round"/>
<path d="M385.868 137.155C369.644 146.521 364.085 167.266 373.452 183.49C382.819 199.714 403.564 205.273 419.788 195.906C436.011 186.539 441.57 165.794 432.203 149.57C422.836 133.347 402.091 127.788 385.868 137.155Z" fill="black"/>
<path d="M412.469 170.55C407.906 176.272 407.864 183.826 412.375 187.423C416.886 191.02 424.242 189.298 428.804 183.577C433.367 177.855 433.409 170.301 428.898 166.704C424.387 163.107 417.031 164.829 412.469 170.55Z" fill="white"/>
<path d="M414.387 150.547C412.902 154.401 415.226 158.884 419.578 160.562C423.931 162.24 428.663 160.476 430.148 156.623C431.634 152.769 429.31 148.285 424.957 146.608C420.605 144.93 415.873 146.694 414.387 150.547Z" fill="white"/>
<path d="M373.564 157.809C372.386 162.322 373.053 166.404 375.053 166.926C377.053 167.447 379.629 164.211 380.806 159.698C381.984 155.185 381.317 151.103 379.317 150.581C377.317 150.06 374.741 153.295 373.564 157.809Z" fill="white"/>
<path d="M226.864 318.903C240.629 329.842 258.432 330.709 272.594 325.979" stroke="black" stroke-width="2.98" stroke-linecap="round" stroke-linejoin="round"/>
<path d="M504.47 192.105C515.652 182.212 523.805 166.351 521.207 148.964" stroke="black" stroke-width="2.98" stroke-linecap="round" stroke-linejoin="round"/>
<path d="M366.555 71.7556C378.204 91.9337 335.122 106.263 310.119 120.698L307.923 121.966C282.896 136.415 248.971 166.547 237.321 146.369C225.674 126.197 245.633 92.6665 270.635 78.2315L290.889 66.5384C315.883 52.0909 354.901 51.5712 366.555 71.7556Z" fill="black"/>
<mask id="mask1_264_4493" style="mask-type:luminance" maskUnits="userSpaceOnUse" x="233" y="56" width="136" height="98">
<path d="M366.555 71.7556C378.204 91.9337 335.122 106.263 310.119 120.698L307.923 121.966C282.896 136.415 248.971 166.547 237.321 146.369C225.674 126.197 245.633 92.6665 270.635 78.2315L290.889 66.5384C315.883 52.0909 354.901 51.5712 366.555 71.7556Z" fill="white"/>
</mask>
<g mask="url(#mask1_264_4493)">
<path d="M261.907 39.9234C231.792 57.3102 213.886 82.6744 221.912 96.576C229.938 110.478 260.857 107.652 290.972 90.2654C321.087 72.8786 338.994 47.5142 330.967 33.6126C322.941 19.7111 292.022 22.5365 261.907 39.9234Z" fill="#FF7BAC"/>
</g>
<path d="M366.555 71.7556C378.204 91.9337 335.122 106.263 310.119 120.698L307.923 121.966C282.896 136.415 248.971 166.547 237.321 146.369C225.674 126.197 245.633 92.6665 270.635 78.2315L290.889 66.5384C315.883 52.0909 354.901 51.5712 366.555 71.7556Z" stroke="black" stroke-width="2.98" stroke-linecap="round" stroke-linejoin="round"/>
</svg>
