<svg width="366" height="237" viewBox="0 0 366 237" fill="none" xmlns="http://www.w3.org/2000/svg">
<path d="M182.999 304.322C265.527 304.322 332.435 237.414 332.435 154.879C332.435 72.3442 265.527 5.44336 182.999 5.44336C100.471 5.44336 33.5703 72.3514 33.5703 154.879C33.5703 237.407 100.478 304.322 183.013 304.322H182.999Z" fill="#FCD700"/>
<mask id="mask0_264_4533" style="mask-type:luminance" maskUnits="userSpaceOnUse" x="33" y="5" width="300" height="300">
<path d="M182.998 304.322C265.526 304.322 332.434 237.414 332.434 154.879C332.434 72.3442 265.526 5.44336 182.998 5.44336C100.47 5.44336 33.5693 72.3514 33.5693 154.879C33.5693 237.407 100.477 304.322 183.012 304.322H182.998Z" fill="white"/>
</mask>
<g mask="url(#mask0_264_4533)">
<path d="M268.813 177.348C311.084 177.348 345.352 143.08 345.352 100.809C345.352 58.538 311.084 24.2705 268.813 24.2705C226.542 24.2705 192.274 58.538 192.274 100.809C192.274 143.08 226.542 177.348 268.813 177.348Z" fill="#F9BD00"/>
<path d="M97.1831 177.348C139.454 177.348 173.722 143.08 173.722 100.809C173.722 58.538 139.454 24.2705 97.1831 24.2705C54.912 24.2705 20.6445 58.538 20.6445 100.809C20.6445 143.08 54.912 177.348 97.1831 177.348Z" fill="#F9BD00"/>
<path d="M182.998 294.677C107.644 294.677 43.077 243.006 29.6246 171.937C14.1493 253.027 70.1842 330.779 154.786 345.619C164.101 347.249 173.541 348.064 182.998 348.053C269.095 348.097 338.864 281.254 338.907 198.776C338.913 189.77 338.069 180.784 336.386 171.937C322.919 242.999 258.359 294.663 182.998 294.677Z" fill="#F9BD00"/>
</g>
<path d="M182.999 304.322C265.527 304.322 332.435 237.414 332.435 154.879C332.435 72.3442 265.527 5.44336 182.999 5.44336C100.471 5.44336 33.5703 72.3514 33.5703 154.879C33.5703 237.407 100.478 304.322 183.013 304.322H182.999Z" stroke="black" stroke-width="2.98" stroke-linecap="round" stroke-linejoin="round"/>
<path d="M266.105 166.027C305.044 166.027 336.611 134.461 336.611 95.5216C336.611 56.5822 305.044 25.0156 266.105 25.0156C227.165 25.0156 195.599 56.5822 195.599 95.5216C195.599 134.461 227.165 166.027 266.105 166.027Z" fill="white" stroke="black" stroke-width="2.98" stroke-linecap="round" stroke-linejoin="round"/>
<path d="M301.397 81.2381C305.982 81.2381 309.699 77.5216 309.699 72.9369C309.699 68.3523 305.982 64.6357 301.397 64.6357C296.813 64.6357 293.096 68.3523 293.096 72.9369C293.096 77.5216 296.813 81.2381 301.397 81.2381Z" fill="black"/>
<path d="M99.8863 166.027C138.826 166.027 170.392 134.461 170.392 95.5216C170.392 56.5822 138.826 25.0156 99.8863 25.0156C60.947 25.0156 29.3804 56.5822 29.3804 95.5216C29.3804 134.461 60.947 166.027 99.8863 166.027Z" fill="white" stroke="black" stroke-width="2.98" stroke-linecap="round" stroke-linejoin="round"/>
<path d="M64.6005 81.2381C69.1851 81.2381 72.9017 77.5216 72.9017 72.9369C72.9017 68.3523 69.1851 64.6357 64.6005 64.6357C60.0159 64.6357 56.2993 68.3523 56.2993 72.9369C56.2993 77.5216 60.0159 81.2381 64.6005 81.2381Z" fill="black"/>
<path d="M20.6958 20.4421C21.6567 7.25699 40.2965 -2.72033 53.2865 3.68077M345.302 20.4421C344.356 7.25699 325.701 -2.72033 312.704 3.68077" stroke="black" stroke-width="2.98" stroke-linecap="round" stroke-linejoin="round"/>
<path d="M183.721 238.52C200.02 238.52 213.234 223.602 213.234 205.199C213.234 186.797 200.02 171.879 183.721 171.879C167.421 171.879 154.208 186.797 154.208 205.199C154.208 223.602 167.421 238.52 183.721 238.52Z" fill="black"/>
<mask id="mask1_264_4533" style="mask-type:luminance" maskUnits="userSpaceOnUse" x="154" y="171" width="60" height="68">
<path d="M183.715 238.52C200.015 238.52 213.228 223.602 213.228 205.199C213.228 186.797 200.015 171.879 183.715 171.879C167.416 171.879 154.202 186.797 154.202 205.199C154.202 223.602 167.416 238.52 183.715 238.52Z" fill="white"/>
</mask>
<g mask="url(#mask1_264_4533)">
<path d="M183.722 269.831C203.273 269.831 219.123 259.617 219.123 247.016C219.123 234.415 203.273 224.2 183.722 224.2C164.17 224.2 148.321 234.415 148.321 247.016C148.321 259.617 164.17 269.831 183.722 269.831Z" fill="#FF7BAC"/>
</g>
<path d="M183.721 238.52C200.02 238.52 213.234 223.602 213.234 205.199C213.234 186.797 200.02 171.879 183.721 171.879C167.421 171.879 154.208 186.797 154.208 205.199C154.208 223.602 167.421 238.52 183.721 238.52Z" stroke="black" stroke-width="2.98" stroke-linecap="round" stroke-linejoin="round"/>
</svg>
