<svg width="539" height="423" viewBox="0 0 539 423" fill="none" xmlns="http://www.w3.org/2000/svg">
<path d="M322.058 359.281L308.147 388.17L241.028 526.431C240.097 528.93 238.242 530.977 235.844 532.147C233.447 533.317 230.692 533.521 228.149 532.716C225.606 531.912 223.469 530.161 222.181 527.825C220.893 525.489 220.552 522.748 221.228 520.168L225.428 497.238C225.688 495.611 225.419 493.943 224.661 492.481C223.902 491.018 222.693 489.837 221.213 489.113C192.794 484.038 166.334 471.193 144.768 452.002C143.285 451.287 141.611 451.068 139.994 451.378C138.377 451.687 136.902 452.51 135.789 453.723L120.371 471.207C118.762 473.334 116.397 474.762 113.765 475.194C111.133 475.627 108.435 475.031 106.23 473.531C104.024 472.03 102.48 469.739 101.917 467.132C101.354 464.525 101.814 461.801 103.202 459.523L170.34 321.223L184.317 292.431" fill="#4D7CC1"/>
<path d="M200.272 434.993L132.713 398.799C132.713 398.799 152.328 434.824 144.745 451.967C166.359 471.149 192.84 484.004 221.282 489.122C230.074 472.582 270.541 465.652 270.541 465.652L200.272 434.993Z" stroke="black" stroke-width="2.98" stroke-linecap="round" stroke-linejoin="round"/>
<path d="M278.868 448.251L217.706 432.133C214.452 428.355 210.459 425.284 205.974 423.106C201.488 420.929 196.605 419.692 191.624 419.471L141.153 381.397L132.741 398.725L176.118 431.346C176.492 438.234 182.802 446.148 192.512 450.862C202.222 455.575 212.33 455.664 217.987 451.672L270.459 465.588L278.868 448.251Z" fill="#FFE500" stroke="black" stroke-width="2.98" stroke-linecap="round" stroke-linejoin="round"/>
<path d="M308.081 388.073L308.153 388.157L241.028 526.43C240.097 528.93 238.242 530.977 235.845 532.147C233.447 533.317 230.692 533.521 228.149 532.716C225.606 531.912 223.469 530.161 222.181 527.825C220.893 525.489 220.552 522.748 221.228 520.168L225.428 497.238C225.688 495.611 225.419 493.943 224.661 492.48C223.902 491.018 222.693 489.837 221.213 489.113C192.794 484.038 166.335 471.193 144.768 452.002C143.285 451.287 141.611 451.068 139.994 451.377C138.377 451.687 136.902 452.51 135.789 453.723L120.371 471.206C118.762 473.334 116.397 474.762 113.765 475.194C111.133 475.627 108.435 475.031 106.23 473.53C104.025 472.03 102.481 469.739 101.917 467.132C101.354 464.525 101.814 461.8 103.202 459.523L170.34 321.223" stroke="black" stroke-width="2.98" stroke-linecap="round" stroke-linejoin="round"/>
<path d="M366.789 387.509C361.246 397.073 357.298 407.34 374.344 426.802C422.251 457.736 430.745 375.141 387.315 384.848L387.102 383.846C386.976 381.091 385.761 378.5 383.724 376.641C381.687 374.782 378.996 373.809 376.241 373.935C373.487 374.061 370.895 375.277 369.036 377.313C367.178 379.35 366.204 382.042 366.33 384.797C366.371 385.725 366.538 386.644 366.828 387.528L366.789 387.509Z" fill="white" stroke="black" stroke-width="2.98" stroke-linecap="round" stroke-linejoin="round"/>
<path d="M387.349 384.777C387.349 384.777 389.97 403.846 384.856 404.487C379.742 405.129 375.186 402.106 374.651 397.22" stroke="black" stroke-width="2.98" stroke-linecap="round" stroke-linejoin="round"/>
<path d="M308.199 388.194C327.193 420.304 348.557 426.306 374.345 426.802C357.292 407.337 361.246 397.073 366.789 387.509C366.615 387.585 334.279 398.229 317.87 351.514" fill="#4D7CC1"/>
<path d="M308.199 388.194C327.193 420.304 348.557 426.306 374.345 426.802C357.292 407.337 361.246 397.073 366.789 387.509C366.615 387.585 334.279 398.229 317.87 351.514" stroke="black" stroke-width="2.98" stroke-linecap="round" stroke-linejoin="round"/>
<path d="M134.593 274.789C130.486 285.051 124.862 294.504 99.0251 293.148C45.0994 274.648 104.73 216.877 123.986 257.016L124.899 256.559C127.141 254.954 129.929 254.306 132.649 254.757C135.37 255.207 137.8 256.72 139.404 258.963C141.009 261.205 141.657 263.993 141.207 266.713C140.756 269.434 139.243 271.864 137.001 273.468C136.248 274.012 135.425 274.45 134.554 274.77L134.593 274.789Z" fill="white" stroke="black" stroke-width="2.98" stroke-linecap="round" stroke-linejoin="round"/>
<path d="M124.002 256.934C124.002 256.934 107.41 266.677 110.167 271.139C112.924 275.601 118 277.255 122.19 274.662" stroke="black" stroke-width="2.98" stroke-linecap="round" stroke-linejoin="round"/>
<path d="M193.105 290.971C146.253 306.952 134.608 274.989 134.56 274.806C130.454 285.068 124.829 294.52 98.9929 293.165C115.435 313.194 133.303 326.116 170.383 321.252" fill="#4D7CC1"/>
<path d="M193.105 290.971C146.253 306.952 134.608 274.989 134.56 274.806C130.454 285.068 124.829 294.52 98.9929 293.165C115.435 313.194 133.303 326.116 170.383 321.252" stroke="black" stroke-width="2.98" stroke-linecap="round" stroke-linejoin="round"/>
<path d="M196.511 292.624C191.136 294.663 185.588 296.214 179.934 297.258C188.542 327.602 206.951 352.279 234.021 365.42C261.091 378.561 291.866 377.768 321.035 365.756C318.244 360.524 315.974 355.03 314.261 349.352L196.511 292.624Z" fill="#4C70BF"/>
<path d="M233.433 362.661C309.476 399.576 401.087 367.859 438.012 291.797C474.936 215.735 443.206 124.149 367.144 87.225C291.082 50.3006 199.513 82.0627 162.598 158.105C125.683 234.148 157.401 325.759 233.456 362.68L233.433 362.661Z" fill="#FCD700"/>
<mask id="mask0_264_4457" style="mask-type:luminance" maskUnits="userSpaceOnUse" x="147" y="71" width="307" height="308">
<path d="M233.433 362.661C309.475 399.576 401.087 367.858 438.011 291.796C474.936 215.734 443.206 124.149 367.144 87.2245C291.082 50.3001 199.513 82.0622 162.598 158.105C125.683 234.147 157.4 325.759 233.456 362.68L233.433 362.661Z" fill="white"/>
</mask>
<g mask="url(#mask0_264_4457)">
<path d="M445.755 163.646C454.13 169.638 461.243 177.221 466.687 185.962C472.131 194.703 475.8 204.43 477.484 214.59C479.168 224.749 478.835 235.14 476.502 245.17C474.17 255.2 469.884 264.673 463.89 273.046C438.692 308.261 404.73 295.404 369.515 270.206C334.3 245.007 311.176 216.989 336.365 181.794C342.356 173.419 349.937 166.306 358.677 160.862C367.417 155.417 377.143 151.748 387.301 150.062C397.459 148.377 407.85 148.709 417.879 151.04C427.909 153.371 437.381 157.654 445.755 163.646Z" fill="#F9BD00"/>
<path d="M258.547 72.7662C248.659 69.8918 238.301 68.9936 228.066 70.1228C217.83 71.252 207.917 74.3865 198.893 79.3474C189.869 84.3083 181.911 90.9982 175.472 99.0353C169.034 107.072 164.242 116.299 161.371 126.188C149.288 167.77 180.398 186.502 221.98 198.585C263.561 210.667 299.88 211.505 311.953 169.943C314.828 160.056 315.727 149.699 314.599 139.464C313.471 129.229 310.338 119.317 305.378 110.293C300.419 101.269 293.731 93.3105 285.696 86.8716C277.66 80.4327 268.435 75.6396 258.547 72.7662Z" fill="#F9BD00"/>
<path d="M240.563 347.972C171.124 314.263 134.74 237.757 154.127 166.272C103.577 234.089 120.442 330.802 191.767 382.316C199.62 387.988 207.953 392.964 216.673 397.185C295.946 435.717 390.187 405.364 427.142 329.373C431.173 321.074 434.415 312.414 436.823 303.507C392.615 362.975 310.009 381.684 240.563 347.972Z" fill="#F9BD00"/>
</g>
<path d="M233.433 362.661C309.476 399.576 401.087 367.859 438.012 291.797C474.936 215.735 443.206 124.149 367.144 87.225C291.082 50.3006 199.513 82.0627 162.598 158.105C125.683 234.148 157.401 325.759 233.456 362.68L233.433 362.661Z" stroke="black" stroke-width="2.98" stroke-linecap="round" stroke-linejoin="round"/>
<path d="M443.304 161.75C458.891 172.881 469.421 189.746 472.578 208.638C475.735 227.529 471.26 246.902 460.139 262.496C436.97 294.969 406.843 281.509 374.379 258.336C341.915 235.164 319.383 211.055 342.558 178.585C353.689 162.997 370.554 152.468 389.446 149.311C408.338 146.154 427.71 150.628 443.304 161.75Z" fill="white" stroke="black" stroke-width="2.98" stroke-linecap="round" stroke-linejoin="round"/>
<path d="M430.861 220.293C435.086 222.344 440.173 220.582 442.224 216.357C444.275 212.132 442.513 207.045 438.288 204.994C434.063 202.943 428.976 204.705 426.925 208.93C424.874 213.155 426.636 218.242 430.861 220.293Z" fill="black"/>
<path d="M261.497 73.492C243.109 68.1296 223.344 70.2884 206.548 79.4938C189.751 88.6992 177.297 104.198 171.924 122.582C160.746 160.877 189.952 176.219 228.247 187.397C266.541 198.574 299.416 201.363 310.594 163.068C315.957 144.679 313.797 124.913 304.591 108.115C295.384 91.3176 279.883 78.8638 261.497 73.492Z" fill="white" stroke="black" stroke-width="2.98" stroke-linecap="round" stroke-linejoin="round"/>
<path d="M284.914 151.083C289.138 153.134 294.226 151.372 296.277 147.147C298.328 142.922 296.566 137.835 292.341 135.784C288.116 133.733 283.028 135.495 280.977 139.72C278.926 143.945 280.689 149.032 284.914 151.083Z" fill="black"/>
<path d="M514.614 183.944C515.993 165.901 506.465 150.225 494.258 140.894" stroke="black" stroke-width="2.98" stroke-linecap="round" stroke-linejoin="round"/>
<path d="M246.353 20.5479C231.47 16.7283 213.253 18.9353 199.928 31.1793" stroke="black" stroke-width="2.98" stroke-linecap="round" stroke-linejoin="round"/>
<path d="M189.247 242.373C205.445 209.006 248.583 246.105 280.709 261.701L283.511 263.061C315.637 278.657 371.471 289.603 355.273 322.971C339.078 356.332 287.942 365.238 255.815 349.642L229.818 337.022C197.685 321.423 173.052 275.735 189.247 242.373Z" fill="black"/>
<mask id="mask1_264_4457" style="mask-type:luminance" maskUnits="userSpaceOnUse" x="184" y="228" width="175" height="130">
<path d="M189.246 242.373C205.444 209.006 248.582 246.105 280.709 261.701L283.51 263.061C315.636 278.657 371.47 289.603 355.272 322.971C339.077 356.332 287.941 365.238 255.814 349.642L229.817 337.022C197.684 321.423 173.051 275.735 189.246 242.373Z" fill="white"/>
</mask>
<g mask="url(#mask1_264_4457)">
<path d="M216.83 397.126C255.522 415.909 295.935 412.497 307.095 389.507C318.256 366.516 295.939 332.652 257.247 313.869C218.556 295.087 178.143 298.498 166.982 321.489C155.822 344.479 178.139 378.343 216.83 397.126Z" fill="#FF7BAC"/>
</g>
<path d="M189.247 242.373C205.445 209.006 248.583 246.105 280.709 261.701L283.511 263.061C315.637 278.657 371.471 289.603 355.273 322.971C339.078 356.332 287.942 365.238 255.815 349.642L229.818 337.022C197.685 321.423 173.052 275.735 189.247 242.373Z" stroke="black" stroke-width="2.98" stroke-linecap="round" stroke-linejoin="round"/>
</svg>
