<svg width="366" height="473" viewBox="0 0 366 473" fill="none" xmlns="http://www.w3.org/2000/svg">
<path d="M257.666 278.075L257.768 309.38V459.408C258.158 462.068 257.477 464.774 255.873 466.931C254.268 469.088 251.873 470.519 249.213 470.91C246.554 471.301 243.848 470.619 241.691 469.015C239.534 467.411 238.103 465.015 237.712 462.356L231.621 440.429C231.157 438.888 230.209 437.538 228.919 436.577C227.629 435.615 226.064 435.094 224.454 435.09C197.332 442.741 168.622 442.741 141.5 435.09C139.893 435.092 138.33 435.613 137.042 436.574C135.755 437.536 134.812 438.888 134.355 440.429L128.265 462.356C127.874 465.015 126.442 467.411 124.285 469.015C122.128 470.619 119.422 471.301 116.763 470.91C114.103 470.519 111.708 469.088 110.104 466.931C108.5 464.774 107.818 462.068 108.209 459.408V309.344V278.097" fill="#4D7CC1"/>
<path d="M182.999 396.473L108.223 393.489C108.223 393.489 140.807 416.774 141.457 435.046C168.624 442.688 197.373 442.688 224.541 435.046C225.213 416.774 257.775 393.453 257.775 393.453L182.999 396.473Z" stroke="black" stroke-width="2.98" stroke-linecap="round" stroke-linejoin="round"/>
<path d="M257.666 374.634L197.087 386.547C192.619 384.62 187.804 383.626 182.937 383.626C178.071 383.626 173.256 384.62 168.788 386.547L108.223 374.634V393.418L160.241 403.569C163.507 409.457 172.422 413.683 182.956 413.683C193.489 413.683 202.404 409.421 205.677 403.569L257.695 393.418L257.666 374.634Z" fill="#FFE500" stroke="black" stroke-width="2.98" stroke-linecap="round" stroke-linejoin="round"/>
<path d="M257.666 309.321H257.768V459.407C258.158 462.067 257.477 464.773 255.873 466.93C254.268 469.087 251.873 470.518 249.213 470.909C246.554 471.3 243.848 470.618 241.691 469.014C239.534 467.41 238.103 465.015 237.712 462.355L231.621 440.428C231.157 438.888 230.209 437.537 228.919 436.576C227.629 435.615 226.064 435.093 224.454 435.089C197.332 442.74 168.622 442.74 141.5 435.089C139.893 435.091 138.33 435.612 137.042 436.574C135.755 437.536 134.812 438.887 134.355 440.428L128.265 462.355C127.874 465.015 126.442 467.41 124.285 469.014C122.128 470.618 119.422 471.3 116.763 470.909C114.103 470.518 111.708 469.087 110.104 466.93C108.5 464.773 107.818 462.067 108.209 459.407V309.343" stroke="black" stroke-width="2.98" stroke-linecap="round" stroke-linejoin="round"/>
<path d="M308.983 283.805C308.189 294.562 309.099 305.262 332.37 315.088C387.631 321.828 359.874 245.673 325.867 272.715L325.261 271.927C324.547 270.704 323.585 269.643 322.435 268.815C321.286 267.987 319.976 267.41 318.589 267.121C317.203 266.831 315.771 266.836 314.386 267.136C313.002 267.435 311.695 268.022 310.552 268.858C309.409 269.694 308.454 270.761 307.749 271.989C307.044 273.218 306.605 274.581 306.461 275.99C306.316 277.399 306.47 278.823 306.91 280.169C307.351 281.515 308.07 282.754 309.019 283.805H308.983Z" fill="white" stroke="black" stroke-width="2.98" stroke-linecap="round" stroke-linejoin="round"/>
<path d="M325.868 272.635C325.868 272.635 336.307 288.269 332.081 291.007C327.855 293.745 322.58 293.037 320.023 288.977" stroke="black" stroke-width="2.98" stroke-linecap="round" stroke-linejoin="round"/>
<path d="M257.818 309.379C288.162 329.478 309.511 325.642 332.37 315.087C309.099 305.261 308.189 294.561 308.983 283.804C308.861 283.941 284.983 307.046 250.673 273.039" fill="#4D7CC1"/>
<path d="M257.818 309.379C288.162 329.478 309.511 325.642 332.37 315.087C309.099 305.261 308.189 294.561 308.983 283.804C308.861 283.941 284.983 307.046 250.673 273.039" stroke="black" stroke-width="2.98" stroke-linecap="round" stroke-linejoin="round"/>
<path d="M57.0142 283.805C57.7873 294.562 56.877 305.262 33.6062 315.088C-21.634 321.828 6.15227 245.673 40.1084 272.715L40.7225 271.927C41.436 270.704 42.3985 269.643 43.5478 268.815C44.697 267.987 46.0074 267.41 47.3939 267.121C48.7805 266.831 50.2124 266.836 51.5969 267.136C52.9814 267.435 54.2876 268.022 55.4309 268.858C56.5743 269.694 57.5292 270.761 58.234 271.989C58.9387 273.218 59.3776 274.581 59.5221 275.99C59.6665 277.399 59.5135 278.823 59.0728 280.169C58.632 281.515 57.9135 282.754 56.9637 283.805H57.0142Z" fill="white" stroke="black" stroke-width="2.98" stroke-linecap="round" stroke-linejoin="round"/>
<path d="M40.1086 272.635C40.1086 272.635 29.6906 288.269 34.0182 291.007C38.3458 293.745 43.497 293.037 46.0762 288.977" stroke="black" stroke-width="2.98" stroke-linecap="round" stroke-linejoin="round"/>
<path d="M115.304 273.062C80.9719 307.068 57.1159 283.964 57.0003 283.826C57.7662 294.584 56.8559 305.284 33.5923 315.109C56.5669 325.665 77.7642 329.421 108.26 309.33" fill="#4D7CC1"/>
<path d="M115.304 273.062C80.9719 307.068 57.1159 283.964 57.0003 283.826C57.7662 294.584 56.8559 305.284 33.5923 315.109C56.5669 325.665 77.7642 329.421 108.26 309.33" stroke="black" stroke-width="2.98" stroke-linecap="round" stroke-linejoin="round"/>
<path d="M118.995 273.083C115.143 277.162 110.933 280.888 106.417 284.217C126.913 307.199 153.602 321.012 182.999 321.012C212.375 321.012 239.063 307.191 259.581 284.21C254.899 280.807 250.564 276.949 246.641 272.693L118.995 273.083Z" fill="#4C70BF"/>
<path d="M182.999 304.322C265.527 304.322 332.435 237.414 332.435 154.879C332.435 72.3442 265.527 5.44336 182.999 5.44336C100.471 5.44336 33.5703 72.3514 33.5703 154.879C33.5703 237.407 100.478 304.322 183.013 304.322H182.999Z" fill="#FCD700"/>
<mask id="mask0_264_4533" style="mask-type:luminance" maskUnits="userSpaceOnUse" x="33" y="5" width="300" height="300">
<path d="M182.998 304.322C265.526 304.322 332.434 237.414 332.434 154.879C332.434 72.3442 265.526 5.44336 182.998 5.44336C100.47 5.44336 33.5693 72.3514 33.5693 154.879C33.5693 237.407 100.477 304.322 183.012 304.322H182.998Z" fill="white"/>
</mask>
<g mask="url(#mask0_264_4533)">
<path d="M268.813 177.348C311.084 177.348 345.352 143.08 345.352 100.809C345.352 58.538 311.084 24.2705 268.813 24.2705C226.542 24.2705 192.274 58.538 192.274 100.809C192.274 143.08 226.542 177.348 268.813 177.348Z" fill="#F9BD00"/>
<path d="M97.1831 177.348C139.454 177.348 173.722 143.08 173.722 100.809C173.722 58.538 139.454 24.2705 97.1831 24.2705C54.912 24.2705 20.6445 58.538 20.6445 100.809C20.6445 143.08 54.912 177.348 97.1831 177.348Z" fill="#F9BD00"/>
<path d="M182.998 294.677C107.644 294.677 43.077 243.006 29.6246 171.937C14.1493 253.027 70.1842 330.779 154.786 345.619C164.101 347.249 173.541 348.064 182.998 348.053C269.095 348.097 338.864 281.254 338.907 198.776C338.913 189.77 338.069 180.784 336.386 171.937C322.919 242.999 258.359 294.663 182.998 294.677Z" fill="#F9BD00"/>
</g>
<path d="M182.999 304.322C265.527 304.322 332.435 237.414 332.435 154.879C332.435 72.3442 265.527 5.44336 182.999 5.44336C100.471 5.44336 33.5703 72.3514 33.5703 154.879C33.5703 237.407 100.478 304.322 183.013 304.322H182.999Z" stroke="black" stroke-width="2.98" stroke-linecap="round" stroke-linejoin="round"/>
<path d="M266.105 166.027C305.044 166.027 336.611 134.461 336.611 95.5216C336.611 56.5822 305.044 25.0156 266.105 25.0156C227.165 25.0156 195.599 56.5822 195.599 95.5216C195.599 134.461 227.165 166.027 266.105 166.027Z" fill="white" stroke="black" stroke-width="2.98" stroke-linecap="round" stroke-linejoin="round"/>
<path d="M301.397 81.2381C305.982 81.2381 309.699 77.5216 309.699 72.9369C309.699 68.3523 305.982 64.6357 301.397 64.6357C296.813 64.6357 293.096 68.3523 293.096 72.9369C293.096 77.5216 296.813 81.2381 301.397 81.2381Z" fill="black"/>
<path d="M99.8863 166.027C138.826 166.027 170.392 134.461 170.392 95.5216C170.392 56.5822 138.826 25.0156 99.8863 25.0156C60.947 25.0156 29.3804 56.5822 29.3804 95.5216C29.3804 134.461 60.947 166.027 99.8863 166.027Z" fill="white" stroke="black" stroke-width="2.98" stroke-linecap="round" stroke-linejoin="round"/>
<path d="M64.6005 81.2381C69.1851 81.2381 72.9017 77.5216 72.9017 72.9369C72.9017 68.3523 69.1851 64.6357 64.6005 64.6357C60.0159 64.6357 56.2993 68.3523 56.2993 72.9369C56.2993 77.5216 60.0159 81.2381 64.6005 81.2381Z" fill="black"/>
<path d="M20.6958 20.4421C21.6567 7.25699 40.2965 -2.72033 53.2865 3.68077M345.302 20.4421C344.356 7.25699 325.701 -2.72033 312.704 3.68077" stroke="black" stroke-width="2.98" stroke-linecap="round" stroke-linejoin="round"/>
<path d="M183.721 238.52C200.02 238.52 213.234 223.602 213.234 205.199C213.234 186.797 200.02 171.879 183.721 171.879C167.421 171.879 154.208 186.797 154.208 205.199C154.208 223.602 167.421 238.52 183.721 238.52Z" fill="black"/>
<mask id="mask1_264_4533" style="mask-type:luminance" maskUnits="userSpaceOnUse" x="154" y="171" width="60" height="68">
<path d="M183.715 238.52C200.015 238.52 213.228 223.602 213.228 205.199C213.228 186.797 200.015 171.879 183.715 171.879C167.416 171.879 154.202 186.797 154.202 205.199C154.202 223.602 167.416 238.52 183.715 238.52Z" fill="white"/>
</mask>
<g mask="url(#mask1_264_4533)">
<path d="M183.722 269.831C203.273 269.831 219.123 259.617 219.123 247.016C219.123 234.415 203.273 224.2 183.722 224.2C164.17 224.2 148.321 234.415 148.321 247.016C148.321 259.617 164.17 269.831 183.722 269.831Z" fill="#FF7BAC"/>
</g>
<path d="M183.721 238.52C200.02 238.52 213.234 223.602 213.234 205.199C213.234 186.797 200.02 171.879 183.721 171.879C167.421 171.879 154.208 186.797 154.208 205.199C154.208 223.602 167.421 238.52 183.721 238.52Z" stroke="black" stroke-width="2.98" stroke-linecap="round" stroke-linejoin="round"/>
</svg>
