<svg width="1920" height="596" viewBox="0 0 1920 596" fill="none" xmlns="http://www.w3.org/2000/svg">
<mask id="mask0_264_4089" style="mask-type:alpha" maskUnits="userSpaceOnUse" x="0" y="0" width="1920" height="596">
<rect x="0.129395" y="0.405518" width="1919.87" height="595.259" fill="#D9D9D9"/>
</mask>
<g mask="url(#mask0_264_4089)">
<path d="M1969.21 539.438C1967.65 539.437 1966.1 539.259 1964.58 538.907L-7.23732 82.7646C-13.4287 81.3263 -18.8801 77.0624 -22.3932 70.91C-25.9063 64.7577 -27.1935 57.2205 -25.9723 49.9549C-24.751 42.6893 -21.121 36.2899 -15.88 32.1633C-10.6391 28.0368 -4.21628 26.5207 1.97692 27.9483L1973.79 484.079C1979.59 485.418 1984.76 489.243 1988.29 494.809C1991.83 500.375 1993.47 507.284 1992.89 514.19C1992.32 521.097 1989.58 527.506 1985.2 532.171C1980.82 536.836 1975.12 539.422 1969.21 539.426V539.438Z" fill="#F6611A"/>
<path d="M4.1862 526.419C-1.62162 526.424 -7.23862 524.377 -11.6454 520.651C-16.0522 516.925 -18.9568 511.766 -19.832 506.11C-20.7073 500.455 -19.4953 494.678 -16.4159 489.828C-13.3365 484.977 -8.59388 481.375 -3.04858 479.675C26.152 470.683 54.2845 448.344 82.946 411.375C109.627 376.94 132.35 335.915 154.321 296.234C172.985 262.531 190.615 230.713 208.823 206.8C224.025 186.862 248.108 160.409 281.591 160.864C296.915 161.069 311.073 166.335 323.663 176.522C333.452 184.437 342.201 195.226 350.412 209.521C364.031 233.214 374.393 263.636 384.4 293.054C399.452 337.273 418.198 392.302 441.849 392.622H442.053C465.621 392.622 485.81 338.307 502.042 294.637C512.87 265.501 524.071 235.371 538.346 212.056C546.95 197.995 555.996 187.445 566.022 179.798C578.894 169.96 593.212 165.077 608.517 165.278C623.821 165.479 637.994 170.754 650.589 180.936C660.373 188.851 669.122 199.641 677.337 213.936C690.957 237.624 701.313 268.046 711.325 297.468C726.377 341.683 745.119 396.711 768.775 397.032H768.979C792.547 397.032 812.731 342.721 828.967 299.051C839.795 269.911 850.997 239.781 865.271 216.466C873.875 202.41 882.921 191.859 892.947 184.207C905.819 174.37 920.099 169.501 935.437 169.692C950.776 169.883 964.919 175.163 977.514 185.35C987.298 193.265 996.048 204.055 1004.26 218.35C1017.88 242.043 1028.24 272.465 1038.25 301.882C1053.3 346.102 1072.04 401.13 1095.7 401.446H1095.9C1119.47 401.446 1139.66 347.13 1155.89 303.461C1166.72 274.325 1177.92 244.195 1192.2 220.875C1200.8 206.819 1209.85 196.269 1219.87 188.622C1232.74 178.779 1247.04 173.896 1262.37 174.102C1277.7 174.307 1291.85 179.578 1304.44 189.76C1314.22 197.675 1322.97 208.464 1331.19 222.76C1344.81 246.452 1355.17 276.869 1365.18 306.292C1380.23 350.507 1398.98 405.535 1422.63 405.855H1422.83C1446.4 405.855 1466.59 351.545 1482.82 307.875C1493.65 278.735 1504.85 248.605 1519.12 225.29C1527.73 211.234 1536.77 200.678 1546.8 193.031C1559.67 183.193 1573.96 178.301 1589.29 178.516C1604.62 178.731 1618.77 183.987 1631.36 194.169C1641.15 202.084 1649.9 212.879 1658.11 227.169C1671.73 250.862 1682.09 281.284 1692.1 310.701C1707.15 354.916 1725.9 409.949 1749.55 410.265H1749.8C1758.92 410.265 1770.48 403.569 1783.26 390.91C1797.29 376.997 1812.58 356.026 1828.7 328.579C1859.57 275.918 1888.22 208.818 1911.25 154.919C1919.95 134.54 1928.17 115.295 1935.35 99.5558C1938.05 93.8512 1942.91 89.4206 1948.89 87.2244C1954.88 85.0281 1961.5 85.2429 1967.32 87.8222C1973.15 90.4014 1977.71 95.1373 1980.01 101.004C1982.32 106.87 1982.18 113.395 1979.64 119.164C1972.69 134.363 1964.58 153.345 1956 173.447C1932.45 228.604 1903.14 297.258 1870.69 352.501C1852.24 383.947 1834.88 407.525 1817.67 424.589C1794.95 447.105 1771.78 458.368 1748.85 458.067C1733.52 457.861 1719.36 452.596 1706.77 442.413C1696.99 434.498 1688.24 423.704 1680.03 409.414C1666.43 385.721 1656.05 355.299 1646.04 325.881C1630.99 281.667 1612.24 226.633 1588.58 226.318H1588.38C1564.81 226.318 1544.62 280.633 1528.39 324.303C1517.56 353.443 1506.36 383.574 1492.09 406.889C1483.48 420.945 1474.44 431.495 1464.44 439.142C1451.56 448.985 1437.25 453.872 1421.94 453.662C1406.64 453.452 1392.46 448.186 1379.87 438.004C1370.09 430.089 1361.33 419.299 1353.12 405.004C1339.5 381.316 1329.14 350.894 1319.13 321.477C1304.08 277.257 1285.33 222.229 1261.68 221.908H1261.48C1237.91 221.908 1217.72 276.219 1201.49 319.889C1190.66 349.029 1179.46 379.159 1165.19 402.474C1156.58 416.53 1147.54 427.085 1137.51 434.733C1124.64 444.57 1110.34 449.463 1095.02 449.248C1079.7 449.033 1065.54 443.777 1052.95 433.594C1043.16 425.679 1034.41 414.89 1026.2 400.595C1012.58 376.902 1002.22 346.485 992.212 317.062C977.16 272.847 958.413 217.814 934.762 217.499H934.554C910.99 217.499 890.801 271.81 874.57 315.479C863.737 344.62 852.541 374.75 838.266 398.065C829.662 412.121 820.616 422.671 810.59 430.318C797.723 440.161 783.433 445.049 768.1 444.838C752.766 444.628 738.618 439.362 726.028 429.18C716.239 421.265 707.49 410.475 699.279 396.18C685.66 372.492 675.298 342.07 665.291 312.653C650.239 268.433 631.492 213.405 607.842 213.084H607.633C584.069 213.084 563.881 267.395 547.649 311.065C536.816 340.205 525.62 370.335 511.345 393.65C502.741 407.706 493.696 418.262 483.693 425.909C470.822 435.747 456.503 440.634 441.199 440.429C425.894 440.223 411.721 434.953 399.126 424.771C389.343 416.856 380.593 406.066 372.378 391.771C358.758 368.078 348.397 337.661 338.39 308.238C323.338 264.024 304.591 208.995 280.94 208.675H280.809C276.012 208.675 265.423 212.223 247.661 235.51C231.566 256.62 214.756 286.975 196.961 319.109C175.175 358.451 150.485 403.043 121.542 440.371C86.5826 485.476 50.5603 513.258 11.4402 525.3C9.09376 526.033 6.64782 526.411 4.1862 526.419Z" fill="#4D7CC1"/>
<path d="M5.20025 293.41C-1.11797 293.141 -7.07013 290.367 -11.3471 285.696C-15.624 281.025 -17.8752 274.841 -17.6055 268.504C-17.3358 262.168 -14.5673 256.197 -9.9089 251.906C-5.25052 247.615 0.916113 245.355 7.23434 245.623L1958.92 302.625L1959.55 302.66C1965.86 302.929 1971.82 305.703 1976.09 310.374C1980.37 315.045 1982.62 321.229 1982.35 327.565C1982.08 333.902 1979.31 339.873 1974.65 344.164C1970 348.455 1963.83 350.715 1957.51 350.446L5.82941 293.435L5.20025 293.41Z" fill="#FEDA38"/>
</g>
</svg>
