<svg width="280" height="190" viewBox="0 0 280 190" fill="none" xmlns="http://www.w3.org/2000/svg">
<path d="M103.697 0C103.802 0.687787 103.906 1.37556 104.053 2.08236C108.651 28.3555 123.41 51.7107 145.083 67.0104C166.756 82.3101 193.568 88.3013 219.621 83.666C226.274 82.4826 233.093 82.6321 239.689 84.1062C246.284 85.5803 252.527 88.35 258.061 92.2572C263.595 96.1644 268.312 101.133 271.942 106.878C275.572 112.624 278.044 119.034 279.218 125.743C280.391 132.452 280.243 139.329 278.781 145.98C277.32 152.631 274.573 158.927 270.699 164.508C266.824 170.089 261.898 174.845 256.2 178.506C250.503 182.167 244.147 184.66 237.494 185.844C197.936 192.99 157.162 188.029 120.425 171.6C108.362 166.197 96.8467 159.628 86.0405 151.984C64.1891 136.649 45.5708 117.096 31.2636 94.4554C16.9564 71.8152 7.24438 46.5379 2.68976 20.0869C1.51585 13.4252 0.619046 6.72373 0 1.8722e-06L103.697 0Z" fill="#F6611A"/>
<path d="M239.164 101.758C228.832 97.1347 216.74 101.834 212.156 112.254C207.572 122.674 212.232 134.868 222.564 139.491C232.896 144.114 244.989 139.415 249.573 128.995C254.157 118.575 249.497 106.38 239.164 101.758Z" fill="white"/>
<path d="M212.178 99.5439C201.846 94.921 189.753 99.6204 185.169 110.04C180.585 120.46 185.245 132.655 195.578 137.277C205.91 141.9 218.002 137.201 222.586 126.781C227.171 116.361 222.511 104.167 212.178 99.5439Z" fill="#F6611A"/>
<path d="M243.614 134.419C233.281 129.797 221.189 134.496 216.605 144.916C212.021 155.336 216.681 167.53 227.013 172.153C237.346 176.776 249.438 172.076 254.022 161.657C258.606 151.237 253.946 139.042 243.614 134.419Z" fill="white"/>
<path d="M218.223 143.896C207.891 139.273 195.798 143.972 191.214 154.392C186.63 164.812 191.29 177.007 201.623 181.63C211.955 186.252 224.047 181.553 228.631 171.133C233.215 160.713 228.555 148.519 218.223 143.896Z" fill="#F6611A"/>
<path d="M244.812 118.748C241.825 117.412 238.33 118.77 237.005 121.782C235.68 124.793 237.027 128.318 240.013 129.654C243 130.991 246.495 129.632 247.82 126.62C249.145 123.609 247.798 120.084 244.812 118.748Z" fill="#262626"/>
<path d="M247.87 141.248C244.883 139.911 241.388 141.27 240.063 144.281C238.738 147.293 240.085 150.818 243.071 152.154C246.058 153.49 249.553 152.132 250.878 149.12C252.203 146.108 250.856 142.584 247.87 141.248Z" fill="#262626"/>
<path d="M188.767 124.754L193.684 160.831C194.257 164.934 197.799 165.929 201.867 165.352L205.254 164.879C209.322 164.302 212.504 162.417 211.966 158.292L207.045 122.225C206.472 118.122 202.935 117.117 198.866 117.694L195.48 118.166C191.387 118.682 188.227 120.576 188.767 124.754Z" fill="#262626"/>
<mask id="mask0_264_3966" style="mask-type:luminance" maskUnits="userSpaceOnUse" x="188" y="117" width="25" height="49">
<path d="M188.767 124.754L193.684 160.831C194.257 164.934 197.799 165.929 201.867 165.352L205.254 164.879C209.322 164.302 212.504 162.417 211.966 158.292L207.045 122.225C206.472 118.122 202.935 117.117 198.866 117.694L195.48 118.166C191.387 118.682 188.227 120.576 188.767 124.754Z" fill="white"/>
</mask>
<g mask="url(#mask0_264_3966)">
<path d="M182.219 122.144C175.764 123.038 171.833 133.322 173.438 145.116C175.043 156.91 181.577 165.746 188.032 164.853C194.486 163.959 198.418 153.674 196.812 141.881C195.207 130.087 188.674 121.251 182.219 122.144Z" fill="#FF7BAC"/>
</g>
</svg>
