<svg width="177" height="171" viewBox="0 0 177 171" fill="none" xmlns="http://www.w3.org/2000/svg">
<path d="M0.697449 -19C0.801743 -18.3122 0.906036 -17.6244 1.05283 -16.9176C5.65118 9.35552 20.4102 32.7107 42.0833 48.0104C63.7563 63.3101 90.5683 69.3013 116.621 64.666C123.274 63.4826 130.093 63.6321 136.689 65.1062C143.284 66.5803 149.527 69.35 155.061 73.2572C160.595 77.1644 165.312 82.1326 168.942 87.8781C172.572 93.6236 175.044 100.034 176.218 106.743C177.391 113.452 177.243 120.329 175.781 126.98C174.32 133.631 171.573 139.927 167.699 145.508C163.824 151.089 158.898 155.845 153.2 159.506C147.503 163.167 141.147 165.66 134.494 166.844C94.936 173.99 54.1625 169.029 17.4253 152.6C5.36211 147.197 -6.15334 140.628 -16.9595 132.984C-38.8109 117.649 -57.4292 98.0956 -71.7364 75.4554C-86.0436 52.8152 -95.7556 27.5379 -100.31 1.08693C-101.484 -5.57478 -102.381 -12.2763 -103 -19L0.697449 -19Z" fill="#F6611A"/>
<path d="M136.164 82.7573C125.832 78.1344 113.74 82.8338 109.156 93.2536C104.572 103.673 109.232 115.868 119.564 120.491C129.896 125.114 141.989 120.414 146.573 109.995C151.157 99.5747 146.497 87.3802 136.164 82.7573Z" fill="white"/>
<path d="M109.178 80.5439C98.8457 75.921 86.7535 80.6204 82.1694 91.0402C77.5853 101.46 82.2452 113.655 92.5776 118.277C102.91 122.9 115.002 118.201 119.586 107.781C124.171 97.3614 119.511 85.1668 109.178 80.5439Z" fill="#F6611A"/>
<path d="M140.614 115.419C130.281 110.797 118.189 115.496 113.605 125.916C109.021 136.336 113.681 148.53 124.013 153.153C134.346 157.776 146.438 153.076 151.022 142.657C155.606 132.237 150.946 120.042 140.614 115.419Z" fill="white"/>
<path d="M115.223 124.896C104.891 120.273 92.7984 124.972 88.2143 135.392C83.6302 145.812 88.2901 158.007 98.6225 162.63C108.955 167.252 121.047 162.553 125.631 152.133C130.215 141.713 125.555 129.519 115.223 124.896Z" fill="#F6611A"/>
<path d="M141.812 99.7478C138.825 98.4116 135.33 99.7699 134.005 102.782C132.68 105.793 134.027 109.318 137.013 110.654C140 111.991 143.495 110.632 144.82 107.62C146.145 104.609 144.798 101.084 141.812 99.7478Z" fill="#262626"/>
<path d="M144.87 122.248C141.883 120.912 138.388 122.27 137.063 125.282C135.738 128.293 137.085 131.818 140.071 133.154C143.058 134.491 146.553 133.132 147.878 130.12C149.203 127.109 147.856 123.584 144.87 122.248Z" fill="#262626"/>
<path d="M85.7668 105.754L90.6839 141.832C91.2566 145.934 94.7986 146.929 98.8671 146.352L102.254 145.88C106.322 145.302 109.504 143.417 108.966 139.292L104.045 103.225C103.472 99.1225 99.9346 98.1168 95.8661 98.6943L92.4795 99.1666C88.3873 99.6822 85.2271 101.577 85.7668 105.754Z" fill="#262626"/>
<mask id="mask0_264_4406" style="mask-type:luminance" maskUnits="userSpaceOnUse" x="85" y="98" width="25" height="49">
<path d="M85.7668 105.754L90.6839 141.832C91.2566 145.934 94.7986 146.929 98.8671 146.352L102.254 145.88C106.322 145.302 109.504 143.417 108.966 139.292L104.045 103.225C103.472 99.1225 99.9346 98.1168 95.8661 98.6943L92.4795 99.1666C88.3873 99.6822 85.2271 101.577 85.7668 105.754Z" fill="white"/>
</mask>
<g mask="url(#mask0_264_4406)">
<path d="M79.219 103.144C72.7643 104.038 68.8329 114.323 70.438 126.116C72.0431 137.91 78.5768 146.746 85.0315 145.853C91.4862 144.96 95.4176 134.675 93.8125 122.881C92.2074 111.087 85.6737 102.251 79.219 103.144Z" fill="#FF7BAC"/>
</g>
</svg>
