<svg width="1790" height="181" viewBox="0 0 1790 181" fill="none" xmlns="http://www.w3.org/2000/svg">
<mask id="mask0_702_7011" style="mask-type:alpha" maskUnits="userSpaceOnUse" x="0" y="0" width="1790" height="181">
<rect y="0.125" width="1790" height="180" fill="#D9D9D9"/>
</mask>
<g mask="url(#mask0_702_7011)">
<rect width="1637.7" height="180" transform="matrix(-1 8.74289e-08 8.74167e-08 1 1637.71 0.132812)" fill="#F6611A"/>
<path d="M1790 90C1790 113.869 1779.68 136.761 1761.31 153.64C1742.94 170.518 1718.03 180 1692.05 180L1625 180L1625 2.16387e-05L1692.05 1.28453e-05C1718.03 9.43849e-06 1742.94 9.48212 1761.31 26.3604C1779.68 43.2387 1790 66.1305 1790 90Z" fill="#F6611A"/>
<path d="M1723.87 116.412C1723.87 134.591 1738.68 149.327 1756.94 149.327C1775.2 149.327 1790 134.591 1790 116.412C1790 98.2335 1775.2 83.4968 1756.94 83.4968C1738.68 83.4968 1723.87 98.2335 1723.87 116.412Z" fill="white"/>
<path d="M1723.87 63.853C1723.87 82.0316 1738.68 96.7682 1756.94 96.7682C1775.2 96.7682 1790 82.0315 1790 63.853C1790 45.6745 1775.2 30.9379 1756.94 30.9379C1738.68 30.9379 1723.87 45.6745 1723.87 63.853Z" fill="white"/>
<path d="M1747.44 119.845C1747.44 125.093 1751.71 129.348 1756.98 129.348C1762.26 129.348 1766.53 125.093 1766.53 119.845C1766.53 114.596 1762.26 110.342 1756.98 110.342C1751.71 110.342 1747.44 114.596 1747.44 119.845Z" fill="#262626"/>
<path d="M1747.44 69.3987C1747.44 74.647 1751.71 78.9017 1756.98 78.9017C1762.26 78.9017 1766.53 74.647 1766.53 69.3987C1766.53 64.1504 1762.26 59.8958 1756.98 59.8958C1751.71 59.8958 1747.44 64.1504 1747.44 69.3987Z" fill="#262626"/>
<path d="M1664.73 90.1323C1664.73 102.742 1677.2 112.964 1692.57 112.964C1707.95 112.964 1720.41 102.742 1720.41 90.1323C1720.41 77.5226 1707.95 67.3005 1692.57 67.3005C1677.2 67.3005 1664.73 77.5227 1664.73 90.1323Z" fill="#262626"/>
<mask id="mask1_702_7011" style="mask-type:luminance" maskUnits="userSpaceOnUse" x="1664" y="67" width="57" height="46">
<path d="M1664.73 90.1316C1664.73 102.741 1677.2 112.963 1692.57 112.963C1707.95 112.963 1720.41 102.741 1720.41 90.1316C1720.41 77.522 1707.95 67.2999 1692.57 67.2999C1677.2 67.2999 1664.73 77.522 1664.73 90.1316Z" fill="white"/>
</mask>
<g mask="url(#mask1_702_7011)">
<path d="M1638.57 90.1324C1638.57 105.258 1647.11 117.52 1657.63 117.52C1668.16 117.52 1676.7 105.258 1676.7 90.1324C1676.7 75.0067 1668.16 62.7449 1657.63 62.7449C1647.11 62.7449 1638.57 75.0067 1638.57 90.1324Z" fill="#FF7BAC"/>
</g>
</g>
</svg>
