<svg width="1019" height="179" viewBox="0 0 1019 179" fill="none" xmlns="http://www.w3.org/2000/svg">
<path d="M29.9268 34.6934C125.857 34.6934 125.857 148.693 221.777 148.693C317.697 148.693 317.697 34.6934 413.617 34.6934C509.537 34.6934 509.537 148.693 605.467 148.693C701.397 148.693 701.387 34.6934 797.317 34.6934C893.247 34.6934 893.247 148.693 989.177 148.693" stroke="#F6611A" stroke-width="59" stroke-linecap="round" stroke-linejoin="round"/>
<path d="M36.9655 23.6782C38.2078 15.5072 32.5909 7.8761 24.4198 6.63381C16.2487 5.39152 8.61764 11.0084 7.37535 19.1795C6.13306 27.3506 11.75 34.9817 19.921 36.224C28.0921 37.4663 35.7232 31.8493 36.9655 23.6782Z" fill="white"/>
<path d="M56.7121 22.3565C57.9544 14.1854 52.3375 6.55433 44.1664 5.31203C35.9953 4.06974 28.3642 9.68664 27.1219 17.8577C25.8796 26.0288 31.4965 33.6599 39.6676 34.9022C47.8387 36.1445 55.4698 30.5276 56.7121 22.3565Z" fill="#F6611A"/>
<path d="M33.3737 47.3028C34.616 39.1317 28.9991 31.5006 20.828 30.2583C12.6569 29.0161 5.02584 34.633 3.78355 42.8041C2.54125 50.9751 8.15816 58.6062 16.3292 59.8485C24.5003 61.0908 32.1314 55.4739 33.3737 47.3028Z" fill="white"/>
<path d="M51.8351 54.4332C53.0774 46.2621 47.4605 38.631 39.2894 37.3887C31.1183 36.1464 23.4873 41.7633 22.245 49.9344C21.0027 58.1055 26.6196 65.7366 34.7907 66.9789C42.9618 68.2212 50.5928 62.6042 51.8351 54.4332Z" fill="#F6611A"/>
<path d="M17.9649 24.5488C18.3235 22.1897 16.7019 19.9866 14.3428 19.6279C11.9837 19.2692 9.78054 20.8909 9.42188 23.25C9.06321 25.6091 10.6849 27.8122 13.044 28.1709C15.403 28.5296 17.6062 26.9079 17.9649 24.5488Z" fill="#262626"/>
<path d="M15.4903 40.8242C15.8489 38.4651 14.2273 36.262 11.8682 35.9033C9.50909 35.5446 7.30593 37.1663 6.94727 39.5254C6.5886 41.8845 8.21026 44.0876 10.5693 44.4463C12.9284 44.805 15.1316 43.1833 15.4903 40.8242Z" fill="#262626"/>
<path d="M52.8813 24.8361L48.9145 50.9277C48.4601 53.9163 45.8575 54.5804 42.8689 54.126L40.402 53.7509C37.4134 53.2965 35.1257 51.889 35.5801 48.9004L39.5469 22.8089C40.0013 19.8202 42.6039 19.1562 45.5925 19.6106L48.0594 19.9856C51.048 20.44 53.3357 21.8475 52.8813 24.8361Z" fill="#262626"/>
<mask id="mask0_264_4356" style="mask-type:luminance" maskUnits="userSpaceOnUse" x="35" y="19" width="18" height="36">
<path d="M52.8813 24.8361L48.9145 50.9277C48.4601 53.9163 45.8575 54.5804 42.8689 54.126L40.402 53.7509C37.4134 53.2965 35.1257 51.889 35.5801 48.9004L39.5469 22.8089C40.0013 19.8202 42.6039 19.1562 45.5925 19.6106L48.0594 19.9856C51.048 20.44 53.3357 21.8475 52.8813 24.8361Z" fill="white"/>
</mask>
<g mask="url(#mask0_264_4356)">
<path d="M63.9474 39.8663C65.2444 31.335 62.4773 23.8384 57.7668 23.1222C53.0562 22.406 48.1861 28.7415 46.8891 37.2728C45.592 45.8042 48.3592 53.3008 53.0697 54.0169C57.7802 54.7331 62.6503 48.3976 63.9474 39.8663Z" fill="#FF7BAC"/>
</g>
</svg>
