<svg width="97" height="101" viewBox="0 0 97 101" fill="none" xmlns="http://www.w3.org/2000/svg">
<path d="M32.822 5.9174C33.0558 0.302848 40.188 -1.93833 43.5913 2.53332L58.656 22.3272C60.1451 24.2839 62.6774 25.1339 65.0455 24.472L89.002 17.7765C94.414 16.2639 98.7495 22.3544 95.5483 26.973L81.3784 47.417C79.9777 49.4379 79.9518 52.1089 81.3131 54.1566L95.0839 74.8715C98.1949 79.5512 93.7422 85.5566 88.3605 83.9393L64.5383 76.7805C62.1835 76.0729 59.6352 76.8736 58.1084 78.801L42.6627 98.2991C39.1734 102.704 32.086 100.325 31.9611 94.7068L31.408 69.8384C31.3534 67.3802 29.8044 65.2041 27.4995 64.3476L4.18274 55.6831C-1.08476 53.7257 -1.01228 46.25 4.29218 44.3952L27.7726 36.1844C30.0936 35.3728 31.6845 33.2272 31.7869 30.7704L32.822 5.9174Z" fill="#FCD700"/>
</svg>
