<svg width="97" height="101" viewBox="0 0 97 101" fill="none" xmlns="http://www.w3.org/2000/svg">
<path d="M33.1054 5.79536C33.385 0.182893 40.5352 -2.00011 43.9019 2.49912L58.8048 22.4151C60.278 24.3838 62.8033 25.2544 65.1767 24.6119L89.1869 18.1118C94.6111 16.6433 98.8968 22.769 95.6581 27.3613L81.3222 47.6892C79.905 49.6986 79.8574 52.3693 81.2019 54.428L94.8035 75.2544C97.8762 79.9593 93.3747 85.9282 88.0064 84.2672L64.2434 76.9145C61.8944 76.1877 59.3397 76.9677 57.7972 78.8826L42.1932 98.2542C38.6681 102.63 31.6003 100.194 31.5211 94.5748L31.1707 69.7027C31.1361 67.2441 29.6049 65.0555 27.3071 64.1802L4.06167 55.3261C-1.18971 53.3258 -1.05633 45.851 4.26307 44.0394L27.8096 36.0203C30.1372 35.2276 31.7455 33.0949 31.8678 30.6391L33.1054 5.79536Z" fill="#4D7CC1"/>
</svg>
