<svg width="549" height="630" viewBox="0 0 549 630" fill="none" xmlns="http://www.w3.org/2000/svg">
<path d="M30.2041 30.2002L214.568 391.151C214.95 391.899 216.029 391.871 216.371 391.104L318.9 161.615C319.255 160.821 320.385 160.827 320.731 161.625L497.448 569.33" stroke="#FCD700" stroke-width="59" stroke-linecap="round"/>
<path d="M486.649 577.147C477.787 582.54 474.974 594.096 480.366 602.959C485.759 611.822 497.315 614.635 506.178 609.242C515.041 603.849 517.854 592.293 512.461 583.43C507.068 574.567 495.512 571.754 486.649 577.147Z" fill="white"/>
<path d="M512.273 561.555C503.411 566.948 500.598 578.504 505.99 587.367C511.383 596.23 522.939 599.043 531.802 593.65C540.665 588.257 543.478 576.701 538.085 567.838C532.693 558.976 521.136 556.162 512.273 561.555Z" fill="white"/>
<path d="M487.791 597.577C485.232 599.134 484.42 602.471 485.977 605.03C487.534 607.588 490.871 608.4 493.429 606.843C495.988 605.287 496.8 601.95 495.243 599.391C493.686 596.833 490.35 596.02 487.791 597.577Z" fill="#262626"/>
<path d="M529.893 571.959C527.335 573.516 526.522 576.853 528.079 579.411C529.636 581.97 532.973 582.782 535.531 581.225C538.09 579.668 538.902 576.332 537.345 573.773C535.789 571.214 532.452 570.402 529.893 571.959Z" fill="#262626"/>
<path d="M481.997 540.647C475.849 544.388 474.547 553.469 479.087 560.932C483.627 568.394 492.292 571.41 498.439 567.67C504.587 563.929 505.89 554.847 501.35 547.385C496.809 539.923 488.145 536.907 481.997 540.647Z" fill="#262626"/>
<mask id="mask0_264_4343" style="mask-type:luminance" maskUnits="userSpaceOnUse" x="476" y="539" width="29" height="31">
<path d="M481.997 540.647C475.849 544.388 474.547 553.469 479.087 560.931C483.627 568.394 492.292 571.41 498.439 567.67C504.587 563.929 505.89 554.847 501.35 547.385C496.809 539.923 488.145 536.907 481.997 540.647Z" fill="white"/>
</mask>
<g mask="url(#mask0_264_4343)">
<path d="M474.271 527.951C466.897 532.438 463.439 540.217 466.548 545.327C469.657 550.436 478.155 550.94 485.529 546.453C492.904 541.966 496.362 534.187 493.253 529.077C490.144 523.968 481.646 523.464 474.271 527.951Z" fill="#FF7BAC"/>
</g>
</svg>
