<svg width="547" height="510" viewBox="0 0 547 510" fill="none" xmlns="http://www.w3.org/2000/svg">
<path d="M55.5513 299.095C94.5328 415.1 220.213 477.522 336.273 438.522C452.333 399.522 514.814 273.871 475.833 157.866" stroke="#4D7CC1" stroke-width="59" stroke-linecap="round" stroke-linejoin="round"/>
<path d="M160.621 263.787C169.981 291.64 190.027 314.633 216.35 327.707C242.673 340.78 273.116 342.865 300.982 333.501C328.849 324.136 351.856 304.091 364.942 277.775C378.028 251.458 380.122 221.026 370.762 193.173" stroke="#4D7CC1" stroke-width="59" stroke-linecap="round" stroke-linejoin="round"/>
<path d="M475.833 157.866C446.598 70.8654 352.326 24.0727 265.302 53.3157C178.277 82.5588 131.394 176.811 160.63 263.811" stroke="#4D7CC1" stroke-width="59" stroke-linecap="round" stroke-linejoin="round"/>
<path d="M370.763 193.173C365.785 179.63 355.719 168.564 342.705 162.326C329.69 156.088 314.754 155.171 301.07 159.769C287.387 164.367 276.035 174.118 269.429 186.949C262.822 199.78 261.482 214.68 265.692 228.48" stroke="#4D7CC1" stroke-width="59" stroke-linecap="round" stroke-linejoin="round"/>
<path d="M67.8047 331.52C70.7404 329.904 71.6904 325.996 69.9266 322.792C68.1627 319.587 64.3529 318.299 61.4172 319.915C58.4814 321.53 57.5315 325.438 59.2953 328.643C61.0592 331.848 64.8689 333.136 67.8047 331.52Z" fill="#262626"/>
<path d="M73.2238 306.567C83.3922 300.97 87.0984 288.19 81.5018 278.022C75.9051 267.853 63.125 264.147 52.9566 269.744C42.7881 275.34 39.0819 288.121 44.6785 298.289C50.2752 308.458 63.0553 312.164 73.2238 306.567Z" fill="white"/>
<path d="M43.8244 322.749C53.9928 317.152 57.699 304.372 52.1024 294.203C46.5057 284.035 33.7256 280.329 23.5571 285.925C13.3887 291.522 9.68248 304.302 15.2791 314.471C20.8758 324.639 33.6559 328.345 43.8244 322.749Z" fill="white"/>
<path d="M63.9146 304.63C66.8503 303.014 67.9203 299.324 66.3045 296.389C64.6887 293.453 60.9989 292.383 58.0632 293.999C55.1275 295.614 54.0574 299.304 55.6732 302.24C57.2891 305.176 60.9788 306.246 63.9146 304.63Z" fill="#262626"/>
<path d="M47.168 313.848C50.1037 312.232 51.1737 308.542 49.5579 305.606C47.9421 302.671 44.2524 301.601 41.3166 303.216C38.3809 304.832 37.3109 308.522 38.9267 311.458C40.5425 314.393 44.2322 315.463 47.168 313.848Z" fill="#262626"/>
</svg>
