<svg width="101" height="98" viewBox="0 0 101 98" fill="none" xmlns="http://www.w3.org/2000/svg">
<path d="M76.0349 2.98256C80.7734 -0.0382371 86.6924 4.52865 84.9724 9.87838L77.3587 33.5591C76.6061 35.9 77.3579 38.4631 79.2558 40.0265L98.4545 55.8427C102.792 59.4157 100.277 66.4563 94.658 66.4736L69.7836 66.5504C67.3247 66.558 65.1194 68.065 64.2189 70.3531L55.1096 93.4997C53.0517 98.7287 45.5788 98.5131 43.8258 93.1741L36.0662 69.5408C35.2991 67.2047 33.1843 65.573 30.73 65.4236L5.90136 63.9128C0.292313 63.5715 -1.8119 56.3978 2.7241 53.0807L22.8028 38.3978C24.7876 36.9464 25.686 34.4308 25.0696 32.0505L18.8339 7.97019C17.4252 2.5302 23.5977 -1.68785 28.1541 1.60112L48.323 16.1598C50.3168 17.599 52.9868 17.676 55.0601 16.3542L76.0349 2.98256Z" fill="#F6611A"/>
</svg>
