<svg width="210" height="187" viewBox="0 0 210 187" fill="none" xmlns="http://www.w3.org/2000/svg">
<path d="M196.586 82.2186C196.586 132.805 155.56 173.812 104.95 173.812C54.3391 173.812 13.313 132.805 13.313 82.2186" stroke="#FEDA38" stroke-width="26" stroke-linecap="round" stroke-linejoin="round"/>
<path d="M150.768 82.2186C150.768 94.3646 145.941 106.013 137.348 114.602C128.756 123.19 117.101 128.015 104.95 128.015C92.7979 128.015 81.1438 123.19 72.5512 114.602C63.9586 106.013 59.1313 94.3646 59.1313 82.2186" stroke="#FEDA38" stroke-width="26" stroke-linecap="round" stroke-linejoin="round"/>
<path d="M13.313 82.2186C13.313 44.28 44.0903 13.5327 82.0392 13.5327C119.988 13.5327 150.768 44.2903 150.768 82.2289" stroke="#FEDA38" stroke-width="26" stroke-linecap="round" stroke-linejoin="round"/>
<path d="M59.1313 82.2185C59.2987 76.2567 61.7857 70.5952 66.0638 66.4375C70.3418 62.2797 76.0735 59.9536 82.0405 59.9536C88.0075 59.9536 93.7392 62.2797 98.0173 66.4375C102.295 70.5952 104.782 76.2567 104.95 82.2185" stroke="#FEDA38" stroke-width="26" stroke-linecap="round" stroke-linejoin="round"/>
</svg>
