<svg width="291" height="140" viewBox="0 0 291 140" fill="none" xmlns="http://www.w3.org/2000/svg">
<path d="M10.4551 10.4736C37.4217 10.4736 37.4218 42.5769 64.3856 42.5769C91.3495 42.5769 91.3494 10.4736 118.313 10.4736C145.277 10.4736 145.277 42.5769 172.244 42.5769C199.211 42.5769 199.208 10.4736 226.174 10.4736C253.141 10.4736 253.141 42.5769 280.108 42.5769" stroke="#4D7CC1" stroke-width="20" stroke-linecap="round" stroke-linejoin="round"/>
<path d="M10.4551 97.5664C37.4217 97.5664 37.4218 129.67 64.3856 129.67C91.3495 129.67 91.3494 97.5664 118.313 97.5664C145.277 97.5664 145.277 129.67 172.244 129.67C199.211 129.67 199.208 97.5664 226.174 97.5664C253.141 97.5664 253.141 129.67 280.108 129.67" stroke="#4D7CC1" stroke-width="20" stroke-linecap="round" stroke-linejoin="round"/>
<path d="M280.108 84.3308C253.144 84.3308 253.144 55.5083 226.177 55.5083C199.211 55.5083 199.213 84.3308 172.249 84.3308C145.286 84.3308 145.286 55.5083 118.322 55.5083C91.3579 55.5083 91.3551 84.3308 64.3884 84.3308C37.4218 84.3308 37.4217 55.5083 10.4551 55.5083" stroke="#4D7CC1" stroke-width="20" stroke-linecap="round" stroke-linejoin="round"/>
</svg>
