<svg width="794" height="889" viewBox="0 0 794 889" fill="none" xmlns="http://www.w3.org/2000/svg">
<path d="M349.844 64.6097C559.716 64.6096 729.843 234.737 729.843 444.609C729.843 654.48 559.716 824.608 349.844 824.608" stroke="#FEDA38" stroke-width="127.95" stroke-linecap="round" stroke-linejoin="round"/>
<path d="M349.844 254.609C400.235 254.609 448.562 274.627 484.194 310.259C519.826 345.891 539.843 394.218 539.843 444.609C539.843 495 519.826 543.327 484.194 578.959C448.562 614.59 400.235 634.608 349.844 634.608" stroke="#FEDA38" stroke-width="127.95" stroke-linecap="round" stroke-linejoin="round"/>
<path d="M349.844 824.608C192.445 824.608 64.8818 696.98 64.8818 539.614C64.8818 382.247 192.488 254.609 349.886 254.609" stroke="#FEDA38" stroke-width="127.95" stroke-linecap="round" stroke-linejoin="round"/>
<path d="M349.844 634.608C325.11 633.914 301.621 623.601 284.372 605.861C267.122 588.121 257.472 564.352 257.472 539.608C257.472 514.864 267.122 491.096 284.372 473.356C301.621 455.616 325.11 445.303 349.844 444.609" stroke="#FEDA38" stroke-width="127.95" stroke-linecap="round" stroke-linejoin="round"/>
<path d="M474.95 554.212L491.311 594.722L569.117 789.144C570.783 792.374 571.144 796.121 570.125 799.61C569.106 803.099 566.786 806.063 563.643 807.888C560.5 809.714 556.776 810.262 553.241 809.418C549.705 808.575 546.63 806.405 544.649 803.357L525.391 778.099C523.989 776.345 522.062 775.087 519.892 774.511C517.722 773.934 515.424 774.07 513.336 774.897C482.163 798.887 444.956 813.777 405.839 817.917C403.758 818.755 402.002 820.241 400.832 822.155C399.661 824.069 399.138 826.309 399.34 828.544L402.824 860.115C403.493 863.687 402.763 867.38 400.786 870.429C398.808 873.479 395.734 875.652 392.2 876.498C388.665 877.345 384.941 876.8 381.796 874.977C378.652 873.155 376.328 870.193 375.306 866.705L297.478 672.228L281.275 631.74" fill="#4D7CC1"/>
<path d="M439.588 746.379L341.163 781.283C341.163 781.283 395.457 794.545 405.782 817.907C444.933 813.712 482.171 798.809 513.407 774.837C504.799 750.809 534.921 703.669 534.921 703.669L439.588 746.379Z" stroke="black" stroke-width="2.98" stroke-linecap="round" stroke-linejoin="round"/>
<path d="M525.018 679.322L452.692 726.185C445.901 726.002 439.144 727.209 432.837 729.733C426.53 732.258 420.805 736.045 416.015 740.863L331.363 756.82L341.114 781.186L413.766 767.38C421.051 773.318 434.813 774.215 448.467 768.751C462.121 763.287 471.479 753.18 472.642 743.818L534.782 703.693L525.018 679.322Z" fill="#FFE500" stroke="black" stroke-width="2.98" stroke-linecap="round" stroke-linejoin="round"/>
<path d="M491.154 594.7L491.304 594.703L569.117 789.144C570.783 792.374 571.144 796.121 570.126 799.61C569.107 803.099 566.786 806.062 563.643 807.888C560.501 809.714 556.776 810.261 553.241 809.418C549.706 808.575 546.63 806.405 544.65 803.357L525.391 778.099C523.99 776.345 522.062 775.087 519.892 774.51C517.722 773.934 515.424 774.069 513.337 774.897C482.164 798.887 444.956 813.777 405.839 817.916C403.758 818.755 402.002 820.241 400.832 822.155C399.662 824.069 399.139 826.309 399.34 828.543L402.824 860.114C403.493 863.687 402.764 867.38 400.786 870.429C398.809 873.478 395.735 875.651 392.2 876.498C388.666 877.344 384.941 876.8 381.797 874.977C378.652 873.155 376.329 870.193 375.307 866.705L297.479 672.228" stroke="black" stroke-width="2.98" stroke-linecap="round" stroke-linejoin="round"/>
<path d="M544.415 535.013C548.973 549.369 555.7 562.762 590.946 563.427C666.05 543.508 590.593 459.213 560.554 511.886L559.349 511.181C556.458 508.782 552.731 507.63 548.99 507.979C545.249 508.328 541.8 510.148 539.402 513.04C537.003 515.932 535.851 519.658 536.2 523.399C536.549 527.14 538.369 530.589 541.261 532.988C542.235 533.799 543.314 534.472 544.47 534.991L544.415 535.013Z" fill="white" stroke="black" stroke-width="2.98" stroke-linecap="round" stroke-linejoin="round"/>
<path d="M560.514 511.785C560.514 511.785 582.136 526.629 578.094 532.371C574.051 538.114 566.827 539.934 561.412 535.993" stroke="black" stroke-width="2.98" stroke-linecap="round" stroke-linejoin="round"/>
<path d="M491.384 594.693C541.162 604.991 566.801 588.962 590.946 563.427C555.692 562.765 548.973 549.369 544.415 535.013C544.333 535.258 525.411 577.608 463.282 551.312" fill="#4D7CC1"/>
<path d="M491.384 594.693C541.162 604.991 566.801 588.962 590.946 563.427C555.692 562.765 548.973 549.369 544.415 535.013C544.333 535.258 525.411 577.608 463.282 551.312" stroke="black" stroke-width="2.98" stroke-linecap="round" stroke-linejoin="round"/>
<path d="M217.9 665.68C224.478 679.228 228.847 693.565 203.791 718.362C135.699 755.748 132.15 642.676 190.262 660.073L190.638 658.735C191.077 655.003 192.98 651.599 195.928 649.27C198.877 646.942 202.63 645.88 206.362 646.319C210.093 646.758 213.497 648.661 215.826 651.609C218.154 654.558 219.216 658.311 218.777 662.042C218.635 663.299 218.322 664.53 217.846 665.702L217.9 665.68Z" fill="white" stroke="black" stroke-width="2.98" stroke-linecap="round" stroke-linejoin="round"/>
<path d="M190.194 659.984C190.194 659.984 184.801 685.639 191.826 686.952C198.851 688.265 205.172 684.665 206.401 678.065" stroke="black" stroke-width="2.98" stroke-linecap="round" stroke-linejoin="round"/>
<path d="M287.862 621.544C261.008 683.419 218.116 665.848 217.888 665.727C224.465 679.276 228.835 693.612 203.779 718.409C239.041 720.202 268.449 714.042 297.546 672.211" fill="#4D7CC1"/>
<path d="M287.862 621.544C261.008 683.419 218.116 665.848 217.888 665.727C224.465 679.276 228.835 693.612 203.779 718.409C239.041 720.202 268.449 714.042 297.546 672.211" stroke="black" stroke-width="2.98" stroke-linecap="round" stroke-linejoin="round"/>
<path d="M292.651 619.628C289.777 626.915 286.253 633.928 282.121 640.584C320.596 659.731 362.349 663.805 400.414 648.571C438.48 633.338 465.898 601.593 480.538 561.179C472.705 559.196 465.087 556.445 457.794 552.966L292.651 619.628Z" fill="#4C70BF"/>
<path d="M397.095 646.635C504.026 603.842 556.06 482.427 513.256 375.468C470.453 268.51 349.052 216.512 242.094 259.316C135.135 302.119 83.1848 423.533 125.978 530.464C168.77 637.395 290.186 689.429 397.135 646.629L397.095 646.635Z" fill="#FCD700"/>
<mask id="mask0_702_6989" style="mask-type:luminance" maskUnits="userSpaceOnUse" x="110" y="244" width="419" height="418">
<path d="M397.095 646.635C504.026 603.842 556.06 482.427 513.256 375.468C470.453 268.51 349.052 216.512 242.094 259.316C135.135 302.119 83.1848 423.533 125.978 530.464C168.77 637.395 290.186 689.429 397.135 646.629L397.095 646.635Z" fill="white"/>
</mask>
<g mask="url(#mask0_702_6989)">
<path d="M391.199 250.159C404.917 247.211 419.082 246.996 432.883 249.523C446.685 252.051 459.854 257.273 471.637 264.891C483.42 272.509 493.587 282.374 501.557 293.921C509.528 305.469 515.145 318.474 518.088 332.193C530.475 389.879 486.377 412.32 428.69 424.707C371.004 437.093 321.562 434.709 309.186 377.05C306.238 363.333 306.022 349.17 308.548 335.369C311.074 321.568 316.294 308.4 323.91 296.617C331.526 284.834 341.388 274.666 352.934 266.695C364.479 258.724 377.482 253.104 391.199 250.159Z" fill="#F9BD00"/>
<path d="M127.947 355.509C115.983 362.84 105.58 372.455 97.3331 383.807C89.0858 395.159 83.1555 408.024 79.881 421.668C76.6066 435.312 76.0519 449.467 78.2489 463.325C80.4459 477.183 85.3513 490.473 92.6852 502.435C123.515 552.74 170.92 538.562 221.226 507.732C271.531 476.902 305.678 441.065 274.858 390.787C267.529 378.824 257.915 368.421 246.565 360.174C235.215 351.926 222.352 345.995 208.71 342.719C195.068 339.443 180.914 338.887 167.056 341.081C153.199 343.276 139.909 348.178 127.947 355.509Z" fill="#F9BD00"/>
<path d="M388.829 625.98C291.184 665.056 180.714 631.576 126.443 546.49C148.443 659.621 261.382 731.303 378.7 706.651C391.618 703.938 404.274 700.1 416.524 695.183C528.046 650.617 583.868 527.802 541.163 420.878C536.495 409.205 530.739 397.997 523.971 387.403C543.371 486.487 486.484 586.899 388.829 625.98Z" fill="#F9BD00"/>
</g>
<path d="M397.095 646.635C504.026 603.842 556.06 482.427 513.256 375.468C470.453 268.51 349.052 216.512 242.094 259.316C135.135 302.119 83.1848 423.533 125.978 530.464C168.77 637.395 290.186 689.429 397.135 646.629L397.095 646.635Z" stroke="black" stroke-width="2.98" stroke-linecap="round" stroke-linejoin="round"/>
<path d="M387.038 250.89C412.549 245.386 439.202 250.238 461.137 264.378C483.072 278.519 498.494 300.792 504.013 326.299C515.498 379.427 474.307 397.448 421.185 408.92C368.064 420.393 323.104 420.996 311.628 367.865C306.124 342.354 310.976 315.701 325.117 293.766C339.257 271.831 361.53 256.409 387.038 250.89Z" fill="white" stroke="black" stroke-width="2.98" stroke-linecap="round" stroke-linejoin="round"/>
<path d="M362.429 393.86C368.37 391.482 371.259 384.739 368.882 378.798C366.504 372.857 359.761 369.968 353.82 372.346C347.879 374.723 344.99 381.466 347.367 387.407C349.745 393.348 356.488 396.237 362.429 393.86Z" fill="black"/>
<path d="M131.381 353.202C109.116 366.817 93.1694 388.717 87.0459 414.086C80.9225 439.456 85.1236 466.219 98.7261 488.492C127.073 534.871 169.316 519.503 215.695 491.156C262.074 462.809 295.028 432.232 266.681 385.853C253.065 363.586 231.163 347.638 205.791 341.515C180.419 335.392 153.655 339.596 131.381 353.202Z" fill="white" stroke="black" stroke-width="2.98" stroke-linecap="round" stroke-linejoin="round"/>
<path d="M247.802 439.733C253.743 437.355 256.632 430.612 254.255 424.671C251.877 418.73 245.134 415.841 239.193 418.219C233.252 420.596 230.363 427.34 232.74 433.281C235.118 439.221 241.861 442.11 247.802 439.733Z" fill="black"/>
<path d="M64.1345 319.919C46.6387 331.416 32.1589 351.801 32.2818 376.457" stroke="black" stroke-width="2.98" stroke-linecap="round" stroke-linejoin="round"/>
<path d="M235.344 580.873C216.567 533.951 293.513 524.491 338.689 506.412L342.628 504.836C387.804 486.757 450.033 440.52 468.811 487.442C487.585 534.354 449.672 594.059 404.496 612.138L367.939 626.768C322.753 644.851 254.118 627.785 235.344 580.873Z" fill="black"/>
<mask id="mask1_702_6989" style="mask-type:luminance" maskUnits="userSpaceOnUse" x="232" y="467" width="242" height="167">
<path d="M235.344 580.873C216.567 533.951 293.513 524.491 338.689 506.412L342.628 504.836C387.804 486.757 450.033 440.52 468.811 487.442C487.585 534.354 449.672 594.059 404.496 612.138L367.939 626.768C322.753 644.851 254.118 627.785 235.344 580.873Z" fill="white"/>
</mask>
<g mask="url(#mask1_702_6989)">
<path d="M416.608 694.969C471.015 673.195 504.633 629.336 491.695 597.007C478.757 564.677 424.163 556.12 369.755 577.893C315.347 599.666 281.73 643.525 294.668 675.855C307.605 708.185 362.2 716.742 416.608 694.969Z" fill="#FF7BAC"/>
</g>
<path d="M235.344 580.873C216.567 533.951 293.513 524.491 338.689 506.412L342.628 504.836C387.804 486.757 450.033 440.52 468.811 487.442C487.585 534.354 449.672 594.059 404.496 612.138L367.939 626.768C322.753 644.851 254.118 627.785 235.344 580.873Z" stroke="black" stroke-width="2.98" stroke-linecap="round" stroke-linejoin="round"/>
<path d="M427.264 215.43C410.343 197.497 385.807 192.726 365.21 196.473" stroke="black" stroke-width="2.98" stroke-linecap="round" stroke-linejoin="round"/>
</svg>
