<svg width="1791" height="181" viewBox="0 0 1791 181" fill="none" xmlns="http://www.w3.org/2000/svg">
<mask id="mask0_702_6990" style="mask-type:alpha" maskUnits="userSpaceOnUse" x="0" y="0" width="1791" height="181">
<rect x="0.161133" y="0.125" width="1790" height="180" fill="#D9D9D9"/>
</mask>
<g mask="url(#mask0_702_6990)">
<path d="M0.161145 89.8974C0.161148 113.767 10.3902 136.659 28.5981 153.537C46.8059 170.415 71.5011 179.897 97.2508 179.897L164 179.897L164 -0.102561L97.2508 -0.102552C71.501 -0.102548 46.8059 9.37956 28.598 26.2578C10.3902 43.1361 0.161141 66.0279 0.161145 89.8974Z" fill="#FCD700"/>
<path d="M75.0451 117.607C75.0451 136.776 58.2817 152.315 37.6031 152.315C16.9245 152.315 0.16114 136.776 0.161137 117.607C0.161135 98.4387 16.9245 82.8994 37.6031 82.8994C58.2817 82.8994 75.0451 98.4387 75.0451 117.607Z" fill="white"/>
<path d="M123.393 127.522C123.393 146.691 106.629 162.23 85.9508 162.23C65.2721 162.23 48.5088 146.691 48.5088 127.522C48.5088 108.354 65.2721 92.8145 85.9508 92.8144C106.629 92.8144 123.393 108.354 123.393 127.522Z" fill="#FCD700"/>
<path d="M75.0451 62.1873C75.0451 81.3559 58.2817 96.8951 37.6031 96.8952C16.9245 96.8952 0.16114 81.3559 0.161137 62.1873C0.161135 43.0187 16.9245 27.4795 37.6031 27.4795C58.2817 27.4795 75.0451 43.0187 75.0451 62.1873Z" fill="white"/>
<path d="M123.393 52.2733C123.393 71.4419 106.629 86.9811 85.9508 86.9811C65.2721 86.9811 48.5088 71.4419 48.5088 52.2733C48.5088 33.1047 65.2721 17.5654 85.9508 17.5654C106.629 17.5654 123.393 33.1046 123.393 52.2733Z" fill="#FCD700"/>
<path d="M21.7809 108.987C21.7809 114.522 16.9412 119.008 10.971 119.008C5.00088 119.008 0.161135 114.522 0.161134 108.987C0.161133 103.453 5.00088 98.9668 10.971 98.9668C16.9412 98.9668 21.7809 103.453 21.7809 108.987Z" fill="#262626"/>
<path d="M21.7809 70.8067C21.7809 76.3408 16.9412 80.8272 10.971 80.8272C5.00088 80.8272 0.161135 76.3408 0.161134 70.8067C0.161133 65.2725 5.00088 60.7861 10.971 60.7861C16.9412 60.7861 21.7809 65.2725 21.7809 70.8067Z" fill="#262626"/>
<path d="M114.848 120.502L114.848 59.2935C114.848 52.2824 108.661 49.8525 101.097 49.8525L94.8543 49.8525C87.2908 49.8525 81.103 52.2824 81.103 59.2935L81.103 120.502C81.103 127.513 87.2908 129.943 94.8543 129.943L101.097 129.943C108.661 129.943 114.848 127.513 114.848 120.502Z" fill="#262626"/>
<mask id="mask1_702_6990" style="mask-type:luminance" maskUnits="userSpaceOnUse" x="81" y="49" width="34" height="81">
<path d="M114.848 120.501L114.848 59.2925C114.848 52.2814 108.661 49.8516 101.097 49.8516L94.8543 49.8516C87.2908 49.8516 81.103 52.2814 81.103 59.2925L81.103 120.501C81.103 127.512 87.2908 129.942 94.8543 129.942L101.097 129.942C108.661 129.942 114.848 127.512 114.848 120.501Z" fill="white"/>
</mask>
<g mask="url(#mask1_702_6990)">
<path d="M147.874 89.8965C147.874 109.91 138.21 126.135 126.289 126.135C114.368 126.135 104.704 109.91 104.704 89.8965C104.704 69.8828 114.368 53.6584 126.289 53.6584C138.21 53.6584 147.874 69.8828 147.874 89.8965Z" fill="#FF7BAC"/>
</g>
<rect width="1637.46" height="180" transform="matrix(-1 8.74418e-08 8.74037e-08 1 1790.16 -0.102539)" fill="#FCD700"/>
</g>
</svg>
