<svg width="255" height="281" viewBox="0 0 255 281" fill="none" xmlns="http://www.w3.org/2000/svg">
<path d="M158.07 60.3814C153.056 57.4168 147.5 55.4583 141.721 54.6178C135.942 53.7773 130.052 54.0712 124.387 55.4828C118.722 56.8944 113.394 59.3959 108.707 62.8447C104.02 66.2934 100.065 70.6217 97.0691 75.5825C72.53 116.321 39.4259 151.365 0 178.341V280.613C20.9069 270.184 40.9066 258.063 59.7951 244.375C105.696 211.153 144.348 169.108 173.436 120.758C176.439 115.797 178.423 110.298 179.276 104.578C180.129 98.8569 179.833 93.0259 178.406 87.4182C176.979 81.8106 174.448 76.5363 170.959 71.897C167.47 67.2578 163.09 63.3446 158.07 60.3814Z" fill="#FCD700"/>
<path d="M151.367 112.228C161.402 112.228 169.537 104.18 169.537 94.2532C169.537 84.3259 161.402 76.2783 151.367 76.2783C141.332 76.2783 133.197 84.3259 133.197 94.2532C133.197 104.18 141.332 112.228 151.367 112.228Z" fill="white"/>
<path d="M123.259 105.09C133.293 105.09 141.428 97.0422 141.428 87.115C141.428 77.1878 133.293 69.1401 123.259 69.1401C113.224 69.1401 105.089 77.1878 105.089 87.115C105.089 97.0422 113.224 105.09 123.259 105.09Z" fill="white"/>
<path d="M161.527 97.4049C164.424 97.4049 166.773 95.0814 166.773 92.2153C166.773 89.3491 164.424 87.0256 161.527 87.0256C158.63 87.0256 156.281 89.3491 156.281 92.2153C156.281 95.0814 158.63 97.4049 161.527 97.4049Z" fill="#262626"/>
<path d="M115.359 85.6635C118.256 85.6635 120.605 83.34 120.605 80.4738C120.605 77.6077 118.256 75.2842 115.359 75.2842C112.462 75.2842 110.113 77.6077 110.113 80.4738C110.113 83.34 112.462 85.6635 115.359 85.6635Z" fill="#262626"/>
<path d="M140.709 127.672C142.811 119.578 139.051 111.627 132.31 109.914C125.569 108.2 118.4 113.373 116.298 121.467C114.195 129.561 117.956 137.511 124.697 139.225C131.438 140.938 138.607 135.766 140.709 127.672Z" fill="#262626"/>
<mask id="mask0_264_3959" style="mask-type:luminance" maskUnits="userSpaceOnUse" x="115" y="109" width="27" height="31">
<path d="M140.709 127.672C142.811 119.578 139.051 111.627 132.31 109.914C125.569 108.2 118.4 113.373 116.298 121.467C114.195 129.561 117.956 137.511 124.697 139.225C131.438 140.938 138.607 135.766 140.709 127.672Z" fill="white"/>
</mask>
<g mask="url(#mask0_264_3959)">
<path d="M138.372 146.689C139.811 141.148 134.424 134.99 126.339 132.935C118.254 130.88 110.533 133.706 109.094 139.247C107.655 144.789 113.042 150.947 121.127 153.002C129.212 155.057 136.933 152.231 138.372 146.689Z" fill="#FF7BAC"/>
</g>
<path d="M58.4486 58.224C59.9761 58.6515 61.4032 59.079 62.8503 59.4469C64.2953 59.8681 65.8198 59.9498 67.3023 59.6855C67.7244 59.596 68.2269 59.5662 68.3676 58.8702C68.1565 58.7907 67.9455 58.6913 67.7244 58.6217L63.0614 57.1304C61.2051 56.5075 59.4537 55.6127 57.8657 54.4759C56.4905 53.5906 55.3418 52.4016 54.51 51.0025C53.6782 49.6034 53.186 48.0324 53.0721 46.4131C52.7636 42.9297 53.2407 39.422 54.469 36.1432C55.3926 33.2686 57.3528 30.8305 59.9761 29.2933C60.432 29.0574 60.8037 28.6887 61.0409 28.2371C61.2782 27.7855 61.3695 27.2727 61.3027 26.768C61.0949 23.5993 61.4348 20.4188 62.3076 17.3631C63.6036 12.6686 66.0869 8.37806 69.5233 4.89599C71.2348 3.10435 73.3842 1.77925 75.7641 1.0485C77.0056 0.6379 78.326 0.515438 79.6231 0.690592C80.4407 0.777152 81.2093 1.11847 81.818 1.66527C82.4267 2.21207 82.8441 2.93608 83.0098 3.7328C83.3066 5.00249 83.1869 6.3327 82.6681 7.53058C81.9647 9.33005 81.2009 11.1096 80.4371 12.9389C80.1069 13.0267 79.7712 13.0931 79.4322 13.1378C77.2048 13.3391 75.0526 14.0378 73.1378 15.1813C71.223 16.3248 69.5954 17.8832 68.3776 19.7392C66.5166 22.3376 65.4113 25.391 65.1818 28.5675C64.941 31.3263 65.7671 34.0727 67.4932 36.2526C68.1223 37.0741 68.8787 37.7921 69.7343 38.3801C70.5867 38.9672 71.5827 39.3175 72.6184 39.3945C73.6542 39.4714 74.6919 39.2722 75.6234 38.8175C76.8896 41.1042 78.5378 42.9335 81.221 43.1422L83.3415 47.3974C80.1155 48.6997 79.8241 48.8687 78.0252 50.9864C76.8407 52.1091 76.0219 53.5561 75.6736 55.142C76.1058 55.3707 76.2565 55.0327 76.4474 54.814C77.2615 53.8894 78.0453 52.935 78.8895 52.0402C79.8986 51.018 81.1647 50.2802 82.5576 49.9027C83.3906 49.6097 84.2767 49.4937 85.1581 49.5622C86.0394 49.6307 86.8963 49.8822 87.6728 50.3004C90.1675 51.5689 92.9102 52.2879 95.7125 52.408C97.7559 52.5244 99.7934 52.0952 101.612 51.1653C101.772 51.0957 101.883 50.9068 102.104 50.6682C101.887 50.5363 101.649 50.4421 101.401 50.3898C100.225 50.3898 99.059 50.4992 97.8832 50.4893C94.3381 50.4863 90.8768 49.4223 87.9542 47.4371C86.9947 46.7725 86.1206 45.9946 85.3514 45.1207C84.8348 44.4919 84.4814 43.7477 84.322 42.9528C84.1626 42.158 84.2021 41.3367 84.4369 40.5604C84.6717 39.7842 85.0948 39.0764 85.6693 38.4989C86.2438 37.9213 86.9523 37.4915 87.7331 37.2467C88.539 36.9961 89.3724 36.8425 90.2154 36.7894C93.5712 36.494 96.9233 37.3947 99.6671 39.3288C102.411 41.2629 104.366 44.1033 105.179 47.3377C105.675 49.2567 105.782 51.2535 105.496 53.2138C105.21 55.174 104.535 57.059 103.511 58.7609C102.977 59.6474 102.297 60.4402 101.501 61.1072C98.3556 63.9803 89.5923 67.2214 84.4168 66.7442C81.0075 66.525 77.7595 65.2286 75.151 63.0458L73.6838 61.823C73.2919 62.2703 73.6034 62.499 73.7541 62.7177C75.2931 65.0384 77.4538 66.8902 79.9949 68.0664C80.3048 68.1716 80.5748 68.368 80.7688 68.6292C80.9627 68.8904 81.0714 69.2039 81.0803 69.5279C81.1233 70.4266 81.0388 71.3268 80.8291 72.2022C80.6648 72.6357 80.3957 73.0227 80.0454 73.3294C79.695 73.6362 79.274 73.8534 78.8191 73.962C77.0887 74.5768 75.2051 74.6291 73.4426 74.1111C70.8423 73.4713 68.3622 72.4241 66.0963 71.0092C64.2141 69.8628 62.4444 68.5447 60.8103 67.0723C60.1381 66.4654 59.5226 65.7999 58.9712 65.0839C58.2942 64.1671 57.8604 63.0971 57.7094 61.9717C57.5584 60.8462 57.6951 59.7013 58.1069 58.6416C58.1471 58.5024 58.2878 58.4229 58.4486 58.224Z" fill="#FCD700"/>
<path d="M64.9002 114.873C60.3577 110.23 56.6896 105.219 54.7903 99.0652C53.7784 95.8476 53.2833 92.4928 53.323 89.1233C53.3958 83.889 54.3153 78.7 56.0465 73.7533C56.673 72.097 57.4221 70.4887 58.2875 68.9414C58.6398 69.1218 58.9759 69.3313 59.2925 69.5677C61.4903 71.5869 63.9265 73.336 66.5483 74.7773C67.4126 75.2346 68.3271 75.5925 69.2114 76.0001L70.4676 76.6265C70.1661 77.2926 69.935 77.8891 69.6235 78.4458C67.9217 81.6579 66.9575 85.2019 66.7995 88.8251C66.5605 93.8315 68.1158 98.7607 71.1912 102.744C71.563 103.261 71.955 103.738 72.3268 104.305C72.3268 104.305 72.3268 104.424 72.3268 104.493C71.6434 105.846 66.5684 112.914 64.9002 114.873Z" fill="#FCD700"/>
<path d="M95.6724 34.0852C96.6215 31.6921 97.7887 29.3893 99.1596 27.2054C100.379 25.2229 101.808 23.3733 103.421 21.6877C106.368 18.5282 110.332 16.4766 114.636 15.8817C115.867 15.6813 117.129 15.8083 118.294 16.2495C118.641 16.349 118.964 16.5181 119.242 16.7462C119.52 16.9744 119.748 17.2567 119.911 17.5756C120.074 17.8945 120.169 18.2433 120.19 18.6001C120.211 18.9569 120.157 19.3141 120.033 19.6496C119.561 21.2653 118.806 22.7864 117.802 24.1433C116.56 25.885 115.101 27.465 113.46 28.8458C112.576 29.6014 111.681 30.357 110.837 31.1623C108.332 33.4466 106.436 36.3087 105.32 39.4935C105.26 39.6725 105.149 39.8316 105.018 40.1099C104.789 40.0389 104.575 39.9278 104.385 39.7819C102.304 37.3666 99.5551 35.6046 96.4763 34.7115C96.2881 34.6532 96.1089 34.5696 95.9437 34.463C95.9437 34.463 95.8533 34.3636 95.6724 34.0852Z" fill="#FCD700"/>
<path d="M92.1346 33.9163C92.2451 32.4946 92.5366 31.2817 92.024 30.0986C91.9637 29.9594 91.7828 29.86 91.5216 29.6214L89.8935 33.8865C89.19 34.0257 88.4966 34.1549 87.8133 34.314C86 34.655 84.3606 35.6028 83.1703 36.9983C82.3249 38.1688 81.6955 39.4781 81.3112 40.8656C80.3903 40.7081 79.5641 40.2107 78.9998 39.4738C78.2147 38.5151 77.7292 37.3508 77.6029 36.1234C77.3339 34.1922 77.5799 32.2249 78.3164 30.4168C79.782 26.7921 82.4131 23.7455 85.8033 21.7475C88.0146 20.4637 90.604 19.9689 93.1395 20.3457C94.3147 20.4621 95.4311 20.9108 96.3554 21.6381C96.7919 21.9861 97.1715 22.3986 97.481 22.861C97.7067 23.1801 97.8277 23.5601 97.8277 23.9496C97.8277 24.3391 97.7067 24.7191 97.481 25.0382C96.8974 25.9674 96.3835 26.9377 95.9434 27.9412C95.0892 29.9296 94.3053 31.918 93.431 33.9859L92.1346 33.9163Z" fill="#FCD700"/>
<path d="M84.9994 19.0531C78.5375 23.1193 74.8594 28.6768 75.0704 36.4414C74.4265 36.6866 73.7274 36.7541 73.0477 36.6368C72.368 36.5194 71.7333 36.2217 71.2113 35.7753C70.1902 34.9587 69.3831 33.9107 68.8583 32.7201C68.3335 31.5294 68.1065 30.2312 68.1965 28.9353C68.2707 26.6344 68.9257 24.3884 70.1017 22.4019C71.2778 20.4154 72.9375 18.7515 74.9297 17.5618C76.5252 16.5309 78.4013 16.007 80.3062 16.0606C81.2983 16.0521 82.2712 16.3309 83.1051 16.8626C83.939 17.3944 84.5975 18.1558 84.9994 19.0531Z" fill="#FCD700"/>
<path d="M205.484 149.957C204.6 148.655 203.736 147.442 202.942 146.199C202.083 144.973 201.531 143.562 201.334 142.083C201.283 141.666 201.153 141.179 201.786 140.831C201.927 141 202.087 141.179 202.218 141.358L205.092 145.285C206.267 146.838 207.669 148.208 209.253 149.351C210.533 150.364 212.033 151.071 213.635 151.416C215.237 151.761 216.898 151.735 218.488 151.339C221.935 150.548 225.161 149.009 227.935 146.836C230.388 145.068 232.106 142.478 232.769 139.548C232.846 139.041 233.081 138.57 233.441 138.201C233.801 137.832 234.269 137.584 234.779 137.49C237.883 136.708 240.832 135.414 243.502 133.663C247.607 130.984 250.961 127.321 253.25 123.015C254.432 120.845 255.034 118.411 254.999 115.946C255.004 114.652 254.712 113.374 254.144 112.208C253.804 111.459 253.231 110.837 252.507 110.435C251.783 110.032 250.948 109.87 250.125 109.971C248.815 110.089 247.576 110.615 246.587 111.473C245.07 112.695 243.572 113.968 242.085 115.25C242.085 115.608 242.085 115.917 242.185 116.245C242.675 118.395 242.667 120.628 242.16 122.775C241.654 124.922 240.663 126.928 239.261 128.642C237.345 131.198 234.755 133.183 231.774 134.379C229.224 135.468 226.351 135.561 223.734 134.637C222.75 134.299 221.825 133.812 220.991 133.195C220.161 132.575 219.516 131.746 219.122 130.795C218.727 129.843 218.599 128.805 218.75 127.787C216.147 127.32 213.876 126.326 212.851 123.87L208.097 123.204C207.856 126.634 207.776 126.962 206.308 129.308C205.454 130.67 204.62 132.082 203.052 132.808C202.7 132.48 202.972 132.231 203.123 131.973C203.756 130.978 204.429 129.895 205.032 128.821C205.719 127.569 206.058 126.159 206.017 124.735C206.035 123.86 205.865 122.991 205.518 122.185C205.172 121.38 204.657 120.656 204.007 120.062C202.008 118.092 200.462 115.718 199.475 113.103C198.725 111.232 198.486 109.199 198.781 107.207C198.86 106.987 198.972 106.779 199.113 106.591C199.314 106.83 199.535 106.979 199.595 107.168C199.947 108.281 200.228 109.405 200.6 110.508C201.706 113.844 203.808 116.77 206.63 118.899C207.561 119.594 208.573 120.175 209.645 120.629C210.408 120.915 211.23 121.012 212.04 120.913C212.85 120.814 213.623 120.522 214.293 120.06C214.963 119.599 215.51 118.984 215.885 118.267C216.261 117.55 216.454 116.754 216.448 115.946C216.443 115.107 216.332 114.272 216.117 113.461C215.368 110.211 213.465 107.334 210.754 105.355C208.043 103.375 204.704 102.424 201.344 102.674C197.338 102.938 193.599 104.757 190.942 107.734C190.273 108.528 189.74 109.425 189.365 110.389C187.586 114.236 187.194 123.482 189.264 128.284C190.54 131.422 192.793 134.075 195.696 135.86C196.239 136.178 196.781 136.516 197.334 136.854C197.022 137.361 196.701 137.142 196.45 137.063C193.729 136.317 191.273 134.837 189.355 132.788C189.158 132.529 188.886 132.335 188.575 132.234C188.265 132.132 187.93 132.128 187.616 132.221C186.743 132.46 185.907 132.818 185.134 133.285C184.772 133.566 184.484 133.931 184.295 134.346C184.106 134.762 184.021 135.216 184.048 135.671C183.991 137.492 184.526 139.284 185.576 140.781C186.993 143.035 188.768 145.049 190.832 146.746C192.514 148.176 194.328 149.447 196.249 150.544C197.044 150.988 197.878 151.36 198.741 151.657C199.831 152.009 200.993 152.084 202.121 151.876C203.248 151.668 204.305 151.182 205.193 150.464C205.313 150.335 205.344 150.186 205.484 149.957Z" fill="#FCD700"/>
<path d="M149.045 161.52C154.914 164.343 160.874 166.242 167.376 166.113C170.772 166.067 174.139 165.493 177.355 164.413C182.36 162.72 187.059 160.246 191.274 157.086C192.681 155.98 194.004 154.773 195.233 153.477C194.951 153.209 194.649 152.964 194.329 152.741C191.705 151.303 189.265 149.557 187.063 147.541C186.36 146.875 185.737 146.12 185.053 145.424C184.752 145.106 184.43 144.798 184.048 144.43C183.495 144.927 183.043 145.324 182.561 145.782C180.005 148.383 176.899 150.393 173.466 151.667C168.727 153.457 163.5 153.527 158.713 151.866L156.854 151.28C156.804 151.28 156.733 151.28 156.673 151.28C155.658 152.333 150.412 159.313 149.045 161.52Z" fill="#FCD700"/>
<path d="M217.071 107.456C219.075 105.818 220.925 104.005 222.598 102.038C224.141 100.279 225.488 98.363 226.618 96.3211C228.739 92.5686 229.477 88.2045 228.709 83.9733C228.529 82.7559 228.014 81.6107 227.221 80.6627C227.02 80.3652 226.758 80.1123 226.452 79.9199C226.147 79.7274 225.804 79.5997 225.447 79.5446C225.089 79.4895 224.723 79.5082 224.373 79.5997C224.023 79.6912 223.696 79.8534 223.412 80.0761C222.009 81.025 220.785 82.2094 219.795 83.5757C218.505 85.2801 217.441 87.1411 216.629 89.1133C216.167 90.177 215.725 91.2607 215.212 92.3046C213.792 95.3676 211.631 98.0377 208.921 100.079C208.743 100.227 208.575 100.386 208.418 100.556C208.599 100.725 208.73 100.954 208.931 101.043C211.906 102.252 214.457 104.299 216.267 106.929C216.385 107.082 216.52 107.222 216.669 107.347C216.669 107.347 216.79 107.376 217.071 107.456Z" fill="#FCD700"/>
<path d="M218.368 110.737C219.704 110.19 220.79 109.534 222.076 109.643C222.237 109.643 222.378 109.802 222.699 109.971L219.081 112.805C219.162 113.501 219.252 114.197 219.322 114.893C219.558 116.701 219.153 118.535 218.177 120.082C217.64 120.81 217.023 121.477 216.338 122.071C215.925 122.43 215.488 122.762 215.031 123.065C215.465 123.865 216.18 124.481 217.041 124.795C218.207 125.24 219.48 125.333 220.699 125.063C222.638 124.725 224.451 123.884 225.955 122.627C228.991 120.13 231.11 116.713 231.985 112.904C232.553 110.424 232.24 107.826 231.101 105.547C230.625 104.477 229.847 103.565 228.859 102.923C228.371 102.605 227.835 102.367 227.272 102.217C226.896 102.1 226.493 102.1 226.117 102.217C225.741 102.334 225.411 102.563 225.171 102.873C224.458 103.708 223.685 104.492 222.86 105.219C221.252 106.631 219.594 107.983 217.835 109.454L218.368 110.737Z" fill="#FCD700"/>
<path d="M234.869 112.805C232.97 120.142 228.769 125.321 221.252 127.538C221.216 128.22 221.368 128.898 221.692 129.501C222.016 130.103 222.499 130.607 223.091 130.958C224.189 131.672 225.446 132.112 226.753 132.24C228.06 132.368 229.38 132.181 230.598 131.694C232.787 130.908 234.743 129.591 236.286 127.865C237.829 126.139 238.91 124.058 239.432 121.812C239.929 119.99 239.849 118.06 239.2 116.284C238.907 115.346 238.339 114.514 237.568 113.895C236.797 113.276 235.858 112.896 234.869 112.805Z" fill="#FCD700"/>
</svg>
