<svg width="849" height="873" viewBox="0 0 849 873" fill="none" xmlns="http://www.w3.org/2000/svg">
<path d="M769.341 566.174C661.08 727.491 442.544 770.501 281.227 662.24C119.91 553.978 61.0488 314.151 281.227 66.8469" stroke="#FCD700" stroke-width="133" stroke-linecap="round"/>
<path d="M784.698 580.326C796.591 589.928 814.016 588.07 823.618 576.177C833.22 564.284 831.362 546.859 819.469 537.257C807.576 527.655 790.151 529.513 780.549 541.406C770.947 553.299 772.805 570.724 784.698 580.326Z" fill="white"/>
<path d="M750.311 552.565C762.204 562.167 779.629 560.309 789.231 548.416C798.833 536.523 796.976 519.098 785.082 509.496C773.189 499.894 755.764 501.752 746.162 513.645C736.56 525.538 738.418 542.963 750.311 552.565Z" fill="white"/>
<path d="M812.456 568.563C815.89 571.335 820.921 570.799 823.693 567.365C826.465 563.932 825.929 558.901 822.495 556.129C819.061 553.357 814.031 553.893 811.258 557.327C808.486 560.76 809.023 565.791 812.456 568.563Z" fill="#262626"/>
<path d="M773.021 534.509C776.455 537.281 781.486 536.744 784.258 533.311C787.03 529.877 786.494 524.846 783.06 522.074C779.626 519.302 774.596 519.838 771.823 523.272C769.051 526.706 769.587 531.736 773.021 534.509Z" fill="#262626"/>
<path d="M736.408 604.963C744.658 611.624 757.899 608.905 765.983 598.892C774.067 588.878 773.933 575.362 765.684 568.701C757.434 562.041 744.193 564.759 736.108 574.773C728.024 584.786 728.158 598.303 736.408 604.963Z" fill="#262626"/>
<mask id="mask0_264_4649" style="mask-type:luminance" maskUnits="userSpaceOnUse" x="730" y="565" width="42" height="44">
<path d="M736.408 604.963C744.658 611.623 757.899 608.905 765.983 598.892C774.067 588.878 773.933 575.362 765.684 568.701C757.434 562.041 744.193 564.759 736.108 574.773C728.024 584.786 728.158 598.303 736.408 604.963Z" fill="white"/>
</mask>
<g mask="url(#mask0_264_4649)">
<path d="M722.652 622C732.548 629.99 745.058 630.908 750.593 624.052C756.128 617.196 752.593 605.161 742.697 597.172C732.802 589.182 720.292 588.264 714.757 595.12C709.221 601.976 712.756 614.011 722.652 622Z" fill="#FF7BAC"/>
</g>
<path d="M521.259 571.697C523.781 573.621 526.112 575.479 528.532 577.232C530.898 579.097 533.673 580.371 536.629 580.951C537.474 581.09 538.439 581.416 539.202 580.2C538.866 579.915 538.559 579.558 538.198 579.263L530.631 573.04C527.64 570.504 525.045 567.535 522.933 564.232C519.152 558.478 517.973 552.245 520.04 545.552C522.049 538.769 525.546 532.519 530.276 527.258C534.376 522.75 539.278 519.318 545.577 518.515C547.916 518.219 549.222 516.907 549.976 514.678C551.932 508.577 554.905 502.851 558.771 497.742C564.678 489.882 572.485 483.652 581.458 479.634C585.978 477.534 590.961 476.629 595.931 477.006C598.545 477.154 601.091 477.893 603.378 479.168C604.83 479.939 606.002 481.15 606.726 482.626C607.45 484.103 607.689 485.771 607.408 487.391C607.01 489.993 605.797 492.4 603.943 494.268C601.294 497.139 598.539 499.908 595.765 502.79C595.107 502.712 594.455 502.601 593.808 502.458C584.67 499.868 576.234 501.599 568.439 506.753C563.046 510.266 558.722 515.194 555.941 520.999C553.439 525.949 552.904 531.664 554.443 536.993C554.999 539 555.867 540.906 557.016 542.643C559.46 546.236 563.024 547.941 567.634 547.793C568.274 553.034 569.964 557.668 574.822 560.043L575.586 569.607C568.629 569.669 567.949 569.778 563.046 572.428C560.185 573.973 557.261 575.465 555.587 578.487C556.21 579.241 556.752 578.715 557.275 578.452C559.475 577.31 561.634 576.101 563.87 575.042C566.508 573.859 569.414 573.404 572.288 573.724C575.911 574.046 579.088 575.273 581.486 578.238C585.096 582.691 589.879 585.622 594.928 588.137C598.602 589.874 602.672 590.603 606.721 590.248C607.073 590.237 607.409 589.954 608.012 589.673C607.702 589.267 607.327 588.916 606.901 588.635C604.717 587.789 602.47 587.094 600.286 586.237C593.695 583.613 588.049 579.06 584.087 573.176C582.803 571.219 581.759 569.116 580.977 566.91C579.031 561.631 583 553.277 591.253 553.895C592.938 554.022 594.601 554.354 596.205 554.883C611.034 559.89 617.587 572.585 616.16 585.718C615.245 594.03 610.895 600.638 604.627 605.909C602.948 607.136 601.082 608.084 599.1 608.715C591.13 611.804 572.401 611.422 563.074 606.693C556.838 603.545 551.854 599.148 548.589 592.912C547.999 591.79 547.386 590.683 546.776 589.534C545.721 590.084 546.111 590.747 546.268 591.244C547.706 596.744 549.855 601.884 554.011 605.933C554.515 606.353 554.877 606.92 555.044 607.555C555.212 608.19 555.177 608.861 554.945 609.476C554.36 611.192 553.536 612.818 552.499 614.305C551.352 615.859 549.445 616.19 547.549 616.167C543.868 616.055 540.319 614.768 537.423 612.493C533.067 609.372 529.236 605.577 526.072 601.252C523.399 597.718 521.06 593.943 519.085 589.976C518.28 588.34 517.627 586.633 517.137 584.877C515.866 580.064 517.223 575.863 520.327 572.127C520.478 571.987 520.781 571.933 521.259 571.697Z" fill="#FCD700"/>
<path d="M491.069 682.901C486.085 670.829 482.996 658.705 484.038 645.749C484.559 638.98 486.127 632.333 488.684 626.044C492.721 616.266 498.292 607.194 505.187 599.172C507.587 596.497 510.181 594.002 512.949 591.71C513.453 592.308 513.913 592.942 514.327 593.606C516.904 599.033 520.136 604.124 523.95 608.766C525.207 610.249 526.638 611.591 527.983 613.01C528.586 613.65 529.151 614.321 529.854 615.121C528.791 616.146 527.914 617.093 526.933 617.921C521.373 622.698 516.939 628.647 513.95 635.341C509.542 644.844 509.207 654.707 511.737 664.762C512.05 666.022 512.39 667.274 512.702 668.535C512.729 668.643 512.642 668.783 512.605 668.902C510.344 670.849 495.608 680.477 491.069 682.901Z" fill="#FCD700"/>
<path d="M608.426 553.751C611.974 549.954 615.858 546.488 620.033 543.395C623.779 540.563 627.814 538.136 632.07 536.154C640.174 532.568 648.524 531.279 657.24 533.51C659.675 534.029 661.925 535.196 663.75 536.89C666.2 539.277 666.477 541.803 664.464 544.569C662.38 547.253 659.842 549.549 656.965 551.355C653.365 553.719 649.478 555.614 645.398 556.993C643.187 557.783 640.96 558.528 638.792 559.419C632.437 561.868 626.784 565.847 622.334 571.002C622.012 571.339 621.671 571.658 621.312 571.955C620.943 571.651 620.631 571.285 620.389 570.873C618.308 564.788 614.492 559.446 609.411 555.506C609.114 555.252 608.847 554.965 608.616 554.65C608.521 554.548 608.556 554.406 608.426 553.751Z" fill="#FCD700"/>
<path d="M601.965 550.83C603.24 548.24 604.685 546.158 604.617 543.574C604.608 543.256 604.339 542.943 604.043 542.295C601.897 544.65 599.915 546.823 597.827 549.109C596.422 548.859 595.045 548.602 593.648 548.381C589.936 547.823 586.306 548.128 583.021 550.009C581.5 551 580.088 552.149 578.808 553.437C578.051 554.221 577.346 555.053 576.696 555.927C575.108 554.945 573.949 553.4 573.45 551.601C572.696 549.221 572.662 546.671 573.35 544.271C574.282 540.448 576.199 536.937 578.913 534.088C584.323 528.334 591.484 524.532 599.28 523.272C604.348 522.441 609.547 523.386 613.998 525.947C616.101 527.029 617.849 528.692 619.032 530.74C619.6 531.755 620.01 532.85 620.249 533.988C620.442 534.75 620.395 535.554 620.114 536.289C619.834 537.024 619.333 537.655 618.682 538.096C616.911 539.413 615.235 540.854 613.667 542.407C610.626 545.437 607.7 548.586 604.528 551.922L601.965 550.83Z" fill="#FCD700"/>
<path d="M599.766 517.636C584.741 520.523 573.77 528.261 568.38 543C565.382 542.748 563.139 541.606 561.706 538.904C559.092 533.946 558.801 528.798 561.137 523.821C565.337 514.891 572.351 509.258 582.167 507.401C585.907 506.641 589.791 507.043 593.296 508.553C595.146 509.266 596.746 510.507 597.897 512.122C599.047 513.737 599.697 515.654 599.766 517.636Z" fill="#FCD700"/>
<path d="M627.509 843.022C627.872 839.871 628.15 836.903 628.567 833.944C628.865 830.946 629.872 828.063 631.505 825.532C631.991 824.827 632.426 823.905 633.831 824.199C633.803 824.639 633.847 825.108 633.809 825.572L633.043 835.34C632.794 839.253 633.133 843.182 634.047 846.995C635.568 853.709 639.241 858.882 645.495 862.035C651.775 865.294 658.702 867.11 665.773 867.353C671.864 867.526 677.737 866.377 682.684 862.395C684.52 860.917 686.371 860.887 688.5 861.889C694.251 864.712 700.438 866.542 706.8 867.302C716.558 868.499 726.461 867.198 735.58 863.521C740.227 861.722 744.336 858.76 747.512 854.919C749.218 852.934 750.452 850.587 751.12 848.056C751.572 846.474 751.513 844.791 750.952 843.245C750.39 841.699 749.354 840.37 747.993 839.448C745.843 837.931 743.267 837.135 740.636 837.174C736.731 837.091 732.825 837.154 728.825 837.154C728.425 837.681 728.051 838.228 727.706 838.793C723.233 847.172 716.134 852.048 707.015 854.088C700.743 855.535 694.195 855.231 688.084 853.208C682.783 851.576 678.295 847.998 675.524 843.193C674.465 841.4 673.694 839.452 673.24 837.42C672.347 833.167 673.591 829.418 676.895 826.199C673.564 822.103 671.399 817.671 673.058 812.524L666.699 805.34C661.828 810.308 661.278 810.723 655.968 812.415C652.871 813.405 649.768 814.476 646.43 813.586C646.32 812.614 647.074 812.588 647.626 812.394C649.975 811.602 652.343 810.885 654.657 810.009C657.339 808.93 659.683 807.152 661.445 804.86C663.727 802.027 665.046 798.888 664.575 795.103C663.872 789.414 665.078 783.936 666.768 778.554C668.065 774.703 670.364 771.265 673.428 768.595C673.681 768.35 674.117 768.304 674.738 768.065C674.816 768.569 674.808 769.083 674.715 769.585C673.809 771.744 672.752 773.845 671.854 776.013C669.172 782.581 668.535 789.805 670.025 796.741C670.544 799.023 671.335 801.234 672.381 803.328C674.833 808.391 683.605 811.327 688.884 804.954C689.961 803.652 690.875 802.224 691.607 800.701C698.287 786.547 693.688 773.02 683.239 764.939C676.617 759.832 668.84 758.382 660.695 759.24C658.647 759.598 656.669 760.285 654.84 761.274C647.086 764.873 634.37 778.628 631.307 788.627C629.248 795.302 628.958 801.943 631.186 808.62C631.584 809.823 631.957 811.033 632.361 812.269C631.233 812.648 631.026 811.907 630.777 811.449C627.813 806.599 625.601 801.485 625.567 795.683C625.615 795.028 625.457 794.374 625.116 793.813C624.774 793.252 624.267 792.811 623.663 792.552C622.021 791.783 620.279 791.248 618.488 790.964C616.573 790.712 615.012 791.856 613.714 793.239C611.241 795.967 609.706 799.416 609.335 803.08C608.563 808.383 608.638 813.775 609.559 819.054C610.251 823.431 611.347 827.734 612.834 831.908C613.454 833.623 614.231 835.277 615.155 836.849C617.741 841.103 621.708 843.039 626.553 843.395C626.758 843.383 627.007 843.203 627.509 843.022Z" fill="#FCD700"/>
<path d="M526.468 787.63C531.706 799.594 538.296 810.229 548.351 818.465C553.589 822.785 559.464 826.268 565.767 828.788C575.611 832.663 586.01 834.943 596.572 835.541C600.163 835.668 603.759 835.53 607.33 835.127C607.249 834.349 607.112 833.577 606.92 832.818C604.799 827.198 603.373 821.338 602.676 815.371C602.479 813.436 602.505 811.475 602.416 809.522C602.374 808.644 602.282 807.771 602.194 806.71C600.718 806.764 599.427 806.74 598.151 806.872C590.853 807.564 583.492 806.631 576.597 804.14C566.695 800.723 559.358 794.123 553.87 785.325C553.179 784.226 552.513 783.112 551.822 782.013C551.763 781.92 551.601 781.885 551.49 781.829C548.52 782.107 531.362 786.043 526.468 787.63Z" fill="#FCD700"/>
<path d="M700.901 792.685C706.096 792.763 711.287 792.37 716.411 791.508C721.049 790.774 725.596 789.552 729.976 787.86C738.18 784.511 744.902 779.39 749.34 771.565C750.656 769.451 751.375 767.021 751.422 764.531C751.401 761.11 749.774 759.159 746.385 758.69C743.007 758.329 739.592 758.564 736.296 759.385C732.096 760.337 728.035 761.823 724.211 763.805C722.108 764.85 720.027 765.937 717.881 766.881C711.709 769.759 704.922 771.071 698.121 770.701C697.655 770.699 697.189 770.724 696.726 770.776C696.689 771.252 696.736 771.732 696.865 772.192C699.805 777.911 701.006 784.365 700.319 790.759C700.296 791.148 700.318 791.54 700.384 791.924C700.392 792.064 700.518 792.137 700.901 792.685Z" fill="#FCD700"/>
<path d="M698.523 799.365C701.273 800.243 703.775 800.647 705.589 802.488C705.812 802.714 705.851 803.126 706.112 803.788C702.927 803.701 699.987 803.621 696.892 803.54C696.097 804.725 695.328 805.895 694.518 807.054C692.345 810.115 689.607 812.518 685.974 813.58C684.205 813.988 682.397 814.208 680.582 814.237C679.493 814.238 678.404 814.169 677.323 814.03C676.929 815.855 677.238 817.762 678.187 819.37C679.38 821.564 681.192 823.357 683.399 824.526C686.798 826.507 690.658 827.561 694.592 827.583C702.489 827.677 710.195 825.157 716.511 820.415C720.624 817.341 723.55 812.94 724.793 807.958C725.473 805.693 725.486 803.28 724.833 801.007C724.496 799.894 723.992 798.839 723.338 797.878C722.922 797.21 722.31 796.686 721.586 796.378C720.862 796.071 720.061 795.993 719.291 796.157C717.114 796.519 714.914 796.726 712.708 796.779C708.416 796.867 704.118 796.791 699.514 796.761L698.523 799.365Z" fill="#FCD700"/>
<path d="M720.906 823.973C708.405 832.793 695.221 835.328 680.866 828.987C678.967 831.321 678.234 833.728 679.187 836.636C680.944 841.958 684.451 845.738 689.656 847.508C699.001 850.677 707.925 849.532 716.071 843.75C719.213 841.583 721.617 838.507 722.961 834.934C723.731 833.107 723.947 831.094 723.582 829.145C723.217 827.196 722.286 825.398 720.906 823.973Z" fill="#FCD700"/>
</svg>
