<svg width="762" height="761" viewBox="0 0 762 761" fill="none" xmlns="http://www.w3.org/2000/svg">
<path d="M682.195 453.61C573.934 614.926 355.398 657.936 194.081 549.675C32.7643 441.414 -26.0972 201.587 194.081 -45.7175" stroke="#FCD700" stroke-width="133" stroke-linecap="round"/>
<path d="M697.552 467.762C709.445 477.364 726.87 475.506 736.472 463.613C746.074 451.72 744.216 434.295 732.323 424.693C720.43 415.091 703.005 416.948 693.403 428.842C683.801 440.735 685.659 458.16 697.552 467.762Z" fill="white"/>
<path d="M663.165 440C675.058 449.602 692.483 447.745 702.085 435.852C711.687 423.958 709.83 406.533 697.936 396.932C686.043 387.33 668.618 389.187 659.016 401.08C649.414 412.974 651.272 430.399 663.165 440Z" fill="white"/>
<path d="M725.31 455.999C728.744 458.771 733.775 458.235 736.547 454.801C739.319 451.367 738.783 446.336 735.349 443.564C731.915 440.792 726.885 441.328 724.112 444.762C721.34 448.196 721.877 453.227 725.31 455.999Z" fill="#262626"/>
<path d="M685.875 421.944C689.309 424.716 694.34 424.18 697.112 420.746C699.884 417.313 699.348 412.282 695.914 409.51C692.48 406.737 687.45 407.274 684.677 410.707C681.905 414.141 682.441 419.172 685.875 421.944Z" fill="#262626"/>
<path d="M649.262 492.399C657.512 499.059 670.753 496.341 678.837 486.327C686.921 476.314 686.787 462.797 678.538 456.137C670.288 449.476 657.047 452.195 648.962 462.208C640.878 472.222 641.012 485.738 649.262 492.399Z" fill="#262626"/>
<mask id="mask0_264_4649" style="mask-type:luminance" maskUnits="userSpaceOnUse" x="642" y="452" width="43" height="45">
<path d="M649.262 492.399C657.512 499.059 670.753 496.341 678.837 486.327C686.921 476.314 686.787 462.797 678.538 456.137C670.288 449.476 657.047 452.195 648.962 462.208C640.878 472.222 641.012 485.738 649.262 492.399Z" fill="white"/>
</mask>
<g mask="url(#mask0_264_4649)">
<path d="M635.506 509.436C645.402 517.425 657.912 518.344 663.447 511.487C668.982 504.631 665.447 492.596 655.551 484.607C645.656 476.618 633.146 475.699 627.611 482.555C622.075 489.412 625.61 501.446 635.506 509.436Z" fill="#FF7BAC"/>
</g>
<path d="M434.113 459.132C436.635 461.056 438.966 462.915 441.386 464.668C443.752 466.532 446.527 467.807 449.483 468.386C450.328 468.525 451.293 468.851 452.056 467.636C451.72 467.351 451.413 466.994 451.052 466.699L443.485 460.475C440.494 457.94 437.899 454.971 435.787 451.667C432.006 445.914 430.827 439.68 432.894 432.988C434.903 426.205 438.4 419.955 443.13 414.694C447.23 410.186 452.132 406.753 458.431 405.951C460.77 405.654 462.076 404.342 462.83 402.114C464.786 396.013 467.759 390.286 471.625 385.178C477.532 377.318 485.339 371.087 494.312 367.069C498.832 364.97 503.815 364.065 508.785 364.442C511.399 364.59 513.945 365.329 516.232 366.603C517.684 367.375 518.856 368.585 519.58 370.062C520.304 371.539 520.543 373.206 520.262 374.827C519.864 377.428 518.651 379.836 516.797 381.704C514.148 384.574 511.393 387.344 508.619 390.225C507.961 390.147 507.309 390.037 506.662 389.894C497.524 387.304 489.088 389.035 481.293 394.188C475.9 397.701 471.576 402.63 468.795 408.435C466.293 413.385 465.758 419.099 467.297 424.429C467.853 426.435 468.721 428.342 469.87 430.078C472.314 433.671 475.878 435.376 480.488 435.229C481.128 440.47 482.818 445.104 487.676 447.478L488.44 457.042C481.483 457.105 480.803 457.213 475.9 459.864C473.039 461.408 470.115 462.9 468.441 465.923C469.064 466.676 469.606 466.151 470.129 465.888C472.329 464.745 474.488 463.537 476.724 462.478C479.362 461.294 482.268 460.839 485.142 461.16C488.765 461.481 491.942 462.708 494.34 465.674C497.95 470.126 502.733 473.057 507.782 475.573C511.456 477.31 515.526 478.039 519.575 477.684C519.927 477.672 520.263 477.39 520.866 477.108C520.556 476.702 520.181 476.352 519.755 476.07C517.571 475.225 515.324 474.529 513.14 473.672C506.549 471.048 500.903 466.496 496.941 460.611C495.657 458.655 494.613 456.551 493.831 454.345C491.885 449.067 495.854 440.712 504.107 441.33C505.792 441.458 507.455 441.79 509.059 442.319C523.888 447.325 530.441 460.021 529.014 473.154C528.099 481.465 523.749 488.073 517.481 493.344C515.802 494.572 513.936 495.52 511.954 496.151C503.984 499.24 485.255 498.858 475.928 494.128C469.692 490.981 464.708 486.583 461.443 480.347C460.853 479.226 460.24 478.118 459.63 476.969C458.575 477.519 458.965 478.182 459.122 478.679C460.56 484.179 462.709 489.32 466.865 493.368C467.369 493.789 467.731 494.356 467.898 494.991C468.066 495.626 468.031 496.297 467.799 496.911C467.214 498.628 466.39 500.254 465.353 501.741C464.206 503.295 462.299 503.626 460.403 503.602C456.722 503.491 453.173 502.203 450.277 499.929C445.921 496.807 442.09 493.013 438.926 488.688C436.253 485.153 433.914 481.378 431.939 477.412C431.134 475.776 430.481 474.069 429.991 472.313C428.72 467.5 430.077 463.299 433.181 459.562C433.332 459.422 433.635 459.369 434.113 459.132Z" fill="#FCD700"/>
<path d="M403.923 570.337C398.939 558.265 395.85 546.141 396.892 533.185C397.413 526.416 398.981 519.769 401.538 513.48C405.575 503.702 411.146 494.63 418.041 486.607C420.441 483.932 423.035 481.438 425.803 479.145C426.307 479.743 426.767 480.377 427.181 481.042C429.758 486.469 432.99 491.56 436.804 496.201C438.061 497.685 439.492 499.027 440.837 500.445C441.44 501.085 442.005 501.757 442.708 502.556C441.645 503.582 440.768 504.529 439.787 505.357C434.227 510.133 429.793 516.083 426.804 522.777C422.396 532.279 422.061 542.142 424.591 552.198C424.904 553.458 425.244 554.71 425.556 555.97C425.583 556.078 425.496 556.218 425.459 556.337C423.198 558.284 408.462 567.913 403.923 570.337Z" fill="#FCD700"/>
<path d="M521.28 441.186C524.828 437.39 528.713 433.924 532.887 430.83C536.633 427.999 540.668 425.572 544.924 423.59C553.028 420.004 561.378 418.714 570.094 420.945C572.529 421.464 574.779 422.632 576.604 424.325C579.054 426.713 579.331 429.238 577.318 432.005C575.234 434.688 572.696 436.985 569.819 438.791C566.219 441.155 562.332 443.049 558.252 444.428C556.041 445.218 553.814 445.963 551.646 446.854C545.291 449.304 539.638 453.282 535.188 458.438C534.866 458.775 534.525 459.093 534.166 459.391C533.797 459.087 533.485 458.72 533.243 458.308C531.162 452.224 527.346 446.882 522.265 442.941C521.968 442.687 521.701 442.4 521.47 442.086C521.375 441.983 521.41 441.842 521.28 441.186Z" fill="#FCD700"/>
<path d="M514.819 438.266C516.094 435.676 517.539 433.593 517.471 431.01C517.462 430.692 517.193 430.378 516.897 429.731C514.751 432.085 512.769 434.258 510.681 436.544C509.276 436.295 507.899 436.037 506.502 435.816C502.79 435.259 499.16 435.563 495.875 437.444C494.354 438.435 492.942 439.585 491.662 440.872C490.905 441.656 490.2 442.488 489.55 443.363C487.962 442.381 486.803 440.836 486.304 439.037C485.55 436.656 485.516 434.106 486.204 431.706C487.136 427.884 489.053 424.372 491.767 421.523C497.177 415.77 504.338 411.967 512.134 410.707C517.202 409.877 522.401 410.822 526.852 413.382C528.955 414.464 530.703 416.128 531.886 418.175C532.454 419.19 532.864 420.285 533.103 421.423C533.296 422.186 533.249 422.99 532.968 423.725C532.688 424.46 532.187 425.091 531.536 425.531C529.765 426.849 528.089 428.289 526.521 429.842C523.48 432.873 520.554 436.021 517.382 439.358L514.819 438.266Z" fill="#FCD700"/>
<path d="M512.62 405.072C497.595 407.959 486.624 415.697 481.234 430.435C478.236 430.184 475.993 429.042 474.56 426.339C471.946 421.382 471.655 416.233 473.991 411.257C478.191 402.327 485.205 396.693 495.021 394.837C498.761 394.077 502.645 394.479 506.15 395.989C508 396.701 509.601 397.942 510.751 399.557C511.901 401.172 512.551 403.09 512.62 405.072Z" fill="#FCD700"/>
<path d="M540.363 730.458C540.726 727.307 541.004 724.339 541.421 721.379C541.719 718.382 542.726 715.499 544.359 712.968C544.845 712.262 545.28 711.341 546.685 711.635C546.657 712.075 546.701 712.544 546.663 713.008L545.897 722.775C545.648 726.689 545.987 730.617 546.901 734.43C548.423 741.144 552.095 746.318 558.349 749.471C564.629 752.729 571.556 754.546 578.627 754.788C584.718 754.962 590.591 753.812 595.538 749.831C597.374 748.352 599.225 748.322 601.354 749.324C607.105 752.148 613.292 753.978 619.654 754.737C629.412 755.934 639.315 754.633 648.434 750.957C653.081 749.158 657.19 746.196 660.366 742.355C662.072 740.369 663.306 738.023 663.974 735.491C664.426 733.91 664.367 732.226 663.806 730.68C663.244 729.135 662.208 727.806 660.847 726.884C658.697 725.366 656.121 724.57 653.49 724.61C649.585 724.526 645.679 724.589 641.679 724.59C641.279 725.117 640.905 725.664 640.56 726.228C636.087 734.608 628.988 739.484 619.869 741.523C613.597 742.971 607.049 742.666 600.938 740.643C595.637 739.012 591.149 735.433 588.378 730.628C587.319 728.836 586.548 726.888 586.094 724.856C585.201 720.603 586.445 716.853 589.749 713.635C586.418 709.538 584.253 705.106 585.912 699.96L579.553 692.776C574.682 697.743 574.132 698.158 568.822 699.851C565.725 700.841 562.622 701.912 559.284 701.021C559.174 700.049 559.928 700.023 560.48 699.829C562.829 699.037 565.197 698.32 567.511 697.444C570.193 696.365 572.537 694.587 574.299 692.295C576.581 689.462 577.901 686.323 577.429 682.538C576.726 676.85 577.932 671.372 579.622 665.99C580.919 662.138 583.218 658.701 586.282 656.031C586.535 655.785 586.971 655.739 587.592 655.5C587.67 656.005 587.662 656.519 587.569 657.021C586.663 659.18 585.606 661.281 584.708 663.449C582.026 670.017 581.389 677.241 582.879 684.176C583.398 686.458 584.189 688.67 585.235 690.763C587.687 695.827 596.459 698.763 601.738 692.39C602.815 691.088 603.729 689.66 604.461 688.137C611.141 673.983 606.542 660.456 596.093 652.374C589.471 647.268 581.694 645.818 573.549 646.676C571.501 647.034 569.523 647.721 567.694 648.71C559.94 652.309 547.224 666.064 544.161 676.063C542.102 682.738 541.812 689.378 544.04 696.056C544.438 697.259 544.811 698.468 545.215 699.705C544.087 700.083 543.88 699.342 543.631 698.885C540.667 694.034 538.455 688.92 538.421 683.118C538.469 682.463 538.311 681.81 537.97 681.249C537.628 680.687 537.121 680.247 536.517 679.988C534.875 679.218 533.133 678.684 531.342 678.4C529.427 678.148 527.866 679.292 526.568 680.674C524.095 683.403 522.56 686.852 522.189 690.516C521.417 695.818 521.492 701.21 522.413 706.489C523.105 710.866 524.201 715.169 525.688 719.344C526.308 721.058 527.085 722.713 528.009 724.284C530.595 728.538 534.562 730.475 539.407 730.831C539.612 730.819 539.861 730.638 540.363 730.458Z" fill="#FCD700"/>
<path d="M439.322 675.066C444.56 687.03 451.15 697.665 461.205 705.901C466.443 710.221 472.318 713.703 478.621 716.223C488.465 720.098 498.864 722.378 509.426 722.977C513.017 723.104 516.613 722.965 520.184 722.562C520.103 721.784 519.966 721.013 519.774 720.254C517.653 714.633 516.227 708.774 515.53 702.807C515.333 700.872 515.359 698.91 515.27 696.958C515.228 696.08 515.136 695.207 515.048 694.146C513.572 694.2 512.281 694.175 511.005 694.307C503.707 694.999 496.346 694.066 489.451 691.576C479.549 688.159 472.212 681.559 466.724 672.761C466.033 671.662 465.367 670.548 464.676 669.449C464.617 669.355 464.455 669.32 464.344 669.264C461.374 669.542 444.216 673.478 439.322 675.066Z" fill="#FCD700"/>
<path d="M613.755 680.121C618.95 680.199 624.141 679.805 629.265 678.944C633.903 678.21 638.45 676.987 642.83 675.296C651.034 671.946 657.756 666.826 662.194 659.001C663.51 656.887 664.229 654.456 664.276 651.967C664.255 648.546 662.628 646.594 659.239 646.126C655.861 645.765 652.446 646 649.15 646.82C644.95 647.773 640.889 649.258 637.065 651.241C634.962 652.286 632.881 653.373 630.735 654.316C624.563 657.195 617.776 658.507 610.975 658.136C610.509 658.134 610.043 658.159 609.58 658.211C609.543 658.688 609.59 659.167 609.719 659.627C612.659 665.346 613.86 671.801 613.173 678.194C613.15 678.584 613.172 678.975 613.238 679.36C613.246 679.5 613.372 679.573 613.755 680.121Z" fill="#FCD700"/>
<path d="M611.377 686.8C614.127 687.678 616.629 688.082 618.443 689.923C618.666 690.15 618.705 690.561 618.966 691.224C615.781 691.137 612.841 691.057 609.746 690.975C608.951 692.16 608.182 693.33 607.372 694.49C605.199 697.55 602.461 699.954 598.828 701.016C597.059 701.424 595.251 701.644 593.436 701.672C592.347 701.674 591.258 701.605 590.177 701.466C589.783 703.291 590.092 705.198 591.041 706.805C592.234 708.999 594.046 710.793 596.253 711.962C599.652 713.942 603.512 714.997 607.446 715.019C615.343 715.112 623.049 712.592 629.365 707.851C633.478 704.776 636.404 700.376 637.647 695.393C638.327 693.128 638.34 690.715 637.687 688.443C637.35 687.33 636.846 686.275 636.192 685.313C635.776 684.645 635.164 684.122 634.44 683.814C633.716 683.506 632.915 683.429 632.145 683.593C629.968 683.954 627.768 684.162 625.562 684.214C621.27 684.302 616.972 684.226 612.368 684.197L611.377 686.8Z" fill="#FCD700"/>
<path d="M633.76 711.409C621.259 720.229 608.075 722.764 593.72 716.423C591.821 718.756 591.088 721.164 592.041 724.071C593.798 729.393 597.305 733.174 602.51 734.943C611.855 738.112 620.779 736.968 628.925 731.185C632.067 729.018 634.471 725.942 635.815 722.37C636.585 720.543 636.801 718.529 636.436 716.581C636.071 714.632 635.14 712.833 633.76 711.409Z" fill="#FCD700"/>
</svg>
